<?xml version="1.0" encoding="utf-8"?>
<!-- Generator: Adobe Illustrator 28.2.0, SVG Export Plug-In . SVG Version: 6.00 Build 0)  -->
<svg version="1.1" id="_레이어_2" xmlns="http://www.w3.org/2000/svg" xmlns:xlink="http://www.w3.org/1999/xlink" x="0px"
	 y="0px" viewBox="0 0 1000 750" style="enable-background:new 0 0 1000 750;" xml:space="preserve">
<style type="text/css">
	.st0{clip-path:url(#SVGID_00000121250672378151125040000011095337865023559571_);}
	.st1{fill:#3B8559;}
	.st2{fill:#231815;}
	.st3{stroke:#000000;stroke-width:0.2625;stroke-miterlimit:10;}
</style>
<g>
	<defs>
		<rect id="SVGID_1_" x="0" y="0" width="1000" height="750"/>
	</defs>
	<clipPath id="SVGID_00000086650794026184040540000011838951008664194458_">
		<use xlink:href="#SVGID_1_"  style="overflow:visible;"/>
	</clipPath>
	<g style="clip-path:url(#SVGID_00000086650794026184040540000011838951008664194458_);">
		<path class="st1" d="M565.6,645.5H434.4c-19.9,0-36-16.1-36-36V-822.7c0-19.9,16.1-36,36-36h131.2c19.9,0,36,16.1,36,36V609.5
			C601.6,629.3,585.5,645.5,565.6,645.5z"/>
		<g>
			<g>
				<path class="st2" d="M448.1,523.1c-1.9,0-3.6,0.8-4.8,2.2c-1-1.5-2.5-2.2-4.3-2.2c-1.6,0-3,0.6-4,1.7v-1.5h-3.1v16.9h3.1v-10.8
					c0-2,1.3-3.3,3.2-3.3c1.9,0,3,1.3,3,3.3v10.8h3.1v-10.8c0-2,1.3-3.3,3.2-3.3c1.9,0,3,1.2,3,3.3v10.8h3.1V529
					C453.6,525.4,451.5,523.1,448.1,523.1z"/>
				<path class="st2" d="M561.7,540.4c3.4,0,5.7-2.3,5.7-5.5c0-3.9-3-4.8-4.6-5.3c-1.6-0.5-2.6-0.9-2.6-2.1c0-0.8,0.5-1.5,1.6-1.5
					c1.3,0,1.9,1.5,1.9,1.5l2.1-2.1c0,0-1.1-2.3-4-2.3c-2.7,0-4.7,1.9-4.7,4.5c0,3,2.3,3.9,3.9,4.4c1.5,0.5,3.2,0.8,3.2,3
					c0,1.5-1,2.5-2.6,2.5c-2.3,0-2.9-2.2-2.8-3.3h-3C555.8,535.6,556.4,540.4,561.7,540.4z"/>
			</g>
			<path class="st2" d="M471.3,559.1c-4.9,0-8.5,3.7-8.5,8.6s3.7,8.6,8.5,8.6c4.9,0,8.5-3.7,8.5-8.6S476.2,559.1,471.3,559.1z
				 M476.7,567.7c0,3.3-2.2,5.7-5.4,5.7c-3.2,0-5.4-2.3-5.4-5.7c0-3.3,2.2-5.7,5.4-5.7C474.5,562,476.7,564.4,476.7,567.7z"/>
			<path class="st2" d="M443,573.4c-3.2,0-5.4-2.4-5.4-5.7s2.2-5.7,5.4-5.7c2.7,0,4,1.9,4,1.9l2.3-2c0,0-2-2.8-6.3-2.8
				c-4.9,0-8.5,3.7-8.5,8.6s3.7,8.6,8.5,8.6c5.4,0,8-4.2,8.5-7.6h-3.2C448,570.6,446.8,573.4,443,573.4z"/>
			<path class="st2" d="M531.8,573.4c-3.1,0-5.4-2.1-5.4-4.8h13.4c0.6-4.5-2.5-9.5-8.1-9.5c-4.8,0-8.5,3.7-8.5,8.6s3.1,8.6,8.6,8.6
				 M531.8,573.4c2.7,0,4.1-1.9,4.1-1.9l2.3,2c0,0-2.1,2.8-6.4,2.8 M526.5,565.8c0.6-2.3,2.6-3.8,5.1-3.8c2.4,0,4.3,1.6,4.8,3.8
				H526.5z"/>
			<path class="st2" d="M560.1,573.4c-3.1,0-5.4-2.1-5.4-4.8H568c0.6-4.5-2.5-9.5-8.1-9.5c-4.8,0-8.5,3.7-8.5,8.6s3.1,8.6,8.6,8.6
				 M560.1,573.4c2.7,0,4.1-1.9,4.1-1.9l2.3,2c0,0-2.1,2.8-6.4,2.8 M554.8,565.8c0.6-2.3,2.6-3.8,5.1-3.8c2.4,0,4.3,1.6,4.8,3.8
				H554.8z"/>
			<path class="st2" d="M472.8,523.1c-4.9,0-8.5,3.7-8.5,8.6c0,4.9,3.7,8.6,8.5,8.6c4.9,0,8.5-3.7,8.5-8.6
				C481.3,526.8,477.7,523.1,472.8,523.1z M478.2,531.8c0,3.3-2.2,5.7-5.4,5.7c-3.2,0-5.4-2.3-5.4-5.7c0-3.3,2.2-5.7,5.4-5.7
				C476,526.1,478.2,528.4,478.2,531.8z"/>
			<path class="st2" d="M509.1,523.1c-1.9,0-3.6,0.8-4.8,2.2c-1-1.5-2.5-2.2-4.3-2.2c-1.6,0-3,0.6-4,1.7v-1.5h-3.1v16.9h3.1v-10.8
				c0-2,1.3-3.3,3.2-3.3c1.9,0,3,1.3,3,3.3v10.8h3.1v-10.8c0-2,1.3-3.3,3.2-3.3c1.9,0,3,1.2,3,3.3v10.8h3.1V529
				C514.6,525.4,512.5,523.1,509.1,523.1z"/>
			<path class="st2" d="M534.7,523.1c-4.9,0-8.5,3.7-8.5,8.6c0,4.9,3.7,8.6,8.5,8.6c4.9,0,8.5-3.7,8.5-8.6
				C543.2,526.8,539.6,523.1,534.7,523.1z M540.1,531.8c0,3.3-2.2,5.7-5.4,5.7s-5.4-2.3-5.4-5.7c0-3.3,2.2-5.7,5.4-5.7
				S540.1,528.4,540.1,531.8z"/>
			<path class="st2" d="M507.2,558.9c0-0.5,0.2-1.4,1.3-1.4c1.1,0,1.5,1,1.5,1l2-2.2c0,0-0.9-1.7-3.7-1.7l0,0l0,0l0,0l0,0
				c-2.5,0-4.2,1.7-4.2,4.2v2.5h-6.4v-2.4c0-0.4,0.1-1.4,1.3-1.4c1.1,0,1.5,1,1.5,1l2-2.2c0,0-0.9-1.7-3.7-1.7
				c-2.5,0-4.2,1.7-4.2,4.2v2.5h-2.9v2.9h2.9v14h3.1v-14h6.4v14h3.1v-14h4.6v-2.9h-4.6V558.9z"/>
		</g>
	</g>
	<g style="clip-path:url(#SVGID_00000086650794026184040540000011838951008664194458_);">
		<path class="st3" d="M274,147.1c0-16.5,11.4-27.5,28-27.5c8.8,0,14.5,2.4,19.1,5.9v10c-4.6-7.1-10.6-11-19.1-11
			c-11.8,0-19.6,8.5-19.6,22.6c0,14,7.8,22.4,19,22.4c5.7,0,10.3-2.5,12.3-4.9v-13.3h-18l2.2-5.2h26c-2.4,4-2.4,4-2.4,6v14.4
			c-4.7,4.7-12.1,7.9-20.7,7.9C284.9,174.3,274,164,274,147.1z"/>
		<path class="st3" d="M333.6,153.3v-26.7c0-1.9,0-1.9-2.3-5.9h13c-2.8,4.1-2.8,4.1-2.8,6.1v26.9c0,9.4,5.4,15.1,14.2,15.1
			c8.5,0,13.7-5.8,13.7-15.1v-27.1c0-1.9,0-1.9-2.9-5.9h10.7c-2.3,4.1-2.3,4.1-2.3,6.1v26.3c0,13.6-7.5,21.2-20.5,21.2
			C341.3,174.3,333.6,166.9,333.6,153.3z"/>
		<path class="st3" d="M383,165.5l18.6-45h5.2l18.7,45.2c1.6,3.7,1.6,3.7,3.7,7.5h-13.3c2.4-4.3,2.4-4.3,1.3-7l-3.4-8.6h-21.9
			l-3.4,8.6c-1.2,3.1-1.2,3.1,1.2,7h-10.4C381.5,169.2,381.5,169.2,383,165.5z M411.9,152.9l-9.1-23l-9.1,23H411.9z"/>
		<path class="st3" d="M426.6,120.7h42.3v10.1c-4.6-5.2-6.1-5.2-8.8-5.2h-8.5v41.8c0,1.9,0,1.9,2.8,5.8h-13.8
			c3.1-4.2,3.1-4.2,3.1-6.1v-41.5h-8.5c-2.6,0-4.2,0-8.7,5.2V120.7z"/>
		<path class="st3" d="M478.3,167.2v-40.6c0-1.9,0-1.9-2.3-5.9h34.8v9.1c-4.7-4.4-6.3-4.4-8.9-4.4h-15.7v17.7H499
			c2.4,0,3.7,0,7.6-2.9v10.5c-3.9-2.9-5.2-2.9-7.6-2.9h-12.8v20.6h14.4c2.9,0,4.6,0,10.9-5l-1.2,9.7H476
			C478.3,169.2,478.3,169.2,478.3,167.2z"/>
		<path class="st3" d="M522.1,167.2v-40.6c0-1.9,0-1.9-2.3-5.9h9.6l18.7,28.6l18.6-28.6h9.3c-2.3,4-2.3,4-2.3,6v40.6
			c0,1.9,0,1.9,2.3,5.8h-13.4c3.3-4.2,3.3-4.2,3.3-6.2v-36.1l-19.2,30.1l-19.2-30v36.2c0,2,0,2,2.9,5.9h-10.5
			C522.1,169.2,522.1,169.2,522.1,167.2z"/>
		<path class="st3" d="M586.6,165.5l18.6-45h5.2l18.7,45.2c1.6,3.7,1.6,3.7,3.7,7.5h-13.3c2.4-4.3,2.4-4.3,1.3-7l-3.4-8.6h-21.9
			l-3.4,8.6c-1.2,3.1-1.2,3.1,1.2,7h-10.4C585.1,169.2,585.1,169.2,586.6,165.5z M615.5,152.9l-9.1-23l-9.1,23H615.5z"/>
		<path class="st3" d="M641.9,167.2v-40.6c0-1.9,0-1.9-2.3-5.9h12.6c-2.4,4-2.4,4-2.4,6v41.6h12.9c3.1,0,4.9,0,11.4-5.6l-1.2,10.5
			h-33.3C641.9,169.2,641.9,169.2,641.9,167.2z"/>
		<path class="st3" d="M682.6,165.5l18.6-45h5.2l18.7,45.2c1.6,3.7,1.6,3.7,3.7,7.5h-13.3c2.4-4.3,2.4-4.3,1.3-7l-3.4-8.6h-21.9
			l-3.4,8.6c-1.2,3.1-1.2,3.1,1.2,7h-10.4C681.1,169.2,681.1,169.2,682.6,165.5z M711.5,152.9l-9.1-23l-9.1,23H711.5z"/>
		<path class="st3" d="M294.3,250.5l18.6-45h5.2l18.7,45.2c1.6,3.7,1.6,3.7,3.7,7.5h-13.3c2.4-4.3,2.4-4.3,1.3-7l-3.4-8.6h-21.9
			l-3.4,8.6c-1.2,3.1-1.2,3.1,1.2,7h-10.4C292.8,254.2,292.8,254.2,294.3,250.5z M323.2,237.9l-9.1-23l-9.1,23H323.2z"/>
		<path class="st3" d="M342.2,232.1c0-16.5,11.4-27.5,28-27.5c8.8,0,14.5,2.4,19.1,5.9v10c-4.6-7.1-10.6-11-19.1-11
			c-11.8,0-19.6,8.5-19.6,22.6c0,14,7.8,22.4,19,22.4c5.7,0,10.3-2.5,12.3-4.9v-13.3h-18l2.2-5.2h26c-2.4,4-2.4,4-2.4,6v14.4
			c-4.7,4.7-12.1,7.9-20.7,7.9C353.1,259.3,342.2,249,342.2,232.1z"/>
		<path class="st3" d="M401.8,238.3v-26.7c0-1.9,0-1.9-2.3-5.9h13c-2.8,4.1-2.8,4.1-2.8,6.1v26.9c0,9.4,5.4,15.1,14.2,15.1
			c8.5,0,13.7-5.8,13.7-15.1v-27.1c0-1.9,0-1.9-2.9-5.9h10.6c-2.3,4.1-2.3,4.1-2.3,6.1v26.3c0,13.6-7.5,21.2-20.5,21.2
			C409.4,259.3,401.8,251.9,401.8,238.3z"/>
		<path class="st3" d="M451.2,250.5l18.6-45h5.2l18.7,45.2c1.6,3.7,1.6,3.7,3.7,7.5H484c2.4-4.3,2.4-4.3,1.3-7l-3.4-8.6H460
			l-3.4,8.6c-1.2,3.1-1.2,3.1,1.2,7h-10.4C449.7,254.2,449.7,254.2,451.2,250.5z M480,237.9l-9.1-23l-9.1,23H480z"/>
		<path class="st3" d="M521.4,205.7h42.3v10.1c-4.6-5.2-6.1-5.2-8.8-5.2h-8.5v41.8c0,1.9,0,1.9,2.8,5.8h-13.8
			c3.1-4.2,3.1-4.2,3.1-6.1v-41.5h-8.5c-2.6,0-4.2,0-8.7,5.2V205.7z"/>
		<path class="st3" d="M573.2,252.2v-40.6c0-1.9,0-1.9-2.3-5.9h12.5c-2.3,4-2.3,4-2.3,6v40.6c0,1.9,0,1.9,2.3,5.8h-12.5
			C573.2,254.2,573.2,254.2,573.2,252.2z"/>
		<path class="st3" d="M595.4,252.2v-40.6c0-1.9,0-1.9-2.3-5.9h20.8c10.2,0,15.8,5,15.8,12.5c0,5.8-4,11.1-11.1,11.9
			c7.9,0.8,13.1,5.9,13.1,13.3c0,9-6.5,14.8-18.1,14.8h-20.5C595.4,254.2,595.4,254.2,595.4,252.2z M612,228.2
			c6.2,0,9.4-3.4,9.4-9.1c0-5.6-3.2-9.1-9.4-9.1h-8.8v18.2H612z M612.5,253.8c6.8,0,11-3.8,11-10.6c0-6.9-4.3-10.7-11.2-10.7h-9.1
			v21.3H612.5z"/>
		<path class="st3" d="M642.6,252.2v-40.6c0-1.9,0-1.9-2.3-5.9h12.5c-2.3,4-2.3,4-2.3,6v40.6c0,1.9,0,1.9,2.3,5.8h-12.5
			C642.6,254.2,642.6,254.2,642.6,252.2z"/>
		<path class="st3" d="M663.3,250.5l18.6-45h5.2l18.7,45.2c1.6,3.7,1.6,3.7,3.7,7.5h-13.3c2.4-4.3,2.4-4.3,1.3-7l-3.4-8.6h-21.9
			l-3.4,8.6c-1.2,3.1-1.2,3.1,1.2,7h-10.4C661.8,254.2,661.8,254.2,663.3,250.5z M692.2,237.9l-9.1-23l-9.1,23H692.2z"/>
		<path class="st3" d="M193.7,317.1c0-16.5,11.4-27.5,28-27.5c8.8,0,14.5,2.4,19.1,5.9v10c-4.6-7.1-10.6-11-19.1-11
			c-11.8,0-19.6,8.5-19.6,22.6c0,14,7.8,22.4,19,22.4c5.7,0,10.3-2.5,12.3-4.9v-13.3h-18l2.2-5.2h26c-2.4,4-2.4,4-2.4,6v14.4
			c-4.7,4.7-12.1,7.9-20.7,7.9C204.6,344.3,193.7,334,193.7,317.1z"/>
		<path class="st3" d="M254.2,337.2v-40.6c0-1.9,0-1.9-2.3-5.9h34.8v9.1c-4.7-4.4-6.3-4.4-8.9-4.4h-15.7v17.7h12.8
			c2.4,0,3.7,0,7.6-2.9v10.5c-3.9-2.9-5.2-2.9-7.6-2.9h-12.8v20.6h14.4c2.9,0,4.6,0,10.9-5l-1.2,9.7h-34.3
			C254.2,339.2,254.2,339.2,254.2,337.2z"/>
		<path class="st3" d="M298,337.2v-40.6c0-1.9,0-1.9-2.3-5.9h12.5c-2.3,4-2.3,4-2.3,6v40.6c0,1.9,0,1.9,2.3,5.8h-12.5
			C298,339.2,298,339.2,298,337.2z"/>
		<path class="st3" d="M317.6,338l-1-11.8c5.5,8.8,12.1,13,19.3,13c5.9,0,9.6-3.2,9.6-8.4c0-3.7-2.2-6.9-7.3-9l-9.7-4
			c-7-2.9-10-7.3-10-13.5c0-8.7,7-14.6,17-14.6c6.2,0,11.1,1.7,15.3,5.1v9.9c-4.2-6.8-10.2-10-16.4-10c-5.5,0-8.8,3.2-8.8,7.4
			c0,3.6,2,6.1,6.5,8.1l10.2,4.2c6.7,2.8,10.3,7.5,10.3,14.2c0,9.4-7.3,15.7-18.1,15.7C327.2,344.3,321.6,342.1,317.6,338z"/>
		<path class="st3" d="M398,337.2v-19.1h-26.5v19.3c0,1.9,0,1.9,2.3,5.8h-12.5c2.3-4,2.3-4,2.3-6v-40.6c0-1.9,0-1.9-2.3-5.9h12.5
			c-2.3,4-2.3,4-2.3,6v16.5H398v-16.6c0-1.9,0-1.9-2.4-5.9h12.6c-2.3,4-2.3,4-2.3,6v40.6c0,1.9,0,1.9,2.3,5.8h-12.6
			C398,339.2,398,339.2,398,337.2z"/>
		<path class="st3" d="M418.8,335.5l18.6-45h5.2l18.7,45.2c1.6,3.7,1.6,3.7,3.7,7.5h-13.3c2.4-4.3,2.4-4.3,1.3-7l-3.4-8.6h-21.9
			l-3.4,8.6c-1.2,3.1-1.2,3.1,1.2,7h-10.4C417.3,339.2,417.3,339.2,418.8,335.5z M447.7,322.9l-9.1-23l-9.1,23H447.7z"/>
		<path class="st3" d="M488.1,290.7h13.1c-2.5,4.2-2.5,4.2-1.7,7l10.4,33.7l14.5-41h4.4l14.4,41.1l10.6-33.8c0.9-3,0.9-3-1.8-6.9
			h10.5c-2.2,4.1-2.2,4.1-3.5,7.9l-15,45.1h-3.9l-14.8-41.5l-15.1,41.5h-4l-14.9-45.7C490.1,294.5,490.1,294.5,488.1,290.7z"/>
		<path class="st3" d="M563.3,335.5l18.6-45h5.2l18.7,45.2c1.6,3.7,1.6,3.7,3.7,7.5h-13.3c2.4-4.3,2.4-4.3,1.3-7l-3.4-8.6h-21.9
			l-3.4,8.6c-1.2,3.1-1.2,3.1,1.2,7h-10.4C561.8,339.2,561.8,339.2,563.3,335.5z M592.2,322.9l-9.1-23l-9.1,23H592.2z"/>
		<path class="st3" d="M614.9,338l-1-11.8c5.5,8.8,12.1,13,19.3,13c5.9,0,9.6-3.2,9.6-8.4c0-3.7-2.2-6.9-7.3-9l-9.7-4
			c-7-2.9-10-7.3-10-13.5c0-8.7,7-14.6,17-14.6c6.2,0,11.1,1.7,15.3,5.1v9.9c-4.2-6.8-10.2-10-16.4-10c-5.5,0-8.8,3.2-8.8,7.4
			c0,3.6,2,6.1,6.5,8.1l10.2,4.2c6.7,2.8,10.3,7.5,10.3,14.2c0,9.4-7.3,15.7-18.1,15.7C624.6,344.3,618.9,342.1,614.9,338z"/>
		<path class="st3" d="M695.4,337.2v-19.1h-26.5v19.3c0,1.9,0,1.9,2.3,5.8h-12.5c2.3-4,2.3-4,2.3-6v-40.6c0-1.9,0-1.9-2.3-5.9h12.5
			c-2.3,4-2.3,4-2.3,6v16.5h26.5v-16.6c0-1.9,0-1.9-2.4-5.9h12.6c-2.3,4-2.3,4-2.3,6v40.6c0,1.9,0,1.9,2.3,5.8H693
			C695.4,339.2,695.4,339.2,695.4,337.2z"/>
		<path class="st3" d="M717.7,337.2v-40.6c0-1.9,0-1.9-2.3-5.9h34.8v9.1c-4.7-4.4-6.3-4.4-8.9-4.4h-15.7v17.7h12.8
			c2.4,0,3.7,0,7.6-2.9v10.5c-3.9-2.9-5.2-2.9-7.6-2.9h-12.8v20.6H740c2.9,0,4.6,0,10.9-5l-1.2,9.7h-34.3
			C717.7,339.2,717.7,339.2,717.7,337.2z"/>
		<path class="st3" d="M761.5,337.2v-40.6c0-1.9,0-1.9-2.3-5.9h20.3c14.9,0,26.8,9.3,26.8,26.2s-11.8,26.2-26.8,26.2h-20.3
			C761.5,339.2,761.5,339.2,761.5,337.2z M778,338.6c10.6,0,19.9-7.1,19.9-21.6c0-14.5-9.3-21.6-19.9-21.6h-8.6v43.2H778z"/>
	</g>
</g>
</svg>
