<?xml version="1.0" encoding="utf-8"?>
<!-- Generator: Adobe Illustrator 28.2.0, SVG Export Plug-In . SVG Version: 6.00 Build 0)  -->
<svg version="1.1" id="_레이어_2" xmlns="http://www.w3.org/2000/svg" xmlns:xlink="http://www.w3.org/1999/xlink" x="0px"
	 y="0px" viewBox="0 0 1000 750" style="enable-background:new 0 0 1000 750;" xml:space="preserve">
<style type="text/css">
	.st0{clip-path:url(#SVGID_00000001632569062101072480000014146127742112187564_);}
	.st1{fill:#C83732;}
	.st2{clip-path:url(#SVGID_00000152245173435103178380000009877824264694723241_);}
	.st3{stroke:#000000;stroke-width:0.2508;stroke-miterlimit:10;}
</style>
<g>
	<g>
		<g>
			<defs>
				<rect id="SVGID_1_" width="1000" height="750"/>
			</defs>
			<clipPath id="SVGID_00000163033707550826699430000008243556223872015772_">
				<use xlink:href="#SVGID_1_"  style="overflow:visible;"/>
			</clipPath>
			<g style="clip-path:url(#SVGID_00000163033707550826699430000008243556223872015772_);">
				<path class="st1" d="M565.1,645.5H434c-19.9,0-36-16.1-36-36V-822.7c0-19.9,16.1-36,36-36h131.2c19.9,0,36,16.1,36,36V609.5
					C601.1,629.3,585,645.5,565.1,645.5z"/>
				<g id="_x32_ABB7183513F707A.tif">
					
						<image style="overflow:visible;" width="475" height="209" id="_x32_ABB7183513F707A" xlink:href="2ABB7183513F7079.png"  transform="matrix(0.3617 0 0 0.3617 413.7826 510.6051)">
					</image>
				</g>
			</g>
		</g>
	</g>
	<g>
		<g>
			<defs>
				<rect id="SVGID_00000088094131302278929730000003231792211215388808_" width="1000" height="750"/>
			</defs>
			<clipPath id="SVGID_00000120524947519793411470000011757596050581181108_">
				<use xlink:href="#SVGID_00000088094131302278929730000003231792211215388808_"  style="overflow:visible;"/>
			</clipPath>
			<g style="clip-path:url(#SVGID_00000120524947519793411470000011757596050581181108_);">
				<path class="st3" d="M189.5,296.4c-13.8-9.9-16.5-25.1-6.9-38.4c4.4-6.1,9.4-9.7,14.7-11l8.2,5.9c-8.2-0.5-14.4,2.4-19,8.6
					c-6.7,9.4-4.7,19.6,5.4,26.9c11.1,8,23.1,6.2,30.3-3.9c4.3-6,5.3-12.9,2.4-19c7.8,6.9,8.3,16,1.4,25.7
					C217.2,303.6,202.3,305.6,189.5,296.4z"/>
				<path class="st3" d="M264.2,241.7l-12.6-14.4l-19.9,17.5l12.7,14.5c1.2,1.4,1.2,1.4,5.6,2.9l-9.4,8.3c-0.9-4.6-0.9-4.6-2.2-6
					l-26.8-30.6c-1.2-1.4-1.2-1.4-5.6-2.9l9.4-8.3c0.9,4.6,0.9,4.6,2.2,6l10.9,12.4l19.9-17.5l-11-12.5c-1.2-1.4-1.2-1.4-5.7-2.8
					l9.5-8.3c0.9,4.6,0.9,4.6,2.2,6l26.8,30.6c1.2,1.4,1.2,1.4,5.6,2.9l-9.5,8.3C265.5,243.2,265.5,243.2,264.2,241.7z"/>
				<path class="st3" d="M281.2,229l-20.8-34.9c-1-1.6-1-1.6-5-3.8l17.6-10.5c9.5-5.7,18.2-4.2,22.5,2.9c3.7,6.2,2,13-4.6,18.4
					l21.4,8.3c4.4,1.7,4.4,1.7,9,2.7l-9.1,5.4L283.3,206l-5,3l9.6,16c1,1.7,1,1.7,5.8,3.5l-11.5,6.8
					C282.2,230.7,282.2,230.7,281.2,229z M283.9,200.9c6.1-3.7,7.7-8.7,4.5-14s-8.3-6.3-14.4-2.7l-7.6,4.5l9.9,16.6L283.9,200.9z"/>
				<path class="st3" d="M326.1,204.2l-16.8-37c-0.8-1.7-0.8-1.7-4.5-4.4l11.4-5.2c-0.4,4.6-0.4,4.6,0.4,6.4l16.8,37
					c0.8,1.7,0.8,1.7,4.5,4.4l-11.4,5.2C326.9,205.9,326.9,205.9,326.1,204.2z"/>
				<path class="st3" d="M343.7,197l-4.9-10.8c8.1,6.5,15.8,8.2,22.6,5.8c5.5-1.9,8-6.2,6.3-11.1c-1.2-3.5-4.4-5.8-9.9-6.1
					l-10.5-0.6c-7.6-0.4-11.9-3.6-14-9.4c-2.9-8.2,1.8-16.1,11.2-19.5c5.8-2,11-2.1,16.1-0.3l3.3,9.3c-6.2-5-12.9-6-18.8-3.9
					c-5.2,1.8-7.2,6-5.8,9.9c1.2,3.4,3.9,5.2,8.8,5.5l11,0.6c7.2,0.4,12.3,3.6,14.5,10c3.1,8.9-1.7,17.3-11.8,20.9
					C354.9,199.7,348.8,199.5,343.7,197z"/>
				<path class="st3" d="M370.4,137.8l41.2-9.6l2.3,9.9c-5.6-4.1-7.1-3.7-9.7-3.1l-8.3,1.9l9.5,40.7c0.4,1.8,0.4,1.8,4.1,5.1
					l-13.4,3.1c2.1-4.8,2.1-4.8,1.7-6.7l-9.4-40.4l-8.3,1.9c-2.6,0.6-4.1,1-7.3,7.1L370.4,137.8z"/>
				<path class="st3" d="M430.7,171.9l-4-40.5c-0.2-1.9-0.2-1.9-2.9-5.6l9.6-0.9l21.4,26.7l15.7-30.3l9.3-0.9
					c-1.9,4.3-1.9,4.3-1.7,6.2l4,40.5c0.2,1.9,0.2,1.9,2.9,5.6l-13.4,1.3c2.9-4.5,2.9-4.5,2.7-6.5l-3.5-35.9l-16.2,31.9l-22-28
					l3.5,36.1c0.2,1.9,0.2,1.9,3.4,5.6l-10.5,1C430.9,173.8,430.9,173.8,430.7,171.9z"/>
				<path class="st3" d="M494.1,165l20.1-44.3l5.2,0.2l17.1,45.8c1.5,3.7,1.5,3.7,3.4,7.6l-13.3-0.5c2.5-4.2,2.5-4.2,1.6-7l-3.1-8.7
					l-21.9-0.7l-3.7,8.5c-1.3,3.1-1.3,3.1,1,7.1l-10.4-0.4C492.5,168.7,492.5,168.7,494.1,165z M523.4,153.4l-8.3-23.3l-9.8,22.7
					L523.4,153.4z"/>
				<path class="st3" d="M544.8,169.9l0.6-11.9c4.2,9.5,10.2,14.5,17.3,15.5c5.8,0.8,10-1.9,10.7-7c0.5-3.7-1.3-7.1-5.9-9.9l-9-5.4
					c-6.6-3.9-8.9-8.7-8.1-14.8c1.2-8.6,9-13.5,18.9-12.1c6.1,0.9,10.8,3.3,14.4,7.2l-1.4,9.8c-3.2-7.3-8.7-11.3-14.9-12.2
					c-5.5-0.8-9.1,2-9.7,6.1c-0.5,3.6,1.1,6.4,5.3,8.9l9.5,5.6c6.2,3.7,9.2,8.9,8.3,15.6c-1.3,9.4-9.5,14.6-20.1,13.1
					C553.5,177.5,548.3,174.5,544.8,169.9z"/>
				<path class="st3" d="M610.6,181l12-38.8c0.6-1.8,0.6-1.8-0.5-6.3L642,142c9.7,3,13.7,9.4,11.4,16.6c-1.7,5.6-7.1,9.4-14.1,8.1
					c7.3,3,10.8,9.5,8.6,16.6c-2.7,8.6-10.5,12.2-21.6,8.8l-19.6-6.1C610.1,182.9,610.1,182.9,610.6,181z M626.5,187.6
					c6.5,2,11.7-0.4,13.7-6.8c2-6.6-0.9-11.5-7.5-13.6l-8.7-2.7l-6.3,20.4L626.5,187.6z M633.6,163c5.9,1.8,10-0.5,11.7-5.9
					s-0.4-9.6-6.3-11.4l-8.4-2.6l-5.4,17.4L633.6,163z"/>
				<path class="st3" d="M654.7,195.6l16.4-37.2c0.8-1.7,0.8-1.7,0.2-6.3l11.5,5.1c-3.8,2.7-3.8,2.7-4.6,4.5l-16.8,38.1l11.8,5.2
					c2.8,1.2,4.5,2,12.7-0.5l-5.3,9.1l-30.5-13.5C654,197.4,654,197.4,654.7,195.6z"/>
				<path class="st3" d="M691.3,212.6l20.9-34.9c1-1.6,1-1.6,1-6.2l29.9,17.9l-4.7,7.9c-1.8-6.2-3.1-7-5.4-8.4l-13.4-8.1l-9.1,15.2
					l11,6.6c2.1,1.2,3.2,1.9,8,1.4l-5.4,9c-1.9-4.4-3-5.1-5-6.3l-11-6.6l-10.6,17.7l12.4,7.4c2.5,1.5,4,2.4,12,1.3l-6,7.7
					l-29.5-17.7C690.3,214.3,690.3,214.3,691.3,212.6z"/>
				<path class="st3" d="M727.5,234.8l28.8-33.5l-0.1-3.1l7.1,6.1l-2.1,49.1l21.3-24.8c1.3-1.5,1.3-1.5,1.5-6.5l8.2,7
					c-4.5,1.5-4.5,1.5-5.7,3l-30.7,35.6l-2.8-2.4l1.9-54.2l-23.4,27.2c-1.3,1.5-1.3,1.5-1.5,6.5l-8.2-7.1
					C726.3,236.3,726.3,236.3,727.5,234.8z"/>
				<path class="st3" d="M768.9,272.2l32.9-23.9c1.5-1.1,1.5-1.1,3.4-5.3l12,16.4c8.8,12.1,8.2,27.1-5.5,37.1s-28.2,5.8-37-6.2
					l-12-16.4C767.3,273.3,767.3,273.3,768.9,272.2z M777.5,286.3c6.2,8.6,17.4,11.9,29.2,3.4c11.8-8.6,12-20.2,5.8-28.8l-5.1-7
					l-34.9,25.4L777.5,286.3z"/>
			</g>
		</g>
	</g>
</g>
</svg>
