<?xml version="1.0" encoding="utf-8"?>
<!-- Generator: Adobe Illustrator 28.2.0, SVG Export Plug-In . SVG Version: 6.00 Build 0)  -->
<svg version="1.1" id="_레이어_2" xmlns="http://www.w3.org/2000/svg" xmlns:xlink="http://www.w3.org/1999/xlink" x="0px"
	 y="0px" viewBox="0 0 1000 750" style="enable-background:new 0 0 1000 750;" xml:space="preserve">
<style type="text/css">
	.st0{clip-path:url(#SVGID_00000125565678256844307240000004276067501308794785_);}
	.st1{fill:#C83732;}
	.st2{clip-path:url(#SVGID_00000160191857998592244060000006653230948915631292_);}
	.st3{stroke:#000000;stroke-width:0.2508;stroke-miterlimit:10;}
</style>
<g>
	<g>
		<g>
			<defs>
				<rect id="SVGID_1_" width="1000" height="750"/>
			</defs>
			<clipPath id="SVGID_00000024000029173483558940000000917501384262639031_">
				<use xlink:href="#SVGID_1_"  style="overflow:visible;"/>
			</clipPath>
			<g style="clip-path:url(#SVGID_00000024000029173483558940000000917501384262639031_);">
				<path class="st1" d="M565.1,645.5H434c-19.9,0-36-16.1-36-36V-822.7c0-19.9,16.1-36,36-36h131.2c19.9,0,36,16.1,36,36V609.5
					C601.1,629.3,585,645.5,565.1,645.5z"/>
				<g>
					<path d="M530.9,560.4c2.3-0.1,4-1.4,6.2-1.6c0.5,0,1.8-0.5,2.4-1.5c1.6-2.7,1.9-5.6,2.4-8.5c0.4-2-0.8-3.8-0.8-5.7
						c0-1.9-0.6-3.5-1.6-4.9c-1-1.3-2-2.8-4.2-2.7c-0.7,0-1.5-0.9-1.9-2c-0.6-1.7-0.6-3.5-1.6-5c-1.8-2.5-4.7-3.2-7.3-3.3
						c-6.6-0.3-13.2-0.3-19.8,0.7c-3.2,0.4-6.4,0.1-9.7,0.1c-3.9,0-7.9-0.1-11.8,0c-1.8,0-3.7-0.1-5.3,0.6c-3,1.1-6.1,1.2-9.1,1.8
						c-1.8,0.4-3.7,0.7-5.6,0.5c-0.5-0.1-0.8,0.2-0.9,0.7c-0.4,1.1-1,2.2-1.1,3.3c-0.8,6.5-0.4,13.1-0.4,19.7c0,1.6,0.3,3,2.3,4
						c2,1.1,3.8,1.3,5.9,1.4c0.6,0,1.4-0.4,1.9,0.4c1.8,2.9,4.6,3.9,7.9,3.8c10.9-0.4,21.7,0.6,32.6-1.1
						C517.6,560,524.3,560.6,530.9,560.4z M516.6,534.2c-6.5,0-13,0.1-19.6,0c-5.5-0.1-11,0.3-16.5,0.6c-3.5,0.2-7.1,1.5-9.5,4.6
						c-0.6,0.8-0.8,1.9-0.7,2.9c0.2,1.9-0.1,3.6-1,5.3c-0.2,0.4-0.3,0.8-0.9,1c-1.1,0.3-0.8,1.6-0.4,1.8c2.2,1.2,0.4,3.5,1.4,5
						c0.2,0.2,0,0.6-0.5,0.8c-0.8,0.3-5-0.8-5.8-1.3c-0.6-0.4-1-0.8-0.9-1.6c0.3-4.9-0.7-9.7-0.4-14.6c0.1-2.4,0-4.9,1.3-7.1
						c0.3-0.5,0.4-0.9,1-0.9c1.6,0,3.3-0.7,4.7-0.7c3.1,0,6-1.1,9-1.6c3.3-0.5,6.6-1,9.9-1.1c3.4,0,6.9,0,10.3,0c3.2,0,6.3,0,9.5,0
						c4.9,0,9.8-1.4,14.8-0.8c2.4,0.3,4.6,1.4,7.1,1.5c0.6,0,1,1.8,1.7,2.7c0.6,0.9,0,2.2,1.1,3c0.4,0.3-0.1,0.9-0.7,0.8
						c-2.8-0.3-5.8,0.9-8.4-0.9c-1.2-0.8-2.6-0.3-3.3,0.2C518.6,534.3,517.6,534.2,516.6,534.2z"/>
					<path d="M521.7,572.6c-0.3-0.1-0.7,0-1-0.1c-0.4-0.2-1.2-0.3-1-1.1c0.1-0.7,0.8-0.5,1.2-0.5c1.1,0,2.1,0.1,1.7-1.3
						c0.1-2.1-1.5-2.6-2.7-2.9c-2.6-0.6-4,0.3-4.4,2.3c-0.2,0.9-0.1,1.8-0.1,2.7c0,1,0,1.7-1.3,1.7c-0.9,0-1.8,0.5-2,1.7
						c-0.3,1.5,0.7,2.7,2.5,2.8c1,0.1,2.2,0,2.2,1.5c-0.1,2.2,0.1,4.4,0.4,6.6c0.1,0.5-0.3,1.3,0.4,1.4c0.6,0.1,1.4,0.3,2-0.2
						c0.9-0.7,1.5-1.5,1.4-2.7c-0.1-2,0-3.9-0.1-5.9c-0.1-1.3,0.4-2.2,1.6-2.5c1.8-0.4,1.4-1.8,1.4-2.9
						C523.7,571.9,522.4,572.8,521.7,572.6z M521.2,575.8c-1.8,0.3-1.7,1.5-1.7,2.8c0,1.9,0,3.8,0,5.7c0,0.8-0.1,1.6-1,2.2
						c-1.1-1.9-0.6-4-0.7-5.9c-0.1-0.8-0.1-1.5-0.5-2.3c-0.7-1.6-1.6-2.2-3.2-1.9c-0.4,0.1-0.9,0.1-0.9-0.6c0-0.6,0.3-1,0.8-1
						c2.5,0,2.6-1.6,2.5-3.5c0-0.6-0.1-1.3,0-1.9c0.1-0.7,0.3-1.5,1.1-1.5c0.8,0,1.7,0.1,2.5,0.4c0.1,0,0.8,0.8-0.4,1
						c-2,0.3-1.8,2-1.6,3.4c0.2,1.4,1.4,1.1,2.5,1.2c0.6,0,1.4-0.4,1.6,0.4C522.7,575.2,521.7,575.7,521.2,575.8z"/>
					<path d="M446.5,578.5c-2.2-1.1-4.3-2.3-6.9-2.2c-1.4,0.1-2.6,0.2-2.7-1.9c0-0.7-0.6-1.7-1.1-2.5c-0.6-0.9-1.5-1.4-2.6-0.8
						c-1.3,0.6-1.4,1.2-1,3c0.7,3.3,1.3,6.8,1.5,10.2c0.2,3.3,1.6,4.7,5.2,4.7c4.3,0.3,6.6-2.5,8.6-5.7
						C448.1,582.2,447.5,579,446.5,578.5z M445.4,583.8c-0.9,2-4,3.9-6.2,3.9c-2.8,0-4-1.4-4.3-4.2c-0.4-3.3-1-6.5-1.5-9.8
						c-0.1-0.6-0.2-1.1,0.4-1.4c0.7-0.4,0.8,0.3,1.2,0.7c0.8,1.1,1.1,2.3,1.2,3.5c0,1.5,0.8,1.6,1.8,1.5c1.8-0.2,3.6,0.2,5.4,0.4
						C445.6,578.8,446.6,581.3,445.4,583.8z"/>
					<path d="M491.7,574.1c-0.9-0.8-2.1-0.4-3.2-0.3c-0.9,0.1-0.5,1.1-0.5,1.6c0.1,1.3-0.2,2.4-0.9,3.4c-0.8,1.1-2,1.1-3,0.8
						c-1.2-0.4-0.9-1.5-0.6-2.3c0.3-0.9,0.4-1.8,0-2.6c-0.3-0.8-1-1.3-1.9-1.2c-0.9,0.1-1.3,0.8-1.2,1.8c0.1,1.1,0,2.2,0,3.4
						c0,1.2,0,2.4,0,3.6c0.1,2.6,2.3,4.7,4.9,4.7c3.6,0,6.4-1.1,7.6-4.9C493.4,580.6,492.8,575,491.7,574.1z M491.4,582.2
						c-1.6,2.5-5,4.2-7.2,3.3c-1.2-0.5-2-1.6-2.1-3c0,0,0-0.1,0-0.1c0-0.5-0.1-0.9-0.3-1.4c-0.3-0.9-0.4-2.2-0.5-3.4
						c-0.2-1,0-1.8,0-3c0.7,0.7,0.9,1.4,0.9,2c0.2,0.9,0.2,1.9,0.2,2.9c0,0.4,0.2,0.8,0.6,1c1.8,1,4.6,0.4,5.4-1.2
						c0.6-1.1,1.1-2.1,0.9-3.4c-0.1-0.4-0.1-0.9,0.5-0.9c0.4,0,0.8-0.1,1.1,0.3C491.8,576.5,492.2,581,491.4,582.2z"/>
					<path d="M566.9,569.4c-1.6-0.6-3.3-2.3-4.9-1.4c-2,1.2-3.8,0.8-5.8,0.7c-1-0.1-1.4,0.3-1.3,1.3c0.1,2,0,3.9,0,6.3
						c0.1,2.4-0.2,5.2,0.4,8c0.2,0.9,0.7,1.2,1.4,1.3c0.7,0.1,1.5-0.1,1.7-1.1c0.2-1,0.3-2,0.5-3.1c0.2-1.6,0.4-3.5,1.4-4.7
						c1.2-1.5,2.6-3.1,5-3.3C566.8,573.2,568.1,569.8,566.9,569.4z M565.9,570.8c-0.2,0.6-0.3,1.3-1.3,1.4c-1.9,0.1-3.2,1.4-4.5,2.6
						c-1.7,1.7-1.9,3.9-2.6,6.1c-0.2,0.7,0.5,2.1-0.6,2.1c-1.4,0-0.6-1.4-0.6-2.2c-0.1-1.4,0-2.8,0-4.2c0-1.8,0-3.6,0-5.5
						c0-0.4-0.2-0.9,0.4-1c0.5-0.1,0.7,0.1,0.9,0.6c0.6,1.1,1.6,0.8,2.2,0.2c1.5-1.6,3-2.5,5.1-0.9
						C565.2,570.2,566.1,569.9,565.9,570.8z"/>
					<path d="M465.3,577.2c-0.7-0.6-1-1.3-0.4-1.9c1.4-1.1,0.7-1.4-0.4-2.3c-0.9-0.8-1.7-0.2-2.4-0.5c-2,0-4.2,1.4-4.5,2.8
						c-0.4,1.8,0.5,3.4,2.5,4.3c1.5,0.7,0.9,1.7,0.5,2.7c-0.4,1.2-1.1,1-1.8,0.2c-0.3-0.4-0.7-0.4-1.1-0.1c-0.9,0.8-0.6,3.5,0.5,4
						c2.1,0.8,4.1,2.2,6.5,0.3c1.5-1.2,2.8-2.2,3.1-4.4C468.1,579.9,466.8,578.6,465.3,577.2z M466.8,581c-0.5,1.3-0.8,2.6-1.3,3.9
						c-0.5,1.2-3.7,1.6-5.1,0.8c-1.7-0.9-1.7-0.9-1.9-2.1c1.7,1.6,2.9,0.3,3.4-0.7c0.5-1,1.1-2.6-0.4-3.7c-0.7-0.5-1.2-1.2-2.3-1.5
						c-0.8-0.2-0.7-2.1-0.2-2.5c0.7-0.6,1.4-1.6,2.5-1.5c1,0.1,2.4-0.5,1.6,1.7c-0.8,1.8,1.1,2.7,2.1,3.8
						C465.8,579.9,466.9,580.7,466.8,581z"/>
					<path d="M476,580.7c-0.9-0.4-2.3-0.2-2.3-1.3c0-0.9,1.4-1,2.3-1.1c0.8-0.2,1.9-0.5,1.8-1.6c-0.1-0.8-0.2-1.6-1.3-2.3
						c-0.9-0.5-1.6-0.5-2.4-0.6c-2.7,0-4,1.1-4.7,4c-0.6,2.6-0.6,5.2,1.2,7.3c1.4,1.6,3,3.2,5.4,2.9c1.6-0.2,3-2.1,3.2-3.7
						C479.6,581.8,477.6,581.4,476,580.7z M476.3,586.3c-0.8,0.6-2.3,0.6-2.8-0.1c-1.5-1.7-3.6-3.2-3.2-6c0.2-1.6,0-3.3,1.6-4.6
						c1.1-0.9,3-0.8,3.9,0.2c0.3,0.3,0.4,0.5,0.3,0.9c-0.1,0.5-0.5,0.4-0.8,0.4c-0.8,0.1-1.6-0.2-2.3,0.8c-1.3,1.7-1.1,3.2,1,3.8
						c0.6,0.2,1.3,0.2,1.8,0.5c0.8,0.4,1.9,0.5,2.2,1.7C478.2,585.3,477,585.8,476.3,586.3z"/>
					<path d="M540.2,568.9c-1.7-1.2-4.9,0.7-4.9,3c0,2.2-0.9,4.4-0.4,6.5c-0.2,1.8,0,3.4,0.4,5.1c0.4,2,2.8,3.8,3.9,2.9
						c1.3-1.1,2.4-2.6,2.9-4.4c0.8-3.2,0.4-6.5-0.1-9.7C541.7,571.1,541.1,569.5,540.2,568.9z M540.8,580c-0.3,1.9-0.6,3.4-2.2,4.7
						c-0.6,0.5-1.2,0.9-1.3,0c-0.2-2.3-1.6-4.3-1.3-6.7c-0.2-2.4,1.1-4.5,1.2-6.9c0-0.6,0.2-1.2,1.1-1.1c0.8,0,1.1,0.3,1.4,1
						C541,573.8,541.3,576.8,540.8,580z"/>
					<path d="M531,569.1c0.1-1.4-0.9-1.6-1.9-1.6c-1,0.1-2.8-0.7-2.6,1.1c0.3,3.4-0.8,6.6-1,10c-0.2,2.2,1,4,1,6.2
						c0,0.9,0.9,1,1.6,0.9c1-0.2,2.3,0.8,3-0.9c0.7-1.7,0.1-3.5,0.4-5.2C531.7,576,530.7,572.6,531,569.1z M530.1,583.5
						c0,0.8-0.5,0.9-1.1,0.9c-0.6-0.1-1.6,0.3-1.4-0.7c0.4-2.5-1.2-4.6-0.9-7c0.3-2.3,0.6-4.7,0.8-7c0.1-0.8,0.5-0.8,1.1-0.8
						c0.9-0.1,1.1,0.5,1,1.2c-0.3,3.3,0.7,6.5,0.4,9.5C530.1,581,530.1,582.2,530.1,583.5z"/>
					<path d="M547.9,567.9c-1,0.4-2.3,0.6-2.6,1.9c-0.6,2.6-1.3,5.3-0.9,7.5c0,2,0,3.5,0,4.9c0,1.3,0.9,2.2,1.7,2.8
						c0.9,0.7,2-0.2,2.8-0.9c2.7-2.3,2.4-5.7,3.4-8.6c0.8-2.2-0.9-4-1.4-6C550.7,568.6,549.4,567.4,547.9,567.9z M550.5,577.6
						c-0.8,1.6-0.9,3.6-2.3,5.1c-0.5,0.6-0.9,1-1.7,0.7c-0.8-0.3-0.9-0.9-0.9-1.6c0-1.4,0-2.8,0-4.5c0.1-1.9-0.2-4.2,0.8-6.4
						c0.4-0.9,1.2-0.9,1.7-1.4c0.5-0.6,1.2,0.5,1.3,0.8C550.6,572.5,552.2,574.6,550.5,577.6z"/>
					<path d="M497.4,573.4c-1.6,0.1-1.9,0.9-1.8,2.3c0.1,1.3,0,2.5,0,3.8c0,1.5-0.1,3.1,0,4.6c0.1,1.2,1.2,2.4,2,2.2
						c1.1-0.4,2.4-1.4,2.5-2.8c0.2-2.7,0.2-5.3,0-8C500,574.2,499,573.2,497.4,573.4z M498.9,582.9c0,0.7-0.7,1.4-1.5,1.4
						c-0.9,0-0.5-0.9-0.6-1.5c-0.1-1.1,0-2.2,0-3.4c0-1.2,0-2.4,0-3.6c0-0.5-0.2-1.3,0.7-1.1c0.6,0.1,1.3,0.2,1.3,1
						C499,578.1,499,580.5,498.9,582.9z"/>
					<path d="M451.3,575.9c-1.7,0.2-1.2,1.4-1.2,2.4c-0.1,0.8,0,1.7,0,2.7c0.2,1.4-0.3,3.1,0.4,4.7c0.6,1.2,2.2,1.6,3.1,0.8
						c0.9-0.8,1.5-1.8,1.6-3.1c0.2-1.9-0.1-3.8-0.5-5.5C454.3,576.3,453,575.7,451.3,575.9z M453.6,584.5c-0.2,0.6-0.2,1.3-1.1,1.1
						c-0.9-0.1-1.1-0.7-1.1-1.5c0-1.1,0-2.1,0-3.2c0-1,0-2,0-2.9c0-0.6,0.2-0.9,0.9-0.9c0.4,0.1,1.1-0.2,1.2,0.5
						C453.6,579.9,454.4,582.2,453.6,584.5z"/>
					<path d="M497.6,572.1c1.1,0.2,1.4-0.3,1.4-1.4c0-1.2-0.3-1.8-1.5-2c-1.3-0.2-1.1,1.3-1.8,1.7
						C496.5,570.8,496.2,572.4,497.6,572.1z"/>
					<path d="M452,575c0.8,0,1.7-0.3,1.6-1.1c-0.1-1.8-1.2-1.8-2.1-1.8c-0.8,0-1.4,0.3-1.3,1.2C450.3,574.3,451,575,452,575z"/>
					<path d="M467.1,535.5c-1.4,0-1.2,1.2-1.3,1.9c-0.2,0.9,0.7,0.6,1.2,0.6c1,0.1,1.4-0.3,1.3-1.3
						C468.3,535.9,468.1,535.5,467.1,535.5z"/>
					<path d="M439.1,581.8c-0.4,0.3-1.7,0-1.5,1.2c0.1,0.7,0.8,1.4,1.9,1.4c1.3,0.1,1.1-1,1.2-1.5
						C440.9,581.9,440.1,581.8,439.1,581.8z"/>
					<path d="M538.7,576c-1.2,0.1-1.6,0.9-1.4,2c0.1,0.6-0.5,1.8,0.8,1.6c1.2-0.1,1.5-1,1.2-2.3C539.2,577,539.9,575.9,538.7,576z"
						/>
					<path d="M547.9,575.3c0.1,0.2-0.3,1.1,0.6,1c0.7-0.1,1.5-0.3,1.5-1.4c0-0.8-0.2-1.1-1-1.1C547.9,573.8,547.7,574.3,547.9,575.3
						z"/>
				</g>
			</g>
		</g>
	</g>
	<g>
		<g>
			<defs>
				<rect id="SVGID_00000082346042355254135520000003855752660510296248_" width="1000" height="750"/>
			</defs>
			<clipPath id="SVGID_00000019662651014648333670000010759566400915128711_">
				<use xlink:href="#SVGID_00000082346042355254135520000003855752660510296248_"  style="overflow:visible;"/>
			</clipPath>
			<g style="clip-path:url(#SVGID_00000019662651014648333670000010759566400915128711_);">
				<path class="st3" d="M189.5,296.4c-13.8-9.9-16.5-25.1-6.9-38.4c4.4-6.1,9.4-9.7,14.7-11l8.2,5.9c-8.2-0.5-14.4,2.4-19,8.6
					c-6.7,9.4-4.7,19.6,5.4,26.9c11.1,8,23.1,6.2,30.3-3.9c4.3-6,5.3-12.9,2.4-19c7.8,6.9,8.3,16,1.4,25.7
					C217.2,303.6,202.3,305.6,189.5,296.4z"/>
				<path class="st3" d="M264.2,241.7l-12.6-14.4l-19.9,17.5l12.7,14.5c1.2,1.4,1.2,1.4,5.6,2.9l-9.4,8.3c-0.9-4.6-0.9-4.6-2.2-6
					l-26.8-30.6c-1.2-1.4-1.2-1.4-5.6-2.9l9.4-8.3c0.9,4.6,0.9,4.6,2.2,6l10.9,12.4l19.9-17.5l-11-12.5c-1.2-1.4-1.2-1.4-5.7-2.8
					l9.5-8.3c0.9,4.6,0.9,4.6,2.2,6l26.8,30.6c1.2,1.4,1.2,1.4,5.6,2.9l-9.5,8.3C265.5,243.2,265.5,243.2,264.2,241.7z"/>
				<path class="st3" d="M281.2,229l-20.8-34.9c-1-1.6-1-1.6-5-3.8l17.6-10.5c9.5-5.7,18.2-4.2,22.5,2.9c3.7,6.2,2,13-4.6,18.4
					l21.4,8.3c4.4,1.7,4.4,1.7,9,2.7l-9.1,5.4L283.3,206l-5,3l9.6,16c1,1.7,1,1.7,5.8,3.5l-11.5,6.8
					C282.2,230.7,282.2,230.7,281.2,229z M283.9,200.9c6.1-3.7,7.7-8.7,4.5-14s-8.3-6.3-14.4-2.7l-7.6,4.5l9.9,16.6L283.9,200.9z"/>
				<path class="st3" d="M326.1,204.2l-16.8-37c-0.8-1.7-0.8-1.7-4.5-4.4l11.4-5.2c-0.4,4.6-0.4,4.6,0.4,6.4l16.8,37
					c0.8,1.7,0.8,1.7,4.5,4.4l-11.4,5.2C326.9,205.9,326.9,205.9,326.1,204.2z"/>
				<path class="st3" d="M343.7,197l-4.9-10.8c8.1,6.5,15.8,8.2,22.6,5.8c5.5-1.9,8-6.2,6.3-11.1c-1.2-3.5-4.4-5.8-9.9-6.1
					l-10.5-0.6c-7.6-0.4-11.9-3.6-14-9.4c-2.9-8.2,1.8-16.1,11.2-19.5c5.8-2,11-2.1,16.1-0.3l3.3,9.3c-6.2-5-12.9-6-18.8-3.9
					c-5.2,1.8-7.2,6-5.8,9.9c1.2,3.4,3.9,5.2,8.8,5.5l11,0.6c7.2,0.4,12.3,3.6,14.5,10c3.1,8.9-1.7,17.3-11.8,20.9
					C354.9,199.7,348.8,199.5,343.7,197z"/>
				<path class="st3" d="M370.4,137.8l41.2-9.6l2.3,9.9c-5.6-4.1-7.1-3.7-9.7-3.1l-8.3,1.9l9.5,40.7c0.4,1.8,0.4,1.8,4.1,5.1
					l-13.4,3.1c2.1-4.8,2.1-4.8,1.7-6.7l-9.4-40.4l-8.3,1.9c-2.6,0.6-4.1,1-7.3,7.1L370.4,137.8z"/>
				<path class="st3" d="M430.7,171.9l-4-40.5c-0.2-1.9-0.2-1.9-2.9-5.6l9.6-0.9l21.4,26.7l15.7-30.3l9.3-0.9
					c-1.9,4.3-1.9,4.3-1.7,6.2l4,40.5c0.2,1.9,0.2,1.9,2.9,5.6l-13.4,1.3c2.9-4.5,2.9-4.5,2.7-6.5l-3.5-35.9l-16.2,31.9l-22-28
					l3.5,36.1c0.2,1.9,0.2,1.9,3.4,5.6l-10.5,1C430.9,173.8,430.9,173.8,430.7,171.9z"/>
				<path class="st3" d="M494.1,165l20.1-44.3l5.2,0.2l17.1,45.8c1.5,3.7,1.5,3.7,3.4,7.6l-13.3-0.5c2.5-4.2,2.5-4.2,1.6-7l-3.1-8.7
					l-21.9-0.7l-3.7,8.5c-1.3,3.1-1.3,3.1,1,7.1l-10.4-0.4C492.5,168.7,492.5,168.7,494.1,165z M523.4,153.4l-8.3-23.3l-9.8,22.7
					L523.4,153.4z"/>
				<path class="st3" d="M544.8,169.9l0.6-11.9c4.2,9.5,10.2,14.5,17.3,15.5c5.8,0.8,10-1.9,10.7-7c0.5-3.7-1.3-7.1-5.9-9.9l-9-5.4
					c-6.6-3.9-8.9-8.7-8.1-14.8c1.2-8.6,9-13.5,18.9-12.1c6.1,0.9,10.8,3.3,14.4,7.2l-1.4,9.8c-3.2-7.3-8.7-11.3-14.9-12.2
					c-5.5-0.8-9.1,2-9.7,6.1c-0.5,3.6,1.1,6.4,5.3,8.9l9.5,5.6c6.2,3.7,9.2,8.9,8.3,15.6c-1.3,9.4-9.5,14.6-20.1,13.1
					C553.5,177.5,548.3,174.5,544.8,169.9z"/>
				<path class="st3" d="M610.6,181l12-38.8c0.6-1.8,0.6-1.8-0.5-6.3L642,142c9.7,3,13.7,9.4,11.4,16.6c-1.7,5.6-7.1,9.4-14.1,8.1
					c7.3,3,10.8,9.5,8.6,16.6c-2.7,8.6-10.5,12.2-21.6,8.8l-19.6-6.1C610.1,182.9,610.1,182.9,610.6,181z M626.5,187.6
					c6.5,2,11.7-0.4,13.7-6.8c2-6.6-0.9-11.5-7.5-13.6l-8.7-2.7l-6.3,20.4L626.5,187.6z M633.6,163c5.9,1.8,10-0.5,11.7-5.9
					s-0.4-9.6-6.3-11.4l-8.4-2.6l-5.4,17.4L633.6,163z"/>
				<path class="st3" d="M654.7,195.6l16.4-37.2c0.8-1.7,0.8-1.7,0.2-6.3l11.5,5.1c-3.8,2.7-3.8,2.7-4.6,4.5l-16.8,38.1l11.8,5.2
					c2.8,1.2,4.5,2,12.7-0.5l-5.3,9.1l-30.5-13.5C654,197.4,654,197.4,654.7,195.6z"/>
				<path class="st3" d="M691.3,212.6l20.9-34.9c1-1.6,1-1.6,1-6.2l29.9,17.9l-4.7,7.9c-1.8-6.2-3.1-7-5.4-8.4l-13.4-8.1l-9.1,15.2
					l11,6.6c2.1,1.2,3.2,1.9,8,1.4l-5.4,9c-1.9-4.4-3-5.1-5-6.3l-11-6.6l-10.6,17.7l12.4,7.4c2.5,1.5,4,2.4,12,1.3l-6,7.7
					l-29.5-17.7C690.3,214.3,690.3,214.3,691.3,212.6z"/>
				<path class="st3" d="M727.5,234.8l28.8-33.5l-0.1-3.1l7.1,6.1l-2.1,49.1l21.3-24.8c1.3-1.5,1.3-1.5,1.5-6.5l8.2,7
					c-4.5,1.5-4.5,1.5-5.7,3l-30.7,35.6l-2.8-2.4l1.9-54.2l-23.4,27.2c-1.3,1.5-1.3,1.5-1.5,6.5l-8.2-7.1
					C726.3,236.3,726.3,236.3,727.5,234.8z"/>
				<path class="st3" d="M768.9,272.2l32.9-23.9c1.5-1.1,1.5-1.1,3.4-5.3l12,16.4c8.8,12.1,8.2,27.1-5.5,37.1s-28.2,5.8-37-6.2
					l-12-16.4C767.3,273.3,767.3,273.3,768.9,272.2z M777.5,286.3c6.2,8.6,17.4,11.9,29.2,3.4c11.8-8.6,12-20.2,5.8-28.8l-5.1-7
					l-34.9,25.4L777.5,286.3z"/>
			</g>
		</g>
	</g>
</g>
</svg>
