<?xml version="1.0" encoding="UTF-8"?>
<svg id="_레이어_2" data-name="레이어 2" xmlns="http://www.w3.org/2000/svg" viewBox="0 0 1155.92 735.54">
  <defs>
    <style>
      .cls-1 {
        fill: none;
      }

      .cls-2 {
        stroke: #000;
        stroke-miterlimit: 10;
        stroke-width: .26px;
      }
    </style>
  </defs>
  <g id="_레이어_1-2" data-name="레이어 1">
    <g>
      <g>
        <path class="cls-2" d="M307.7,246.87l-23.92-32.92q-1.1-1.52-5.33-3.37l16.82-12.22c8.87-6.44,17.74-5.47,22.73,1.4,4.99,6.86,3.17,15.6-5.69,22.05l-8.56,6.22,10.42,14.33q1.1,1.52,5.69,3.1l-10.51,7.63q-.5-4.65-1.65-6.23Zm.61-27.63c5.95-4.32,6.46-9.89,3.01-14.62-3.44-4.74-8.89-5.98-14.84-1.65l-7.17,5.21,11.83,16.28,7.17-5.21Z"/>
        <path class="cls-2" d="M342.6,222.48l-19.95-35.46q-.92-1.64-4.9-3.96l30.36-17.08,4.49,7.98c-6.29-1.54-7.67-.77-9.96,.52l-13.67,7.69,8.69,15.44,11.19-6.29c2.09-1.18,3.21-1.8,5.17-6.27l5.15,9.16c-4.8-.57-5.98,.09-8.01,1.23l-11.19,6.29,10.12,17.99,12.56-7.07c2.55-1.44,4.06-2.28,7.09-9.76l3.74,9.09-29.97,16.86q.04-4.67-.92-6.38Z"/>
        <path class="cls-2" d="M379.37,202.46l-15.75-37.51q-.73-1.73-4.41-4.5l18.96-7.96c10.24-4.3,18.61-1.63,21.84,6.05,2.79,6.64,.14,13.13-7.12,17.56l20.02,11.22q4.15,2.33,8.59,3.97l-9.76,4.1-27.01-15.45-5.33,2.24,7.24,17.23q.76,1.8,5.23,4.32l-12.32,5.17q.58-4.64-.18-6.44Zm6.63-27.45c6.58-2.76,8.81-7.53,6.42-13.2s-7.35-7.42-13.92-4.66l-8.17,3.43,7.5,17.86,8.17-3.43Z"/>
        <path class="cls-2" d="M418.18,171.6l-7.52-25.64q-.53-1.8-3.88-4.96l12.46-3.65q-1.5,4.74-.96,6.62l7.58,25.86c2.64,9,9.45,13.03,17.88,10.56,8.14-2.39,11.56-9.41,8.92-18.42l-7.62-26.01q-.55-1.87-4.41-4.89l10.23-3q-1.07,4.62-.52,6.49l7.41,25.29c3.84,13.11-1.23,22.5-13.69,26.15-12.61,3.7-22.04-1.28-25.89-14.39Z"/>
        <path class="cls-2" d="M491.54,168.11l-2.69-11.6c6.66,8.01,13.85,11.17,20.99,10.16,5.8-.82,9.07-4.54,8.34-9.67-.52-3.72-3.19-6.53-8.47-7.91l-10.16-2.66c-7.4-1.92-10.99-5.88-11.85-11.98-1.21-8.62,4.95-15.48,14.83-16.87,6.1-.86,11.24,.16,15.88,2.92l1.38,9.81c-5.12-6.18-11.5-8.46-17.67-7.59-5.5,.77-8.25,4.42-7.66,8.58,.5,3.57,2.79,5.82,7.6,7.12l10.7,2.74c7,1.82,11.31,5.99,12.25,12.68,1.32,9.37-5.09,16.64-15.72,18.13-7.29,1.03-13.17-.42-17.75-3.87Z"/>
        <path class="cls-2" d="M531.96,159.99l16.4-45.9,5.17-.25,20.88,44.3q1.75,3.6,4.04,7.32l-13.35,.65q2.19-4.39,1.01-7.11l-3.8-8.46-21.89,1.07-2.95,8.79q-1.05,3.21,1.54,6.99l-10.42,.51q2.05-4.16,3.37-7.91Zm28.25-14.01l-10.2-22.58-7.95,23.46,18.15-.89Z"/>
        <path class="cls-2" d="M585.4,159.67l2.53-44.15-1.97-2.44,9.37,.54,28.22,40.34,1.87-32.68q.11-1.95-2.73-6.1l10.79,.62q-2.63,3.91-2.74,5.86l-2.69,46.99-3.75-.21-31.46-44.21-2.05,35.83q-.11,1.95,2.81,6.1l-10.87-.62q2.56-3.91,2.67-5.86Z"/>
        <path class="cls-2" d="M658.77,167.15l1.32-11.83c3.61,9.77,9.34,15.14,16.41,16.57,5.74,1.16,10.06-1.26,11.09-6.33,.75-3.68-.84-7.22-5.35-10.27l-8.69-5.89c-6.33-4.27-8.4-9.21-7.18-15.24,1.73-8.54,9.82-12.95,19.61-10.97,6.03,1.22,10.55,3.9,14,8.04l-1.97,9.71c-2.76-7.53-8.03-11.81-14.13-13.05-5.44-1.1-9.25,1.42-10.08,5.54-.71,3.53,.69,6.42,4.79,9.24l9.17,6.15c6,4.05,8.66,9.41,7.32,16.04-1.88,9.27-10.34,13.99-20.86,11.86-7.21-1.46-12.28-4.78-15.45-9.56Z"/>
        <path class="cls-2" d="M702.56,175.76l11.66-38.98q.54-1.8-.55-6.28l33.37,9.98-2.62,8.77c-3.26-5.6-4.77-6.05-7.29-6.8l-15.03-4.5-5.08,16.97,12.3,3.68c2.3,.69,3.52,1.05,8.1-.63l-3.01,10.07c-2.92-3.85-4.22-4.24-6.45-4.91l-12.3-3.68-5.92,19.78,13.81,4.13c2.8,.84,4.46,1.33,11.94-1.68l-3.95,9-32.94-9.85q3.39-3.22,3.95-5.09Z"/>
        <path class="cls-2" d="M742.75,188.36l15.56-37.6q.72-1.73,.09-6.3l19.21,7.95c9.43,3.9,12.74,10.63,9.84,17.64-2.24,5.41-7.92,8.75-14.83,6.78,7,3.71,9.87,10.5,7.06,17.3-3.44,8.32-11.62,11.2-22.37,6.75l-19.01-7.86q3.7-2.86,4.45-4.66Zm15.21,8c6.31,2.61,11.66,.68,14.24-5.56,2.64-6.38,.15-11.56-6.23-14.2l-8.39-3.47-8.15,19.7,8.53,3.53Zm9.3-23.86c5.76,2.38,10.06,.43,12.24-4.85,2.15-5.2,.49-9.63-5.2-11.98l-8.12-3.36-6.97,16.86,8.05,3.33Z"/>
        <path class="cls-2" d="M782.11,203.01l38.22-30.24,4.52,2.53-5.75,48.63q-.42,3.98-.45,8.35l-11.67-6.52q4.18-2.56,4.62-5.5l1.26-9.18-19.14-10.69-7.16,5.89q-2.59,2.17-2.39,6.75l-9.11-5.09q3.94-2.44,7.05-4.92Zm31.38,3.08l3.31-24.55-19.17,15.69,15.86,8.86Z"/>
        <path class="cls-2" d="M823.7,229.91l6.21-10.16c-.86,10.38,2.06,17.67,7.85,21.95,4.71,3.48,9.65,3.12,12.72-1.05,2.23-3.02,2.29-6.89-.5-11.57l-5.38-9.02c-3.93-6.55-3.72-11.89-.06-16.84,5.18-7,14.38-7.58,22.4-1.64,4.95,3.66,7.91,7.99,9.28,13.21l-5.89,7.97c.68-7.99-2.28-14.1-7.29-17.8-4.47-3.3-8.98-2.62-11.48,.76-2.14,2.9-2.09,6.11,.43,10.4l5.71,9.45c3.72,6.21,3.87,12.19-.15,17.63-5.62,7.61-15.29,8.3-23.92,1.92-5.92-4.37-9.1-9.53-9.96-15.2Z"/>
        <path class="cls-2" d="M887.48,218.6l30.38,29.48-7.06,7.27c.37-6.96-.7-8-2.64-9.89l-6.09-5.91-29.12,30q-1.31,1.35-2.03,6.19l-9.91-9.62q5.19-.82,6.55-2.22l28.91-29.79-6.14-5.96c-1.88-1.83-3.02-2.93-9.91-2.29l7.06-7.27Z"/>
        <path class="cls-2" d="M889.84,287.7l31.53-25.7q1.46-1.19,3.07-5.5l7.92,9.72q-4.61,.76-6.12,1.99l-31.53,25.7q-1.46,1.19-3.07,5.5l-7.92-9.72q4.61-.76,6.12-1.99Z"/>
        <path class="cls-2" d="M903.37,300.75l48.19-7.28,2.67,4.44-29.14,39.36q-2.34,3.25-4.54,7.02l-6.89-11.45q4.91-.15,6.74-2.48l5.65-7.35-11.3-18.78-9.14,1.56q-3.32,.6-5.43,4.67l-5.38-8.94q4.63-.16,8.56-.77Zm25.71,18.26l15.06-19.67-24.43,4.1,9.37,15.56Z"/>
        <path class="cls-2" d="M927.61,346.06l42.14-13.37,1.58-2.71,2.84,8.94-27.63,40.74,31.2-9.9q1.86-.59,4.72-4.73l3.27,10.3q-4.59-1.06-6.45-.47l-44.86,14.24-1.13-3.58,30.09-45.15-34.2,10.85q-1.86,.59-4.7,4.8l-3.29-10.37q4.57,.99,6.43,.4Z"/>
      </g>
      <g>
        <path class="cls-2" d="M319.96,602.37c9.05-13.82,24.64-16.8,38.58-7.67,7.35,4.81,10.87,9.99,12.77,15.45l-5.47,8.35c.08-8.48-2.81-15.03-9.97-19.72-9.86-6.46-21.1-3.68-28.83,8.13-7.69,11.75-5.76,23.06,3.59,29.18,4.77,3.13,10.02,3.6,13.01,2.6l7.28-11.12-15.07-9.87,4.72-3.1,21.79,14.27q-4.23,2.08-5.3,3.71l-7.9,12.06c-6.55,1.37-14.49-.07-21.65-4.75-13.38-8.76-16.81-23.39-7.56-37.52Z"/>
        <path class="cls-2" d="M365.03,653.54l17.2-36.87q.79-1.7,.37-6.29l31.56,14.73-3.87,8.3c-2.41-6.01-3.84-6.68-6.22-7.79l-14.22-6.63-7.49,16.05,11.63,5.43c2.18,1.02,3.33,1.56,8.11,.55l-4.44,9.52c-2.33-4.24-3.56-4.81-5.67-5.79l-11.63-5.43-8.73,18.71,13.06,6.09c2.65,1.24,4.22,1.97,12.06,.08l-5.21,8.34-31.15-14.54q3.82-2.69,4.65-4.46Z"/>
        <path class="cls-2" d="M408.05,672.23l13.98-38.21q.64-1.76-.17-6.3l11.77,4.31q-3.58,3.01-4.25,4.84l-13.98,38.21q-.64,1.76,.17,6.3l-11.77-4.31q3.58-3.01,4.25-4.84Z"/>
        <path class="cls-2" d="M429,680.7l2.17-11.71c2.91,10,8.24,15.77,15.18,17.71,5.64,1.57,10.12-.53,11.51-5.52,1.01-3.62-.32-7.26-4.6-10.63l-8.24-6.5c-6.01-4.71-7.72-9.79-6.07-15.72,2.33-8.39,10.72-12.21,20.34-9.54,5.93,1.65,10.24,4.64,13.39,9.02l-2.66,9.55c-2.22-7.71-7.16-12.36-13.16-14.03-5.35-1.49-9.33,.76-10.46,4.81-.97,3.47,.23,6.45,4.12,9.56l8.71,6.79c5.69,4.47,7.97,10.01,6.16,16.52-2.54,9.11-11.31,13.22-21.66,10.34-7.09-1.97-11.91-5.65-14.73-10.64Z"/>
        <path class="cls-2" d="M511.89,698.09l3-18.91-26.17-4.15-3.02,19.05q-.29,1.85,1.38,6.15l-12.38-1.96q2.93-3.64,3.24-5.57l6.37-40.18q.29-1.85-1.38-6.15l12.38,1.96q-2.93,3.64-3.24,5.57l-2.58,16.31,26.17,4.15,2.61-16.46q.29-1.85-1.46-6.16l12.46,1.97q-2.93,3.64-3.24,5.57l-6.37,40.19q-.29,1.85,1.38,6.15l-12.46-1.97q3.01-3.63,3.31-5.55Z"/>
        <path class="cls-2" d="M536.99,699.27l20.33-44.29,5.18,.2,16.94,45.95q1.43,3.74,3.39,7.64l-13.35-.51q2.56-4.18,1.62-7l-3.04-8.76-21.9-.84-3.71,8.5q-1.32,3.1,.93,7.1l-10.43-.4q2.41-3.96,4.05-7.58Zm29.36-11.49l-8.19-23.38-9.96,22.68,18.15,.7Z"/>
      </g>
    </g>
    <rect class="cls-1" width="1155.92" height="735.54"/>
  </g>
</svg>