<?xml version="1.0" encoding="UTF-8"?><svg id="_레이어_2" xmlns="http://www.w3.org/2000/svg" viewBox="0 0 231 231"><g id="_레이어_1-2"><path d="m55.76,0v55.76H0V0h55.76ZM8.31,8.17v39.23h39.23V8.17H8.31Z" style="fill:#fff; stroke-width:0px;"/><path d="m0,175.24h55.4v55.76H0v-55.76Zm8.31,8.17v39.23h39.24v-39.23H8.31Z" style="fill:#fff; stroke-width:0px;"/><path d="m231,0v55.4h-55.76V0h55.76Zm-47.7,47.39h39.41V8.33h-39.41v39.06Z" style="fill:#fff; stroke-width:0px;"/><path d="m79.73,175.16h-15.69c-.19-2.61-.35-4.99-.56-7.89h-31.39v-7.68c2.45-.16,4.85-.31,7.49-.48v-7.37h-15.53v15.24h-7.82c-.16-2.21-.32-4.6-.54-7.66H0v-7.97h15.87v-16h8.22v7.66h7.64c.12-2.65.22-4.91.33-7.26h7.57c.16,2.68.3,5.06.46,7.73h15.75l-.14-.16c.05,2.7.1,5.4.15,8.09-2.58,0-5.15,0-7.73,0v7.57h7.6v-7.71c2.7.05,5.4.1,8.1.15l-.14-.14v8.11h8.11l-.14-.14v8.11h8.11l-.14-.14v8.11l.14-.16Z" style="fill:#fff; stroke-width:0px;"/><path d="m47.87,111.44h-23.67c-.17-2.59-.34-4.98-.52-7.62h-7.65v7.71H0v-23.9h7.66c.19,2.7.35,5.09.56,8.05h47.61l-.14-.16v8.11l.14-.14h-8.11v8.11l.14-.16Z" style="fill:#fff; stroke-width:0px;"/><path d="m167.28,0v23.53h-15.85c0-2.53,0-5.1,0-7.67,0,0-.16.14-.16.14h7.71V7.89h-7.71l.16.14c-.03-2.68-.06-5.36-.08-8.04h15.93Z" style="fill:#fff; stroke-width:0px;"/><path d="m87.54,7.89v15.65h-7.66c-.12-2.31-.23-4.57-.37-7.34-2.34-.16-4.73-.32-7.81-.53V0h7.97v8.04h8.04l-.16-.14Z" style="fill:#fff; stroke-width:0px;"/><path d="m135.42,0v7.7c-2.65.15-5.03.29-7.9.46v7.84c-2.46,0-4.92,0-8.03,0V0h15.93Z" style="fill:#fff; stroke-width:0px;"/><path d="m16,135.48h-7.81c-.14,2.49-.27,4.87-.43,7.9H0v-15.93h16v8.03Z" style="fill:#fff; stroke-width:0px;"/><path d="m95.59,0v7.89c-2.89,0-5.47,0-8.05,0,0,0,.16.14.16.14-.02-2.68-.05-5.36-.07-8.04h7.97Z" style="fill:#fff; stroke-width:0px;"/><path d="m79.58,143.44c.06-2.69.12-5.39.18-8.08l-.15.15h7.89v-15.71h7.94v15.24h7.95v-23.42h8.19l-.15-.15v7.77c2.7.16,5.09.3,7.79.45.16,2.53.31,4.92.47,7.52h23.48v-7.53h-7.67v-8.23s-.16.14-.16.14h7.84c.18-3.03.32-5.41.47-7.97h15.73l-.14-.14v7.84c3.02.18,5.4.31,7.83.45.17,2.78.31,5.16.45,7.63,5.58,0,10.67,0,15.75,0,0,2.53,0,5.06,0,8.11h7.97l-.16-.14v7.76c-2.58.16-4.98.32-7.69.49-.12,2.43-.24,4.7-.37,7.35h-15.84c0-2.46,0-5.04,0-7.62,2.58,0,5.15,0,7.73,0v-7.57h-7.6v7.71h-7.73c-.18-2.76-.34-5.16-.52-7.8h-7.65c0,5.11,0,10.33,0,15.56,0,0,.14-.16.14-.16-2.47.11-4.94.22-7.94.35v-7.72h-7.95v31.46h7.34v7.85h-15.33v16.22c-3.1,0-5.68,0-8.26,0,0-2.58,0-5.15,0-7.73h-7.57v7.6h7.71v15.71c2.58.18,4.97.34,7.61.53v7.47h-7.78v8.27l.15-.15h-7.74c-.17-2.58-.32-4.98-.49-7.62h-7.67v15.3h-31.67c-.17-2.34-.34-4.72-.53-7.43h-7.33v-16.17c2.47,0,5.05,0,7.63,0,0,2.59,0,5.17,0,8.25h8.02v7.49h15.94v-15.45c2.9-.17,5.28-.32,7.45-.45v-23.42h-15.25v7.55c2.68.15,5.07.29,7.43.42v7.74h-15.48c-.17,2.9-.32,5.29-.48,8h-7.77v-23.67c2.7-.16,5.09-.3,8.12-.48,0-2.69,0-5.27,0-7.85,0,0-.14.16-.14.16h31.67c0-3.11,0-5.69,0-8.26,5.34,0,10.68,0,15.81,0v-7.67c-5.46,0-10.54,0-15.61,0,0-2.58,0-5.15,0-7.73h-7.57v7.6h7.71c-.06,2.64-.13,5.28-.19,7.93h-15.96v-7.6h-7.64c-.16,2.66-.3,5.05-.45,7.63h-7.77l.14.14v-8.11h-8.11l.14.14v-8.11h-8.11l.14.14v-8.11s-.14.16-.14.16c5.35-.05,10.71-.11,16.06-.16,0,2.58,0,5.15,0,7.73h7.57v-7.6h-7.71Zm47.49,7.72v-15.52h-15.29v7.51c2.63.18,5.02.35,7.52.52.15,2.7.29,5.08.43,7.49h7.35Z" style="fill:#fff; stroke-width:0px;"/><path d="m199.21,214.99h-15.84v-15.57h-7.99v15.36c-2.69.16-5.07.31-7.78.47v7.54c2.39.16,4.78.32,7.39.49v7.35h-15.75c0-7.84,0-15.72,0-23.59,2.58,0,5.15,0,7.73,0v-7.57h-7.6v7.71c-2.69-.06-5.39-.12-8.08-.18l.15.15v-23.68c2.53-.15,4.91-.29,7.58-.45v-15.58c-2.44-.12-4.82-.24-7.52-.37v-7.56h-7.78v-7.97c2.42-.12,4.81-.25,7.42-.38.15-2.88.29-5.47.43-8.07,0,0-.14.16-.14.16,2.45,0,4.9,0,7.64,0,.14,2.79.25,5.06.39,7.86h23.44c.18,2.88.33,5.27.5,7.92h15.51v-7.5h-7.41v-8h7.43v-7.8h8v7.41h8.06c0,3.09,0,5.67,0,8.26,0,0,.16-.14.16-.14h-7.72v24.04h7.72l-.14-.14v8.11s.14-.14.14-.14h-7.85c-.17,3.03-.31,5.41-.46,8.1h-7.77v23.91l.14-.16Zm-31.64-47.63v23.48h23.23v-23.48h-23.23Z" style="fill:#fff; stroke-width:0px;"/><path d="m206.82,87.39v24.07h7.9v7.82c-2.32.11-4.59.22-7.38.36-.14,2.37-.29,4.76-.47,7.75-5.29,0-10.54,0-15.79,0,0,0,.16.14.16.14-.05-2.7-.1-5.4-.14-8.1,2.58,0,5.16,0,7.7,0v-23.44h-7.47c-.14,2.67-.27,4.94-.4,7.36-2.7.16-5.1.3-7.65.46v7.8h-7.81c-.18-3.08-.32-5.46-.48-8.11h-15.75l.14.14v-8.24h-7.79v-7.79h7.45v-23.69c-2.66-.16-5.05-.3-7.62-.45v-7.77l-.14.16h7.79c.16-2.71.31-5.11.46-7.76h7.47v39.19h15.91v-7.44c-2.35-.11-4.62-.21-7.27-.34v-15.42h15.35v23.46c5.55,0,10.77,0,15.99,0,0,0-.16-.14-.16-.14Z" style="fill:#fff; stroke-width:0px;"/><path d="m222.95,183.14v23.71c2.63.16,5,.3,7.7.46v7.67h-23.62l.14.16v-15.78c2.92-.17,5.3-.32,7.97-.48v-15.75l-.14.14h8.11l-.16-.14Z" style="fill:#fff; stroke-width:0px;"/><path d="m143.31,31.95h7.97c0,8.1,0,16,0,23.9,0,0,.14-.16.14-.16-2.7,0-5.41,0-8.11,0l.14.14v-7.71h-8.11v7.71l.14-.14h-8.11l.14.14v-24.04l-.14.14h8.11l-.14-.14v7.71h8.11v-7.71l-.14.16Z" style="fill:#fff; stroke-width:0px;"/><path d="m151.29,207.01v15.68h-7.72v-7.36c-2.71-.16-5.1-.3-7.81-.46v-31.38h7.42v23.68c3.09,0,5.67,0,8.26,0,0,0-.15-.15-.15-.15Z" style="fill:#fff; stroke-width:0px;"/><path d="m222.95,151.3v15.73c2.65.16,5.03.3,7.72.46v15.65c-2.57,0-5.14,0-7.71,0,0,0,.16.14.16.14v-8.11h-8.11l.14.14v-24.04s-.16.14-.16.14c2.7,0,5.41.02,8.11.02l-.15-.15Z" style="fill:#fff; stroke-width:0px;"/><path d="m223.1,151.44v-15.77c-2.66-.16-5.04-.3-7.71-.46v-7.5h15.24v23.59c-2.51,0-5.09,0-7.67,0,0,0,.15.15.15.15Z" style="fill:#fff; stroke-width:0px;"/><path d="m207.04,214.99v15.67h-23.55v-7.41h15.73c0-3.08,0-5.67,0-8.26,0,0-.14.16-.14.16h8.11l-.14-.16Z" style="fill:#fff; stroke-width:0px;"/><path d="m127.38,15.86c5.36,0,10.71,0,16.07,0-.05,5.36-.09,10.72-.14,16.08,0,0,.14-.16.14-.16-2.7,0-5.41,0-8.11,0l.14.14v-8.11h-8.11l.16.14c-.05-2.7-.1-5.4-.15-8.1Z" style="fill:#fff; stroke-width:0px;"/><path d="m215.16,79.71v-7.69h15.54v15.35h-7.46v-7.82h-8.23l.15.15Z" style="fill:#fff; stroke-width:0px;"/><path d="m119.39,223.1h15.64v7.57h-15.49c0-2.58,0-5.15,0-7.72,0,0-.15.15-.15.15Z" style="fill:#fff; stroke-width:0px;"/><path d="m207.34,79.37h-7.92v-15.42h7.79c0,5.2,0,10.39,0,15.59,0,0,.14-.16.14-.16Z" style="fill:#fff; stroke-width:0px;"/><path d="m222.99,103.64h7.68v15.5h-7.53v-15.65l-.15.15Z" style="fill:#fff; stroke-width:0px;"/><path d="m215.01,79.56v7.84c-2.81,0-5.49,0-8.18,0,0,0,.16.14.16.14.11-2.72.23-5.43.35-8.15,0,0-.14.16-.14.16,2.66.05,5.31.11,7.96.17,0,0-.15-.15-.15-.15Z" style="fill:#fff; stroke-width:0px;"/><path d="m223.13,103.49h-7.69v-7.57h7.54c0,2.58,0,5.15,0,7.72,0,0,.15-.15.15-.15Z" style="fill:#fff; stroke-width:0px;"/><path d="m143.31,16v-7.96c2.94,0,5.53,0,8.12,0,0,0-.16-.14-.16-.14v8.11s.16-.14.16-.14c-2.71.05-5.41.09-8.12.14Z" style="fill:#fff; stroke-width:0px;"/><path d="m223.25,230.63v-7.31h7.51v7.31h-7.51Z" style="fill:#fff; stroke-width:0px;"/><path d="m55.83,95.67c0-2.7.02-5.41.02-8.11l-.15.15h7.93v-15.81c2.77-.13,5.03-.23,7.69-.35v-7.61c-2.24-.13-4.63-.27-7.3-.43v-23.27h15.55v7.62l.16-.14h-7.71v8.11h7.71l-.16-.14v7.79c2.7.16,5.1.3,7.76.46v47.31h-15.38c-.14-2.32-.28-4.71-.46-7.78h-7.84l.14.16v-8.11h-8.11l.14.16Zm15.94-.47h7.57v-7.21h-7.57v7.21Z" style="fill:#fff; stroke-width:0px;"/><path d="m127.52,63.64h-7.94v15.73h-7.82v-7.78h-8.27l.15.15v-7.77c-2.7-.16-5.09-.29-7.96-.46v-23.74l-.15.15c2.69-.06,5.38-.11,8.07-.17,0,5.22,0,10.45,0,15.69h7.58v-15.55h-7.72V8.36h7.9v15.6c5.72,0,10.94,0,16.16,0,0,0-.16-.14-.16-.14v8.11l.14-.14h-7.72v24.04h7.72l-.14-.14v8.11l.14-.16Z" style="fill:#fff; stroke-width:0px;"/><path d="m135.5,79.73v-7.8c-2.67-.15-5.05-.28-7.98-.44,0-2.69,0-5.27,0-7.84,0,0-.14.16-.14.16h8.11v-8.11l-.14.14c2.7,0,5.41,0,8.11,0l-.14-.14v23.9h-7.97l.16.14Z" style="fill:#fff; stroke-width:0px;"/><path d="m23.95,79.57h-15.66v-15.59h15.51v15.74l.15-.15Z" style="fill:#fff; stroke-width:0px;"/><path d="m79.75,135.36h-7.8c-.15-2.58-.29-4.97-.44-7.67-2.53-.16-4.92-.31-7.53-.48v-7.36h15.63c0,5.2,0,10.43,0,15.65,0,0,.15-.15.15-.15Z" style="fill:#fff; stroke-width:0px;"/><path d="m47.86,127.52h-23.59v-8.1h23.59c0,2.7,0,5.4,0,8.1Z" style="fill:#fff; stroke-width:0px;"/><path d="m135.5,111.45h-7.97v-15.93l-.16.14h7.97v15.93l.16-.14Z" style="fill:#fff; stroke-width:0px;"/><path d="m48.02,79.37c-5.35.13-10.69.25-16.04.37,0,0,.16.14.16.14v-8.1h15.71l-.15-.15c.06,2.63.12,5.26.18,7.9,0,0,.14-.16.14-.16Z" style="fill:#fff; stroke-width:0px;"/><path d="m111.58,111.62v-7.69h7.57v7.54c-2.58,0-5.15,0-7.72,0,0,0,.15.15.15.15Z" style="fill:#fff; stroke-width:0px;"/><path d="m47.73,119.55c.05-2.71.09-5.41.14-8.12,0,0-.14.16-.14.16h8.11l-.16-.14v8.1h-7.95Z" style="fill:#fff; stroke-width:0px;"/><path d="m127.53,87.69v-7.97c2.79,0,5.38,0,7.97,0,0,0-.16-.14-.16-.14v7.97h-7.97l.16.14Z" style="fill:#fff; stroke-width:0px;"/><path d="m55.86,87.56h-7.84c0-2.81,0-5.49,0-8.18,0,0-.14.16-.14.16,2.43,0,4.86,0,7.82,0,0,3.05,0,5.61,0,8.18,0,0,.15-.15.15-.15Z" style="fill:#fff; stroke-width:0px;"/><path d="m23.8,79.72c2.78.05,5.55.11,8.34.17,0,0-.16-.14-.16-.14,0,2.43,0,4.85,0,7.56h-8.04c0-2.62,0-5.18,0-7.74,0,0-.15.15-.15.15Z" style="fill:#fff; stroke-width:0px;"/><path d="m55.83,135.48h-8.1c0-2.94,0-5.52,0-8.1h8.1v8.1Z" style="fill:#fff; stroke-width:0px;"/><path d="m103.49,71.59v7.69h-7.57v-7.54c2.58,0,5.15,0,7.72,0,0,0-.15-.15-.15-.15Z" style="fill:#fff; stroke-width:0px;"/><path d="m63.65,103.47v7.98c-2.8,0-5.39,0-7.98,0,0,0,.16.14.16.14v-8.11l-.14.14h8.11l-.14-.16Z" style="fill:#fff; stroke-width:0px;"/><path d="m55.83,143.47c-.05-2.71-.09-5.41-.14-8.12h7.96c0,2.94,0,5.53,0,8.12,0,0,.14-.16.14-.16h-8.11l.14.16Z" style="fill:#fff; stroke-width:0px;"/><path d="m47.85,71.79v-7.69h7.57v7.54c-2.58,0-5.15,0-7.72,0,0,0,.15.15.15.15Z" style="fill:#fff; stroke-width:0px;"/><path d="m79.57,47.87h7.69v7.82c-2.55,0-5.12,0-7.69,0,0,0,.16.14.16.14v-8.11l-.16.14Z" style="fill:#fff; stroke-width:0px;"/><path d="m127.53,95.52h-7.69v-7.82c2.55,0,5.12,0,7.69,0,0,0-.16-.14-.16-.14v8.11l.16-.14Z" style="fill:#fff; stroke-width:0px;"/><path d="m95.68,39.77h-7.69v-7.57h7.54c0,2.58,0,5.15,0,7.72,0,0,.15-.15.15-.15Z" style="fill:#fff; stroke-width:0px;"/><path d="m63.82,31.55v-7.25h7.51v7.25h-7.51Z" style="fill:#fff; stroke-width:0px;"/><path d="m16.31,16.15h23.22v23.43h-23.22v-23.43Z" style="fill:#fff; stroke-width:0px;"/><path d="m39.45,214.85h-23.23v-23.25h23.23v23.25Z" style="fill:#fff; stroke-width:0px;"/><path d="m191.49,16.04h23.17v23.43h-23.17v-23.43Z" style="fill:#fff; stroke-width:0px;"/><path d="m183.14,111.45h8.1v8.1c-2.7,0-5.4,0-8.1,0v-8.1Z" style="fill:#fff; stroke-width:0px;"/><path d="m183.11,175.56v7.25h-7.51v-7.25h7.51Z" style="fill:#fff; stroke-width:0px;"/></g></svg>