<?xml version="1.0" encoding="UTF-8"?>
<svg id="_레이어_2" data-name="레이어 2" xmlns="http://www.w3.org/2000/svg" xmlns:xlink="http://www.w3.org/1999/xlink" viewBox="0 0 1100 1760.57">
  <defs>
    <style>
      .cls-1 {
        fill: none;
      }

      .cls-2 {
        clip-path: url(#clippath);
      }

      .cls-3 {
        fill: #097aff;
      }

      .cls-4 {
        stroke: #000;
        stroke-miterlimit: 10;
        stroke-width: .26px;
      }
    </style>
    <clipPath id="clippath">
      <rect class="cls-1" y="978.8" width="1100" height="781.77"/>
    </clipPath>
  </defs>
  <g id="_레이어_1-2" data-name="레이어 1">
    <g class="cls-2">
      <g>
        <rect class="cls-3" x="448.42" width="203.15" height="1504.18" rx="36" ry="36"/>
        <g>
          <g>
            <path d="M499.35,1405.88c-1.9,0-3.53,.77-4.65,2.19-1-1.47-2.39-2.19-4.25-2.19-1.52,0-2.93,.59-3.9,1.61v-1.42h-3.01v16.49h3.01v-10.53c0-1.93,1.26-3.23,3.14-3.23s2.95,1.24,2.95,3.23v10.53h3.01v-10.53c0-1.9,1.29-3.23,3.14-3.23s2.95,1.18,2.95,3.23v10.53h3.01v-10.95c0-3.54-2.06-5.73-5.38-5.73Z"/>
            <path d="M610.21,1422.75c3.3,0,5.61-2.23,5.61-5.41,0-3.77-2.9-4.69-4.46-5.18-1.55-.5-2.54-.89-2.54-2,0-.74,.49-1.49,1.58-1.49,1.31,0,1.85,1.51,1.85,1.51l2.05-2.01s-1.03-2.28-3.93-2.28c-2.64,0-4.56,1.84-4.56,4.37,0,2.95,2.25,3.77,3.81,4.32,1.47,.53,3.16,.74,3.16,2.9,0,1.5-.97,2.44-2.53,2.44-2.27,0-2.83-2.17-2.72-3.18h-2.94c-.09,1.36,.45,6.03,5.64,6.03Z"/>
          </g>
          <path d="M521.98,1441c-4.74,0-8.31,3.63-8.31,8.44s3.57,8.44,8.31,8.44,8.31-3.63,8.31-8.44-3.57-8.44-8.31-8.44Zm5.24,8.44c0,3.27-2.15,5.56-5.24,5.56s-5.24-2.28-5.24-5.56,2.15-5.55,5.24-5.55,5.24,2.28,5.24,5.55Z"/>
          <path d="M494.35,1455.02c-3.08,0-5.24-2.3-5.24-5.59s2.15-5.59,5.24-5.59c2.62,0,3.88,1.84,3.88,1.84l2.26-1.98s-1.95-2.7-6.15-2.7c-4.74,0-8.31,3.63-8.31,8.44s3.57,8.44,8.31,8.44c5.31,0,7.84-4.05,8.25-7.41h-3.1c-.3,1.79-1.49,4.56-5.16,4.56Z"/>
          <path d="M581.02,1455.02c-3.05,0-5.3-2.02-5.3-4.72h13.05c.56-4.41-2.45-9.3-7.91-9.3-4.72,0-8.28,3.63-8.28,8.44s3.01,8.44,8.44,8.44m0-2.85c2.62,0,4.01-1.84,4.01-1.84l2.26,1.98s-2.08,2.7-6.28,2.7m-5.13-10.29c.63-2.25,2.58-3.73,4.96-3.73s4.21,1.55,4.73,3.73h-9.69Z"/>
          <path d="M608.64,1455.02c-3.05,0-5.3-2.02-5.3-4.72h13.05c.56-4.41-2.45-9.3-7.91-9.3-4.72,0-8.28,3.63-8.28,8.44s3.01,8.44,8.44,8.44m0-2.85c2.62,0,4.01-1.84,4.01-1.84l2.26,1.98s-2.08,2.7-6.28,2.7m-5.13-10.29c.63-2.25,2.58-3.73,4.96-3.73s4.21,1.55,4.73,3.73h-9.69Z"/>
          <path d="M523.45,1405.88c-4.74,0-8.31,3.63-8.31,8.44s3.57,8.43,8.31,8.43,8.31-3.63,8.31-8.43-3.57-8.44-8.31-8.44Zm5.24,8.44c0,3.27-2.15,5.55-5.24,5.55s-5.24-2.28-5.24-5.55,2.15-5.55,5.24-5.55,5.24,2.28,5.24,5.55Z"/>
          <path d="M558.89,1405.88c-1.9,0-3.53,.77-4.65,2.19-1-1.47-2.39-2.19-4.25-2.19-1.52,0-2.93,.59-3.9,1.61v-1.42h-3.01v16.49h3.01v-10.53c0-1.93,1.26-3.23,3.14-3.23s2.95,1.24,2.95,3.23v10.53h3.01v-10.53c0-1.9,1.29-3.23,3.14-3.23s2.95,1.18,2.95,3.23v10.53h3.01v-10.95c0-3.54-2.06-5.73-5.38-5.73Z"/>
          <path d="M583.9,1405.88c-4.74,0-8.31,3.63-8.31,8.44s3.57,8.43,8.31,8.43,8.31-3.63,8.31-8.43-3.57-8.44-8.31-8.44Zm5.24,8.44c0,3.27-2.15,5.55-5.24,5.55s-5.24-2.28-5.24-5.55,2.15-5.55,5.24-5.55,5.24,2.28,5.24,5.55Z"/>
          <path d="M556.99,1440.79c0-.5,.16-1.33,1.23-1.33s1.49,.98,1.49,.98l1.95-2.15s-.9-1.68-3.56-1.68h0c-2.46,0-4.11,1.65-4.11,4.11v2.44h-6.24v-2.38c0-.4,.12-1.33,1.26-1.33,1.07,0,1.49,.98,1.49,.98l1.95-2.15s-.9-1.68-3.56-1.68c-2.48,0-4.14,1.65-4.14,4.11v2.44h-2.83v2.85h2.83v13.64h3.01v-13.64h6.24v13.64h3.01v-13.64h4.45v-2.85h-4.45v-2.38Z"/>
        </g>
      </g>
      <g>
        <path class="cls-4" d="M282.35,1399.35l-40.63-2.12q-1.87-.1-5.97,2.02l1.81-34.78,9.15,.48c-4.67,4.49-4.75,6.07-4.89,8.69l-.82,15.67,17.69,.92,.67-12.82c.12-2.4,.19-3.67-2.53-7.72l10.5,.55c-3.05,3.75-3.12,5.1-3.24,7.42l-.67,12.82,20.62,1.07,.75-14.39c.15-2.92,.24-4.65-4.45-11.21l9.68,1.71-1.79,34.33q-3.93-2.53-5.88-2.64Z"/>
        <path class="cls-4" d="M285.51,1358.19l-39.85-8.18q-1.84-.38-6.2,1.1l2.54-12.35q3.49,3.17,5.4,3.56l40.81,8.38,2.6-12.65c.62-3.01,1-4.85-3.22-12.31l10.05,3.29-6.7,32.65q-3.5-3.09-5.42-3.49Z"/>
        <path class="cls-4" d="M300.46,1303.98l-11.22-3.98c10.34-1.29,16.87-5.65,19.87-12.2,2.44-5.32,1.07-10.08-3.64-12.24-3.41-1.56-7.22-.83-11.22,2.87l-7.72,7.12c-5.6,5.2-10.88,6.08-16.47,3.52-7.92-3.63-10.37-12.51-6.21-21.59,2.56-5.6,6.2-9.38,11.02-11.8l9.01,4.13c-7.96,.98-13.33,5.12-15.92,10.79-2.31,5.05-.72,9.33,3.1,11.08,3.28,1.5,6.41,.79,10.09-2.56l8.07-7.53c5.31-4.92,11.14-6.29,17.28-3.48,8.6,3.94,11.27,13.25,6.8,23.01-3.06,6.69-7.46,10.87-12.83,12.87Z"/>
        <path class="cls-4" d="M314.98,1266.52l-26.91-40.63,2.9-4.29,47.97,9.84q3.93,.75,8.28,1.15l-7.48,11.07q-2.2-4.39-5.09-5.07l-9.04-2.03-12.27,18.17,5.26,7.63q1.94,2.76,6.52,2.95l-5.84,8.65q-2.1-4.13-4.31-7.44Zm5.72-31.01l-24.18-5.37,14.02,20.42,10.17-15.06Z"/>
        <path class="cls-4" d="M347.05,1224.8l-29.48-28.04q-1.36-1.29-5.85-2.35l8.69-9.14q1.28,4.53,2.7,5.88l30.19,28.71,8.9-9.36c2.12-2.23,3.41-3.59,3.78-12.15l6.79,8.11-22.97,24.15q-1.33-4.48-2.75-5.82Z"/>
        <path class="cls-4" d="M334.86,1169.47l10.44-8.34q.76,4.68,3.31,6.19l32.44,18.47-10.91-35.77q-.89-3.04-5.14-4.63l8.33-6.65q.5,4.6,1.85,9.29l13.57,46.32-3.23,2.58-42.54-23.66q-3.87-2.19-8.12-3.79Z"/>
        <path class="cls-4" d="M398.74,1175.79l-6.06-48.36,4.5-2.56,38.61,30.13q3.19,2.42,6.91,4.71l-11.62,6.6q-.02-4.91-2.31-6.8l-7.2-5.84-19.06,10.83,1.33,9.18q.51,3.33,4.53,5.54l-9.07,5.15q-.04-4.64-.56-8.58Zm18.9-25.24l-19.28-15.55,3.49,24.53,15.8-8.97Z"/>
        <path class="cls-4" d="M445.45,1152.41l-12.93-38.58q-.6-1.78-4.07-4.81l19.29-6.46c14.17-4.75,28.37,.31,33.76,16.4,5.39,16.09-2.9,28.68-17.07,33.43l-19.29,6.46q.92-4.58,.3-6.43Zm16.09-3.97c10.04-3.36,16.6-13.08,12-26.82-4.63-13.81-15.7-17.54-25.73-14.18l-8.19,2.74,13.74,41,8.19-2.74Z"/>
        <path class="cls-4" d="M489.48,1116.88c-1.8-15.66,7.91-28.49,23.94-30.33,16.03-1.84,28.47,8.44,30.27,24.1,1.8,15.66-7.98,28.5-24.01,30.34s-28.4-8.45-30.2-24.1Zm29.62,19.11c10.59-1.22,17.81-10.06,16.16-24.37s-10.68-21.29-21.27-20.07c-10.51,1.21-17.81,10.06-16.16,24.37s10.76,21.28,21.27,20.07Z"/>
        <path class="cls-4" d="M553.5,1131.57l3.28-40.56q.15-1.87-1.85-6.02l20.5,1.66c11.08,.9,17.27,7.12,16.6,15.43-.58,7.18-5.92,11.72-14.4,12.32l12.61,19.17q2.62,3.98,5.8,7.47l-10.55-.85-16.86-26.15-5.76-.47-1.51,18.63q-.16,1.95,2.66,6.24l-13.32-1.08q2.65-3.85,2.8-5.8Zm18.52-21.32c7.11,.58,11.29-2.63,11.78-8.76,.5-6.14-3.11-9.97-10.22-10.54l-8.83-.71-1.56,19.31,8.83,.71Z"/>
        <path class="cls-4" d="M618.28,1141.32l2.78-11.58c2.37,10.14,7.39,16.18,14.22,18.48,5.55,1.86,10.14,0,11.79-4.91,1.2-3.56,.07-7.26-4.03-10.86l-7.89-6.93c-5.76-5.02-7.19-10.18-5.23-16.01,2.77-8.25,11.35-11.63,20.81-8.45,5.83,1.96,9.98,5.18,12.89,9.72l-3.16,9.39c-1.81-7.81-6.5-12.71-12.4-14.7-5.26-1.77-9.35,.26-10.69,4.25-1.15,3.42-.11,6.46,3.61,9.76l8.34,7.24c5.45,4.76,7.43,10.42,5.28,16.82-3.01,8.97-11.99,12.6-22.17,9.18-6.97-2.34-11.59-6.27-14.14-11.4Z"/>
        <path class="cls-4" d="M657.07,1151.82l37.6-31,4.57,2.43-4.78,48.74q-.34,3.99-.28,8.35l-11.79-6.28q4.13-2.65,4.51-5.59l1.08-9.21-19.35-10.3-7.04,6.03q-2.54,2.22-2.26,6.79l-9.21-4.9q3.89-2.52,6.95-5.06Zm31.43,2.45l2.81-24.61-18.85,16.07,16.03,8.54Z"/>
        <path class="cls-4" d="M701.66,1178.55l27.95-34.26-.16-3.13,7.27,5.93-.82,49.22,20.69-25.36q1.23-1.51,1.36-6.54l8.38,6.83q-4.42,1.62-5.66,3.13l-29.75,36.47-2.91-2.37,.47-54.26-22.68,27.8q-1.23,1.51-1.31,6.59l-8.43-6.88q4.37-1.67,5.6-3.18Z"/>
        <path class="cls-4" d="M756.25,1225.98l47.48-11,3.01,4.22-26,41.5q-2.08,3.42-3.98,7.35l-7.76-10.88q4.88-.53,6.53-3l5.07-7.76-12.73-17.84-8.99,2.26q-3.26,.85-5.05,5.08l-6.06-8.49q4.61-.52,8.47-1.44Zm27.05,16.2l13.49-20.78-24.04,5.99,10.55,14.79Z"/>
        <path class="cls-4" d="M784.28,1269.77l40.3-18.19,1.26-2.87,3.86,8.55-22.7,43.68,29.83-13.47q1.78-.8,4.14-5.25l4.45,9.85q-4.68-.52-6.46,.28l-42.9,19.36-1.54-3.42,24.63-48.34-32.71,14.76q-1.78,.8-4.11,5.31l-4.48-9.92q4.65,.45,6.43-.35Z"/>
        <path class="cls-4" d="M805.36,1319.38l39.66-9.07q1.83-.42,5.19-3.57l4.54,19.83c3.33,14.56-3.1,28.2-19.64,31.98-16.54,3.78-28.26-5.7-31.59-20.27l-4.54-19.83q4.47,1.36,6.37,.93Zm2.37,16.4c2.36,10.32,11.39,17.8,25.51,14.57,14.2-3.25,19-13.9,16.64-24.21l-1.92-8.42-42.15,9.64,1.92,8.42Z"/>
        <path class="cls-4" d="M815.76,1370.68l40.66-1.55q1.88-.07,5.76-2.55l.78,20.55c.42,11.1-5.03,18-13.35,18.31-7.2,.27-12.34-4.49-13.93-12.84l-17.54,14.79q-3.64,3.07-6.73,6.64l-.4-10.58,23.96-19.84-.22-5.78-18.68,.71q-1.95,.07-5.88,3.38l-.51-13.35q4.14,2.17,6.09,2.1Zm23.37,15.86c.27,7.13,3.94,10.89,10.1,10.66s9.53-4.27,9.26-11.39l-.34-8.85-19.35,.74,.34,8.85Z"/>
        <path class="cls-4" d="M816.23,1420.01l40.34,5.31q1.86,.25,6.11-1.54l-4.55,34.54-9.08-1.2c5.01-4.11,5.21-5.67,5.56-8.28l2.05-15.56-17.57-2.31-1.67,12.73c-.31,2.38-.48,3.65,1.91,7.9l-10.42-1.37c3.34-3.5,3.51-4.84,3.82-7.15l1.67-12.73-20.47-2.69-1.88,14.29c-.38,2.9-.61,4.62,3.56,11.52l-9.52-2.46,4.49-34.09q3.72,2.84,5.65,3.09Z"/>
        <path class="cls-4" d="M809.84,1458.07l11.67,2.35c-10.05,2.75-15.9,7.99-17.94,14.9-1.66,5.62,.38,10.13,5.35,11.6,3.6,1.06,7.26-.21,10.7-4.44l6.63-8.14c4.8-5.94,9.9-7.57,15.81-5.83,8.35,2.46,12.04,10.91,9.22,20.49-1.74,5.9-4.8,10.17-9.23,13.24l-9.5-2.8c7.74-2.1,12.47-6.97,14.23-12.94,1.57-5.33-.61-9.34-4.64-10.53-3.46-1.02-6.46,.13-9.62,3.97l-6.92,8.6c-4.55,5.62-10.13,7.81-16.61,5.9-9.07-2.68-13.04-11.52-10-21.81,2.08-7.06,5.83-11.82,10.87-14.56Z"/>
      </g>
      <g>
        <path class="cls-4" d="M484.48,1675.81l11.97-42.56-1.39-2.81,9.03,2.54,18.87,45.47,8.86-31.51q.53-1.88-1.36-6.54l10.41,2.93q-3.41,3.25-3.94,5.13l-12.74,45.31-3.61-1.02-21.2-49.94-9.72,34.54q-.53,1.88,1.43,6.56l-10.48-2.95q3.34-3.27,3.87-5.15Z"/>
        <path class="cls-4" d="M545.75,1688.88l20.69-44.12,5.17,.24,16.56,46.08q1.4,3.75,3.32,7.67l-13.35-.62q2.6-4.16,1.68-6.99l-2.97-8.78-21.89-1.02-3.78,8.47q-1.35,3.09,.87,7.1l-10.42-.49q2.44-3.94,4.11-7.55Zm29.46-11.25l-8-23.44-10.15,22.6,18.15,.85Z"/>
        <path class="cls-4" d="M589.75,1646.12l41.96-5.65,1.35,10.04c-5.24-4.6-6.73-4.4-9.41-4.04l-8.41,1.13,5.58,41.44q.25,1.86,3.61,5.42l-13.69,1.84q2.56-4.59,2.3-6.52l-5.54-41.14-8.48,1.14c-2.6,.35-4.17,.56-7.93,6.37l-1.35-10.04Z"/>
        <path class="cls-4" d="M649.73,1669.35l-9.14-25.11q-.64-1.76-4.19-4.71l12.2-4.44q-1.2,4.83-.53,6.66l9.21,25.32c3.21,8.82,10.26,12.4,18.52,9.4,7.97-2.9,10.93-10.13,7.72-18.95l-9.27-25.47q-.67-1.83-4.71-4.6l10.02-3.64q-.78,4.68-.11,6.51l9.01,24.76c4.67,12.84,.21,22.53-12,26.97-12.34,4.49-22.08,.13-26.75-12.71Z"/>
        <path class="cls-4" d="M712.62,1658.5l-21.91-34.28q-1.01-1.58-5.11-3.68l17.33-11.08c9.36-5.98,18.06-4.77,22.55,2.25,3.88,6.07,2.37,12.91-4.02,18.52l21.63,7.64q4.49,1.59,9.14,2.45l-8.92,5.7-29.24-10.62-4.87,3.11,10.07,15.75q1.05,1.64,5.89,3.36l-11.26,7.19q-.22-4.67-1.27-6.31Zm1.86-28.18c6.01-3.84,7.4-8.91,4.08-14.1-3.31-5.19-8.5-6.06-14.51-2.22l-7.46,4.77,10.43,16.32,7.46-4.77Z"/>
        <path class="cls-4" d="M760.71,1622.92l-19.22-44.79,3.62-3.71,45.45,18.25q3.73,1.44,7.94,2.61l-9.33,9.56q-1.38-4.71-4.11-5.9l-8.54-3.61-15.31,15.68,3.82,8.45q1.42,3.06,5.89,4.07l-7.29,7.47q-1.33-4.44-2.91-8.09Zm11.17-29.49l-22.83-9.6,10.14,22.6,12.69-13Z"/>
        <path class="cls-4" d="M803.65,1577.44l-34.13-22.14q-1.57-1.02-6.18-1.23l6.86-10.58q2.09,4.22,3.73,5.28l34.95,22.67,7.03-10.83c1.67-2.58,2.7-4.16,1.49-12.64l8.16,6.73-18.14,27.96q-2.13-4.16-3.77-5.22Z"/>
      </g>
    </g>
  </g>
</svg>