<?xml version="1.0" encoding="UTF-8"?><svg id="_레이어_2" xmlns="http://www.w3.org/2000/svg" xmlns:xlink="http://www.w3.org/1999/xlink" viewBox="0 0 1000 750"><defs><clipPath id="clippath"><rect width="1000" height="750" style="fill:none;"/></clipPath></defs><g id="_레이어_1-2"><g style="clip-path:url(#clippath);"><g><rect x="398.42" y="-978.8" width="203.15" height="1504.18" rx="36" ry="36" style="fill:#097aff;"/><g><g><path d="M449.35,427.08c-1.9,0-3.53,.77-4.65,2.19-1-1.47-2.39-2.19-4.25-2.19-1.52,0-2.93,.59-3.9,1.61v-1.42h-3.01v16.49h3.01v-10.53c0-1.93,1.26-3.23,3.14-3.23s2.95,1.24,2.95,3.23v10.53h3.01v-10.53c0-1.9,1.29-3.23,3.14-3.23s2.95,1.18,2.95,3.23v10.53h3.01v-10.95c0-3.54-2.06-5.73-5.38-5.73Z"/><path d="M560.21,443.95c3.3,0,5.61-2.23,5.61-5.41,0-3.77-2.9-4.69-4.46-5.18-1.55-.5-2.54-.89-2.54-2,0-.74,.49-1.49,1.58-1.49,1.31,0,1.85,1.51,1.85,1.51l2.05-2.01s-1.03-2.28-3.93-2.28c-2.64,0-4.56,1.84-4.56,4.37,0,2.95,2.25,3.77,3.81,4.32,1.47,.53,3.16,.74,3.16,2.9,0,1.5-.97,2.44-2.53,2.44-2.27,0-2.83-2.17-2.72-3.18h-2.94c-.09,1.36,.45,6.03,5.64,6.03Z"/></g><path d="M471.98,462.2c-4.74,0-8.31,3.63-8.31,8.44s3.57,8.44,8.31,8.44,8.31-3.63,8.31-8.44-3.57-8.44-8.31-8.44Zm5.24,8.44c0,3.27-2.15,5.56-5.24,5.56s-5.24-2.28-5.24-5.56,2.15-5.55,5.24-5.55,5.24,2.28,5.24,5.55Z"/><path d="M444.35,476.22c-3.08,0-5.24-2.3-5.24-5.59s2.15-5.59,5.24-5.59c2.62,0,3.88,1.84,3.88,1.84l2.26-1.98s-1.95-2.7-6.15-2.7c-4.74,0-8.31,3.63-8.31,8.44s3.57,8.44,8.31,8.44c5.31,0,7.84-4.05,8.25-7.41h-3.1c-.3,1.79-1.49,4.56-5.16,4.56Z"/><path d="M531.02,476.22c-3.05,0-5.3-2.02-5.3-4.72h13.05c.56-4.41-2.45-9.3-7.91-9.3-4.72,0-8.28,3.63-8.28,8.44s3.01,8.44,8.44,8.44m0-2.85c2.62,0,4.01-1.84,4.01-1.84l2.26,1.98s-2.08,2.7-6.28,2.7m-5.13-10.29c.63-2.25,2.58-3.73,4.96-3.73s4.21,1.55,4.73,3.73h-9.69Z"/><path d="M558.64,476.22c-3.05,0-5.3-2.02-5.3-4.72h13.05c.56-4.41-2.45-9.3-7.91-9.3-4.72,0-8.28,3.63-8.28,8.44s3.01,8.44,8.44,8.44m0-2.85c2.62,0,4.01-1.84,4.01-1.84l2.26,1.98s-2.08,2.7-6.28,2.7m-5.13-10.29c.63-2.25,2.58-3.73,4.96-3.73s4.21,1.55,4.73,3.73h-9.69Z"/><path d="M473.45,427.08c-4.74,0-8.31,3.63-8.31,8.44s3.57,8.43,8.31,8.43,8.31-3.63,8.31-8.43-3.57-8.44-8.31-8.44Zm5.24,8.44c0,3.27-2.15,5.55-5.24,5.55s-5.24-2.28-5.24-5.55,2.15-5.55,5.24-5.55,5.24,2.28,5.24,5.55Z"/><path d="M508.89,427.08c-1.9,0-3.53,.77-4.65,2.19-1-1.47-2.39-2.19-4.25-2.19-1.52,0-2.93,.59-3.9,1.61v-1.42h-3.01v16.49h3.01v-10.53c0-1.93,1.26-3.23,3.14-3.23s2.95,1.24,2.95,3.23v10.53h3.01v-10.53c0-1.9,1.29-3.23,3.14-3.23s2.95,1.18,2.95,3.23v10.53h3.01v-10.95c0-3.54-2.06-5.73-5.38-5.73Z"/><path d="M533.9,427.08c-4.74,0-8.31,3.63-8.31,8.44s3.57,8.43,8.31,8.43,8.31-3.63,8.31-8.43-3.57-8.44-8.31-8.44Zm5.24,8.44c0,3.27-2.15,5.55-5.24,5.55s-5.24-2.28-5.24-5.55,2.15-5.55,5.24-5.55,5.24,2.28,5.24,5.55Z"/><path d="M506.99,461.99c0-.5,.16-1.33,1.23-1.33s1.49,.98,1.49,.98l1.95-2.15s-.9-1.68-3.56-1.68h0c-2.46,0-4.11,1.65-4.11,4.11v2.44h-6.24v-2.38c0-.4,.12-1.33,1.26-1.33,1.07,0,1.49,.98,1.49,.98l1.95-2.15s-.9-1.68-3.56-1.68c-2.48,0-4.14,1.65-4.14,4.11v2.44h-2.83v2.85h2.83v13.64h3.01v-13.64h6.24v13.64h3.01v-13.64h4.45v-2.85h-4.45v-2.38Z"/></g></g><text transform="translate(237.94 428.66) rotate(-87.02)" style="font-family:GTUltraMedian-Regular, &apos;GT Ultra Median&apos;; font-size:75.07px; stroke:#000; stroke-miterlimit:10; stroke-width:.26px;"><tspan x="0" y="0">E</tspan></text><text transform="translate(239.82 388.25) rotate(-78.41)" style="font-family:GTUltraMedian-Regular, &apos;GT Ultra Median&apos;; font-size:75.07px; stroke:#000; stroke-miterlimit:10; stroke-width:.26px;"><tspan x="0" y="0">L</tspan></text><text transform="translate(248.57 348.45) rotate(-71.99)" style="font-family:GTUltraMedian-Regular, &apos;GT Ultra Median&apos;; font-size:75.07px; stroke:#000; stroke-miterlimit:10; stroke-width:.26px;"><tspan x="0" y="0"> </tspan></text><text transform="translate(253.17 331.71) rotate(-65.39)" style="font-family:GTUltraMedian-Regular, &apos;GT Ultra Median&apos;; font-size:75.07px; stroke:#000; stroke-miterlimit:10; stroke-width:.26px;"><tspan x="0" y="0">S</tspan></text><text transform="translate(268.62 296.16) rotate(-55.97)" style="font-family:GTUltraMedian-Regular, &apos;GT Ultra Median&apos;; font-size:75.07px; stroke:#000; stroke-miterlimit:10; stroke-width:.26px;"><tspan x="0" y="0">A</tspan></text><text transform="translate(296.02 255.8) rotate(-46.44)" style="font-family:GTUltraMedian-Regular, &apos;GT Ultra Median&apos;; font-size:75.07px; stroke:#000; stroke-miterlimit:10; stroke-width:.26px;"><tspan x="0" y="0">L</tspan></text><text transform="translate(317.43 231.91) rotate(-38.63)" style="font-family:GTUltraMedian-Regular, &apos;GT Ultra Median&apos;; font-size:75.07px; stroke:#000; stroke-miterlimit:10; stroke-width:.26px;"><tspan x="0" y="0">V</tspan></text><text transform="translate(348.25 206.16) rotate(-29.6)" style="font-family:GTUltraMedian-Regular, &apos;GT Ultra Median&apos;; font-size:75.07px; stroke:#000; stroke-miterlimit:10; stroke-width:.26px;"><tspan x="0" y="0">A</tspan></text><text transform="translate(389.95 181.78) rotate(-18.52)" style="font-family:GTUltraMedian-Regular, &apos;GT Ultra Median&apos;; font-size:75.07px; stroke:#000; stroke-miterlimit:10; stroke-width:.26px;"><tspan x="0" y="0">D</tspan></text><text transform="translate(438.61 164.63) rotate(-6.56)" style="font-family:GTUltraMedian-Regular, &apos;GT Ultra Median&apos;; font-size:75.07px; stroke:#000; stroke-miterlimit:10; stroke-width:.26px;"><tspan x="0" y="0">O</tspan></text><text transform="translate(495.23 158.13) rotate(4.63)" style="font-family:GTUltraMedian-Regular, &apos;GT Ultra Median&apos;; font-size:75.07px; stroke:#000; stroke-miterlimit:10; stroke-width:.26px;"><tspan x="0" y="0">R</tspan></text><text transform="translate(544.95 163.09) rotate(11.98)" style="font-family:GTUltraMedian-Regular, &apos;GT Ultra Median&apos;; font-size:75.07px; stroke:#000; stroke-miterlimit:10; stroke-width:.26px;"><tspan x="0" y="0"> </tspan></text><text transform="translate(562.08 165.9) rotate(18.58)" style="font-family:GTUltraMedian-Regular, &apos;GT Ultra Median&apos;; font-size:75.07px; stroke:#000; stroke-miterlimit:10; stroke-width:.26px;"><tspan x="0" y="0">S</tspan></text><text transform="translate(599.07 177.52) rotate(28.03)" style="font-family:GTUltraMedian-Regular, &apos;GT Ultra Median&apos;; font-size:75.07px; stroke:#000; stroke-miterlimit:10; stroke-width:.26px;"><tspan x="0" y="0">A</tspan></text><text transform="translate(642.17 199.75) rotate(39.22)" style="font-family:GTUltraMedian-Regular, &apos;GT Ultra Median&apos;; font-size:75.07px; stroke:#000; stroke-miterlimit:10; stroke-width:.26px;"><tspan x="0" y="0">N</tspan></text><text transform="translate(684.58 235.92) rotate(47.12)" style="font-family:GTUltraMedian-Regular, &apos;GT Ultra Median&apos;; font-size:75.07px; stroke:#000; stroke-miterlimit:10; stroke-width:.26px;"><tspan x="0" y="0"> </tspan></text><text transform="translate(697.08 247.64) rotate(54.5)" style="font-family:GTUltraMedian-Regular, &apos;GT Ultra Median&apos;; font-size:75.07px; stroke:#000; stroke-miterlimit:10; stroke-width:.26px;"><tspan x="0" y="0">A</tspan></text><text transform="translate(725.78 286.74) rotate(65.71)" style="font-family:GTUltraMedian-Regular, &apos;GT Ultra Median&apos;; font-size:75.07px; stroke:#000; stroke-miterlimit:10; stroke-width:.26px;"><tspan x="0" y="0">N</tspan></text><text transform="translate(747.77 334.31) rotate(77.11)" style="font-family:GTUltraMedian-Regular, &apos;GT Ultra Median&apos;; font-size:75.07px; stroke:#000; stroke-miterlimit:10; stroke-width:.26px;"><tspan x="0" y="0">D</tspan></text><text transform="translate(759.46 384.31) rotate(87.82)" style="font-family:GTUltraMedian-Regular, &apos;GT Ultra Median&apos;; font-size:75.07px; stroke:#000; stroke-miterlimit:10; stroke-width:.26px;"><tspan x="0" y="0">R</tspan></text><text transform="translate(761.29 432.69) rotate(97.49)" style="font-family:GTUltraMedian-Regular, &apos;GT Ultra Median&apos;; font-size:75.07px; stroke:#000; stroke-miterlimit:10; stroke-width:.26px;"><tspan x="0" y="0">E</tspan></text><text transform="translate(756.23 473.2) rotate(106.43)" style="font-family:GTUltraMedian-Regular, &apos;GT Ultra Median&apos;; font-size:75.07px; stroke:#000; stroke-miterlimit:10; stroke-width:.26px;"><tspan x="0" y="0">S</tspan></text><text transform="translate(425.77 700.8) rotate(15.71)" style="font-family:GTUltraMedian-Regular, &apos;GT Ultra Median&apos;; font-size:75.07px; stroke:#000; stroke-miterlimit:10; stroke-width:.26px;"><tspan x="0" y="0">N</tspan></text><text transform="translate(490.44 717.58) rotate(2.67)" style="font-family:GTUltraMedian-Regular, &apos;GT Ultra Median&apos;; font-size:75.07px; stroke:#000; stroke-miterlimit:10; stroke-width:.26px;"><tspan x="0" y="0">A</tspan></text><text transform="translate(544.89 719.65) rotate(-7.67)" style="font-family:GTUltraMedian-Regular, &apos;GT Ultra Median&apos;; font-size:75.07px; stroke:#000; stroke-miterlimit:10; stroke-width:.26px;"><tspan x="0" y="0">T</tspan></text><text transform="translate(600.14 711.65) rotate(-19.99)" style="font-family:GTUltraMedian-Regular, &apos;GT Ultra Median&apos;; font-size:75.07px; stroke:#000; stroke-miterlimit:10; stroke-width:.26px;"><tspan x="0" y="0">U</tspan></text><text transform="translate(659.28 688.96) rotate(-32.58)" style="font-family:GTUltraMedian-Regular, &apos;GT Ultra Median&apos;; font-size:75.07px; stroke:#000; stroke-miterlimit:10; stroke-width:.26px;"><tspan x="0" y="0">R</tspan></text><text transform="translate(712.78 653.07) rotate(-45.68)" style="font-family:GTUltraMedian-Regular, &apos;GT Ultra Median&apos;; font-size:75.07px; stroke:#000; stroke-miterlimit:10; stroke-width:.26px;"><tspan x="0" y="0">A</tspan></text><text transform="translate(754.44 608.46) rotate(-57.03)" style="font-family:GTUltraMedian-Regular, &apos;GT Ultra Median&apos;; font-size:75.07px; stroke:#000; stroke-miterlimit:10; stroke-width:.26px;"><tspan x="0" y="0">L</tspan></text></g></g></svg>