<?xml version="1.0" encoding="utf-8"?>
<!-- Generator: Adobe Illustrator 28.2.0, SVG Export Plug-In . SVG Version: 6.00 Build 0)  -->
<svg version="1.1" id="_레이어_2" xmlns="http://www.w3.org/2000/svg" xmlns:xlink="http://www.w3.org/1999/xlink" x="0px"
	 y="0px" viewBox="0 0 1000 750" style="enable-background:new 0 0 1000 750;" xml:space="preserve">
<style type="text/css">
	.st0{clip-path:url(#SVGID_00000058553116946099550090000000492219392595466130_);}
	.st1{fill:#B6651D;}
	.st2{enable-background:new    ;}
	.st3{fill:none;stroke:#000000;stroke-width:0.26;stroke-miterlimit:10;}
	.st4{fill:none;stroke:#000000;stroke-width:0.25;stroke-miterlimit:10;}
</style>
<g id="_레이어_1-2">
	<g>
		<g>
			<defs>
				<rect id="SVGID_1_" width="1000" height="750"/>
			</defs>
			<clipPath id="SVGID_00000038395375004284633990000015537747817836217741_">
				<use xlink:href="#SVGID_1_"  style="overflow:visible;"/>
			</clipPath>
			<g style="clip-path:url(#SVGID_00000038395375004284633990000015537747817836217741_);">
				<path class="st1" d="M434.4-937.4h131.1c19.9,0,36,16.1,36,36V530.8c0,19.9-16.1,36-36,36H434.4c-19.9,0-36-16.1-36-36V-901.4
					C398.4-921.3,414.5-937.4,434.4-937.4z"/>
				<g class="st2">
					<path d="M221.7,167.2v-40.6c0-1.9,0-1.9-2.3-5.8h20.8c10.2,0,15.8,5,15.8,12.5c0,5.8-4,11.1-11.1,11.9
						c7.9,0.8,13.1,5.9,13.1,13.3c0,9-6.4,14.8-18.1,14.8h-20.5C221.7,169.2,221.7,169.2,221.7,167.2z M238.3,143.2
						c6.2,0,9.4-3.4,9.4-9.1c0-5.6-3.2-9.1-9.4-9.1h-8.8v18.2H238.3z M238.8,168.8c6.8,0,11-3.8,11-10.6c0-6.9-4.3-10.7-11.2-10.7
						h-9.1v21.3H238.8z"/>
				</g>
				<g class="st2">
					<path class="st3" d="M221.7,167.2v-40.6c0-1.9,0-1.9-2.3-5.8h20.8c10.2,0,15.8,5,15.8,12.5c0,5.8-4,11.1-11.1,11.9
						c7.9,0.8,13.1,5.9,13.1,13.3c0,9-6.4,14.8-18.1,14.8h-20.5C221.7,169.2,221.7,169.2,221.7,167.2z M238.3,143.2
						c6.2,0,9.4-3.4,9.4-9.1c0-5.6-3.2-9.1-9.4-9.1h-8.8v18.2H238.3z M238.8,168.8c6.8,0,11-3.8,11-10.6c0-6.9-4.3-10.7-11.2-10.7
						h-9.1v21.3H238.8z"/>
				</g>
				<g class="st2">
					<path d="M269,167.2v-40.6c0-1.9,0-1.9-2.3-5.8h20.5c11.1,0,17.8,5.7,17.8,14c0,7.2-4.9,12.1-13.3,13.4l14.1,18.1
						c2.9,3.8,2.9,3.8,6.4,7h-10.6l-18.9-24.7h-5.8v18.7c0,2,0,2,3.1,6h-13.3C269,169.2,269,169.2,269,167.2z M285.7,144.5
						c7.1,0,11-3.5,11-9.7s-3.9-9.7-11-9.7h-8.8v19.3L285.7,144.5L285.7,144.5z"/>
				</g>
				<g class="st2">
					<path class="st3" d="M269,167.2v-40.6c0-1.9,0-1.9-2.3-5.8h20.5c11.1,0,17.8,5.7,17.8,14c0,7.2-4.9,12.1-13.3,13.4l14.1,18.1
						c2.9,3.8,2.9,3.8,6.4,7h-10.6l-18.9-24.7h-5.8v18.7c0,2,0,2,3.1,6h-13.3C269,169.2,269,169.2,269,167.2z M285.7,144.5
						c7.1,0,11-3.5,11-9.7s-3.9-9.7-11-9.7h-8.8v19.3L285.7,144.5L285.7,144.5z"/>
				</g>
				<g class="st2">
					<path d="M320.6,165.5l18.6-45h5.2l18.7,45.2c1.6,3.7,1.6,3.7,3.7,7.5h-13.3c2.4-4.3,2.4-4.3,1.3-7l-3.4-8.6h-21.9l-3.4,8.6
						c-1.2,3.2-1.2,3.2,1.2,7h-10.4C319.1,169.2,319.1,169.2,320.6,165.5z M349.5,152.9l-9.1-23l-9.1,23H349.5z"/>
				</g>
				<g class="st2">
					<path class="st3" d="M320.6,165.5l18.6-45h5.2l18.7,45.2c1.6,3.7,1.6,3.7,3.7,7.5h-13.3c2.4-4.3,2.4-4.3,1.3-7l-3.4-8.6h-21.9
						l-3.4,8.6c-1.2,3.2-1.2,3.2,1.2,7h-10.4C319.1,169.2,319.1,169.2,320.6,165.5z M349.5,152.9l-9.1-23l-9.1,23H349.5z"/>
				</g>
				<g class="st2">
					<path d="M402.8,125.6h-19.4c-3,0-4.5,0-9.1,5.3v-10.2h40.5l-30.7,47.6h19.6c3.1,0,5,0,11.6-5.6l-1.2,10.5h-42L402.8,125.6z"/>
				</g>
				<g class="st2">
					<path class="st3" d="M402.8,125.6h-19.4c-3,0-4.5,0-9.1,5.3v-10.2h40.5l-30.7,47.6h19.6c3.1,0,5,0,11.6-5.6l-1.2,10.5h-42
						L402.8,125.6z"/>
				</g>
				<g class="st2">
					<path d="M424.6,167.2v-40.6c0-1.9,0-1.9-2.3-5.8h12.5c-2.3,4-2.3,4-2.3,6v40.6c0,1.9,0,1.9,2.3,5.8h-12.5
						C424.6,169.2,424.6,169.2,424.6,167.2z"/>
				</g>
				<g class="st2">
					<path class="st3" d="M424.6,167.2v-40.6c0-1.9,0-1.9-2.3-5.8h12.5c-2.3,4-2.3,4-2.3,6v40.6c0,1.9,0,1.9,2.3,5.8h-12.5
						C424.6,169.2,424.6,169.2,424.6,167.2z"/>
				</g>
				<g class="st2">
					<path d="M446.9,167.2v-40.6c0-1.9,0-1.9-2.3-5.8h12.6c-2.4,4-2.4,4-2.4,6v41.6h12.9c3.1,0,4.9,0,11.4-5.6l-1.2,10.5h-33.3
						C446.9,169.2,446.9,169.2,446.9,167.2z"/>
				</g>
				<g class="st2">
					<path class="st3" d="M446.9,167.2v-40.6c0-1.9,0-1.9-2.3-5.8h12.6c-2.4,4-2.4,4-2.4,6v41.6h12.9c3.1,0,4.9,0,11.4-5.6
						l-1.2,10.5h-33.3C446.9,169.2,446.9,169.2,446.9,167.2z"/>
				</g>
				<g class="st2">
					<path d="M502.5,120.7h13.3c-2.3,4.1-2.3,4.1-1.3,6.9l13.8,34.6l13.8-34.7c1.2-2.9,1.2-2.9-1.1-6.8h10.6
						c-2.5,3.9-2.5,3.9-4.3,8.4L529,173.7h-4.1l-18.4-45C504.8,124.6,504.8,124.6,502.5,120.7z"/>
				</g>
				<g class="st2">
					<path class="st3" d="M502.5,120.7h13.3c-2.3,4.1-2.3,4.1-1.3,6.9l13.8,34.6l13.8-34.7c1.2-2.9,1.2-2.9-1.1-6.8h10.6
						c-2.5,3.9-2.5,3.9-4.3,8.4L529,173.7h-4.1l-18.4-45C504.8,124.6,504.8,124.6,502.5,120.7z"/>
				</g>
				<g class="st2">
					<path d="M560.5,167.2v-40.6c0-1.9,0-1.9-2.3-5.8h12.5c-2.3,4-2.3,4-2.3,6v40.6c0,1.9,0,1.9,2.3,5.8h-12.5
						C560.5,169.2,560.5,169.2,560.5,167.2z"/>
				</g>
				<g class="st2">
					<path class="st3" d="M560.5,167.2v-40.6c0-1.9,0-1.9-2.3-5.8h12.5c-2.3,4-2.3,4-2.3,6v40.6c0,1.9,0,1.9,2.3,5.8h-12.5
						C560.5,169.2,560.5,169.2,560.5,167.2z"/>
				</g>
				<g class="st2">
					<path d="M582.5,167.2V123l-2.1-2.3h9.4l30.4,38.6v-32.7c0-2,0-2-3.1-5.9H628c-2.4,4-2.4,4-2.4,6v47h-3.8l-33.9-42.3v35.8
						c0,2,0,2,3.1,5.9h-10.9C582.5,169.2,582.5,169.2,582.5,167.2z"/>
				</g>
				<g class="st2">
					<path class="st3" d="M582.5,167.2V123l-2.1-2.3h9.4l30.4,38.6v-32.7c0-2,0-2-3.1-5.9H628c-2.4,4-2.4,4-2.4,6v47h-3.8
						l-33.9-42.3v35.8c0,2,0,2,3.1,5.9h-10.9C582.5,169.2,582.5,169.2,582.5,167.2z"/>
				</g>
				<g class="st2">
					<path d="M674,167.2v-19.1h-26.5v19.3c0,1.9,0,1.9,2.3,5.8h-12.5c2.3-4,2.3-4,2.3-6v-40.6c0-1.9,0-1.9-2.3-5.8h12.5
						c-2.3,4-2.3,4-2.3,6v16.5H674v-16.6c0-1.9,0-1.9-2.4-5.8h12.6c-2.3,4-2.3,4-2.3,6v40.6c0,1.9,0,1.9,2.3,5.8h-12.6
						C674,169.2,674,169.2,674,167.2z"/>
					<path d="M694.1,165.5l18.6-45h5.2l18.7,45.2c1.6,3.7,1.6,3.7,3.7,7.5H727c2.4-4.3,2.4-4.3,1.3-7l-3.4-8.6H703l-3.4,8.6
						c-1.2,3.2-1.2,3.2,1.2,7h-10.4C692.6,169.2,692.6,169.2,694.1,165.5z M723,152.9l-9.1-23l-9.1,23H723z"/>
				</g>
				<g class="st2">
					<path class="st3" d="M674,167.2v-19.1h-26.5v19.3c0,1.9,0,1.9,2.3,5.8h-12.5c2.3-4,2.3-4,2.3-6v-40.6c0-1.9,0-1.9-2.3-5.8h12.5
						c-2.3,4-2.3,4-2.3,6v16.5H674v-16.6c0-1.9,0-1.9-2.4-5.8h12.6c-2.3,4-2.3,4-2.3,6v40.6c0,1.9,0,1.9,2.3,5.8h-12.6
						C674,169.2,674,169.2,674,167.2z"/>
					<path class="st3" d="M694.1,165.5l18.6-45h5.2l18.7,45.2c1.6,3.7,1.6,3.7,3.7,7.5H727c2.4-4.3,2.4-4.3,1.3-7l-3.4-8.6H703
						l-3.4,8.6c-1.2,3.2-1.2,3.2,1.2,7h-10.4C692.6,169.2,692.6,169.2,694.1,165.5z M723,152.9l-9.1-23l-9.1,23H723z"/>
				</g>
				<g class="st2">
					<path d="M750.1,167.2v-40.6c0-1.9,0-1.9-2.3-5.8h12.6c-2.4,4-2.4,4-2.4,6v41.6h12.9c3.1,0,4.9,0,11.4-5.6l-1.2,10.5h-33.3
						C750.1,169.2,750.1,169.2,750.1,167.2z"/>
				</g>
				<g class="st2">
					<path class="st3" d="M750.1,167.2v-40.6c0-1.9,0-1.9-2.3-5.8h12.6c-2.4,4-2.4,4-2.4,6v41.6h12.9c3.1,0,4.9,0,11.4-5.6
						l-1.2,10.5h-33.3C750.1,169.2,750.1,169.2,750.1,167.2z"/>
				</g>
				<g class="st2">
					<path d="M393.7,630.9h13.1c-2.5,4.2-2.5,4.2-1.7,7l10.4,33.7l14.5-41h4.4l14.4,41.1l10.6-33.8c0.9-3,0.9-3-1.8-6.9h10.5
						c-2.2,4.1-2.2,4.1-3.5,8l-15,45.1h-3.9L431,642.4l-15.1,41.5h-4L397,638.2C395.7,634.6,395.7,634.6,393.7,630.9z"/>
				</g>
				<g class="st2">
					<path class="st3" d="M393.7,630.9h13.1c-2.5,4.2-2.5,4.2-1.7,7l10.4,33.7l14.5-41h4.4l14.4,41.1l10.6-33.8c0.9-3,0.9-3-1.8-6.9
						h10.5c-2.2,4.1-2.2,4.1-3.5,8l-15,45.1h-3.9L431,642.4l-15.1,41.5h-4L397,638.2C395.7,634.6,395.7,634.6,393.7,630.9z"/>
				</g>
				<g class="st2">
					<path d="M477.4,677.4v-40.6c0-1.9,0-1.9-2.3-5.8h12.6c-2.4,4-2.4,4-2.4,6v41.6h12.9c3.1,0,5,0,11.4-5.6l-1.2,10.5H475
						C477.4,679.3,477.4,679.3,477.4,677.4z"/>
				</g>
				<g class="st2">
					<path class="st3" d="M477.4,677.4v-40.6c0-1.9,0-1.9-2.3-5.8h12.6c-2.4,4-2.4,4-2.4,6v41.6h12.9c3.1,0,5,0,11.4-5.6l-1.2,10.5
						H475C477.4,679.3,477.4,679.3,477.4,677.4z"/>
				</g>
				<g class="st2">
					<path d="M514.8,657.1c0-17.1,8-27.4,20.5-27.4s20.5,10.3,20.5,27.4c0,16.9-8.1,27.4-20.5,27.4
						C522.9,684.5,514.8,674.1,514.8,657.1z M535.3,679.7c8.2,0,12.3-7.7,12.3-22.6s-4-22.6-12.3-22.6s-12.4,7.7-12.4,22.6
						S527,679.7,535.3,679.7z"/>
				</g>
				<g class="st2">
					<path class="st3" d="M514.8,657.1c0-17.1,8-27.4,20.5-27.4s20.5,10.3,20.5,27.4c0,16.9-8.1,27.4-20.5,27.4
						C522.9,684.5,514.8,674.1,514.8,657.1z M535.3,679.7c8.2,0,12.3-7.7,12.3-22.6s-4-22.6-12.3-22.6s-12.4,7.7-12.4,22.6
						S527,679.7,535.3,679.7z"/>
				</g>
				<g class="st2">
					<path d="M601.3,654.2c0,17.6-10.7,30.3-26.1,30.3c-6.5,0-11.2-2.4-13-6.1c2.5,1,5.2,1.5,8.9,1.5c12.7,0,21.7-9.4,22.3-24.7
						c-2.6,5.3-7.4,8.3-14,8.3c-9.8,0-16.4-6.9-16.4-16.2c0-10.4,7.6-17.5,18-17.5C593.6,629.8,601.3,639.1,601.3,654.2z
						 M582.5,658.1c5.2,0,9.1-2.8,10.9-7.4c-0.8-10.4-5.2-16.4-12.1-16.4c-6,0-10.3,4.4-10.3,11.7
						C571,652.9,575.5,658.1,582.5,658.1z"/>
				</g>
				<g class="st2">
					<path class="st3" d="M601.3,654.2c0,17.6-10.7,30.3-26.1,30.3c-6.5,0-11.2-2.4-13-6.1c2.5,1,5.2,1.5,8.9,1.5
						c12.7,0,21.7-9.4,22.3-24.7c-2.6,5.3-7.4,8.3-14,8.3c-9.8,0-16.4-6.9-16.4-16.2c0-10.4,7.6-17.5,18-17.5
						C593.6,629.8,601.3,639.1,601.3,654.2z M582.5,658.1c5.2,0,9.1-2.8,10.9-7.4c-0.8-10.4-5.2-16.4-12.1-16.4
						c-6,0-10.3,4.4-10.3,11.7C571,652.9,575.5,658.1,582.5,658.1z"/>
				</g>
				<g class="st2">
					<path d="M210.4,416l-32.7-24.1c-1.5-1.1-1.5-1.1-6.1-1.6l12.3-16.7c6.1-8.2,13.4-9.8,19.5-5.3c4.7,3.5,6.6,9.8,3,16
						c5.3-5.9,12.6-7,18.5-2.7c7.2,5.3,8.1,14,1.2,23.3l-12.2,16.5C211.9,417.1,211.9,417.1,210.4,416z M200.9,388.4
						c3.7-5,2.8-9.7-1.7-13s-9.2-2.8-12.9,2.2l-5.2,7.1l14.7,10.8L200.9,388.4z M221.8,403.1c4.1-5.5,3.5-11.1-2-15.1
						c-5.6-4.1-11.2-2.9-15.3,2.6l-5.4,7.3l17.1,12.7L221.8,403.1z"/>
				</g>
				<g class="st2">
					<path class="st4" d="M210.4,416l-32.7-24.1c-1.5-1.1-1.5-1.1-6.1-1.6l12.3-16.7c6.1-8.2,13.4-9.8,19.5-5.3
						c4.7,3.5,6.6,9.8,3,16c5.3-5.9,12.6-7,18.5-2.7c7.2,5.3,8.1,14,1.2,23.3l-12.2,16.5C211.9,417.1,211.9,417.1,210.4,416z
						 M200.9,388.4c3.7-5,2.8-9.7-1.7-13s-9.2-2.8-12.9,2.2l-5.2,7.1l14.7,10.8L200.9,388.4z M221.8,403.1c4.1-5.5,3.5-11.1-2-15.1
						c-5.6-4.1-11.2-2.9-15.3,2.6l-5.4,7.3l17.1,12.7L221.8,403.1z"/>
				</g>
				<g class="st2">
					<path d="M228.7,369.9l-17.7-20c-1.2-1.4-1.2-1.4-5.6-2.8l9.7-8.6c0.7,4.9,0.7,4.9,2,6.4l17.8,20.2c6.2,7,14.1,7.8,20.7,1.9
						c6.3-5.6,6.4-13.4,0.2-20.4l-18-20.3c-1.3-1.5-1.3-1.5-6.1-2.5l8-7.1c1,4.6,1,4.6,2.3,6.1l17.5,19.7
						c9.1,10.2,8.5,20.9-1.3,29.5C248.4,380.6,237.7,380.1,228.7,369.9z"/>
				</g>
				<g class="st2">
					<path class="st4" d="M228.7,369.9l-17.7-20c-1.2-1.4-1.2-1.4-5.6-2.8l9.7-8.6c0.7,4.9,0.7,4.9,2,6.4l17.8,20.2
						c6.2,7,14.1,7.8,20.7,1.9c6.3-5.6,6.4-13.4,0.2-20.4l-18-20.3c-1.3-1.5-1.3-1.5-6.1-2.5l8-7.1c1,4.6,1,4.6,2.3,6.1l17.5,19.7
						c9.1,10.2,8.5,20.9-1.3,29.5C248.4,380.6,237.7,380.1,228.7,369.9z"/>
				</g>
				<g class="st2">
					<path d="M250.9,308.7l36-22.1l5.3,8.6c-6.6-2.1-7.9-1.3-10.2,0.1l-7.2,4.4l21.9,35.6c1,1.6,1,1.6,5.5,3.5l-11.8,7.2
						c0.5-5.2,0.5-5.2-0.5-6.9l-21.7-35.3l-7.3,4.5c-2.2,1.4-3.6,2.2-4.7,9L250.9,308.7z"/>
				</g>
				<g class="st2">
					<path class="st4" d="M250.9,308.7l36-22.1l5.3,8.6c-6.6-2.1-7.9-1.3-10.2,0.1l-7.2,4.4l21.9,35.6c1,1.6,1,1.6,5.5,3.5
						l-11.8,7.2c0.5-5.2,0.5-5.2-0.5-6.9l-21.7-35.3l-7.3,4.5c-2.2,1.4-3.6,2.2-4.7,9L250.9,308.7z"/>
				</g>
				<g class="st2">
					<path d="M296.9,281.5l38.8-16.9l4,9.3c-6.3-3-7.7-2.4-10.1-1.3l-7.8,3.4l16.7,38.3c0.7,1.7,0.7,1.7,4.9,4.2l-12.7,5.5
						c1.2-5.1,1.2-5.1,0.4-6.9l-16.6-38l-7.8,3.4c-2.4,1-3.9,1.7-5.9,8.3L296.9,281.5z"/>
				</g>
				<g class="st2">
					<path class="st4" d="M296.9,281.5l38.8-16.9l4,9.3c-6.3-3-7.7-2.4-10.1-1.3l-7.8,3.4l16.7,38.3c0.7,1.7,0.7,1.7,4.9,4.2
						l-12.7,5.5c1.2-5.1,1.2-5.1,0.4-6.9l-16.6-38l-7.8,3.4c-2.4,1-3.9,1.7-5.9,8.3L296.9,281.5z"/>
				</g>
				<g class="st2">
					<path d="M362.6,304.6l-11.7-38.9c-0.5-1.8-0.5-1.8-3.9-4.9l33.3-10.1l2.6,8.8c-5.8-2.9-7.3-2.4-9.8-1.7l-15,4.5l5.1,16.9
						l12.3-3.7c2.3-0.7,3.5-1.1,6.4-5l3,10.1c-4.6-1.6-5.8-1.2-8.1-0.5l-12.3,3.7l6,19.7l13.8-4.2c2.8-0.8,4.5-1.3,9-8l1.7,9.7
						l-32.9,9.9C363.2,306.5,363.2,306.5,362.6,304.6z"/>
				</g>
				<g class="st2">
					<path class="st4" d="M362.6,304.6l-11.7-38.9c-0.5-1.8-0.5-1.8-3.9-4.9l33.3-10.1l2.6,8.8c-5.8-2.9-7.3-2.4-9.8-1.7l-15,4.5
						l5.1,16.9l12.3-3.7c2.3-0.7,3.5-1.1,6.4-5l3,10.1c-4.6-1.6-5.8-1.2-8.1-0.5l-12.3,3.7l6,19.7l13.8-4.2c2.8-0.8,4.5-1.3,9-8
						l1.7,9.7l-32.9,9.9C363.2,306.5,363.2,306.5,362.6,304.6z"/>
				</g>
				<g class="st2">
					<path d="M403.9,292.8l-7.2-40c-0.3-1.8-0.3-1.8-3.3-5.3l20.2-3.7c10.9-2,18.5,2.4,20,10.6c1.3,7.1-2.7,12.8-10.7,15.6
						l17.1,15.3c3.5,3.2,3.5,3.2,7.5,5.7l-10.4,1.9L414,272l-5.7,1l3.3,18.4c0.3,1.9,0.3,1.9,4.2,5.3l-13.1,2.4
						C404.3,294.7,404.3,294.7,403.9,292.8z M416.3,267.4c7-1.3,10.2-5.4,9.1-11.5s-5.6-8.8-12.6-7.6l-8.7,1.6l3.4,19L416.3,267.4z"
						/>
				</g>
				<g class="st2">
					<path class="st4" d="M403.9,292.8l-7.2-40c-0.3-1.8-0.3-1.8-3.3-5.3l20.2-3.7c10.9-2,18.5,2.4,20,10.6
						c1.3,7.1-2.7,12.8-10.7,15.6l17.1,15.3c3.5,3.2,3.5,3.2,7.5,5.7l-10.4,1.9L414,272l-5.7,1l3.3,18.4c0.3,1.9,0.3,1.9,4.2,5.3
						l-13.1,2.4C404.3,294.7,404.3,294.7,403.9,292.8z M416.3,267.4c7-1.3,10.2-5.4,9.1-11.5s-5.6-8.8-12.6-7.6l-8.7,1.6l3.4,19
						L416.3,267.4z"/>
				</g>
				<g class="st2">
					<path d="M470.7,263.4c-0.2-16.9,10.4-28.2,26.7-28.4c7.5-0.1,13.4,1.8,17.6,5.3l0.1,10.1c-4.5-6.9-10.5-10.2-18.2-10.1
						c-11.5,0.2-18.6,7.9-18.4,20.4c0.2,13.6,8.8,22.2,21.2,22c7.3-0.1,13.5-3.4,16.7-9.4c-0.9,10.4-7.9,16.2-19.8,16.4
						C481.4,290,470.9,279.2,470.7,263.4z"/>
				</g>
				<g class="st2">
					<path class="st4" d="M470.7,263.4c-0.2-16.9,10.4-28.2,26.7-28.4c7.5-0.1,13.4,1.8,17.6,5.3l0.1,10.1
						c-4.5-6.9-10.5-10.2-18.2-10.1c-11.5,0.2-18.6,7.9-18.4,20.4c0.2,13.6,8.8,22.2,21.2,22c7.3-0.1,13.5-3.4,16.7-9.4
						c-0.9,10.4-7.9,16.2-19.8,16.4C481.4,290,470.9,279.2,470.7,263.4z"/>
				</g>
				<g class="st2">
					<path d="M524.2,262.2c1.7-15.7,14-26,30.1-24.2c16,1.8,25.9,14.6,24.1,30.2c-1.7,15.7-14.1,26-30.1,24.2
						C532.3,290.6,522.5,277.9,524.2,262.2z M548.8,287.4c10.6,1.2,19.6-5.8,21.2-20.1c1.6-14.3-5.7-23.1-16.3-24.3
						c-10.5-1.2-19.6,5.8-21.2,20.1C531,277.4,538.3,286.2,548.8,287.4z"/>
				</g>
				<g class="st2">
					<path class="st4" d="M524.2,262.2c1.7-15.7,14-26,30.1-24.2c16,1.8,25.9,14.6,24.1,30.2c-1.7,15.7-14.1,26-30.1,24.2
						C532.3,290.6,522.5,277.9,524.2,262.2z M548.8,287.4c10.6,1.2,19.6-5.8,21.2-20.1c1.6-14.3-5.7-23.1-16.3-24.3
						c-10.5-1.2-19.6,5.8-21.2,20.1C531,277.4,538.3,286.2,548.8,287.4z"/>
				</g>
				<g class="st2">
					<path d="M587.3,270.7c4.1-16.5,17.2-24.6,33.1-20.7c7.3,1.8,12.5,5.1,15.7,9.6l-2.4,9.8c-2.6-7.8-7.6-12.5-15.1-14.4
						c-11.2-2.8-20,2.9-23,15c-3.3,13.2,2.8,23.7,14.9,26.7c7.1,1.8,14,0.1,18.5-4.8c-3.5,9.8-11.8,13.7-23.3,10.8
						C590.8,299.1,583.5,286,587.3,270.7z"/>
				</g>
				<g class="st2">
					<path class="st4" d="M587.3,270.7c4.1-16.5,17.2-24.6,33.1-20.7c7.3,1.8,12.5,5.1,15.7,9.6l-2.4,9.8
						c-2.6-7.8-7.6-12.5-15.1-14.4c-11.2-2.8-20,2.9-23,15c-3.3,13.2,2.8,23.7,14.9,26.7c7.1,1.8,14,0.1,18.5-4.8
						c-3.5,9.8-11.8,13.7-23.3,10.8C590.8,299.1,583.5,286,587.3,270.7z"/>
				</g>
				<g class="st2">
					<path d="M639.7,283.3c5.9-14.6,20.6-21.2,35.5-15.1s20.9,21.1,14.9,35.7c-5.9,14.6-20.7,21.1-35.6,15
						C639.6,312.8,633.7,297.8,639.7,283.3z M656.4,314.2c9.9,4,20.4-0.3,25.9-13.6c5.4-13.3,0.9-23.8-9-27.8
						c-9.8-4-20.4,0.3-25.9,13.6C642,299.8,646.6,310.2,656.4,314.2z"/>
				</g>
				<g class="st2">
					<path class="st4" d="M639.7,283.3c5.9-14.6,20.6-21.2,35.5-15.1s20.9,21.1,14.9,35.7c-5.9,14.6-20.7,21.1-35.6,15
						C639.6,312.8,633.7,297.8,639.7,283.3z M656.4,314.2c9.9,4,20.4-0.3,25.9-13.6c5.4-13.3,0.9-23.8-9-27.8
						c-9.8-4-20.4,0.3-25.9,13.6C642,299.8,646.6,310.2,656.4,314.2z"/>
				</g>
				<g class="st2">
					<path d="M690.5,327.1l23.4-37.5l-0.5-3.1l7.9,5l5.3,48.9l17.3-27.7c1-1.7,1-1.7,0.5-6.7l9.2,5.7c-4.2,2.2-4.2,2.2-5.2,3.8
						l-24.9,39.9l-3.2-2l-6.3-53.8L695,330c-1,1.7-1,1.7-0.5,6.7l-9.2-5.8C689.5,328.7,689.5,328.7,690.5,327.1z"/>
				</g>
				<g class="st2">
					<path class="st4" d="M690.5,327.1l23.4-37.5l-0.5-3.1l7.9,5l5.3,48.9l17.3-27.7c1-1.7,1-1.7,0.5-6.7l9.2,5.7
						c-4.2,2.2-4.2,2.2-5.2,3.8l-24.9,39.9l-3.2-2l-6.3-53.8L695,330c-1,1.7-1,1.7-0.5,6.7l-9.2-5.8
						C689.5,328.7,689.5,328.7,690.5,327.1z"/>
				</g>
				<g class="st2">
					<path d="M746.1,347l18.2-19.5c1.3-1.4,1.3-1.4,2.3-5.9l9.5,8.9c-4.8,1.1-4.8,1.1-6.2,2.5l-18.4,19.7c-6.4,6.8-6.4,14.8,0,20.7
						c6.2,5.8,14,5.2,20.4-1.7l18.5-19.8c1.3-1.4,1.3-1.4,2-6.3l7.8,7.3c-4.5,1.4-4.5,1.4-5.8,2.9l-18,19.2
						c-9.3,10-20,10.4-29.5,1.5C737.3,367.6,736.8,357,746.1,347z"/>
				</g>
				<g class="st2">
					<path class="st4" d="M746.1,347l18.2-19.5c1.3-1.4,1.3-1.4,2.3-5.9l9.5,8.9c-4.8,1.1-4.8,1.1-6.2,2.5l-18.4,19.7
						c-6.4,6.8-6.4,14.8,0,20.7c6.2,5.8,14,5.2,20.4-1.7l18.5-19.8c1.3-1.4,1.3-1.4,2-6.3l7.8,7.3c-4.5,1.4-4.5,1.4-5.8,2.9
						l-18,19.2c-9.3,10-20,10.4-29.5,1.5C737.3,367.6,736.8,357,746.1,347z"/>
				</g>
				<g class="st2">
					<path d="M810.3,364.7l24,34.8l-8.3,5.7c1.7-6.7,0.9-8-0.6-10.2l-4.8-7l-34.4,23.7c-1.5,1.1-1.5,1.1-3.2,5.7l-7.8-11.4
						c5.2,0.2,5.2,0.2,6.9-0.9l34.2-23.5l-4.8-7c-1.5-2.2-2.4-3.5-9.3-4.2L810.3,364.7z"/>
				</g>
				<g class="st2">
					<path class="st4" d="M810.3,364.7l24,34.8l-8.3,5.7c1.7-6.7,0.9-8-0.6-10.2l-4.8-7l-34.4,23.7c-1.5,1.1-1.5,1.1-3.2,5.7
						l-7.8-11.4c5.2,0.2,5.2,0.2,6.9-0.9l34.2-23.5l-4.8-7c-1.5-2.2-2.4-3.5-9.3-4.2L810.3,364.7z"/>
				</g>
				<g>
					<path d="M550.1,428.2c0-1.5,0-3,0-4.5c0-0.1-0.1-0.2-0.1-0.3c0,0-0.1,0-0.1,0c0-0.3,0-0.6,0-0.9c-0.5-0.1-0.1-0.5-0.3-0.8
						c-0.1,0-0.2,0-0.3,0c0-0.2,0-0.5,0-0.7c-0.1,0-0.2-0.1-0.2-0.1c-0.1-0.2,0.1-0.5-0.3-0.5c0-0.2,0-0.3,0-0.4
						c-0.1,0-0.2,0-0.2-0.1c0-0.2,0-0.3,0-0.4c-0.3-0.2-0.5-0.5-0.8-0.7c0-0.1,0-0.2,0-0.3c-0.5-0.5-1.1-1-1.6-1.6
						c-0.1,0-0.3,0-0.4,0c0,0,0,0,0-0.1c-0.2-0.2-0.4-0.5-0.7-0.7c-0.1,0-0.3,0-0.5,0c0.5-0.5,0.9-0.9,1.3-1.4c0-0.1,0-0.2,0-0.3
						c0.2-0.1,0.3-0.3,0.6-0.4c0-0.1,0-0.3,0-0.4c0.2-0.2,0.3-0.3,0.5-0.4c0-0.1,0-0.2,0-0.4c0.1,0,0.2-0.1,0.3-0.1
						c0-0.2,0-0.5,0-0.7c0.1,0,0.2,0,0.2-0.1c0-0.1,0-0.3,0-0.4c0.1,0,0.2-0.1,0.3-0.1c0-0.2,0-0.4,0-0.7c0.1,0,0.2,0,0.3-0.1
						c0-0.2,0-0.5,0-0.7c0,0,0.1,0,0.1,0c0-0.1,0.1-0.2,0.1-0.3c0-0.2,0-0.5,0-0.7c0-0.1,0.1-0.2,0.1-0.3c0,0,0.1,0,0.1,0
						c0-1.5,0-3,0-4.5c-0.3,0.1-0.2-0.1-0.2-0.3c0-0.3,0-0.6,0-0.9c0-0.2,0-0.3-0.3-0.3c0-0.2,0-0.5,0-0.7c-0.1,0-0.2,0-0.3,0
						c0-0.3,0-0.5,0-0.7c-0.3,0-0.2-0.2-0.2-0.3c0-0.2,0.1-0.4-0.2-0.4c0-0.2,0-0.3,0-0.5c-0.4,0-0.2-0.3-0.3-0.5
						c-0.1-0.1-0.1-0.1-0.2-0.2c-0.1-0.1-0.2-0.1-0.3-0.2c0-0.1,0-0.2,0-0.4c-0.1,0-0.2,0-0.2,0c-0.1-0.2-0.2-0.3-0.4-0.4
						c0,0,0-0.2,0-0.2c-0.4-0.4-0.7-0.7-1.1-1.1c0,0,0,0,0,0c-0.4-0.4-0.8-0.8-1.3-1.3c-0.1,0-0.2,0-0.3,0c-0.2-0.2-0.3-0.4-0.4-0.5
						c-0.1,0-0.2,0-0.4,0c0-0.4-0.3-0.2-0.5-0.3c0-0.1,0-0.1-0.1-0.2c-0.2,0-0.3,0-0.5,0c0,0,0-0.1,0-0.1c-0.1,0-0.2-0.1-0.3-0.1
						c-0.1,0-0.2,0-0.3,0c-0.1,0-0.1-0.1-0.2-0.2c-6.2,0-12.5,0-18.7,0c0,15,0,30,0,45c0.1,0,0.2,0,0.3,0c0,0.1,0,0.2,0,0.3
						c5.1,0,10.2,0,15.3,0c0-0.1,0-0.2,0-0.3c0.6,0,1.1,0,1.7,0c0.2,0,0.3,0,0.3-0.2c0.3,0,0.5,0,0.7,0c0.1,0,0.2-0.1,0.3-0.1
						c0,0,0-0.1,0-0.1c0.2,0,0.4,0,0.7,0c-0.1-0.3,0.2-0.2,0.3-0.2c0.2,0,0.5,0.1,0.5-0.2c0.2,0,0.3,0,0.4,0c0-0.4,0.3-0.1,0.5-0.3
						c0-0.1,0-0.2,0-0.3c0.2,0,0.3,0,0.5,0c0-0.1,0.1-0.2,0.1-0.2c0.1,0,0.3,0,0.4,0c0.1-0.2,0.3-0.3,0.4-0.5c0.1,0,0.3,0,0.3,0
						c0.2-0.2,0.4-0.4,0.5-0.5c0.1-0.1,0.2-0.2,0.2-0.2c0.2-0.3,0.4-0.6,0.8-0.8c0,0,0,0,0-0.1c0.1-0.1,0.2-0.3,0.3-0.4
						c0.2-0.1,0.3-0.3,0.4-0.5c0.2-0.1,0.3-0.3,0.5-0.4c0-0.1,0-0.2,0-0.4c0.1,0,0.2,0,0.3-0.1c0-0.2,0-0.3,0-0.4
						c0.2-0.1,0.3-0.3,0.5-0.4c0-0.1,0-0.2,0-0.4c0.1,0,0.2,0,0.2-0.1c0.1-0.2-0.1-0.5,0.3-0.5c0-0.3,0-0.5,0-0.7
						c0.5-0.1,0.1-0.5,0.3-0.7c0.1,0,0.2,0,0.3-0.1c0-0.7,0-0.7,0.3-0.8c0-0.4,0-0.8,0-1.2C550.2,428.5,550.1,428.3,550.1,428.2z
						 M531.7,402.5c0.1,0,0.2,0,0.2,0c1.4,0,2.8,0,4.3,0c0.2,0,0.3,0,0.3,0.2c0.2,0,0.3,0,0.5,0c0,0.1,0,0.2,0.1,0.2
						c0.2,0,0.3,0,0.5,0c0,0.1,0,0.2,0.1,0.3c0.1,0,0.3,0,0.3,0c0.1,0.1,0.2,0.2,0.4,0.4c0,0.1,0,0.2,0,0.3c0.4,0,0.2,0.3,0.3,0.5
						c0.1,0,0.1,0,0.2,0.1c0,0.2,0,0.3,0,0.5c0.1,0,0.2,0,0.3,0.1c0,1.3,0,2.6,0,4c-0.1,0-0.2,0-0.3,0c0,0.2,0,0.5,0,0.7
						c-0.4,0-0.2,0.3-0.2,0.4c-0.5,0.5-0.9,0.9-1.3,1.4c-0.2,0-0.4,0-0.6,0c0,0,0,0.1,0,0.1c-0.1,0.1-0.2,0.2-0.2,0.2
						c-1.5,0-3,0-4.6,0C531.7,408.7,531.7,405.6,531.7,402.5z M540.5,427.2c-0.1,0-0.2,0-0.2,0c-0.2,0.3,0.2,0.7-0.3,0.8
						c0,0.1,0,0.3,0,0.4c-0.4,0-0.2,0.3-0.2,0.5c-0.2,0.2-0.4,0.4-0.6,0.6c-0.1,0-0.2,0-0.3,0c-0.1,0.2-0.3,0.3-0.4,0.5
						c-0.1,0-0.2,0-0.4,0c0,0.1-0.1,0.2-0.1,0.2c-0.2,0-0.5,0-0.7,0c0,0.1,0,0.2-0.1,0.3c-1.8,0-3.6,0-5.5,0c0-3.3,0-6.6,0-9.8
						c0.1,0,0.1,0,0.2,0c1.4,0,2.9,0,4.3,0c0.2,0,0.3,0,0.3,0.2c0.3,0,0.7,0,1,0c0.1,0,0.2,0.1,0.3,0.1c0,0,0,0.1,0,0.1
						c0.1,0,0.3,0,0.4,0c0,0.1,0,0.2,0.1,0.3c0.1,0,0.3,0,0.4,0c0.4,0.4,0.7,0.7,1.1,1.1c0,0.1,0,0.3,0,0.4c0.1,0,0.2,0,0.2,0.1
						c0,0.1,0,0.3,0,0.4c0.5,0.1,0.1,0.5,0.3,0.8c0.1,0,0.1,0,0.2,0C540.5,425.2,540.5,426.1,540.5,427.2z"/>
					<path d="M509.7,394.3c-3.2,0-6.4,0-9.6,0c0,10.7,0,21.4,0,32.2c0,0-0.1,0-0.1,0c0,0.1-0.1,0.2-0.1,0.3c0,0.3,0,0.5,0,0.8
						c0,0.1-0.1,0.2-0.1,0.3c0,0-0.1,0-0.1,0c0,0.2,0,0.4,0,0.7c-0.1,0-0.2,0-0.3,0c0,0.2,0,0.3,0,0.5c-0.4,0-0.2,0.3-0.3,0.4
						c-0.3,0.3-0.7,0.7-1,1c0,0,0,0,0.1,0.1c-0.1,0-0.3,0-0.5,0c0,0.1-0.1,0.2-0.1,0.2c-0.1,0-0.3,0-0.4,0c0,0.1,0,0.2-0.1,0.2
						c-1.1,0-2.2,0-3.3,0c-0.1,0-0.2-0.1-0.3-0.2c-0.2,0-0.4,0-0.6,0c-0.1-0.2-0.3-0.3-0.4-0.5c-0.1,0-0.2,0-0.3,0
						c-0.2-0.2-0.4-0.4-0.7-0.6c0-0.1,0-0.2,0-0.4c-0.1,0-0.2,0-0.2-0.1c0-0.5,0-0.5-0.3-0.6c0-0.1,0-0.1,0-0.2c0-0.1,0-0.1,0-0.2
						c-0.5-0.1-0.1-0.5-0.3-0.7c-0.2,0-0.2-0.1-0.2-0.3c0-0.5,0-1,0-1.5c-0.1,0-0.2,0-0.3,0c0-10.5,0-20.9,0-31.4
						c-3.2,0-6.4,0-9.6,0c0,10.6,0,21.2,0,31.9c0,0.2-0.1,0.4,0.2,0.4c0,0.7,0,1.3,0,2c0,0,0.1,0,0.1,0c0,0.1,0.1,0.2,0.1,0.3
						c0,0.3,0,0.7,0,1c0.1,0,0.2,0,0.3,0.1c0,0.3,0,0.6,0,1c0.3,0,0.2,0.2,0.2,0.4c0,0.2-0.1,0.4,0.2,0.4c0,0.3,0,0.5,0,0.7
						c0.1,0,0.2,0.1,0.2,0.1c0,0.2-0.1,0.5,0.3,0.5c0,0.2,0,0.3,0,0.4c0.1,0,0.2,0,0.2,0.1c0,0.2,0,0.3,0,0.5c0.1,0,0.2,0,0.3,0.1
						c0,0.1,0,0.3,0,0.4c0.2,0.1,0.3,0.3,0.5,0.4c0,0.1,0,0.3,0,0.4c0,0,0,0,0.1,0c0.8,0.8,1.5,1.5,2.3,2.3c0,0,0,0,0,0
						c0.2,0.2,0.4,0.3,0.6,0.6c0.1,0,0.2,0,0.3,0c0.2,0.2,0.3,0.4,0.4,0.5c0.1,0,0.3,0,0.4,0c0,0.1,0,0.2,0.1,0.2c0.2,0,0.3,0,0.4,0
						c0,0.4,0.3,0.1,0.5,0.3c0,0,0,0.1,0,0.2c0.2,0,0.3,0,0.5,0c0,0.1,0.1,0.2,0.1,0.3c0.2,0,0.4,0,0.7,0c0,0.1,0,0.2,0.1,0.3
						c0.3,0,0.6,0,1,0c0,0,0,0.1,0,0.1c0.1,0,0.2,0.1,0.3,0.1c0.1,0,0.3,0,0.4,0c0.1,0,0.2,0.1,0.3,0.1c0,0,0,0.1,0,0.1
						c0.6,0,1.1,0,1.7,0c0,0,0,0.1,0,0.1c0.1,0,0.2,0.1,0.3,0.1c0.9,0,1.8,0,2.7,0c0.1,0,0.2-0.1,0.3-0.1c0,0,0-0.1,0-0.1
						c0.5,0,0.9,0,1.4,0c0.1,0,0.2-0.1,0.3-0.1c0,0,0-0.1,0-0.1c0.4,0,0.8,0,1.2,0c0.1-0.5,0.5-0.1,0.8-0.3c0-0.1,0-0.2,0-0.3
						c0.3,0,0.5,0,0.7,0c0-0.4,0.3-0.2,0.5-0.3c0-0.1,0-0.1,0.1-0.2c0.1,0,0.3,0,0.4,0c0-0.1,0.1-0.2,0.1-0.2c0.2,0,0.3,0,0.5,0
						c0-0.1,0-0.2,0.1-0.2c0.1,0,0.3,0,0.4,0c0.1-0.2,0.3-0.3,0.4-0.6c0.1,0,0.3,0,0.3,0c0.2-0.3,0.5-0.5,0.7-0.7c0.1,0,0.2,0,0.3,0
						c0,0,0,0,0-0.1c0.2-0.2,0.4-0.3,0.5-0.5c0.2-0.2,0.4-0.4,0.6-0.7c0-0.1,0-0.2,0-0.3c0,0,0,0,0.1,0c0.2-0.3,0.5-0.5,0.7-0.8
						c0,0,0,0-0.1-0.1c0.1,0,0.2,0,0.3,0c0-0.2,0-0.3,0-0.4c0.1,0,0.2,0,0.2-0.1c0-0.2,0-0.3,0-0.4c0.2-0.2,0.3-0.3,0.5-0.4
						c0-0.2,0-0.4,0-0.7c0.2-0.1,0.2-0.1,0.3-0.5c0.1,0,0.1,0,0.2-0.1c0-0.2,0-0.3,0-0.5c0.1,0,0.2,0,0.2,0c0.2-0.3-0.2-0.6,0.3-0.8
						c0-0.3,0-0.6,0-0.9c0,0,0.1,0,0.1,0c0-0.1,0.1-0.2,0.1-0.3c0-0.1,0-0.3,0-0.4c0-0.1,0.1-0.2,0.1-0.3c0,0,0.1,0,0.1,0
						c0-0.6,0-1.1,0-1.7c0.3,0,0.2-0.2,0.2-0.4C509.7,416,509.7,405.1,509.7,394.3z"/>
					<path d="M458.7,424.6c0.1,0,0.2-0.1,0.3-0.1c0.4,0,0.8,0,1.2,0c0-0.1,0-0.2,0.1-0.3c0.3-0.2,0.8,0.2,1-0.3c0.2,0,0.4,0,0.7,0
						c0-0.3,0.2-0.2,0.3-0.2c0.2,0,0.4,0.1,0.4-0.2c0.2,0,0.3,0,0.5,0c0-0.4,0.3-0.2,0.5-0.3c0-0.1,0-0.1,0.1-0.2c0.2,0,0.3,0,0.4,0
						c0-0.1,0-0.2,0-0.3c0.2,0,0.3,0,0.4,0c0.2-0.2,0.3-0.3,0.4-0.5c0.1,0,0.2,0,0.3,0c0.2-0.3,0.4-0.5,0.7-0.7c0.1,0,0.3,0,0.4,0
						c0,0,0-0.1-0.1-0.1c0.3-0.3,0.7-0.7,1.1-1.1c0-0.1,0-0.2,0-0.3c0.1,0,0.2,0,0.3,0c0,0,0,0-0.1-0.1c0.3-0.3,0.5-0.5,0.8-0.8
						c0-0.1,0-0.2,0-0.3c0.4,0,0.1-0.4,0.2-0.5c0.2-0.1,0.3-0.3,0.5-0.4c0-0.1,0-0.2,0-0.3c0.5-0.2,0.1-0.6,0.3-0.8
						c0.4,0,0.1-0.3,0.2-0.5c0.1,0,0.1,0,0.2,0c0-0.2,0-0.5,0-0.7c0.3,0,0.2-0.2,0.2-0.3c0-0.2-0.1-0.5,0.2-0.5c0-0.3,0-0.7,0-1
						c0.1,0,0.2,0,0.3,0c0-0.4,0-0.8,0-1.2c0-0.1,0.1-0.2,0.1-0.3c0,0,0.1,0,0.1,0c0-1.9,0-3.8,0-5.7c0,0-0.1,0-0.1,0
						c0-0.1-0.1-0.2-0.1-0.3c0-0.4,0-0.8,0-1.2c-0.1,0-0.2,0-0.3-0.1c0-0.3,0-0.6,0-1c-0.3,0-0.2-0.2-0.2-0.4c0-0.2,0.1-0.5-0.2-0.5
						c-0.1-0.3,0.2-0.6-0.3-0.7c0-0.2,0-0.5,0-0.7c-0.4,0-0.2-0.3-0.3-0.5c-0.1,0-0.1,0-0.2-0.1c0-0.2,0-0.3,0-0.4
						c-0.2-0.2-0.4-0.3-0.5-0.4c0-0.1,0-0.3,0-0.5c-0.4,0-0.2-0.3-0.3-0.4c-0.2-0.2-0.4-0.4-0.7-0.7c0-0.1,0-0.3,0-0.4
						c0,0-0.1,0-0.1,0.1c-0.4-0.4-0.9-0.9-1.3-1.3c0,0,0,0,0.1-0.1c-0.2,0-0.3,0-0.4,0c-0.2-0.3-0.4-0.5-0.7-0.7c-0.1,0-0.2,0-0.3,0
						c-0.2-0.2-0.3-0.3-0.4-0.5c-0.1,0-0.3,0-0.4,0c0-0.1,0-0.2-0.1-0.3c-0.1,0-0.3,0-0.4,0c0-0.1,0-0.2-0.1-0.2c-0.1,0-0.3,0-0.4,0
						c0-0.4-0.4-0.1-0.5-0.3c-0.1-0.4-0.5-0.1-0.7-0.3c-0.1-0.1-0.2-0.1-0.3-0.2c-0.1,0-0.3,0-0.4,0c-0.1,0-0.1-0.1-0.2-0.2
						c-5.9,0-11.7,0-17.6,0c0,15.1,0,30.2,0,45.3c2.7,0,5.5,0,8.2,0c0-5,0-9.9,0-14.9C454.2,424.7,456.5,424.7,458.7,424.6
						C458.7,424.7,458.7,424.6,458.7,424.6z M458.1,415.5c-0.1,0-0.2,0.1-0.3,0.1c-0.2,0-0.3,0-0.5,0c-0.1,0-0.2,0.1-0.3,0.1
						c0,0,0,0.1,0,0.1c-1.7,0-3.3,0-5,0c0-4.4,0-8.9,0-13.4c1.8,0,3.5,0,5.3,0c0,0,0,0.1,0,0.1c0.1,0.1,0.2,0.1,0.3,0.2
						c0.1,0,0.3,0,0.4,0c0.1,0,0.2,0.1,0.3,0.1c0,0,0,0.1,0,0.1c0.2,0,0.3,0,0.5,0c0,0.1,0,0.2,0.1,0.3c0.1,0,0.3,0,0.4,0
						c0,0,0,0,0,0.1c0.3,0.3,0.7,0.7,1,1c0,0,0,0,0.1-0.1c0,0.1,0,0.3,0,0.4c0.2,0.1,0.3,0.3,0.5,0.4c0,0.1,0,0.2,0,0.4
						c0.1,0,0.2,0.1,0.2,0.1c0,0.2,0,0.5,0,0.7c0,0,0.1,0,0.1,0c0.1,0.1,0.1,0.2,0.1,0.3c0,0.3,0,0.6,0,1c0,0.2,0,0.4,0.2,0.3
						c0,0.9,0,1.8,0,2.7c0,0-0.1,0-0.1,0c-0.1,0.1-0.1,0.2-0.1,0.3c0,0.3,0,0.7,0,1c0,0.2,0,0.3-0.2,0.2c0,0.3,0,0.5,0,0.8
						c-0.1,0-0.2,0-0.2,0.1c0,0.1,0,0.3,0,0.4c-0.2,0.1-0.3,0.3-0.5,0.4c0,0.1,0,0.3,0,0.4c0,0,0,0-0.1-0.1
						c-0.3,0.2-0.5,0.5-0.8,0.7c0,0,0,0,0,0.1c-0.1,0-0.3,0-0.4,0c-0.1,0.2-0.3,0.3-0.4,0.5c-0.2,0-0.4,0-0.6,0
						C458.1,415.4,458.1,415.4,458.1,415.5z"/>
					<path d="M540.2,466.2C540.2,466.2,540.3,466.2,540.2,466.2c0-0.1-0.1-0.2-0.2-0.3c0-0.8,0-1.6,0-2.4c0-0.1-0.1-0.2-0.1-0.3
						c0,0-0.1,0-0.1,0c0-0.4,0-0.8,0-1.2c0,0-0.1,0-0.1,0c0-0.1-0.1-0.2-0.1-0.3c0-0.2,0-0.3,0-0.5c0-0.1-0.1-0.2-0.1-0.3
						c0,0-0.1,0-0.1,0c0-0.2,0-0.5,0-0.7c-0.5-0.1-0.1-0.5-0.3-0.8c-0.1,0-0.2,0-0.3-0.1c0-0.2,0-0.3,0-0.5c-0.3,0-0.2-0.2-0.2-0.4
						c0-0.2,0.1-0.4-0.2-0.4c0-0.2,0-0.3,0-0.3c-0.2-0.2-0.3-0.3-0.5-0.5c0-0.1,0-0.2,0-0.2c-0.1-0.1-0.2-0.2-0.2-0.3
						c-0.1-0.1-0.2-0.1-0.3-0.1c0-0.1,0-0.3,0-0.3c-0.1-0.1-0.2-0.1-0.2-0.2c-0.1-0.1-0.1-0.1-0.2-0.2c-0.2-0.2-0.4-0.4-0.6-0.6
						c-0.1-0.1-0.3-0.3-0.5-0.4c-0.3-0.3-0.7-0.7-1.1-1.2c-0.1,0-0.3,0-0.4,0c0-0.4-0.3-0.2-0.4-0.2c-0.1-0.2-0.3-0.4-0.4-0.5
						c-0.1,0-0.2,0-0.4,0c0-0.4-0.4-0.1-0.5-0.3c0-0.3-0.2-0.2-0.3-0.2c-0.2,0-0.4,0.1-0.4-0.2c-0.3,0-0.5,0-0.7,0c0,0,0-0.1,0-0.1
						c-0.1,0-0.2-0.1-0.3-0.1c-0.1,0-0.3,0-0.5,0c-0.1,0-0.2-0.1-0.3-0.1c0,0,0-0.1,0-0.1c-0.4,0-0.8,0-1.2,0c0-0.1,0-0.2,0-0.3
						c-0.8,0-1.5,0-2.3,0c-0.1,0-0.2-0.1-0.3-0.1c0,0,0-0.1,0-0.1c-0.4,0-0.8,0-1.2,0c0,0,0,0.1,0,0.1c-0.1,0-0.2,0.1-0.3,0.1
						c-0.7,0-1.4,0-2.2,0c0,0.1,0,0.2-0.1,0.3c-0.4,0-0.8,0-1.3,0c0,0,0,0.1,0,0.1c-0.1,0-0.2,0.1-0.3,0.1c-0.2,0-0.3,0-0.5,0
						c-0.1,0-0.2,0.1-0.3,0.2c-0.2,0.2-0.6-0.1-0.7,0.3c-0.2,0-0.3,0-0.5,0c0,0.4-0.3,0.2-0.5,0.3c0,0.1,0,0.1-0.1,0.2
						c-0.2,0-0.3,0-0.4,0c0,0.1,0,0.2,0,0.3c-0.2,0-0.3,0-0.5,0c0,0.1,0,0.2-0.1,0.2c-0.2,0-0.3,0-0.4,0c-0.2,0.3-0.5,0.5-0.7,0.7
						c-0.1,0-0.3,0-0.4,0c0,0,0,0,0,0.1c-0.5,0.5-1,1-1.5,1.5c0,0,0,0-0.1,0c0,0.1,0,0.3,0,0.3c-0.3,0.2-0.5,0.4-0.7,0.7
						c0,0.1,0.1,0.4-0.2,0.4c0,0.2,0,0.3,0,0.5c-0.1,0-0.2,0-0.3,0c0,0.2,0,0.3,0,0.4c-0.4,0-0.2,0.3-0.3,0.5c-0.1,0-0.1,0-0.2,0.1
						c0,0.2,0,0.3,0,0.5c-0.3,0-0.2,0.2-0.2,0.3c0,0.2,0.1,0.4-0.2,0.4c0,0.3,0,0.7,0,1c-0.1,0-0.2,0-0.2,0.1c0,0.3,0,0.6,0,0.9
						c-0.1,0-0.2,0-0.3,0.1c0,0.5,0,1,0,1.5c-0.3-0.1-0.2,0.1-0.2,0.3c0,7.6,0,15.1,0,22.7c0,0.1,0.1,0.2,0.1,0.3c0,0,0.1,0,0.1,0
						c0,0.5,0,1,0,1.5c0.1,0,0.2,0,0.2,0c0.2,0.4-0.2,0.8,0.3,1.1c0,0.3,0,0.6,0,0.9c0.3-0.1,0.2,0.2,0.2,0.3c0,0.2-0.1,0.5,0.2,0.5
						c0,0.2,0,0.3,0,0.4c0.1,0,0.2,0,0.2,0.1c0.1,0.2-0.1,0.5,0.3,0.5c0,0.2,0,0.3,0,0.5c0.1,0,0.2,0,0.3,0c0,0.2,0,0.3,0,0.4
						c0.4,0,0.2,0.3,0.3,0.4c0.2,0.2,0.4,0.5,0.7,0.7c0,0.1,0,0.2,0,0.3c0.1,0.1,0.2,0.2,0.3,0.3c0,0,0,0,0,0
						c0.2,0.2,0.5,0.4,0.7,0.6c0,0,0,0,0,0c0.2,0.2,0.4,0.4,0.6,0.7c0.1,0,0.3,0,0.4,0c0.2,0.3,0.5,0.5,0.7,0.7c0.1,0,0.2,0,0.4,0
						c0,0.1,0,0.2,0,0.3c0.2,0.1,0.5-0.1,0.6,0.3c0.1,0,0.3,0,0.4,0c0,0.1,0,0.2,0,0.2c0.2,0.1,0.5-0.1,0.5,0.2
						c0.3,0.2,0.7-0.2,0.8,0.3c0.2,0,0.4,0,0.6,0c0,0,0,0.1,0,0.1c0.3,0.3,0.7,0,1.1,0.2c0,0.1,0,0.2,0,0.3c0.4,0,0.9,0,1.3,0
						c0,0.3,0.1,0.2,0.3,0.2c1.8,0,3.5,0,5.3,0c0.1,0,0.2-0.1,0.3-0.1c0,0,0-0.1,0-0.1c0.2,0,0.5,0,0.7,0c0.2,0,0.5,0,0.7,0
						c0-0.1,0-0.2,0-0.3c0.3-0.2,0.6,0.2,0.8-0.3c0.3,0,0.6,0,0.9,0c0-0.1,0.1-0.2,0.1-0.2c0.2,0,0.5,0.1,0.5-0.2
						c0.3-0.2,0.7,0.2,0.8-0.3c0.2-0.1,0.5,0.1,0.5-0.3c0.2,0,0.3,0,0.4,0c0.2-0.2,0.3-0.4,0.4-0.5c0.1,0,0.3,0,0.4,0
						c0.2-0.3,0.4-0.5,0.7-0.7c0.1,0,0.2,0,0.4,0c0,0,0,0,0-0.1c0.1-0.1,0.2-0.2,0.3-0.2c0,0,0,0,0,0c0.3-0.3,0.7-0.7,1.1-1.1
						c0-0.1,0-0.2,0-0.3c0,0,0,0,0.1,0c0.1-0.1,0.2-0.2,0.2-0.3c0.2-0.2,0.3-0.3,0.5-0.4c0-0.1,0-0.2,0-0.3c0.1-0.1,0.2-0.2,0.2-0.2
						c0.1-0.1,0.2-0.1,0.2-0.2c0-0.1,0-0.3,0-0.4c0.1,0,0.2,0,0.2-0.1c0-0.1,0-0.3,0-0.4c0.1,0,0.2-0.1,0.2-0.1c0-0.1,0-0.3,0-0.4
						c0.1,0,0.2,0,0.3-0.1c0-0.2,0-0.5,0-0.7c0.3,0,0.2-0.2,0.2-0.4c0-0.2-0.1-0.4,0.2-0.4c0-0.3,0-0.5,0-0.8
						c0.3,0.1,0.2-0.1,0.2-0.3c0-0.2,0-0.5,0-0.7c0,0,0.1,0,0.1,0c0-0.1,0.1-0.2,0.1-0.3c0-0.4,0-0.9,0-1.3c0-0.1,0.1-0.2,0.1-0.3
						c0,0,0.1,0,0.1,0c0-0.7,0-1.4,0-2.2c-3.1,0-6.2,0-9.3,0c-0.2,0.2,0.2,0.6-0.3,0.8c0,0.5,0,0.9,0,1.4c-0.3,0-0.2,0.2-0.2,0.4
						c0,0.2,0.1,0.4-0.2,0.5c0,0.2,0,0.3,0,0.4c-0.1,0-0.2,0.1-0.2,0.1c0,0.2,0,0.3,0,0.5c0,0,0,0-0.1-0.1c-0.3,0.4-0.7,0.7-1.1,1.1
						c-0.1,0-0.4-0.1-0.4,0.2c-0.2,0-0.3,0-0.5,0c0,0.1,0,0.2,0,0.3c-0.2,0-0.5,0-0.7,0c0,0,0,0.1,0,0.1c-0.1,0-0.2,0.1-0.3,0.1
						c-0.8,0-1.7,0-2.5,0c-0.1,0-0.2-0.1-0.3-0.1c0,0,0-0.1,0-0.1c-0.2,0-0.5,0-0.7,0c0-0.1,0-0.2,0-0.3c-0.2,0-0.3,0-0.4,0
						c0,0,0,0,0-0.1c-0.3-0.2-0.5-0.5-0.8-0.7c0,0,0,0-0.1,0.1c0-0.1,0-0.2,0-0.3c-0.1,0-0.2,0-0.3,0c-0.1-0.2,0.1-0.5-0.3-0.6
						c0-0.1,0-0.3,0-0.4c0,0-0.1,0-0.1,0c0-0.1-0.1-0.2-0.1-0.3c0-0.2,0-0.3,0-0.5c0-0.1-0.1-0.2-0.1-0.3c0,0-0.1,0-0.1,0
						c0-7.4,0-14.7,0-22.1c0.3,0,0.2-0.2,0.2-0.4c0-0.2-0.1-0.5,0.2-0.5c0-0.7,0-0.7,0.3-0.7c0-0.2,0-0.3,0-0.4
						c0.1-0.1,0.2-0.1,0.3-0.2c0.1-0.1,0.2-0.1,0.3-0.2c0.2-0.2,0.4-0.4,0.6-0.6c0.1,0,0.2,0,0.4,0c0-0.4,0.4-0.1,0.6-0.3
						c0-0.1,0-0.2,0-0.2c1.2,0,2.3,0,3.5,0c0,0.1,0,0.2,0,0.3c0.2,0,0.3,0,0.4,0c0,0.1,0,0.2,0.1,0.2c0.2,0,0.3,0,0.5,0
						c0,0.1,0.1,0.2,0.1,0.2c0.1,0,0.3,0,0.3,0c0.3,0.3,0.6,0.5,0.9,0.8c0,0.1,0,0.2,0,0.4c0.1,0,0.2,0,0.3,0
						c0.1,0.2-0.1,0.5,0.3,0.5c0,0.2,0,0.3,0,0.4c0.4,0.3,0.1,0.8,0.3,1.1c0.1,0.1,0.2,0.2,0.2,0.3c0,0.5,0,1,0,1.5
						C533.9,466.2,537.1,466.2,540.2,466.2z"/>
					<path d="M466.8,452.5c-0.1-0.1-0.2-0.2-0.3-0.3c-3,0-6.1,0-9.2,0c0,15.3,0,30.6,0,45.8c7.7,0,15.3,0,22.9,0c0-2.9,0-5.9,0-8.8
						c-4.5,0-8.9,0-13.4,0C466.8,476.9,466.8,464.7,466.8,452.5z"/>
					<path d="M490.1,452.2c-0.1,0.1-0.2,0.2-0.3,0.3c0,15.1,0,30.3,0,45.5c3.2,0,6.3,0,9.5,0c0-15.2,0-30.4,0-45.5
						c-0.1-0.1-0.2-0.2-0.3-0.3C496.1,452.2,493.1,452.2,490.1,452.2z"/>
				</g>
			</g>
		</g>
	</g>
</g>
</svg>
