<?xml version="1.0" encoding="utf-8"?>
<!-- Generator: Adobe Illustrator 28.2.0, SVG Export Plug-In . SVG Version: 6.00 Build 0)  -->
<svg version="1.1" id="_레이어_2" xmlns="http://www.w3.org/2000/svg" xmlns:xlink="http://www.w3.org/1999/xlink" x="0px"
	 y="0px" viewBox="0 0 1000 750" style="enable-background:new 0 0 1000 750;" xml:space="preserve">
<style type="text/css">
	.st0{clip-path:url(#SVGID_00000021089258680223288300000008191355095021769378_);}
	.st1{fill:#FFBD00;}
	.st2{enable-background:new    ;}
	.st3{fill:none;stroke:#000000;stroke-width:0.26;stroke-miterlimit:10;}
	.st4{fill:none;stroke:#000000;stroke-width:0.25;stroke-miterlimit:10;}
</style>
<g id="_레이어_1-2">
	<g>
		<g>
			<defs>
				<rect id="SVGID_1_" width="1000" height="750"/>
			</defs>
			<clipPath id="SVGID_00000007401084013543062980000012440127005858187394_">
				<use xlink:href="#SVGID_1_"  style="overflow:visible;"/>
			</clipPath>
			<g style="clip-path:url(#SVGID_00000007401084013543062980000012440127005858187394_);">
				<path class="st1" d="M434.4-937.4h131.1c19.9,0,36,16.1,36,36V530.8c0,19.9-16.1,36-36,36H434.4c-19.9,0-36-16.1-36-36V-901.4
					C398.4-921.3,414.5-937.4,434.4-937.4z"/>
				<g>
					<path d="M525.5,478.6c0,0.2,0.1,0.3,0.1,0.4c4.1,0,8.1,0,12.2,0c0-0.4,0-0.7,0-1.1c-0.1,0-0.3,0-0.4,0c0-0.2-0.1-0.3-0.1-0.5
						c-0.2,0-0.4,0-0.5,0c0-0.2,0-0.3-0.1-0.5c-0.2,0-0.3,0-0.4,0c0-0.2,0-0.3,0-0.5c-0.2,0-0.3,0-0.5,0c0-0.4,0-0.7,0-1.1
						c-0.2,0-0.3,0-0.5,0c0-0.2,0-0.3,0-0.5c-0.2,0-0.4,0-0.6-0.1c0-0.4,0-0.7,0-1.1c-0.2,0-0.3,0-0.5,0c0-0.2,0-0.3,0-0.5
						c-0.2,0-0.3,0-0.5-0.1c0-0.4,0-0.7,0-1c-0.2,0-0.4,0-0.6,0c0-0.2,0-0.3-0.1-0.4c-0.2,0-0.3,0-0.5-0.1c0-0.2,0-0.3,0-0.4
						c-0.2,0-0.3-0.1-0.5-0.1c0-0.4,0-0.7,0-1c-0.2,0-0.3-0.1-0.4-0.1c0-0.2-0.1-0.3-0.1-0.4c-0.2,0-0.4,0-0.6,0c0-0.4,0-0.7,0-1
						c-0.2,0-0.3-0.1-0.5-0.1c0-0.2,0-0.3,0-0.4c-0.2,0-0.3,0-0.4,0c0-0.2,0-0.3-0.1-0.5c-0.2,0-0.4,0-0.6,0c0-0.4,0-0.7,0-1.1
						c-0.2,0-0.3,0-0.5-0.1c0-0.2,0-0.3-0.1-0.4c-0.2,0-0.3-0.1-0.4-0.1c0-0.2,0-0.4,0-0.5c-0.2,0-0.4,0-0.6-0.1c0-0.3,0-0.6,0-1
						c-0.2,0-0.3,0-0.5,0c0-0.2,0-0.3,0-0.5c-0.2,0-0.3,0-0.5-0.1c0-0.4,0-0.7,0-1c-0.2,0-0.3,0-0.5,0c0-0.2,0-0.3,0-0.5
						c-0.2,0-0.4,0-0.6-0.1c0-0.2,0-0.4,0-0.5c-0.2,0-0.3-0.1-0.5-0.1c0-0.3,0-0.6,0-0.9c-0.2,0-0.3-0.1-0.4-0.1
						c0-0.2-0.1-0.3-0.1-0.4c-0.2,0-0.4,0-0.6,0c0-0.4,0-0.7,0-1.1c-0.2,0-0.3,0-0.5-0.1c0-0.2,0-0.3,0-0.5c-0.2,0-0.3,0-0.5,0
						c0-0.2,0-0.4,0-0.5c0.2,0,0.3,0,0.4,0c0-0.2,0.1-0.3,0.1-0.5c0.4,0,0.7,0,1,0c0-0.2,0.1-0.3,0.1-0.5c0.2,0,0.3,0,0.4-0.1
						c0-0.2,0-0.3,0-0.4c0.2,0,0.3,0,0.5-0.1c0-0.2,0-0.4,0.1-0.6c0.4,0,0.7,0,1,0c0-0.2,0-0.3,0-0.5c0.2,0,0.3,0,0.4-0.1
						c0-0.2,0.1-0.3,0.1-0.5c0.4,0,0.7,0,1,0c0-0.2,0-0.4,0.1-0.6c0.2,0,0.3,0,0.5-0.1c0-0.2,0-0.3,0-0.4c0.2,0,0.3,0,0.5,0
						c0-0.2,0-0.3,0.1-0.5c0.2,0,0.4,0,0.6-0.1c0-0.2,0-0.4,0-0.6c0.3,0,0.6,0,0.9,0c0-0.2,0-0.3,0.1-0.5c0.2,0,0.4,0,0.5,0
						c0-0.2,0.1-0.3,0.1-0.5c0.3,0,0.6,0,0.9,0c0-0.2,0.1-0.3,0.1-0.4c0.2,0,0.3-0.1,0.4-0.1c0-0.2,0-0.4,0-0.6c0.4,0,0.7,0,1,0
						c0-0.2,0.1-0.3,0.1-0.5c0.2,0,0.3,0,0.4-0.1c0-0.2,0-0.3,0-0.4c0.2,0,0.4,0,0.6-0.1c0-0.2,0-0.4,0.1-0.6c0.3,0,0.6,0,0.9,0
						c0-0.3,0-0.6,0-1c-1.2,0-2.4,0-3.7,0c0,0.2,0,0.3,0,0.5c-0.2,0-0.3,0-0.5,0c0,0.2,0,0.3-0.1,0.5c-0.4,0-0.7,0-1,0
						c0,0.2,0,0.4,0,0.6c-0.2,0-0.3,0-0.4,0.1c0,0.2,0,0.3-0.1,0.5c-0.4,0-0.7,0-1,0c0,0.2,0,0.3,0,0.5c-0.2,0-0.3,0-0.5,0.1
						c0,0.2,0,0.4,0,0.5c-0.2,0-0.3,0-0.5,0c0,0.2,0,0.3,0,0.5c-0.4,0-0.7,0-1,0c0,0.2-0.1,0.3-0.1,0.5c-0.2,0-0.3,0-0.4,0
						c0,0.2,0,0.3,0,0.5c-0.4,0-0.7,0-1.1,0c0,0.2,0,0.4,0,0.6c-0.2,0-0.3,0-0.5,0c0,0.2,0,0.3-0.1,0.4c-0.2,0-0.3,0-0.4,0.1
						c0,0.2-0.1,0.3-0.1,0.5c-0.4,0-0.7,0-1,0c0,0.2,0,0.4-0.1,0.6c-0.2,0-0.3,0.1-0.4,0.1c0,0.2,0,0.3,0,0.4c-0.2,0-0.3,0-0.4,0
						c0,0.2,0,0.3-0.1,0.5c-0.4,0-0.7,0-1,0c0,0.2,0,0.4,0,0.6c-0.2,0-0.3,0-0.4,0.1c0,0.2,0,0.3-0.1,0.5c-0.4,0-0.7,0-1,0
						c0,0.2,0,0.3,0,0.5c-0.2,0-0.3,0-0.4,0.1c0,0.2-0.1,0.3-0.1,0.4c-0.2,0-0.3,0.1-0.4,0.1c0,0.2,0,0.4,0,0.6c-0.4,0-0.7,0-1,0
						c0,0.2-0.1,0.3-0.1,0.5c-0.2,0-0.3,0-0.4,0c0,0.2,0,0.3,0,0.4c-0.2,0-0.4,0-0.6,0.1c0,0.2,0,0.4,0,0.5c-0.3,0-0.6,0-1,0
						c0-11.2,0-22.3,0-33.4c-0.2,0-0.4,0-0.6,0c0-0.2-0.1-0.3-0.1-0.5c-0.5-0.2-0.5,0.2-0.5,0.5c-0.3,0-0.6,0-0.9,0
						c0,0.2,0,0.4,0,0.6c-0.4,0-0.7,0-1,0c0,0.2-0.1,0.3-0.1,0.5c-0.5,0-1,0-1.5,0c0,0.2,0,0.3,0,0.5c-0.5,0-1,0-1.5,0
						c0,0.2-0.1,0.3-0.1,0.5c-0.5,0-1,0-1.5,0c0,0.2,0,0.4-0.1,0.6c-0.5,0-1,0-1.4,0c0,0.2-0.1,0.3-0.1,0.5c-0.4,0-0.7,0-1,0
						c0,0.2-0.1,0.3-0.1,0.5c-0.5,0-1,0-1.5,0c0,0.2,0,0.4,0,0.6c-0.4,0-0.7,0-1.1,0c0,0.2,0,0.3,0.1,0.5c0.9,0,1.8,0,2.7,0
						c0,15.9,0,31.8,0,47.7c3.4,0,6.7,0,10,0c0-0.2,0.1-0.3,0.1-0.5c0.2,0,0.4,0,0.6,0c0-4.6,0-9.2,0-13.8c0.5-0.2,0.5,0.1,0.5,0.4
						c0.2,0,0.3,0,0.5,0.1c0,0.4,0,0.7,0,1c0.2,0,0.4,0,0.6,0c0,0.2,0,0.3,0.1,0.4c0.2,0,0.3,0,0.5,0.1c0,0.4,0,0.7,0,1
						c0.2,0,0.3,0,0.5,0c0,0.2,0,0.3,0.1,0.5c0.2,0,0.4,0,0.6,0.1c0,0.4,0,0.7,0,1c0.2,0,0.3,0,0.5,0c0,0.2,0,0.3,0.1,0.4
						c0.2,0,0.3,0.1,0.4,0.1c0,0.2,0,0.3,0.1,0.4c0.2,0,0.3,0,0.5,0c0,0.4,0,0.7,0,1.1c0.2,0,0.4,0,0.6,0c0,0.2,0,0.3,0,0.5
						c0.2,0,0.3,0,0.5,0c0,0.4,0,0.7,0,1.1c0.2,0,0.3,0,0.5,0c0,0.2,0.1,0.3,0.1,0.5c0.2,0,0.4,0,0.6,0c0,0.4,0,0.7,0,1.1
						c0.2,0,0.3,0,0.5,0c0,0.2,0,0.3,0,0.5c0.2,0,0.3,0,0.4,0.1c0,0.2,0.1,0.3,0.1,0.4c0.2,0,0.3,0.1,0.5,0.1c0,0.4,0,0.7,0,1
						c0.2,0,0.4,0,0.6,0c0,0.2,0,0.3,0,0.4c0.2,0,0.3,0.1,0.5,0.1c0,0.4,0,0.7,0,1C525.2,478.5,525.4,478.5,525.5,478.6z"/>
					<path d="M438.7,514.6c43,0,85.8,0,128.7,0c0-1.6,0-3.2,0-4.8c-43,0-85.9,0-128.7,0C438.7,511.5,438.7,513,438.7,514.6z"/>
					<path d="M567.3,391c-42.9,0-85.8,0-128.7,0c0,1.5,0,3.1,0,4.7c42.9,0,85.8,0,128.7,0C567.3,394.2,567.3,392.6,567.3,391z"/>
					<path d="M452.3,428.6c0-0.2,0-0.3,0-0.5c-0.4,0-0.6-0.1-0.4-0.5c0.1,0,0.3,0,0.4,0c0-0.4,0-0.7,0-1.1c-0.2,0-0.3,0-0.5,0
						c0-0.2,0-0.3,0-0.5c-0.2,0-0.3,0-0.5,0c0,0.2,0,0.3-0.1,0.5c-0.4,0-0.7,0-1,0c0,0.2,0,0.4,0,0.6c-0.5,0-1,0-1.5,0
						c0,0.2-0.1,0.3-0.1,0.5c-0.4,0-0.7,0-1,0c0,0.2,0,0.3,0,0.5c-0.5,0-1,0-1.4,0c0,0.2-0.1,0.3-0.1,0.5c-0.5,0-1,0-1.5,0
						c0,0.2,0,0.4-0.1,0.6c-0.4,0-0.7,0-1,0c0,0.2-0.1,0.3-0.1,0.5c-0.5,0-1,0-1.5,0c0,0.2,0,0.3-0.1,0.5c-0.5,0-1,0-1.5,0
						c0,0.2,0,0.4,0,0.6c-0.3,0-0.7,0-1,0c0,0.2,0,0.3,0.1,0.5c0.9,0,1.7,0,2.6,0c0,15.9,0,31.8,0,47.7c3.4,0,6.7,0,10.1,0
						c0-0.2,0-0.3,0-0.5c0.2,0,0.3,0,0.5,0c0-0.4,0-0.7,0-1c-0.2,0-0.3-0.1-0.5-0.1c0-0.2,0-0.3,0-0.4c0.2,0,0.3,0,0.4,0
						c0-15.9,0-31.8,0-47.7c-0.2,0-0.3-0.1-0.4-0.1c0-0.2,0-0.4,0-0.5C452,428.6,452.1,428.6,452.3,428.6z"/>
					<path d="M564.8,467.9c0,0.4,0,0.7,0,1.1c-0.2,0-0.3,0-0.5,0.1c0,0.3,0,0.6,0,0.9c-0.2,0-0.4,0-0.6,0c0,0.4,0,0.7,0,1
						c-0.2,0-0.3,0.1-0.5,0.1c0,0.3,0,0.6,0,0.9c-0.2,0-0.3,0-0.5,0c0,0.2,0,0.4-0.1,0.6c-0.2,0-0.4,0-0.5,0c0,0.2,0,0.3,0,0.5
						c-0.2,0-0.3,0-0.5,0.1c0,0.2,0,0.3-0.1,0.5c-0.2,0-0.3,0-0.4,0c0,0.2,0,0.3,0,0.5c-0.2,0-0.3,0-0.5,0c0,0.2,0,0.4-0.1,0.6
						c-0.4,0-0.7,0-1,0c0,0.2-0.1,0.3-0.1,0.5c-0.4,0-0.7,0-1,0c0,0.2,0,0.3-0.1,0.5c-0.7,0-1.4,0-2,0c0,0.2,0,0.4,0,0.6
						c-0.9,0-1.7,0-2.6,0c0-0.2,0-0.4,0-0.6c-0.7,0-1.4,0-2,0c0-0.2-0.1-0.3-0.1-0.5c-0.2,0-0.4,0-0.5,0c0-0.2,0-0.3,0-0.5
						c-0.2,0-0.3,0-0.5,0c0-0.4,0-0.7,0-1c-0.2,0-0.3-0.1-0.5-0.1c0-0.7,0-1.4,0-2c-0.2,0-0.4,0-0.5-0.1c0-3.4,0-6.7,0-10.1
						c0.4,0,0.7,0,1,0c0,0.2,0,0.4,0.1,0.5c0.5,0,1.1,0,1.6,0c0-0.2,0-0.4,0-0.5c0.3,0,0.6,0,0.9,0c0,0.2,0,0.4,0.1,0.5
						c0.4,0,0.7,0,1,0c0-0.2,0-0.4,0-0.5c0.7,0,1.4,0,2.1,0c0,0.2,0,0.4,0.1,0.6c1.4,0,2.8,0,4.3,0c0-0.2,0-0.3,0-0.5
						c0.2,0,0.3,0,0.5,0c0,0.2,0,0.4,0.1,0.5c0.3,0,0.6,0,0.9,0c0-0.2,0-0.4,0-0.5c0.2,0,0.4,0,0.6,0c0,0.2,0,0.4,0,0.5
						c0.2,0,0.3,0,0.5,0c0-0.2,0-0.4,0-0.5c0.7,0,1.4,0,2.1,0c0,0.2,0,0.4,0,0.5c0.2,0,0.3,0,0.4,0c0-0.2,0-0.4,0.1-0.6
						c0.2,0,0.4,0,0.5,0c0,0.2,0,0.4,0,0.5c0.2,0,0.3,0,0.5,0c0-0.2,0-0.4,0-0.5c0.2,0,0.3-0.1,0.5-0.1c0-0.7,0-1.4,0-2
						c-0.2,0-0.3,0-0.5-0.1c0-0.7,0-1.4,0-2c-0.2,0-0.3,0-0.5,0c0-0.6,0-1.1,0-1.5c-0.2,0-0.4,0-0.6-0.1c0-0.3,0-0.6,0-0.9
						c-0.2,0-0.3,0-0.5,0c0-0.2,0-0.4-0.1-0.5c-0.2,0-0.3-0.1-0.5-0.1c0-0.3,0-0.6,0-0.9c-0.2,0-0.3,0-0.5-0.1c0-0.4,0-0.7,0-1.1
						c-0.2,0-0.4,0-0.6,0c0-0.2,0-0.3,0-0.4c-0.2,0-0.3,0-0.4-0.1c0-0.2-0.1-0.3-0.1-0.5c-0.4,0-0.7,0-1,0c0-0.2,0-0.4-0.1-0.6
						c-0.2,0-0.3,0-0.4-0.1c0-0.2-0.1-0.3-0.1-0.5c-0.3,0-0.6,0-0.9,0c0-0.2,0-0.3-0.1-0.5c-0.2,0-0.4,0-0.6-0.1c0-0.2,0-0.4,0-0.6
						c-0.3,0-0.6,0-0.9,0c0-0.2,0-0.3-0.1-0.5c-0.5,0-1,0-1.5,0c0-0.2-0.1-0.3-0.1-0.5c-0.7,0-1.4,0-2,0c0-0.2,0-0.3-0.1-0.5
						c-1.6,0-3.2,0-4.8,0c0,0.2,0,0.3,0,0.5c-0.7,0-1.4,0-2,0c0,0.2-0.1,0.3-0.1,0.5c-0.5,0-1,0-1.5,0c0,0.1,0,0.3,0,0.4
						c-0.4,0-0.7,0-1.1,0c0,0.2,0,0.4,0,0.6c-0.2,0-0.3,0-0.5,0c0,0.2,0,0.3-0.1,0.5c-0.3,0-0.6,0-0.9,0c0,0.2-0.1,0.3-0.1,0.5
						c-0.2,0-0.4,0-0.5,0c0,0.2,0,0.4-0.1,0.6c-0.2,0-0.3,0-0.4,0c0,0.2,0,0.3,0,0.5c-0.2,0-0.3,0-0.5,0.1c0,0.2,0,0.3-0.1,0.5
						c-0.2,0-0.4,0-0.5,0c0,0.2,0,0.3,0,0.5c-0.2,0-0.3,0-0.5,0.1c0,0.2,0,0.4,0,0.5c-0.2,0-0.3,0.1-0.5,0.1c0,0.3,0,0.6,0,0.9
						c-0.2,0-0.4,0-0.6,0.1c0,0.2,0,0.4,0,0.5c-0.2,0-0.3,0.1-0.5,0.1c0,0.3,0,0.6,0,0.9c-0.2,0-0.3,0-0.5,0.1c0,0.4,0,0.7,0,1
						c-0.2,0-0.3,0.1-0.5,0.1c0,0.3,0,0.6,0,0.9c-0.2,0-0.4,0-0.6,0c0,0.7,0,1.4,0,2.2c-0.2,0-0.3,0-0.5,0.1c0,2.1,0,4.2,0,6.3
						c0.2,0,0.3,0.1,0.5,0.1c0,0.7,0,1.4,0,2c0.2,0,0.4,0,0.6,0.1c0,0.5,0,1,0,1.5c0.2,0,0.3,0.1,0.5,0.1c0,0.4,0,0.7,0,1
						c0.2,0,0.3,0.1,0.5,0.1c0,0.2,0,0.3,0,0.4c0.2,0,0.3,0,0.5,0c0,0.4,0,0.7,0,1.1c0.2,0,0.4,0,0.6,0c0,0.3,0,0.6,0,1
						c0.2,0,0.3,0,0.4,0.1c0,0.2,0.1,0.3,0.1,0.4c0.2,0,0.3,0.1,0.4,0.1c0,0.2,0,0.4,0,0.5c0.2,0,0.4,0,0.6,0.1
						c0,0.2,0.1,0.3,0.1,0.4c0.2,0,0.3,0,0.4,0.1c0,0.2,0,0.3,0,0.4c0.2,0,0.3,0,0.4,0.1c0,0.2,0,0.4,0.1,0.6c0.4,0,0.7,0,1,0
						c0,0.2,0,0.3,0.1,0.5c0.2,0,0.3,0,0.4,0.1c0,0.2,0.1,0.3,0.1,0.5c0.4,0,0.7,0,1,0c0,0.2,0,0.3,0.1,0.5c0.3,0,0.6,0,0.9,0
						c0,0.2,0,0.4,0.1,0.6c0.5,0,1,0,1.5,0c0,0.2,0.1,0.3,0.1,0.5c3,0,6,0,8.9,0c0-0.2,0.1-0.3,0.1-0.5c0.5,0,1,0,1.5,0
						c0-0.2,0-0.4,0.1-0.6c0.4,0,0.7,0,1,0c0-0.2,0-0.3,0.1-0.5c0.2,0,0.3,0,0.4-0.1c0-0.2,0.1-0.3,0.1-0.5c0.3,0,0.6,0,0.9,0
						c0-0.2,0-0.3,0.1-0.5c0.2,0,0.4,0,0.6-0.1c0-0.2,0-0.4,0-0.5c0.2,0,0.3,0,0.4,0c0-0.2,0-0.3,0.1-0.4c0.2,0,0.3-0.1,0.4-0.1
						c0-0.2,0.1-0.3,0.1-0.4c0.2,0,0.4,0,0.5,0c0-0.2,0-0.4,0.1-0.6c0.2,0,0.3,0,0.4,0c0-0.2,0-0.3,0-0.5c0.2,0,0.3,0,0.5,0
						c0-0.3,0-0.6,0-0.9c0.2,0,0.3-0.1,0.5-0.1c0-0.4,0-0.7,0-1c0.2,0,0.4,0,0.6-0.1c0-0.4,0-0.7,0-1c0.2,0,0.3-0.1,0.5-0.1
						c0-0.5,0-0.9,0-1.3c0.2,0,0.3-0.1,0.5-0.1c0-0.4,0-0.7,0-1C566.5,468,565.7,467.9,564.8,467.9z M549.4,452c0.2,0,0.3,0,0.5,0
						c0-0.3,0-0.5,0-0.8c0.2,0,0.3,0,0.5-0.1c0-0.2,0-0.3,0-0.5c0.1,0,0.3-0.1,0.5-0.1c0-0.1,0-0.3,0-0.4c1.2,0,2.4,0,3.7,0
						c0,0.2,0,0.3,0,0.5c0.4,0,0.7,0,1.1,0c0,0.2,0,0.4,0,0.6c0.1,0,0.3,0,0.5,0.1c0,0.5,0,0.9,0,1.4c0.2,0,0.4,0,0.6,0
						c0,2.1,0,4.2,0,6.3c-2.5,0-4.9,0-7.5,0C549.4,456.6,549.4,454.3,549.4,452z"/>
					<path d="M484.2,478.5c0,0.2,0,0.3,0,0.5c3.3,0,6.6,0,10,0c0-10.5,0-20.8,0-31.2c-0.3,0-0.6,0-0.9,0c0,0.2-0.1,0.3-0.1,0.5
						c-0.4,0-0.7,0-1,0c0,0.2-0.1,0.3-0.1,0.5c-0.4,0-0.7,0-1,0c0,0.2,0,0.4,0,0.6c-0.5,0-1,0-1.4,0c0,0.2-0.1,0.3-0.1,0.5
						c-0.5,0-1,0-1.5,0c0,0.2,0,0.3-0.1,0.5c-0.5,0-1,0-1.5,0c0,0.2,0,0.4,0,0.6c-0.4,0-0.7,0-1,0c0,0.2-0.1,0.3-0.1,0.5
						c-0.5,0-1,0-1.5,0c0,0.2,0,0.3,0,0.5c-0.5,0-1,0-1.5,0c0,0.2-0.1,0.3-0.1,0.5c-0.3,0-0.6,0-0.9,0c0,0.2,0,0.4,0,0.6
						c0.9,0,1.7,0,2.6,0c0,8.5,0,17,0,25.4C483.8,478.5,484,478.5,484.2,478.5z"/>
					<path d="M472.9,479c0-10.4,0-20.8,0-31.3c-0.2,0-0.3,0-0.4,0c0,0.2-0.1,0.3-0.1,0.5c-0.5,0-1,0-1.5,0c0,0.2,0,0.3,0,0.5
						c-0.3,0-0.6,0-1,0c0,0.2,0,0.4,0,0.6c-0.5,0-1,0-1.6,0c0,0.2,0,0.3-0.1,0.5c-0.5,0-1,0-1.5,0c0,0.2-0.1,0.3-0.1,0.5
						c-0.5,0-1,0-1.5,0c0,0.2,0,0.4-0.1,0.6c-0.3,0-0.6,0-0.9,0c0,0.2,0,0.3,0,0.5c-0.5,0-1.1,0-1.5,0c0,0.2-0.1,0.3-0.1,0.5
						c-0.5,0-1,0-1.5,0c0,0.2,0,0.3-0.1,0.5c-0.4,0-0.7,0-1,0c0,0.2,0,0.4,0,0.6c1.1,0,2.1,0,3.2,0c0,8.7,0,17.3,0,26
						C466.3,479,469.6,479,472.9,479z"/>
					<path d="M494.2,435c-0.2,0-0.3,0-0.5,0c0-0.4,0-0.7,0-1.1c-0.2,0-0.3,0-0.5,0c0-0.2-0.1-0.3-0.1-0.5c-0.2,0-0.4,0-0.5,0
						c0-0.2-0.1-0.3-0.1-0.4c-0.2,0-0.3-0.1-0.4-0.1c0-0.2,0-0.4,0-0.5c-0.2,0-0.3,0-0.4-0.1c0-0.2,0-0.3-0.1-0.5c-0.4,0-0.7,0-1,0
						c0-0.2,0-0.3,0-0.5c-1.2,0-2.4,0-3.6,0c0,0.2-0.1,0.3-0.1,0.5c-0.4,0-0.7,0-1,0c0,0.2,0,0.3-0.1,0.5c-0.3,0-0.6,0-0.9,0
						c0,0.2,0,0.4,0,0.6c-0.2,0-0.3,0-0.5,0c0,0.3,0,0.6,0,1c-0.2,0-0.4,0-0.6,0c0,0.4,0,0.7,0,1.1c-0.2,0-0.3,0-0.5,0.1
						c0,1.2,0,2.4,0,3.6c0.2,0,0.3,0.1,0.5,0.1c0,0.4,0,0.7,0,1c0.2,0,0.4,0,0.6,0c0,0.2,0,0.3,0,0.5c0.2,0,0.3,0,0.5,0
						c0,0.2,0,0.3,0.1,0.4c0.2,0,0.3,0.1,0.5,0.1c0,0.2,0,0.3,0.1,0.4c0.2,0,0.3,0,0.5,0c0,0.2,0,0.4,0,0.6c0.5,0,1,0,1.5,0
						c0,0.2,0.1,0.3,0.1,0.5c0.9,0,1.8,0,2.6,0c0-0.2,0-0.3,0.1-0.5c0.3,0,0.6,0,0.9,0c0-0.2,0-0.4,0-0.6c0.4,0,0.7,0,1.1,0
						c0-0.2,0-0.3,0.1-0.5c0.2,0,0.3,0,0.5,0c0-0.2,0-0.3,0-0.5c0.2,0,0.4,0,0.6-0.1c0-0.4,0-0.7,0-1c0.2,0,0.3-0.1,0.5-0.1
						c0-0.3,0-0.6,0-0.9c0.2,0,0.3,0,0.5-0.1C494.2,437.1,494.2,436.1,494.2,435z"/>
					<path d="M471.5,432.8c0-0.2,0-0.4,0-0.6c-0.4,0-0.7,0-1,0c0-0.2-0.1-0.3-0.1-0.5c-0.4,0-0.7,0-1,0c0-0.2-0.1-0.3-0.1-0.5
						c-1.2,0-2.4,0-3.6,0c0,0.2,0,0.3-0.1,0.5c-0.3,0-0.6,0-0.9,0c0,0.2,0,0.3-0.1,0.5c-0.2,0-0.3,0-0.4,0.1c0,0.2,0,0.4-0.1,0.6
						c-0.2,0-0.4,0-0.5,0c0,0.2,0,0.3-0.1,0.4c-0.2,0-0.3,0-0.5,0.1c0,0.2,0,0.3,0,0.4c-0.2,0-0.3,0.1-0.5,0.1c0,0.5,0,1,0,1.5
						c-0.2,0-0.4,0-0.6,0.1c0,0.9,0,1.8,0,2.6c0.2,0,0.4,0,0.6,0c0,0.3,0,0.6,0,0.9c0.2,0,0.3,0.1,0.5,0.1c0,0.4,0,0.7,0,1
						c0.2,0,0.3,0,0.5,0.1c0,0.2,0.1,0.3,0.1,0.4c0.2,0,0.4,0,0.5,0c0,0.2,0,0.3,0,0.5c0.3,0,0.7,0,1,0c0,0.2,0,0.4,0,0.6
						c0.4,0,0.7,0,1,0c0,0.2,0,0.3,0.1,0.5c0.9,0,1.7,0,2.5,0c0-0.2,0.1-0.3,0.1-0.5c0.5,0,1,0,1.5,0c0-0.2,0-0.4,0-0.6
						c0.2,0,0.3,0,0.5,0c0-0.2,0-0.3,0-0.5c0.2,0,0.4,0,0.6-0.1c0-0.2,0.1-0.3,0.1-0.4c0.2,0,0.3,0,0.4-0.1c0-0.2,0-0.3,0-0.4
						c0.2,0,0.3,0,0.5-0.1c0-0.4,0-0.7,0-1c0.2,0,0.3-0.1,0.5-0.1c0-1.4,0-2.8,0-4.1c-0.2,0-0.3,0-0.5-0.1c0-0.2,0-0.4,0-0.5
						c-0.2,0-0.3-0.1-0.5-0.1c0-0.3,0-0.6,0-0.9C471.8,432.9,471.6,432.9,471.5,432.8z"/>
				</g>
				<g class="st2">
					<path d="M178.9,167.2v-40.6c0-1.9,0-1.9-2.3-5.8h12.5c-2.3,4-2.3,4-2.3,6v40.6c0,1.9,0,1.9,2.3,5.8h-12.5
						C178.9,169.2,178.9,169.2,178.9,167.2z"/>
				</g>
				<g class="st2">
					<path class="st3" d="M178.9,167.2v-40.6c0-1.9,0-1.9-2.3-5.8h12.5c-2.3,4-2.3,4-2.3,6v40.6c0,1.9,0,1.9,2.3,5.8h-12.5
						C178.9,169.2,178.9,169.2,178.9,167.2z"/>
				</g>
				<g class="st2">
					<path d="M200.9,167.2V123l-2.1-2.3h9.4l30.4,38.6v-32.7c0-2,0-2-3.1-5.9h10.8c-2.4,4-2.4,4-2.4,6v47h-3.8l-33.9-42.3v35.8
						c0,2,0,2,3.1,5.9h-10.9C200.9,169.2,200.9,169.2,200.9,167.2z"/>
				</g>
				<g class="st2">
					<path class="st3" d="M200.9,167.2V123l-2.1-2.3h9.4l30.4,38.6v-32.7c0-2,0-2-3.1-5.9h10.8c-2.4,4-2.4,4-2.4,6v47h-3.8
						l-33.9-42.3v35.8c0,2,0,2,3.1,5.9h-10.9C200.9,169.2,200.9,169.2,200.9,167.2z"/>
				</g>
				<g class="st2">
					<path d="M258.1,167.2v-40.6c0-1.9,0-1.9-2.3-5.8h20.3c14.9,0,26.8,9.3,26.8,26.2s-11.8,26.2-26.8,26.2h-20.3
						C258.1,169.2,258.1,169.2,258.1,167.2z M274.6,168.6c10.6,0,19.9-7.1,19.9-21.6s-9.3-21.6-19.9-21.6H266v43.2H274.6z"/>
				</g>
				<g class="st2">
					<path class="st3" d="M258.1,167.2v-40.6c0-1.9,0-1.9-2.3-5.8h20.3c14.9,0,26.8,9.3,26.8,26.2s-11.8,26.2-26.8,26.2h-20.3
						C258.1,169.2,258.1,169.2,258.1,167.2z M274.6,168.6c10.6,0,19.9-7.1,19.9-21.6s-9.3-21.6-19.9-21.6H266v43.2H274.6z"/>
				</g>
				<g class="st2">
					<path d="M313.5,167.2v-40.6c0-1.9,0-1.9-2.3-5.8h12.5c-2.3,4-2.3,4-2.3,6v40.6c0,1.9,0,1.9,2.3,5.8h-12.5
						C313.5,169.2,313.5,169.2,313.5,167.2z"/>
				</g>
				<g class="st2">
					<path class="st3" d="M313.5,167.2v-40.6c0-1.9,0-1.9-2.3-5.8h12.5c-2.3,4-2.3,4-2.3,6v40.6c0,1.9,0,1.9,2.3,5.8h-12.5
						C313.5,169.2,313.5,169.2,313.5,167.2z"/>
				</g>
				<g class="st2">
					<path d="M334.2,165.5l18.6-45h5.2l18.7,45.2c1.6,3.7,1.6,3.7,3.7,7.5h-13.3c2.4-4.3,2.4-4.3,1.3-7l-3.4-8.6h-22l-3.4,8.6
						c-1.2,3.2-1.2,3.2,1.2,7h-10.4C332.7,169.2,332.7,169.2,334.2,165.5z M363,152.9l-9.1-23l-9.1,23H363z"/>
				</g>
				<g class="st2">
					<path class="st3" d="M334.2,165.5l18.6-45h5.2l18.7,45.2c1.6,3.7,1.6,3.7,3.7,7.5h-13.3c2.4-4.3,2.4-4.3,1.3-7l-3.4-8.6h-22
						l-3.4,8.6c-1.2,3.2-1.2,3.2,1.2,7h-10.4C332.7,169.2,332.7,169.2,334.2,165.5z M363,152.9l-9.1-23l-9.1,23H363z"/>
				</g>
				<g class="st2">
					<path d="M444.6,167.2v-19.1h-26.5v19.3c0,1.9,0,1.9,2.3,5.8H408c2.3-4,2.3-4,2.3-6v-40.6c0-1.9,0-1.9-2.3-5.8h12.5
						c-2.3,4-2.3,4-2.3,6v16.5h26.5v-16.6c0-1.9,0-1.9-2.4-5.8h12.6c-2.3,4-2.3,4-2.3,6v40.6c0,1.9,0,1.9,2.3,5.8h-12.6
						C444.6,169.2,444.6,169.2,444.6,167.2z"/>
					<path d="M464.7,165.5l18.6-45h5.2l18.7,45.2c1.6,3.7,1.6,3.7,3.7,7.5h-13.3c2.4-4.3,2.4-4.3,1.3-7l-3.4-8.6h-21.9l-3.4,8.6
						c-1.2,3.2-1.2,3.2,1.2,7H461C463.2,169.2,463.2,169.2,464.7,165.5z M493.6,152.9l-9.1-23l-9.1,23H493.6z"/>
				</g>
				<g class="st2">
					<path class="st3" d="M444.6,167.2v-19.1h-26.5v19.3c0,1.9,0,1.9,2.3,5.8H408c2.3-4,2.3-4,2.3-6v-40.6c0-1.9,0-1.9-2.3-5.8h12.5
						c-2.3,4-2.3,4-2.3,6v16.5h26.5v-16.6c0-1.9,0-1.9-2.4-5.8h12.6c-2.3,4-2.3,4-2.3,6v40.6c0,1.9,0,1.9,2.3,5.8h-12.6
						C444.6,169.2,444.6,169.2,444.6,167.2z"/>
					<path class="st3" d="M464.7,165.5l18.6-45h5.2l18.7,45.2c1.6,3.7,1.6,3.7,3.7,7.5h-13.3c2.4-4.3,2.4-4.3,1.3-7l-3.4-8.6h-21.9
						l-3.4,8.6c-1.2,3.2-1.2,3.2,1.2,7H461C463.2,169.2,463.2,169.2,464.7,165.5z M493.6,152.9l-9.1-23l-9.1,23H493.6z"/>
				</g>
				<g class="st2">
					<path d="M520.7,167.2v-40.6c0-1.9,0-1.9-2.3-5.8H539c11.1,0,17.8,5.7,17.8,14c0,7.2-4.9,12.1-13.3,13.4l14.1,18.1
						c2.9,3.8,2.9,3.8,6.4,7h-10.6l-18.9-24.7h-5.8v18.7c0,2,0,2,3.2,6h-13.3C520.7,169.2,520.7,169.2,520.7,167.2z M537.5,144.5
						c7.1,0,11-3.5,11-9.7s-3.9-9.7-11-9.7h-8.8v19.3L537.5,144.5L537.5,144.5z"/>
				</g>
				<g class="st2">
					<path class="st3" d="M520.7,167.2v-40.6c0-1.9,0-1.9-2.3-5.8H539c11.1,0,17.8,5.7,17.8,14c0,7.2-4.9,12.1-13.3,13.4l14.1,18.1
						c2.9,3.8,2.9,3.8,6.4,7h-10.6l-18.9-24.7h-5.8v18.7c0,2,0,2,3.2,6h-13.3C520.7,169.2,520.7,169.2,520.7,167.2z M537.5,144.5
						c7.1,0,11-3.5,11-9.7s-3.9-9.7-11-9.7h-8.8v19.3L537.5,144.5L537.5,144.5z"/>
				</g>
				<g class="st2">
					<path d="M572.4,165.5l18.6-45h5.2l18.7,45.2c1.6,3.7,1.6,3.7,3.7,7.5h-13.3c2.4-4.3,2.4-4.3,1.3-7l-3.4-8.6h-21.9l-3.4,8.6
						c-1.2,3.2-1.2,3.2,1.2,7h-10.4C570.9,169.2,570.9,169.2,572.4,165.5z M601.3,152.9l-9.1-23l-9.1,23H601.3z"/>
				</g>
				<g class="st2">
					<path class="st3" d="M572.4,165.5l18.6-45h5.2l18.7,45.2c1.6,3.7,1.6,3.7,3.7,7.5h-13.3c2.4-4.3,2.4-4.3,1.3-7l-3.4-8.6h-21.9
						l-3.4,8.6c-1.2,3.2-1.2,3.2,1.2,7h-10.4C570.9,169.2,570.9,169.2,572.4,165.5z M601.3,152.9l-9.1-23l-9.1,23H601.3z"/>
				</g>
				<g class="st2">
					<path d="M627.5,167.2V123l-2.1-2.3h9.4l30.4,38.6v-32.7c0-2,0-2-3.1-5.9h10.8c-2.4,4-2.4,4-2.4,6v47h-3.8l-33.9-42.3v35.8
						c0,2,0,2,3.1,5.9H625C627.5,169.2,627.5,169.2,627.5,167.2z"/>
				</g>
				<g class="st2">
					<path class="st3" d="M627.5,167.2V123l-2.1-2.3h9.4l30.4,38.6v-32.7c0-2,0-2-3.1-5.9h10.8c-2.4,4-2.4,4-2.4,6v47h-3.8
						l-33.9-42.3v35.8c0,2,0,2,3.1,5.9H625C627.5,169.2,627.5,169.2,627.5,167.2z"/>
				</g>
				<g class="st2">
					<path d="M681,147.1c0-16.5,11.4-27.5,28-27.5c8.8,0,14.5,2.4,19.1,5.9v10c-4.6-7.1-10.6-11-19.1-11c-11.8,0-19.6,8.5-19.6,22.6
						c0,14,7.8,22.4,19,22.4c5.7,0,10.3-2.5,12.3-4.9v-13.3h-18l2.2-5.2h26c-2.4,4-2.4,4-2.4,6v14.4c-4.7,4.7-12.1,7.9-20.7,7.9
						C691.9,174.3,681,164,681,147.1z"/>
				</g>
				<g class="st2">
					<path class="st3" d="M681,147.1c0-16.5,11.4-27.5,28-27.5c8.8,0,14.5,2.4,19.1,5.9v10c-4.6-7.1-10.6-11-19.1-11
						c-11.8,0-19.6,8.5-19.6,22.6c0,14,7.8,22.4,19,22.4c5.7,0,10.3-2.5,12.3-4.9v-13.3h-18l2.2-5.2h26c-2.4,4-2.4,4-2.4,6v14.4
						c-4.7,4.7-12.1,7.9-20.7,7.9C691.9,174.3,681,164,681,147.1z"/>
				</g>
				<g class="st2">
					<path d="M737.7,165.5l18.6-45h5.2l18.7,45.2c1.6,3.7,1.6,3.7,3.7,7.5h-13.3c2.4-4.3,2.4-4.3,1.3-7l-3.4-8.6h-21.9l-3.4,8.6
						c-1.2,3.2-1.2,3.2,1.2,7H734C736.2,169.2,736.2,169.2,737.7,165.5z M766.6,152.9l-9.1-23l-9.1,23H766.6z"/>
				</g>
				<g class="st2">
					<path class="st3" d="M737.7,165.5l18.6-45h5.2l18.7,45.2c1.6,3.7,1.6,3.7,3.7,7.5h-13.3c2.4-4.3,2.4-4.3,1.3-7l-3.4-8.6h-21.9
						l-3.4,8.6c-1.2,3.2-1.2,3.2,1.2,7H734C736.2,169.2,736.2,169.2,737.7,165.5z M766.6,152.9l-9.1-23l-9.1,23H766.6z"/>
				</g>
				<g class="st2">
					<path d="M793,167.2v-40.6c0-1.9,0-1.9-2.3-5.8h12.6c-2.4,4-2.4,4-2.4,6v41.6h12.9c3.1,0,5,0,11.4-5.6l-1.2,10.5h-33.3
						C793,169.2,793,169.2,793,167.2z"/>
				</g>
				<g class="st2">
					<path class="st3" d="M793,167.2v-40.6c0-1.9,0-1.9-2.3-5.8h12.6c-2.4,4-2.4,4-2.4,6v41.6h12.9c3.1,0,5,0,11.4-5.6l-1.2,10.5
						h-33.3C793,169.2,793,169.2,793,167.2z"/>
				</g>
				<g class="st2">
					<path d="M342.1,311.8l-13.5-38.3c-0.6-1.8-0.6-1.8-4.1-4.7l19.4-6.8c10.5-3.7,18.7-0.5,21.4,7.3c2.4,6.8-0.6,13.1-8.1,17.1
						l19.3,12.4c4,2.6,4,2.6,8.3,4.5l-10,3.5l-26-17l-5.4,1.9l6.2,17.6c0.6,1.8,0.6,1.8,5,4.6l-12.6,4.4
						C342.7,313.6,342.7,313.6,342.1,311.8z M350.3,284.8c6.7-2.4,9.2-7,7.2-12.8s-6.9-7.8-13.6-5.5l-8.3,2.9l6.4,18.3L350.3,284.8z
						"/>
				</g>
				<g class="st2">
					<path class="st4" d="M342.1,311.8l-13.5-38.3c-0.6-1.8-0.6-1.8-4.1-4.7l19.4-6.8c10.5-3.7,18.7-0.5,21.4,7.3
						c2.4,6.8-0.6,13.1-8.1,17.1l19.3,12.4c4,2.6,4,2.6,8.3,4.5l-10,3.5l-26-17l-5.4,1.9l6.2,17.6c0.6,1.8,0.6,1.8,5,4.6l-12.6,4.4
						C342.7,313.6,342.7,313.6,342.1,311.8z M350.3,284.8c6.7-2.4,9.2-7,7.2-12.8s-6.9-7.8-13.6-5.5l-8.3,2.9l6.4,18.3L350.3,284.8z
						"/>
				</g>
				<g class="st2">
					<path d="M379.7,277.3c-3.2-15.4,5.3-29.1,21.1-32.3c15.8-3.3,29.1,5.8,32.3,21.3c3.2,15.4-5.4,29.1-21.2,32.3
						C396.1,301.8,382.9,292.7,379.7,277.3z M410.9,293.6c10.4-2.2,16.8-11.6,13.9-25.7s-12.5-20.2-23-18.1
						c-10.4,2.1-16.8,11.6-13.9,25.7C390.9,289.7,400.5,295.8,410.9,293.6z"/>
				</g>
				<g class="st2">
					<path class="st4" d="M379.7,277.3c-3.2-15.4,5.3-29.1,21.1-32.3c15.8-3.3,29.1,5.8,32.3,21.3c3.2,15.4-5.4,29.1-21.2,32.3
						C396.1,301.8,382.9,292.7,379.7,277.3z M410.9,293.6c10.4-2.2,16.8-11.6,13.9-25.7s-12.5-20.2-23-18.1
						c-10.4,2.1-16.8,11.6-13.9,25.7C390.9,289.7,400.5,295.8,410.9,293.6z"/>
				</g>
				<g class="st2">
					<path d="M447,285.4l-3.3-40.5c-0.1-1.9-0.1-1.9-2.8-5.6l20.7-1.7c10.2-0.8,16.2,3.7,16.8,11.2c0.5,5.8-3.1,11.4-10.1,12.8
						c7.9,0.1,13.6,4.9,14.1,12.2c0.7,9-5.2,15.2-16.8,16.2l-20.5,1.6C447.2,287.3,447.2,287.3,447,285.4z M461.6,260.1
						c6.2-0.5,9.1-4.2,8.7-9.9c-0.4-5.6-3.9-8.8-10.1-8.3l-8.7,0.7l1.5,18.2L461.6,260.1z M464.2,285.6c6.8-0.5,10.7-4.7,10.1-11.4
						c-0.6-6.9-5.1-10.3-12-9.8l-9,0.7l1.7,21.2L464.2,285.6z"/>
				</g>
				<g class="st2">
					<path class="st4" d="M447,285.4l-3.3-40.5c-0.1-1.9-0.1-1.9-2.8-5.6l20.7-1.7c10.2-0.8,16.2,3.7,16.8,11.2
						c0.5,5.8-3.1,11.4-10.1,12.8c7.9,0.1,13.6,4.9,14.1,12.2c0.7,9-5.2,15.2-16.8,16.2l-20.5,1.6
						C447.2,287.3,447.2,287.3,447,285.4z M461.6,260.1c6.2-0.5,9.1-4.2,8.7-9.9c-0.4-5.6-3.9-8.8-10.1-8.3l-8.7,0.7l1.5,18.2
						L461.6,260.1z M464.2,285.6c6.8-0.5,10.7-4.7,10.1-11.4c-0.6-6.9-5.1-10.3-12-9.8l-9,0.7l1.7,21.2L464.2,285.6z"/>
				</g>
				<g class="st2">
					<path d="M493,268.3l0.8-26.7c0.1-1.9,0.1-1.9-2.1-5.9l13,0.4c-2.9,4-2.9,4-3,6l-0.8,26.9c-0.3,9.4,4.9,15.3,13.7,15.6
						c8.5,0.3,13.9-5.3,14.2-14.7l0.8-27.1c0.1-1.9,0.1-1.9-2.7-6l10.6,0.3c-2.5,4.1-2.5,4.1-2.5,6l-0.8,26.3
						c-0.4,13.6-8.2,21-21.1,20.6C500,289.6,492.6,281.9,493,268.3z"/>
				</g>
				<g class="st2">
					<path class="st4" d="M493,268.3l0.8-26.7c0.1-1.9,0.1-1.9-2.1-5.9l13,0.4c-2.9,4-2.9,4-3,6l-0.8,26.9
						c-0.3,9.4,4.9,15.3,13.7,15.6c8.5,0.3,13.9-5.3,14.2-14.7l0.8-27.1c0.1-1.9,0.1-1.9-2.7-6l10.6,0.3c-2.5,4.1-2.5,4.1-2.5,6
						l-0.8,26.3c-0.4,13.6-8.2,21-21.1,20.6C500,289.6,492.6,281.9,493,268.3z"/>
				</g>
				<g class="st2">
					<path d="M543.9,285.3l0.6-11.9c4.2,9.5,10.2,14.5,17.4,15.5c5.8,0.8,10-1.9,10.7-7c0.5-3.7-1.3-7.1-6-9.9l-9-5.4
						c-6.6-3.9-8.9-8.7-8.1-14.8c1.2-8.6,9-13.5,18.9-12.1c6.1,0.9,10.8,3.3,14.4,7.2l-1.4,9.8c-3.2-7.3-8.7-11.3-14.9-12.2
						c-5.5-0.8-9.1,2-9.7,6.1c-0.5,3.6,1.1,6.4,5.3,8.9l9.5,5.6c6.2,3.7,9.2,8.9,8.3,15.6c-1.3,9.4-9.5,14.6-20.1,13.1
						C552.6,292.9,547.3,289.9,543.9,285.3z"/>
				</g>
				<g class="st2">
					<path class="st4" d="M543.9,285.3l0.6-11.9c4.2,9.5,10.2,14.5,17.4,15.5c5.8,0.8,10-1.9,10.7-7c0.5-3.7-1.3-7.1-6-9.9l-9-5.4
						c-6.6-3.9-8.9-8.7-8.1-14.8c1.2-8.6,9-13.5,18.9-12.1c6.1,0.9,10.8,3.3,14.4,7.2l-1.4,9.8c-3.2-7.3-8.7-11.3-14.9-12.2
						c-5.5-0.8-9.1,2-9.7,6.1c-0.5,3.6,1.1,6.4,5.3,8.9l9.5,5.6c6.2,3.7,9.2,8.9,8.3,15.6c-1.3,9.4-9.5,14.6-20.1,13.1
						C552.6,292.9,547.3,289.9,543.9,285.3z"/>
				</g>
				<g class="st2">
					<path d="M594.7,245l41,10.2l-2.4,9.8c-3.2-6.2-4.6-6.6-7.2-7.2l-8.2-2l-10.1,40.5c-0.5,1.8-0.5,1.8,1.4,6.4l-13.4-3.3
						c4.1-3.3,4.1-3.3,4.5-5.2l10-40.2l-8.3-2.1c-2.5-0.6-4.1-1-9.7,3L594.7,245z"/>
				</g>
				<g class="st2">
					<path class="st4" d="M594.7,245l41,10.2l-2.4,9.8c-3.2-6.2-4.6-6.6-7.2-7.2l-8.2-2l-10.1,40.5c-0.5,1.8-0.5,1.8,1.4,6.4
						l-13.4-3.3c4.1-3.3,4.1-3.3,4.5-5.2l10-40.2l-8.3-2.1c-2.5-0.6-4.1-1-9.7,3L594.7,245z"/>
				</g>
				<g class="st2">
					<path d="M625.4,298.8l33-35.8l4.9,1.8l1.9,48.9c0.2,4,0.2,4,0.9,8.3l-12.5-4.6c3.7-3.2,3.7-3.2,3.7-6.1L657,302l-20.5-7.6
						l-6.1,6.9c-2.2,2.5-2.2,2.5-1.3,7l-9.8-3.6C622.7,301.7,622.7,301.7,625.4,298.8z M656.8,296.9l-0.6-24.7l-16.5,18.5
						L656.8,296.9z"/>
				</g>
				<g class="st2">
					<path class="st4" d="M625.4,298.8l33-35.8l4.9,1.8l1.9,48.9c0.2,4,0.2,4,0.9,8.3l-12.5-4.6c3.7-3.2,3.7-3.2,3.7-6.1L657,302
						l-20.5-7.6l-6.1,6.9c-2.2,2.5-2.2,2.5-1.3,7l-9.8-3.6C622.7,301.7,622.7,301.7,625.4,298.8z M656.8,296.9l-0.6-24.7l-16.5,18.5
						L656.8,296.9z"/>
				</g>
				<g class="st2">
					<path d="M338.6,630.9h13.1c-2.5,4.2-2.5,4.2-1.7,7l10.4,33.7l14.5-41h4.4l14.4,41.1l10.6-33.8c0.9-3,0.9-3-1.8-6.9H413
						c-2.2,4.1-2.2,4.1-3.5,8l-15,45.1h-3.9l-14.8-41.5l-15.1,41.5h-4l-14.9-45.7C340.6,634.6,340.6,634.6,338.6,630.9z"/>
				</g>
				<g class="st2">
					<path class="st3" d="M338.6,630.9h13.1c-2.5,4.2-2.5,4.2-1.7,7l10.4,33.7l14.5-41h4.4l14.4,41.1l10.6-33.8c0.9-3,0.9-3-1.8-6.9
						H413c-2.2,4.1-2.2,4.1-3.5,8l-15,45.1h-3.9l-14.8-41.5l-15.1,41.5h-4l-14.9-45.7C340.6,634.6,340.6,634.6,338.6,630.9z"/>
				</g>
				<g class="st2">
					<path d="M413.8,675.7l18.6-45h5.2l18.7,45.2c1.6,3.7,1.6,3.7,3.7,7.5h-13.3c2.4-4.3,2.4-4.3,1.3-7l-3.4-8.6h-21.9l-3.4,8.6
						c-1.2,3.2-1.2,3.2,1.2,7h-10.4C412.3,679.3,412.3,679.3,413.8,675.7z M442.7,663.1l-9.1-23l-9.1,23H442.7z"/>
				</g>
				<g class="st2">
					<path class="st3" d="M413.8,675.7l18.6-45h5.2l18.7,45.2c1.6,3.7,1.6,3.7,3.7,7.5h-13.3c2.4-4.3,2.4-4.3,1.3-7l-3.4-8.6h-21.9
						l-3.4,8.6c-1.2,3.2-1.2,3.2,1.2,7h-10.4C412.3,679.3,412.3,679.3,413.8,675.7z M442.7,663.1l-9.1-23l-9.1,23H442.7z"/>
				</g>
				<g class="st2">
					<path d="M465.4,678.2l-1-11.8c5.5,8.8,12.1,13,19.3,13c5.8,0,9.6-3.2,9.6-8.4c0-3.8-2.2-6.9-7.3-9l-9.7-4
						c-7-2.9-10-7.3-10-13.5c0-8.7,7-14.6,17-14.6c6.1,0,11.1,1.7,15.3,5.1v9.9c-4.2-6.8-10.2-10-16.4-10c-5.5,0-8.8,3.2-8.8,7.4
						c0,3.6,1.9,6.1,6.5,8.1l10.2,4.2c6.7,2.8,10.3,7.5,10.3,14.2c0,9.4-7.3,15.7-18.1,15.7C475.1,684.5,469.5,682.3,465.4,678.2z"
						/>
				</g>
				<g class="st2">
					<path class="st3" d="M465.4,678.2l-1-11.8c5.5,8.8,12.1,13,19.3,13c5.8,0,9.6-3.2,9.6-8.4c0-3.8-2.2-6.9-7.3-9l-9.7-4
						c-7-2.9-10-7.3-10-13.5c0-8.7,7-14.6,17-14.6c6.1,0,11.1,1.7,15.3,5.1v9.9c-4.2-6.8-10.2-10-16.4-10c-5.5,0-8.8,3.2-8.8,7.4
						c0,3.6,1.9,6.1,6.5,8.1l10.2,4.2c6.7,2.8,10.3,7.5,10.3,14.2c0,9.4-7.3,15.7-18.1,15.7C475.1,684.5,469.5,682.3,465.4,678.2z"
						/>
				</g>
				<g class="st2">
					<path d="M545.9,677.4v-19.1h-26.5v19.3c0,1.9,0,1.9,2.3,5.8h-12.5c2.3-4,2.3-4,2.3-6v-40.6c0-1.9,0-1.9-2.3-5.8h12.5
						c-2.3,4-2.3,4-2.3,6v16.5h26.5v-16.6c0-1.9,0-1.9-2.4-5.8h12.6c-2.3,4-2.3,4-2.3,6v40.6c0,1.9,0,1.9,2.3,5.8h-12.6
						C545.9,679.3,545.9,679.3,545.9,677.4z"/>
				</g>
				<g class="st2">
					<path class="st3" d="M545.9,677.4v-19.1h-26.5v19.3c0,1.9,0,1.9,2.3,5.8h-12.5c2.3-4,2.3-4,2.3-6v-40.6c0-1.9,0-1.9-2.3-5.8
						h12.5c-2.3,4-2.3,4-2.3,6v16.5h26.5v-16.6c0-1.9,0-1.9-2.4-5.8h12.6c-2.3,4-2.3,4-2.3,6v40.6c0,1.9,0,1.9,2.3,5.8h-12.6
						C545.9,679.3,545.9,679.3,545.9,677.4z"/>
				</g>
				<g class="st2">
					<path d="M568.3,677.4v-40.6c0-1.9,0-1.9-2.3-5.8h34.8v9.1c-4.7-4.4-6.3-4.4-8.9-4.4h-15.7v17.7H589c2.4,0,3.7,0,7.6-2.9V661
						c-3.9-2.8-5.2-2.8-7.6-2.8h-12.8v20.6h14.4c2.9,0,4.6,0,11-5l-1.2,9.8H566C568.3,679.3,568.3,679.3,568.3,677.4z"/>
				</g>
				<g class="st2">
					<path class="st3" d="M568.3,677.4v-40.6c0-1.9,0-1.9-2.3-5.8h34.8v9.1c-4.7-4.4-6.3-4.4-8.9-4.4h-15.7v17.7H589
						c2.4,0,3.7,0,7.6-2.9V661c-3.9-2.8-5.2-2.8-7.6-2.8h-12.8v20.6h14.4c2.9,0,4.6,0,11-5l-1.2,9.8H566
						C568.3,679.3,568.3,679.3,568.3,677.4z"/>
				</g>
				<g class="st2">
					<path d="M612,677.4v-40.6c0-1.9,0-1.9-2.3-5.8H630c14.9,0,26.8,9.3,26.8,26.2S645,683.4,630,683.4h-20.3
						C612,679.3,612,679.3,612,677.4z M628.5,678.7c10.6,0,19.9-7.1,19.9-21.6s-9.3-21.6-19.9-21.6h-8.6v43.2L628.5,678.7
						L628.5,678.7z"/>
				</g>
				<g class="st2">
					<path class="st3" d="M612,677.4v-40.6c0-1.9,0-1.9-2.3-5.8H630c14.9,0,26.8,9.3,26.8,26.2S645,683.4,630,683.4h-20.3
						C612,679.3,612,679.3,612,677.4z M628.5,678.7c10.6,0,19.9-7.1,19.9-21.6s-9.3-21.6-19.9-21.6h-8.6v43.2L628.5,678.7
						L628.5,678.7z"/>
				</g>
			</g>
		</g>
	</g>
</g>
</svg>
