<?xml version="1.0" encoding="utf-8"?>
<!-- Generator: Adobe Illustrator 28.0.0, SVG Export Plug-In . SVG Version: 6.00 Build 0)  -->
<svg version="1.1" id="_레이어_2" xmlns="http://www.w3.org/2000/svg" xmlns:xlink="http://www.w3.org/1999/xlink" x="0px"
	 y="0px" viewBox="0 0 1000 750" style="enable-background:new 0 0 1000 750;" xml:space="preserve">
<style type="text/css">
	.st0{clip-path:url(#SVGID_00000055669480274251779040000017318852839642481792_);}
	.st1{fill:#00D4D6;}
	.st2{enable-background:new    ;}
	.st3{fill:none;stroke:#000000;stroke-width:0.26;stroke-miterlimit:10;}
</style>
<g id="_레이어_1-2">
	<g>
		<defs>
			<rect id="SVGID_1_" width="1000" height="750"/>
		</defs>
		<clipPath id="SVGID_00000160180029658655348830000009735101533233232797_">
			<use xlink:href="#SVGID_1_"  style="overflow:visible;"/>
		</clipPath>
		<g style="clip-path:url(#SVGID_00000160180029658655348830000009735101533233232797_);">
			<g>
				<path class="st1" d="M763.8-901.7l126.7,34c19.2,5.1,30.6,24.9,25.4,44.1L545,559.7c-5.1,19.2-24.9,30.6-44.1,25.4l-126.7-34
					c-19.2-5.1-30.6-24.9-25.4-44.1L719.7-876.2C724.9-895.4,744.6-906.8,763.8-901.7z"/>
				
					<image style="overflow:visible;enable-background:new    ;" width="798" height="585" id="ZRdfJX" xlink:href="AFAB495359776D7A.png"  transform="matrix(4.576760e-02 -0.1741 0.1741 4.576760e-02 401.99 503.39)">
				</image>
			</g>
			<g>
				<g class="st2">
					<path d="M159.8,542.2l33.1-23.7c1.5-1.1,1.5-1.1,3.4-5.3l12.1,16.9c6,8.3,5.2,15.8-0.9,20.2c-4.8,3.4-11.3,3.2-16.2-2.1
						c4,6.8,2.8,14.1-3.1,18.4c-7.3,5.3-15.8,3.4-22.6-6.1l-12-16.7C158.2,543.4,158.2,543.4,159.8,542.2z M168.5,557.1
						c4,5.5,9.5,6.7,15,2.8c5.6-4,6.2-9.7,2.2-15.3l-5.3-7.4l-17.3,12.4L168.5,557.1z M189,541.7c3.6,5.1,8.3,5.7,13,2.3
						c4.6-3.3,5.5-7.9,1.9-12.9l-5.1-7.1l-14.8,10.6L189,541.7z"/>
				</g>
				<g class="st2">
					<path class="st3" d="M159.8,542.2l33.1-23.7c1.5-1.1,1.5-1.1,3.4-5.3l12.1,16.9c6,8.3,5.2,15.8-0.9,20.2
						c-4.8,3.4-11.3,3.2-16.2-2.1c4,6.8,2.8,14.1-3.1,18.4c-7.3,5.3-15.8,3.4-22.6-6.1l-12-16.7
						C158.2,543.4,158.2,543.4,159.8,542.2z M168.5,557.1c4,5.5,9.5,6.7,15,2.8c5.6-4,6.2-9.7,2.2-15.3l-5.3-7.4l-17.3,12.4
						L168.5,557.1z M189,541.7c3.6,5.1,8.3,5.7,13,2.3c4.6-3.3,5.5-7.9,1.9-12.9l-5.1-7.1l-14.8,10.6L189,541.7z"/>
				</g>
				<g class="st2">
					<path d="M193.2,584.8l28.1-29.4c1.3-1.4,1.3-1.4,2.4-5.8l25.2,24.1l-6.3,6.6c-0.4-6.5-1.5-7.6-3.4-9.4L227.8,560l-12.2,12.8
						l9.3,8.9c1.7,1.7,2.7,2.5,7.5,3.1l-7.3,7.6c-0.8-4.8-1.8-5.7-3.5-7.3l-9.3-8.9L198,591.2l10.4,10c2.1,2,3.4,3.2,11.4,3.9
						l-7.6,6.2l-24.8-23.8C191.8,586.2,191.8,586.2,193.2,584.8z"/>
				</g>
				<g class="st2">
					<path class="st3" d="M193.2,584.8l28.1-29.4c1.3-1.4,1.3-1.4,2.4-5.8l25.2,24.1l-6.3,6.6c-0.4-6.5-1.5-7.6-3.4-9.4L227.8,560
						l-12.2,12.8l9.3,8.9c1.7,1.7,2.7,2.5,7.5,3.1l-7.3,7.6c-0.8-4.8-1.8-5.7-3.5-7.3l-9.3-8.9L198,591.2l10.4,10
						c2.1,2,3.4,3.2,11.4,3.9l-7.6,6.2l-24.8-23.8C191.8,586.2,191.8,586.2,193.2,584.8z"/>
				</g>
				<g class="st2">
					<path d="M230.2,618.3l24.7-36.7l-0.4-3.1l7.8,5.2l3.7,49.1l18.3-27.2c1.1-1.6,1.1-1.6,0.8-6.6l9,6c-4.3,2-4.3,2-5.3,3.6
						l-26.2,39.1l-3.1-2.1l-4.6-54.1l-20,29.8c-1.1,1.6-1.1,1.6-0.7,6.7l-9-6.1C229.1,619.9,229.1,619.9,230.2,618.3z"/>
				</g>
				<g class="st2">
					<path class="st3" d="M230.2,618.3l24.7-36.7l-0.4-3.1l7.8,5.2l3.7,49.1l18.3-27.2c1.1-1.6,1.1-1.6,0.8-6.6l9,6
						c-4.3,2-4.3,2-5.3,3.6l-26.2,39.1l-3.1-2.1l-4.6-54.1l-20,29.8c-1.1,1.6-1.1,1.6-0.7,6.7l-9-6.1
						C229.1,619.9,229.1,619.9,230.2,618.3z"/>
				</g>
				<g class="st2">
					<path d="M280.6,651.2l4.2-11.2c1.1,10.4,5.4,17,11.9,20.1c5.3,2.5,10.1,1.2,12.3-3.4c1.6-3.4,1-7.2-2.7-11.3l-7-7.8
						c-5.1-5.7-5.9-11-3.2-16.5c3.8-7.9,12.7-10.2,21.7-5.8c5.6,2.7,9.3,6.4,11.6,11.2l-4.3,8.9c-0.8-8-4.9-13.4-10.5-16.1
						c-5-2.4-9.3-0.9-11.1,2.9c-1.6,3.2-0.9,6.4,2.4,10.1l7.4,8.2c4.8,5.4,6.1,11.2,3.2,17.3c-4.1,8.5-13.4,11-23.1,6.4
						C286.6,661.1,282.5,656.6,280.6,651.2z"/>
				</g>
				<g class="st2">
					<path class="st3" d="M280.6,651.2l4.2-11.2c1.1,10.4,5.4,17,11.9,20.1c5.3,2.5,10.1,1.2,12.3-3.4c1.6-3.4,1-7.2-2.7-11.3
						l-7-7.8c-5.1-5.7-5.9-11-3.2-16.5c3.8-7.9,12.7-10.2,21.7-5.8c5.6,2.7,9.3,6.4,11.6,11.2l-4.3,8.9c-0.8-8-4.9-13.4-10.5-16.1
						c-5-2.4-9.3-0.9-11.1,2.9c-1.6,3.2-0.9,6.4,2.4,10.1l7.4,8.2c4.8,5.4,6.1,11.2,3.2,17.3c-4.1,8.5-13.4,11-23.1,6.4
						C286.6,661.1,282.5,656.6,280.6,651.2z"/>
				</g>
				<g class="st2">
					<path d="M324,668.6l32.1-36.7l4.9,1.7l3.1,48.9c0.3,4,0.3,4,1.1,8.3l-12.7-4.3c3.7-3.3,3.7-3.3,3.5-6.2l-0.4-9.3l-20.8-7
						l-6,7.1c-2.2,2.6-2.2,2.6-1.1,7.1l-9.9-3.4C321.4,671.6,321.4,671.6,324,668.6z M355.4,665.9l-1.2-24.7l-16,18.9L355.4,665.9z"
						/>
				</g>
				<g class="st2">
					<path class="st3" d="M324,668.6l32.1-36.7l4.9,1.7l3.1,48.9c0.3,4,0.3,4,1.1,8.3l-12.7-4.3c3.7-3.3,3.7-3.3,3.5-6.2l-0.4-9.3
						l-20.8-7l-6,7.1c-2.2,2.6-2.2,2.6-1.1,7.1l-9.9-3.4C321.4,671.6,321.4,671.6,324,668.6z M355.4,665.9l-1.2-24.7l-16,18.9
						L355.4,665.9z"/>
				</g>
				<g class="st2">
					<path d="M402.7,693.2l6.2-40.2c0.3-1.9,0.3-1.9-1.4-6.1l20.1,3.1c14.8,2.3,25.1,13.3,22.5,30.1s-15.7,24.2-30.5,21.9l-20.1-3.1
						C402.4,695.2,402.4,695.2,402.7,693.2z M418.8,697.1c10.5,1.6,20.7-4,23-18.3c2.2-14.4-5.9-22.8-16.4-24.4l-8.5-1.3l-6.6,42.7
						L418.8,697.1z"/>
				</g>
				<g class="st2">
					<path class="st3" d="M402.7,693.2l6.2-40.2c0.3-1.9,0.3-1.9-1.4-6.1l20.1,3.1c14.8,2.3,25.1,13.3,22.5,30.1
						s-15.7,24.2-30.5,21.9l-20.1-3.1C402.4,695.2,402.4,695.2,402.7,693.2z M418.8,697.1c10.5,1.6,20.7-4,23-18.3
						c2.2-14.4-5.9-22.8-16.4-24.4l-8.5-1.3l-6.6,42.7L418.8,697.1z"/>
				</g>
				<g class="st2">
					<path d="M461.5,687.2l0.9-26.7c0.1-1.9,0.1-1.9-2.1-5.9l13,0.5c-2.9,4-2.9,4-3,6l-1,26.9c-0.3,9.4,4.9,15.3,13.6,15.7
						c8.5,0.3,13.9-5.3,14.3-14.7l1-27.1c0.1-2,0.1-2-2.6-6l10.7,0.4c-2.5,4-2.5,4-2.5,6l-0.9,26.3c-0.5,13.7-8.3,21-21.2,20.5
						C468.5,708.5,461.1,700.8,461.5,687.2z"/>
				</g>
				<g class="st2">
					<path class="st3" d="M461.5,687.2l0.9-26.7c0.1-1.9,0.1-1.9-2.1-5.9l13,0.5c-2.9,4-2.9,4-3,6l-1,26.9
						c-0.3,9.4,4.9,15.3,13.6,15.7c8.5,0.3,13.9-5.3,14.3-14.7l1-27.1c0.1-2,0.1-2-2.6-6l10.7,0.4c-2.5,4-2.5,4-2.5,6l-0.9,26.3
						c-0.5,13.7-8.3,21-21.2,20.5C468.5,708.5,461.1,700.8,461.5,687.2z"/>
				</g>
				<g class="st2">
					<path d="M511.3,657l13.1-1.4c-2.1,4.4-2.1,4.4-1,7.1l13.9,32.4l10.2-42.4l4.4-0.5l18.6,39.4l7-34.8c0.6-3.1,0.6-3.1-2.5-6.7
						l10.5-1.1c-1.7,4.3-1.7,4.3-2.6,8.3L572.6,704l-3.9,0.4l-19.1-39.8l-10.7,42.9l-4,0.4L515.3,664
						C513.7,660.5,513.7,660.5,511.3,657z"/>
				</g>
				<g class="st2">
					<path class="st3" d="M511.3,657l13.1-1.4c-2.1,4.4-2.1,4.4-1,7.1l13.9,32.4l10.2-42.4l4.4-0.5l18.6,39.4l7-34.8
						c0.6-3.1,0.6-3.1-2.5-6.7l10.5-1.1c-1.7,4.3-1.7,4.3-2.6,8.3L572.6,704l-3.9,0.4l-19.1-39.8l-10.7,42.9l-4,0.4L515.3,664
						C513.7,660.5,513.7,660.5,511.3,657z"/>
				</g>
				<g class="st2">
					<path d="M595.2,691.9l7.6-48.1l5-1.2l28.8,39.6c2.4,3.2,2.4,3.2,5.3,6.4l-13,3.1c1.3-4.7,1.3-4.7-0.3-7.2l-5.3-7.6l-21.3,5.1
						l-1.3,9.2c-0.4,3.3-0.4,3.3,2.8,6.6l-10.1,2.4C594.6,695.8,594.6,695.8,595.2,691.9z M620.4,672.9l-14.2-20.3l-3.4,24.5
						L620.4,672.9z"/>
				</g>
				<g class="st2">
					<path class="st3" d="M595.2,691.9l7.6-48.1l5-1.2l28.8,39.6c2.4,3.2,2.4,3.2,5.3,6.4l-13,3.1c1.3-4.7,1.3-4.7-0.3-7.2l-5.3-7.6
						l-21.3,5.1l-1.3,9.2c-0.4,3.3-0.4,3.3,2.8,6.6l-10.1,2.4C594.6,695.8,594.6,695.8,595.2,691.9z M620.4,672.9l-14.2-20.3
						l-3.4,24.5L620.4,672.9z"/>
				</g>
				<g class="st2">
					<path d="M653.8,678.5l-16-41.2l-2.8-1.4l8.8-3.4l42.4,25.1L674.3,627c-0.7-1.8-0.7-1.8-5-4.4l10.1-3.9
						c-0.8,4.6-0.8,4.6-0.1,6.5l17,43.9l-3.5,1.4l-46.9-27.2l13,33.5c0.7,1.8,0.7,1.8,5.1,4.4l-10.2,3.9
						C654.5,680.3,654.5,680.3,653.8,678.5z"/>
				</g>
				<g class="st2">
					<path class="st3" d="M653.8,678.5l-16-41.2l-2.8-1.4l8.8-3.4l42.4,25.1L674.3,627c-0.7-1.8-0.7-1.8-5-4.4l10.1-3.9
						c-0.8,4.6-0.8,4.6-0.1,6.5l17,43.9l-3.5,1.4l-46.9-27.2l13,33.5c0.7,1.8,0.7,1.8,5.1,4.4l-10.2,3.9
						C654.5,680.3,654.5,680.3,653.8,678.5z"/>
				</g>
				<g class="st2">
					<path d="M698.7,639.2c-8.4-14.8-4.4-29.8,9.8-37.8c6.5-3.7,12.6-4.9,18-3.8l5,8.8c-7.3-3.9-14.1-3.9-20.8-0.1
						c-10.1,5.7-12.5,15.9-6.3,26.7c6.7,11.9,18.4,15.3,29.2,9.2c6.4-3.6,10.2-9.5,10.1-16.3c4.2,9.5,0.8,18.1-9.5,23.9
						C720.8,657.4,706.5,652.9,698.7,639.2z"/>
				</g>
				<g class="st2">
					<path class="st3" d="M698.7,639.2c-8.4-14.8-4.4-29.8,9.8-37.8c6.5-3.7,12.6-4.9,18-3.8l5,8.8c-7.3-3.9-14.1-3.9-20.8-0.1
						c-10.1,5.7-12.5,15.9-6.3,26.7c6.7,11.9,18.4,15.3,29.2,9.2c6.4-3.6,10.2-9.5,10.1-16.3c4.2,9.5,0.8,18.1-9.5,23.9
						C720.8,657.4,706.5,652.9,698.7,639.2z"/>
				</g>
				<g class="st2">
					<path d="M788.5,602.4l-12.1-14.8l-20.5,16.8l12.2,14.9c1.2,1.5,1.2,1.5,5.5,3.1l-9.7,7.9c-0.8-4.6-0.8-4.6-2-6.1l-25.8-31.5
						c-1.2-1.5-1.2-1.5-5.5-3.1l9.7-7.9c0.8,4.6,0.8,4.6,2,6.1l10.5,12.8l20.5-16.8L762.7,571c-1.2-1.5-1.2-1.5-5.6-3l9.8-8
						c0.8,4.6,0.8,4.6,2,6.1l25.8,31.5c1.2,1.5,1.2,1.5,5.5,3.1l-9.8,8C789.7,603.9,789.7,603.9,788.5,602.4z"/>
				</g>
				<g class="st2">
					<path class="st3" d="M788.5,602.4l-12.1-14.8l-20.5,16.8l12.2,14.9c1.2,1.5,1.2,1.5,5.5,3.1l-9.7,7.9c-0.8-4.6-0.8-4.6-2-6.1
						l-25.8-31.5c-1.2-1.5-1.2-1.5-5.5-3.1l9.7-7.9c0.8,4.6,0.8,4.6,2,6.1l10.5,12.8l20.5-16.8L762.7,571c-1.2-1.5-1.2-1.5-5.6-3
						l9.8-8c0.8,4.6,0.8,4.6,2,6.1l25.8,31.5c1.2,1.5,1.2,1.5,5.5,3.1l-9.8,8C789.7,603.9,789.7,603.9,788.5,602.4z"/>
				</g>
				<g class="st2">
					<path d="M792.6,572c-12.5-9.6-14.9-25.5-5-38.3s25.9-14.5,38.4-4.9s14.9,25.6,5,38.4S805,581.6,792.6,572z M826.9,564.1
						c6.5-8.4,5.2-19.8-6.2-28.6c-11.4-8.8-22.7-7.2-29.2,1.3c-6.5,8.4-5.2,19.8,6.2,28.6C809.1,574.1,820.5,572.5,826.9,564.1z"/>
				</g>
				<g class="st2">
					<path class="st3" d="M792.6,572c-12.5-9.6-14.9-25.5-5-38.3s25.9-14.5,38.4-4.9s14.9,25.6,5,38.4S805,581.6,792.6,572z
						 M826.9,564.1c6.5-8.4,5.2-19.8-6.2-28.6c-11.4-8.8-22.7-7.2-29.2,1.3c-6.5,8.4-5.2,19.8,6.2,28.6
						C809.1,574.1,820.5,572.5,826.9,564.1z"/>
				</g>
				<g class="st2">
					<path d="M220.8,254.3l-25.1-32c-1.2-1.5-1.2-1.5-5.4-3.2l27.4-21.5l5.7,7.2c-6.5-0.6-7.7,0.4-9.8,2l-12.3,9.7l10.9,13.9
						l10.1-7.9c1.9-1.5,2.9-2.3,4.2-7l6.5,8.3c-4.8,0.2-5.9,1-7.7,2.4l-10.1,7.9l12.8,16.2l11.3-8.9c2.3-1.8,3.7-2.9,5.5-10.7
						l5.1,8.4l-27,21.2C222,255.8,222,255.8,220.8,254.3z"/>
				</g>
				<g class="st2">
					<path class="st3" d="M220.8,254.3l-25.1-32c-1.2-1.5-1.2-1.5-5.4-3.2l27.4-21.5l5.7,7.2c-6.5-0.6-7.7,0.4-9.8,2l-12.3,9.7
						l10.9,13.9l10.1-7.9c1.9-1.5,2.9-2.3,4.2-7l6.5,8.3c-4.8,0.2-5.9,1-7.7,2.4l-10.1,7.9l12.8,16.2l11.3-8.9
						c2.3-1.8,3.7-2.9,5.5-10.7l5.1,8.4l-27,21.2C222,255.8,222,255.8,220.8,254.3z"/>
				</g>
				<g class="st2">
					<path d="M226,191.7l36.3-21.8l5.2,8.7c-6.6-2.1-7.9-1.4-10.2,0L250,183l21.5,35.9c1,1.6,1,1.6,5.5,3.6l-11.8,7.1
						c0.5-5.2,0.5-5.2-0.5-6.9L243.3,187l-7.3,4.4c-2.3,1.4-3.6,2.2-4.8,9L226,191.7z"/>
				</g>
				<g class="st2">
					<path class="st3" d="M226,191.7l36.3-21.8l5.2,8.7c-6.6-2.1-7.9-1.4-10.2,0L250,183l21.5,35.9c1,1.6,1,1.6,5.5,3.6l-11.8,7.1
						c0.5-5.2,0.5-5.2-0.5-6.9L243.3,187l-7.3,4.4c-2.3,1.4-3.6,2.2-4.8,9L226,191.7z"/>
				</g>
				<g class="st2">
					<path d="M324.3,192.7l-7.7-17.5l-24.3,10.6l7.7,17.7c0.8,1.7,0.8,1.7,4.5,4.4l-11.5,5c0.5-4.6,0.5-4.6-0.3-6.4l-16.3-37.3
						c-0.8-1.7-0.8-1.7-4.5-4.4l11.5-5c-0.5,4.6-0.5,4.6,0.3,6.4l6.6,15.1l24.3-10.6l-6.7-15.3c-0.8-1.7-0.8-1.7-4.6-4.4l11.6-5.1
						c-0.5,4.6-0.5,4.6,0.3,6.4l16.3,37.3c0.8,1.7,0.8,1.7,4.5,4.4l-11.6,5.1C325.1,194.4,325.1,194.4,324.3,192.7z"/>
				</g>
				<g class="st2">
					<path class="st3" d="M324.3,192.7l-7.7-17.5l-24.3,10.6l7.7,17.7c0.8,1.7,0.8,1.7,4.5,4.4l-11.5,5c0.5-4.6,0.5-4.6-0.3-6.4
						l-16.3-37.3c-0.8-1.7-0.8-1.7-4.5-4.4l11.5-5c-0.5,4.6-0.5,4.6,0.3,6.4l6.6,15.1l24.3-10.6l-6.7-15.3c-0.8-1.7-0.8-1.7-4.6-4.4
						l11.6-5.1c-0.5,4.6-0.5,4.6,0.3,6.4l16.3,37.3c0.8,1.7,0.8,1.7,4.5,4.4l-11.6,5.1C325.1,194.4,325.1,194.4,324.3,192.7z"/>
				</g>
				<g class="st2">
					<path d="M343.9,185.6L331,147c-0.6-1.8-0.6-1.8-4.1-4.8l11.9-4c-0.9,4.6-0.9,4.6-0.3,6.4l12.9,38.6c0.6,1.8,0.6,1.8,4.1,4.8
						l-11.9,4C344.6,187.4,344.6,187.4,343.9,185.6z"/>
				</g>
				<g class="st2">
					<path class="st3" d="M343.9,185.6L331,147c-0.6-1.8-0.6-1.8-4.1-4.8l11.9-4c-0.9,4.6-0.9,4.6-0.3,6.4l12.9,38.6
						c0.6,1.8,0.6,1.8,4.1,4.8l-11.9,4C344.6,187.4,344.6,187.4,343.9,185.6z"/>
				</g>
				<g class="st2">
					<path d="M355.1,159.9c-3.7-15.3,4.4-29.2,20.1-33c15.7-3.8,29.3,5,32.9,20.3s-4.5,29.3-20.2,33
						C372.3,183.9,358.8,175.2,355.1,159.9z M386.8,175.3c10.4-2.5,16.5-12.1,13.1-26.1c-3.3-14-13.2-19.9-23.5-17.4
						c-10.3,2.5-16.5,12.1-13.1,26.1S376.5,177.8,386.8,175.3z"/>
				</g>
				<g class="st2">
					<path class="st3" d="M355.1,159.9c-3.7-15.3,4.4-29.2,20.1-33c15.7-3.8,29.3,5,32.9,20.3s-4.5,29.3-20.2,33
						C372.3,183.9,358.8,175.2,355.1,159.9z M386.8,175.3c10.4-2.5,16.5-12.1,13.1-26.1c-3.3-14-13.2-19.9-23.5-17.4
						c-10.3,2.5-16.5,12.1-13.1,26.1S376.5,177.8,386.8,175.3z"/>
				</g>
				<g class="st2">
					<path d="M421.7,166l-5.1-40.4c-0.2-1.9-0.2-1.9-3-5.5l20.6-2.6c10.9-1.4,18.2,3.7,19.3,12.2c1.1,8.4-4.7,15.2-15.6,16.6
						l-10.5,1.3l2.2,17.6c0.2,1.9,0.2,1.9,3.5,5.5l-12.9,1.6C421.9,167.9,421.9,167.9,421.7,166z M435.5,142
						c7.3-0.9,10.4-5.6,9.7-11.4c-0.7-5.8-4.9-9.5-12.2-8.6l-8.8,1.1l2.5,20L435.5,142z"/>
				</g>
				<g class="st2">
					<path class="st3" d="M421.7,166l-5.1-40.4c-0.2-1.9-0.2-1.9-3-5.5l20.6-2.6c10.9-1.4,18.2,3.7,19.3,12.2
						c1.1,8.4-4.7,15.2-15.6,16.6l-10.5,1.3l2.2,17.6c0.2,1.9,0.2,1.9,3.5,5.5l-12.9,1.6C421.9,167.9,421.9,167.9,421.7,166z
						 M435.5,142c7.3-0.9,10.4-5.6,9.7-11.4c-0.7-5.8-4.9-9.5-12.2-8.6l-8.8,1.1l2.5,20L435.5,142z"/>
				</g>
				<g class="st2">
					<path d="M464.9,161.3l-2.5-40.6c-0.1-1.9-0.1-1.9-2.7-5.7l12.5-0.8c-2.1,4.2-2.1,4.2-2,6.1l2.5,40.6c0.1,1.9,0.1,1.9,2.7,5.7
						l-12.5,0.8C465,163.2,465,163.2,464.9,161.3z"/>
				</g>
				<g class="st2">
					<path class="st3" d="M464.9,161.3l-2.5-40.6c-0.1-1.9-0.1-1.9-2.7-5.7l12.5-0.8c-2.1,4.2-2.1,4.2-2,6.1l2.5,40.6
						c0.1,1.9,0.1,1.9,2.7,5.7l-12.5,0.8C465,163.2,465,163.2,464.9,161.3z"/>
				</g>
				<g class="st2">
					<path d="M484.3,158.1l19.2-44.8l5.2,0.1l18.2,45.5c1.5,3.7,1.5,3.7,3.6,7.6l-13.4-0.2c2.5-4.3,2.5-4.3,1.4-7l-3.3-8.7
						l-21.9-0.3l-3.5,8.6c-1.2,3.1-1.2,3.1,1.1,7.1l-10.4-0.1C482.8,161.8,482.8,161.8,484.3,158.1z M513.4,145.9l-8.8-23.2
						l-9.4,22.9L513.4,145.9z"/>
				</g>
				<g class="st2">
					<path class="st3" d="M484.3,158.1l19.2-44.8l5.2,0.1l18.2,45.5c1.5,3.7,1.5,3.7,3.6,7.6l-13.4-0.2c2.5-4.3,2.5-4.3,1.4-7
						l-3.3-8.7l-21.9-0.3l-3.5,8.6c-1.2,3.1-1.2,3.1,1.1,7.1l-10.4-0.1C482.8,161.8,482.8,161.8,484.3,158.1z M513.4,145.9
						l-8.8-23.2l-9.4,22.9L513.4,145.9z"/>
				</g>
				<g class="st2">
					<path d="M555.1,163.6l0.7-11.9c4.1,9.6,10.2,14.6,17.3,15.7c5.8,0.8,10-1.8,10.7-6.9c0.5-3.7-1.2-7.2-5.9-10l-9-5.4
						c-6.6-3.9-8.9-8.7-8-14.8c1.3-8.6,9.1-13.5,19-12c6.1,0.9,10.7,3.3,14.4,7.3l-1.4,9.8c-3.2-7.4-8.7-11.4-14.8-12.3
						c-5.5-0.8-9.2,1.9-9.8,6.1c-0.5,3.6,1,6.4,5.3,9l9.5,5.6c6.2,3.7,9.2,8.9,8.2,15.6c-1.4,9.4-9.6,14.5-20.2,13
						C563.7,171.2,558.5,168.2,555.1,163.6z"/>
				</g>
				<g class="st2">
					<path class="st3" d="M555.1,163.6l0.7-11.9c4.1,9.6,10.2,14.6,17.3,15.7c5.8,0.8,10-1.8,10.7-6.9c0.5-3.7-1.2-7.2-5.9-10
						l-9-5.4c-6.6-3.9-8.9-8.7-8-14.8c1.3-8.6,9.1-13.5,19-12c6.1,0.9,10.7,3.3,14.4,7.3l-1.4,9.8c-3.2-7.4-8.7-11.4-14.8-12.3
						c-5.5-0.8-9.2,1.9-9.8,6.1c-0.5,3.6,1,6.4,5.3,9l9.5,5.6c6.2,3.7,9.2,8.9,8.2,15.6c-1.4,9.4-9.6,14.5-20.2,13
						C563.7,171.2,558.5,168.2,555.1,163.6z"/>
				</g>
				<g class="st2">
					<path d="M599.6,170.1l8.6-39.8c0.4-1.8,0.4-1.8-1-6.2l12.3,2.6c-3.1,3.5-3.1,3.5-3.5,5.4l-8.6,39.8c-0.4,1.8-0.4,1.8,1,6.2
						l-12.3-2.6C599.2,172,599.2,172,599.6,170.1z"/>
				</g>
				<g class="st2">
					<path class="st3" d="M599.6,170.1l8.6-39.8c0.4-1.8,0.4-1.8-1-6.2l12.3,2.6c-3.1,3.5-3.1,3.5-3.5,5.4l-8.6,39.8
						c-0.4,1.8-0.4,1.8,1,6.2l-12.3-2.6C599.2,172,599.2,172,599.6,170.1z"/>
				</g>
				<g class="st2">
					<path d="M620.1,174.3l11.8-38.9c0.5-1.8,0.5-1.8-0.5-6.3l19.5,5.9c14.3,4.3,23,16.7,18.1,32.9c-4.9,16.2-19,21.7-33.3,17.4
						l-19.5-5.9C619.5,176.2,619.5,176.2,620.1,174.3z M635.5,180.4c10.1,3.1,21.1-1.1,25.3-14.9c4.2-13.9-2.7-23.4-12.8-26.5
						l-8.3-2.5l-12.5,41.4L635.5,180.4z"/>
				</g>
				<g class="st2">
					<path class="st3" d="M620.1,174.3l11.8-38.9c0.5-1.8,0.5-1.8-0.5-6.3l19.5,5.9c14.3,4.3,23,16.7,18.1,32.9
						c-4.9,16.2-19,21.7-33.3,17.4l-19.5-5.9C619.5,176.2,619.5,176.2,620.1,174.3z M635.5,180.4c10.1,3.1,21.1-1.1,25.3-14.9
						c4.2-13.9-2.7-23.4-12.8-26.5l-8.3-2.5l-12.5,41.4L635.5,180.4z"/>
				</g>
				<g class="st2">
					<path d="M666.9,187.1l34.9-34l4.8,2.1l-0.8,49c0,4,0,4,0.4,8.4l-12.3-5.3c3.9-3,3.9-3,4-5.9l0.3-9.3l-20.1-8.7l-6.5,6.6
						c-2.4,2.4-2.4,2.4-1.7,7l-9.6-4.1C664.1,189.9,664.1,189.9,666.9,187.1z M698.5,187l0.8-24.8l-17.5,17.6L698.5,187z"/>
				</g>
				<g class="st2">
					<path class="st3" d="M666.9,187.1l34.9-34l4.8,2.1l-0.8,49c0,4,0,4,0.4,8.4l-12.3-5.3c3.9-3,3.9-3,4-5.9l0.3-9.3l-20.1-8.7
						l-6.5,6.6c-2.4,2.4-2.4,2.4-1.7,7l-9.6-4.1C664.1,189.9,664.1,189.9,666.9,187.1z M698.5,187l0.8-24.8l-17.5,17.6L698.5,187z"
						/>
				</g>
				<g class="st2">
					<path d="M714.7,210l21.5-34.6c1-1.6,1-1.6,1.1-6.2l8.2,5.1l0.8,34.2l30.9-14.5l7.9,4.9c-4.1,2.2-4.1,2.2-5.1,3.9l-21.5,34.6
						c-1,1.6-1,1.6-1.1,6.2l-11.4-7.1c5-1.8,5-1.8,6.1-3.6l19-30.7l-32.2,15.5l-0.5-35.6l-19.1,30.8c-1,1.7-1,1.7-0.7,6.5l-8.9-5.5
						C713.7,211.6,713.7,211.6,714.7,210z"/>
				</g>
				<g class="st2">
					<path class="st3" d="M714.7,210l21.5-34.6c1-1.6,1-1.6,1.1-6.2l8.2,5.1l0.8,34.2l30.9-14.5l7.9,4.9c-4.1,2.2-4.1,2.2-5.1,3.9
						l-21.5,34.6c-1,1.6-1,1.6-1.1,6.2l-11.4-7.1c5-1.8,5-1.8,6.1-3.6l19-30.7l-32.2,15.5l-0.5-35.6l-19.1,30.8
						c-1,1.7-1,1.7-0.7,6.5l-8.9-5.5C713.7,211.6,713.7,211.6,714.7,210z"/>
				</g>
				<g class="st2">
					<path d="M778.5,226.6c10.6-11.7,26.6-12.8,38.6-2c11.9,10.9,12.4,27,1.8,38.7s-26.7,12.8-38.7,1.9S767.9,238.3,778.5,226.6z
						 M783.6,261.5c7.9,7.2,19.3,6.8,29-3.9c9.7-10.7,9-22.1,1.1-29.2c-7.8-7.1-19.3-6.8-29,3.9C775,242.9,775.8,254.4,783.6,261.5z
						"/>
				</g>
				<g class="st2">
					<path class="st3" d="M778.5,226.6c10.6-11.7,26.6-12.8,38.6-2c11.9,10.9,12.4,27,1.8,38.7s-26.7,12.8-38.7,1.9
						S767.9,238.3,778.5,226.6z M783.6,261.5c7.9,7.2,19.3,6.8,29-3.9c9.7-10.7,9-22.1,1.1-29.2c-7.8-7.1-19.3-6.8-29,3.9
						C775,242.9,775.8,254.4,783.6,261.5z"/>
				</g>
			</g>
		</g>
	</g>
</g>
</svg>
