<?xml version="1.0" encoding="utf-8"?>
<!-- Generator: Adobe Illustrator 28.2.0, SVG Export Plug-In . SVG Version: 6.00 Build 0)  -->
<svg version="1.1" id="_레이어_2" xmlns="http://www.w3.org/2000/svg" xmlns:xlink="http://www.w3.org/1999/xlink" x="0px"
	 y="0px" viewBox="0 0 1000 750" style="enable-background:new 0 0 1000 750;" xml:space="preserve">
<style type="text/css">
	.st0{clip-path:url(#SVGID_00000085209939955063500780000012078108283547728049_);}
	.st1{fill:#0046E6;}
	.st2{enable-background:new    ;}
	.st3{fill:none;stroke:#000000;stroke-width:0.26;stroke-miterlimit:10;}
</style>
<g id="_레이어_1-2">
	<g>
		<g>
			<defs>
				<rect id="SVGID_1_" width="1000" height="750"/>
			</defs>
			<clipPath id="SVGID_00000093157716054972049170000016884989525360838538_">
				<use xlink:href="#SVGID_1_"  style="overflow:visible;"/>
			</clipPath>
			<g style="clip-path:url(#SVGID_00000093157716054972049170000016884989525360838538_);">
				<g>
					<path class="st1" d="M763.8-901.7l126.7,34c19.2,5.1,30.6,24.9,25.4,44.1L545,559.7c-5.1,19.2-24.9,30.6-44.1,25.4l-126.7-34
						c-19.2-5.1-30.6-24.9-25.4-44.1L719.7-876.2C724.9-895.4,744.6-906.8,763.8-901.7z"/>
					<g>
						<path d="M438.9,364.5c-0.3-0.1-0.4,0-0.5,0.3c-12.1,46.1-24.2,92.2-36.3,138.3c-0.1,0.4,0,0.4,0.3,0.5
							c33.7,8.8,67.4,17.7,101.1,26.5c0.3,0.1,0.4,0,0.5-0.3c6-23.1,12.1-46.1,18.1-69.2c6.1-23.1,12.1-46.1,18.2-69.2
							c0.1-0.3,0-0.4-0.3-0.5C506.3,382.2,472.6,373.3,438.9,364.5z M503.1,503.9c0.2,0,0.2,0.2,0.3,0.3c0.3,0.2,0.3,0.6,0.4,0.8
							c0.1,0.2,0.1,0.4,0.1,0.5c-0.7,2.6-1.3,5.1-2,7.7c-0.7,2.5-1.3,5.1-2,7.6c0,0.2,0,0.5-0.4,0.4c-0.1,0-0.1,0.1-0.1,0.2
							c0,0.2-0.1,0.2-0.3,0.1c-0.2,0-0.3-0.1-0.4,0.1c0,0.2-0.2,0.1-0.3,0c-1.3-0.3-2.5-0.7-3.8-1c-0.2-0.1-0.3-0.1-0.2-0.4
							c0.1-0.2,0.1-0.4,0.2-0.6c0-0.1,0.1-0.2-0.1-0.2c-0.4,0-0.2-0.3-0.2-0.5c0.1-0.2,0.1-0.4,0.2-0.7c0-0.2,0.1-0.3,0.3-0.2
							c0.2,0.1,0.2-0.1,0.2-0.2c0.4-1.6,0.9-3.3,1.3-4.9c0-0.1,0.1-0.3-0.1-0.3c-0.4-0.1-0.2-0.3-0.2-0.5c0.6-2.3,1.2-4.6,1.8-6.9
							c0.1-0.2,0-0.5,0.4-0.3c0.2,0.1,0.2-0.1,0.2-0.2c0.1-0.4,0.3-0.9,0.3-1.3c0.1-0.3,0.2-0.3,0.4-0.2c0.2,0.1,0.5,0.3,0.6-0.1
							c0-0.1,0.2,0,0.3,0C501.1,503.4,502.1,503.7,503.1,503.9z M484.8,498.8c0.3,0.2,0.6,0.2,0.9,0.3c0.2,0,0.4,0,0.3,0.4
							c0,0.1,0.1,0.1,0.2,0.1c0.4,0.1,0.8,0.2,1.1,0.3c0.2,0,0.4,0,0.3,0.3c0,0.1,0.1,0.1,0.2,0.2c0.2,0.1,0.4,0.1,0.7,0.2
							c0.3,0.1,0.6,0.1,0.4,0.6c0,0,0,0.1,0,0.1c0.6,0.4,0,0.9,0,1.3c0,0.2-0.1,0.4-0.2,0.6c0,0.1,0,0.3-0.3,0.3
							c-0.1,0-0.1,0.1-0.2,0.2c-0.1,0.2,0,0.5-0.4,0.4c-0.1,0-0.1,0.3-0.2,0.4c-0.1,0.2,0,0.7-0.5,0.6c-0.1,0-0.1,0.1-0.1,0.2
							c0,0.1,0,0.2-0.1,0.2c-0.4-0.2-0.4,0.2-0.5,0.4c-0.1,0.2-0.4,0.3-0.6,0.4c-0.1,0-0.2,0.1-0.2,0.1c-0.3,0-0.5,0.3-0.7,0.5
							c-0.3,0.3-0.8,0-0.9,0.1c-0.2,0.4-0.7,0-0.8,0.4c0,0.1-0.2,0-0.2,0c-0.2,0-0.4-0.2-0.5,0.1c0,0.1-0.1,0.1-0.1,0
							c-0.4-0.2-0.7,0-0.9,0.1c-0.3,0.1-0.2,0.5-0.3,0.7c-0.1,0.2,0.1,0.2,0.3,0.2c0.2,0.1,0.5,0,0.4,0.4c0,0,0.1,0.1,0.1,0.1
							c0.5,0.1,0.6,0.5,0.7,0.9c0.1,0.2,0.4,0.1,0.5,0.2c0.2,0.1,0.4,0.1,0.3,0.4c-0.1,0.2,0.4,0.2,0.3,0.5c0,0.1,0.2,0.4,0.3,0.5
							c0.2,0.2,0.1,0.5,0.4,0.6c-0.1,0.2,0,0.2,0.2,0.3c0.1,0.1,0,0.3,0,0.4c0,0.2,0,0.3,0.1,0.4c0.2,0.2,0.5,0.4,0.4,0.8
							c-0.1,0.2-0.3,0.4,0.1,0.6c0.1,0,0,0.3,0,0.4c0,0.3-0.4,0.6,0.1,0.8c0,0,0,0.2,0,0.2c-0.1,0.3-0.2,0.7-0.3,1
							c0,0.2,0,0.4-0.3,0.3c-0.1,0-0.1,0.1-0.1,0.1c-0.2,0.3-0.5,0.5-0.9,0.4c-0.3-0.1-0.5-0.1-0.8-0.2c-0.3-0.1-0.6-0.3-0.6,0.2
							c0,0.1-0.2,0.1-0.2,0.1c-0.9-0.2-1.7-0.4-2.6-0.7c-0.1,0-0.1,0-0.2-0.1c0.2-0.4-0.3-0.6-0.2-0.9c0.1-0.3,0.1-0.5,0.2-0.8
							c0-0.2,0.1-0.3-0.1-0.4c-0.2-0.1,0-0.2,0-0.4c0-0.2,0.4-0.6-0.1-0.7c0.1-0.3-0.1-0.5-0.3-0.7c-0.2-0.2-0.1-0.6-0.4-0.7
							c0,0-0.1,0-0.1,0c0-0.5-0.4-0.4-0.7-0.5c-0.1,0-0.1-0.1-0.1-0.2c0.1-0.3-0.1-0.4-0.3-0.4c-0.1,0-0.3,0-0.2-0.3
							c0.1-0.2-0.1-0.2-0.2-0.2c-0.2-0.1-0.4-0.1-0.6-0.2c-0.1,0-0.2,0-0.2-0.1c0.1-0.4-0.1-0.4-0.4-0.4c-0.1,0-0.2-0.1-0.2-0.1
							c0.1-0.5-0.4-0.4-0.6-0.5c-0.5-0.2-1.1-0.3-1.6-0.4c-0.2,0-0.3,0-0.3-0.3c0-0.2-0.2-0.2-0.3-0.2c-1.2-0.3-2.5-0.6-3.7-1
							c-0.2,0-0.4,0-0.3-0.3c0-0.1-0.1-0.1-0.1-0.1c-0.1,0-0.3-0.1-0.4-0.1c-7.9-2.1-15.7-4.1-23.6-6.2c-7.9-2.1-15.7-4.1-23.6-6.2
							c-0.2,0-0.4-0.3-0.6,0.1c0,0.1-0.6-0.1-0.6-0.2c0.1-0.3-0.1-0.3-0.3-0.3c-0.2,0-0.3-0.1-0.4,0.1c-0.1,0.2-0.2,0.1-0.3,0
							c-0.5-0.1-0.9,0.1-1,0.6c-0.4,1.4-0.7,2.8-1.1,4.3c-0.1,0.3-0.6,0.6-0.9,0.5c-1.1-0.3-2.1-0.6-3.2-0.8c-0.2,0-0.5,0-0.4-0.4
							c-0.5-0.3-0.1-0.8,0-1.1c1.3-5.1,2.6-10.1,4-15.2c0-0.2,0-0.5,0.4-0.4c0.1,0,0.1-0.1,0.1-0.2c0-0.4,0.2-0.3,0.5-0.3
							c0.3,0.1,0.6,0.4,0.8-0.1c0,0,0.2,0,0.2,0c0.7,0.2,1.3,0.4,2,0.5c0.2,0,0.3,0.1,0.2,0.3c0,0.2,0.2,0.2,0.3,0.2
							c0.3,0,0.3,0.2,0.3,0.5c-0.4,1.5-0.8,3-1.2,4.5c0,0.2-0.2,0.4,0.1,0.5c0.1,0.1,0,0.3,0,0.4c-0.1,0.2,0,0.3,0.2,0.4
							c0.7,0.2,1.4,0.4,2.1,0.5c0.1,0,0.3,0,0.3,0.3c0,0.1,0,0.1,0.1,0.2c0.1,0,0.2,0,0.2-0.1c0-0.2,0.2-0.2,0.3-0.1
							c0.1,0,0.3,0.1,0.4,0.1c16.5,4.3,33,8.7,49.5,13c0.2,0.1,0.5,0.3,0.6-0.1c0-0.1,0.2,0,0.3,0c0.8,0.2,1.6,0.4,2.3,0.6
							c0.2,0,0.3,0.1,0.4-0.1c0,0,0.1-0.1,0.1-0.1c0.5,0.2,1-0.3,1.5,0c0.2,0.1,0.6,0.3,0.7-0.2c0-0.1,0.1-0.1,0.1-0.1
							c0.3,0,0.6,0.3,0.7-0.2c0,0,0.1,0,0.1,0c0.5,0.2,0.9,0.1,1.2-0.4c0,0,0.1,0,0.2,0c0.4,0.3,0.6-0.2,1-0.1
							c0.1,0,0.1-0.1,0.1-0.2c0.1-0.2,0-0.5,0.4-0.4c0.1,0,0.1-0.1,0.1-0.2c0.1-0.2,0-0.5,0.4-0.4c0.1,0,0.1-0.2,0.1-0.3
							c0.1-0.3,0.2-0.7,0.3-1c0.1-0.2,0-0.5,0.2-0.6C484.2,498.8,484.4,498.5,484.8,498.8z M508.6,484c0,0.1,0,0.1,0.1,0.1
							c0.4-0.1,0.3,0.5,0.6,0.6c0.1,0,0,0.3,0,0.4c-0.7,2.6-1.4,5.3-2.1,7.9c-0.7,2.6-1.4,5.3-2.1,7.9c-0.1,0.4-0.5,0.7-1,0.6
							c-1.3-0.4-2.7-0.7-4-1c-0.3-0.1-0.4-0.2-0.3-0.5c0.2-0.6,0.3-1.3,0.5-1.9c0-0.1,0.1-0.3-0.1-0.3c-0.4-0.1-0.2-0.3-0.2-0.5
							c0-0.2,0.1-0.4,0.4-0.3c0.1,0,0.2,0,0.2-0.1c0-0.1,0-0.2-0.1-0.2c-0.3,0-0.3-0.2-0.2-0.4c1.1-4,2.1-8.1,3.2-12.1
							c0-0.2,0.1-0.4,0.3-0.3c0.2,0.1,0.2,0,0.2-0.2c0-0.2,0.1-0.3,0.1-0.5c0-0.1,0-0.1,0.1-0.2c0.3,0.1,0.6-0.3,0.9-0.2
							c1.1,0.3,2.2,0.6,3.3,0.9C508.5,483.8,508.7,483.8,508.6,484z M492.9,479.7c0.2,0.1,0.6,0,0.5,0.4c0.7,0.3,0.2,0.8,0.1,1.1
							c-1,3.8-2,7.5-2.9,11.3c-0.1,0.2-0.3,0.5,0.1,0.6c0.1,0-0.1,0.6-0.2,0.6c-0.2,0-0.2,0.1-0.3,0.2c-0.1,0.2-0.2,0.6-0.2,0.7
							c0.3,0.3,0.2,0.4-0.1,0.6c-0.2,0.1-0.2,0.6-0.3,0.9c-0.1,0.3-0.2,0.6-0.2,0.9c0,0.2-0.1,0.4-0.4,0.3c0,0-0.1,0-0.1,0
							c-0.3,0.5-0.7,0.1-1,0.1c-11.6-3-23.3-6.1-34.9-9.2c-11.7-3.1-23.4-6.2-35.2-9.2c-0.5-0.1-0.8-0.5-0.6-1
							c1.4-5.3,2.8-10.5,4.1-15.8c0.1-0.4,0.5-0.7,0.9-0.6c0.1,0,0.3,0.1,0.3-0.1c0-0.2,0.2-0.1,0.3-0.1c2.2,0.6,4.3,1.1,6.5,1.7
							c0.1,0,0.2,0.1,0.2,0.1c0,0.6,0.6,0.3,0.9,0.5c0.7-0.6,1.3,0,1.9,0.2C452.6,469.1,472.7,474.4,492.9,479.7z M495.8,458.3
							c0.8,0.2,1.6,0.4,2.5,0.6c0.1,0,0.2,0.1,0.2,0.1c-0.1,0.4,0.3,0.4,0.5,0.4c0.2,0,0.2,0.1,0.2,0.3c-0.1,0.3-0.1,0.5-0.2,0.8
							c0,0.2-0.1,0.3,0.1,0.4c0.2,0.1,0,0.4,0,0.6c0,0.1,0,0.3-0.2,0.3c-0.2,0-0.2,0.1-0.2,0.2c-0.1,0.3-0.2,0.6-0.2,0.9
							c0,0.1,0,0.2,0.1,0.2c0.2,0,0.2,0.2,0.1,0.3c-0.1,0.3,0,0.8-0.3,0.8c-0.4,0-0.3,0.3-0.4,0.5c0,0,0,0.1,0,0.1
							c0.4,0.1,0.2,0.4,0.1,0.7c0,0.2,0,0.2,0.2,0.3c0.1,0,0.2,0.1,0.3,0.1c2.9,0.8,5.8,1.5,8.7,2.3c0.4,0.1,0.5,0.1,0.6-0.3
							c0-0.1,0.1-0.2,0.1-0.3c0-0.2,0.1-0.4,0.3-0.3c0.1,0,0.2,0,0.2-0.1c0-0.1,0-0.2-0.1-0.2c-0.2,0-0.2-0.2-0.2-0.3
							c0.1-0.3,0.2-0.6,0.2-0.9c0-0.2,0.1-0.3,0.3-0.2c0.3,0.1,0.2-0.2,0.3-0.3c0-0.1,0.2-0.3-0.1-0.4c-0.3-0.1-0.2-0.3-0.1-0.4
							c0.1-0.2,0-0.5,0.4-0.4c0.2,0.1,0.2-0.1,0.2-0.2c0.1-0.3,0.1-0.5,0.2-0.8c0.1-0.3,0.1-0.5,0.5-0.4c0,0,0.1,0,0.1,0
							c0.2-0.5,0.5-0.2,0.7-0.1c1.1,0.3,2.3,0.6,3.4,0.9c0.2,0.1,0.4,0.1,0.3,0.4c-0.1,0.2-0.2,0.4,0.1,0.4c0.1,0,0.1,0.1,0.1,0.2
							c0,0.1,0,0.2-0.1,0.3c-1.4,5.2-2.7,10.3-4.1,15.5c0,0.2,0,0.5-0.4,0.4c-0.1,0-0.1,0.2-0.2,0.3c0,0.3-0.2,0.3-0.4,0.2
							c-0.4-0.1-0.8-0.2-1.2-0.3c-0.2,0-0.4,0-0.3-0.4c0-0.1-0.2-0.2-0.3-0.1c-0.1,0.3-0.2,0.2-0.4,0.1c-0.3-0.1-0.5-0.1-0.8-0.2
							c-0.1,0-0.3,0-0.3-0.3c0,0,0-0.1,0-0.1c-0.4-0.1-0.5-0.4-0.8-0.6c-0.2-0.1-0.2-0.2-0.2-0.4c0.2-0.7,0.4-1.3,0.5-2
							c0-0.1,0.1-0.3,0-0.3c-0.4-0.1-0.2-0.4-0.2-0.6c0.1-0.4,0.2-0.9,0.4-1.3c0.2-0.4,0-0.8-0.1-1.1c0-0.1-0.2-0.1-0.3-0.1
							c-2.9-0.8-5.8-1.5-8.7-2.3c-0.2-0.1-0.8,0.2-0.8,0.5c-0.1,0.2-0.1,0.4-0.1,0.5c0,0.1,0,0.2,0,0.2c0.5,0.2,0.1,0.6,0.1,0.9
							c-0.2,0.8-0.4,1.5-0.6,2.3c0,0.1,0,0.3-0.3,0.3c0,0-0.1,0-0.1,0c0,0.5-0.4,0.6-0.7,0.7c-0.3,0.1-0.5,0.4-0.9,0.3
							c-0.8-0.3-1.6-0.4-2.4-0.7c-0.2,0-0.4,0-0.3-0.3c0-0.1-0.1-0.1-0.2-0.1c-0.1,0-0.2-0.1-0.2,0.1c-0.1,0.3-0.2,0.2-0.4,0.1
							c-0.3-0.1-0.7-0.2-1-0.3c-11-2.9-22-5.8-32.9-8.6c-0.5-0.1-0.7-0.5-0.6-1.1c0.9-3.5,1.8-6.9,2.7-10.4c0.1-0.2,0.2-0.4-0.2-0.5
							c-0.2,0-0.1-0.3,0-0.4c0.1-0.3,0.1-0.4-0.3-0.5c-8.8-2.3-17.6-4.6-26.4-6.9c-0.4-0.1-0.8,0.2-0.9,0.5c-0.9,3.5-1.8,7-2.8,10.5
							c-0.1,0.4-0.5,0.7-0.9,0.6c-0.1,0-0.3-0.1-0.3,0.1c0,0.2-0.2,0.1-0.3,0.1c-0.9-0.2-1.9-0.5-2.8-0.7c-0.2,0-0.2-0.2-0.2-0.3
							c-0.5-0.6,0-1.1,0.1-1.5c1.3-5.1,2.7-10.2,4-15.3c0.1-0.4,0.5-0.7,1-0.6c5.8,1.5,11.7,3.1,17.5,4.6c5.8,1.5,11.6,3.1,17.4,4.5
							c0.4,0.1,0.5,0.5,0.7,0.7c0.1,0.1,0.1,0.3,0.3,0.3c0.1,0,0.1,0.1,0.1,0.2c0,0.2-0.1,0.3-0.1,0.5c-0.9,3.4-1.8,6.8-2.7,10.2
							c-0.1,0.3-0.1,0.5,0.3,0.6c0.1,0,0.3,0,0.2,0.2c-0.1,0.3,0.1,0.3,0.3,0.4c9.5,2.5,19.1,5,28.6,7.5c0.2,0.1,0.5,0.2,0.5-0.2
							c0.8-0.2,0.6-1,0.7-1.5c0.9-3.2,1.7-6.5,2.6-9.7c0.1-0.4,0.5-0.7,0.9-0.6c0.1,0,0.3,0.2,0.4-0.1
							C495.6,458.2,495.7,458.3,495.8,458.3z M497.3,456.6c-0.1,0.3-0.4,0-0.5,0c-0.1,0-0.4,0-0.3-0.3c0.1-0.3,0-0.5-0.3-0.5
							c-0.1,0-0.2,0-0.2-0.2c0.1-0.3-0.1-0.3-0.3-0.3c-0.4,0-0.4-0.2-0.3-0.5c0.1-0.2,0.3-0.5-0.1-0.7c-0.1-0.1,0-0.4,0.1-0.6
							c0.2-0.4-0.1-0.6-0.3-0.9c-0.1-0.2-0.3-0.4-0.4-0.7c0,0,0-0.1-0.1-0.1c-0.4-0.2-0.6-0.5-0.5-1c0-0.2-0.1-0.2-0.2-0.2
							c-0.2-0.1-0.6,0-0.6-0.5c0-0.1-0.2-0.1-0.3-0.1c-0.2-0.1-0.4,0-0.3-0.3c0-0.1-0.1-0.1-0.2-0.2c-0.2-0.1-0.5-0.1-0.7-0.2
							c-0.2-0.1-0.5,0-0.4-0.4c0-0.1-0.2-0.1-0.2-0.1c-0.3-0.2-0.8,0-0.8-0.5c0,0-0.2-0.1-0.3-0.1c-0.7-0.2-1.3-0.3-2-0.5
							c-0.1,0-0.3,0-0.2-0.2c0.1-0.4-0.2-0.4-0.4-0.4c-1.7-0.5-3.5-0.9-5.2-1.4c-0.2,0-0.4,0-0.3-0.4c0-0.1-0.1-0.1-0.1-0.1
							c-0.1,0-0.2-0.1-0.3-0.1c-13.9-3.7-27.9-7.3-41.8-11c-0.2,0-0.5-0.3-0.6,0.1c0,0.1-0.2,0-0.3,0c-0.7-0.2-1.4-0.4-2.1-0.6
							c-0.1,0-0.3-0.1-0.2-0.3c0.1-0.2-0.1-0.2-0.2-0.2c-1-0.3-2-0.5-2.9-0.8c-0.1,0-0.2,0-0.2,0c-0.2,0.5-0.6,0.1-0.9,0.1
							c-0.8-0.2-1.5-0.4-2.3-0.6c-0.1,0-0.3,0-0.3-0.3c0-0.3-0.3-0.2-0.4-0.2c-0.4-0.1-0.5-0.2-0.4-0.7c0.4-1.2,0.7-2.4,1-3.7
							c0.1-0.5,0.5-0.7,1-0.6c9.5,2.5,19.1,5,28.6,7.5c9.5,2.5,19,5,28.5,7.5c0.2,0,0.4,0.3,0.5-0.1c0-0.1,0.2,0,0.3,0
							c0.3,0.1,0.7,0.2,1,0.3c0.2,0,0.4,0.2,0.5-0.1c0-0.2,0.2,0,0.3,0c0.7,0.2,1.4,0.4,2,0.5c0.1,0,0.3,0.1,0.3,0
							c0.2-0.6,0.5-0.2,0.8-0.2c0.1,0,0.3,0.1,0.4,0.1c0.2,0.1,0.3,0,0.3-0.2c0-0.3,0.2-0.2,0.4-0.2c0.2,0,0.4,0.2,0.5-0.1
							c0-0.1,0.2,0,0.3,0c0.2,0,0.4,0.2,0.5-0.1c0-0.1,0.2,0,0.3,0c0.2,0,0.5,0.3,0.6-0.1c0-0.1,0.1,0,0.2,0c0.1,0,0.2,0,0.2,0
							c0.1-0.5,0.8-0.4,1-0.8c0.5,0.1,0.4-0.4,0.5-0.7c0.1-0.1,0-0.3,0.3-0.3c0.2,0.1,0.2-0.1,0.2-0.2c0.1-0.2,0.2-0.4,0.2-0.7
							c0-0.5,0.4-0.6,0.6-0.9c0,0,0.2,0,0.2,0c0.8,0.2,1.6,0.4,2.5,0.6c0.1,0,0.3,0,0.2,0.2c-0.1,0.2,0.1,0.2,0.3,0.3
							c0.2,0.1,0.7-0.1,0.7,0.5c0,0.1,0.4,0.1,0.6,0.2c0.2,0.1,0.5,0.1,0.3,0.5c0,0,0,0.2,0,0.2c0.4,0.1,0.2,0.4,0.1,0.6
							c-0.1,0.3-0.2,0.7-0.2,1c-0.1,0.5-0.4,0.6-0.8,0.7c-0.1,0-0.1,0.1-0.2,0.2c0,0.2-0.1,0.3-0.1,0.5c-0.1,0.4-0.4,0.6-0.8,0.6
							c-0.3,0-0.2,0.2-0.2,0.3c0,0.5-0.4,0.6-0.8,0.8c-0.2,0.1-0.2,0.4-0.5,0.3c0,0.4-0.5,0.1-0.5,0.5c-0.3,0-0.6,0.5-1,0.2
							c-0.2-0.1-0.3-0.1-0.5,0.2c-0.1,0.1-0.4,0.5-0.8,0.3c-0.1-0.1-0.3-0.1-0.4,0.1c-0.1,0.2-0.3,0-0.4,0c-0.1,0-0.3-0.2-0.4,0.1
							c0,0.2-0.2,0.3,0,0.6c0.2,0.2,0.2,0.6,0.4,0.8c0,0,0,0.2,0,0.2c0.5,0,0.5,0.7,1,0.7c0.2,0,0.4,0,0.3,0.3c0,0.1,0,0.1,0.1,0.1
							c0.3,0.1,0.4,0.5,0.5,0.7c0.1,0.2,0.2,0.2,0.3,0.2c0.3,0,0.4,0.2,0.2,0.4c-0.2,0.4,0.2,0.6,0.3,0.8c0.1,0.2,0.1,0.6,0.5,0.6
							c0,0.1,0,0.2,0,0.3c0,0.2-0.2,0.4,0.1,0.5c0.2,0.1,0,0.3,0,0.4c0,0.2-0.3,0.4,0.1,0.6c0.1,0.1-0.1,0.4-0.1,0.6
							c0,0.2-0.2,0.4,0.1,0.5c0.1,0,0,0.2,0,0.3c-0.1,0.4-0.2,0.8-0.3,1.2c0,0.2-0.1,0.3-0.4,0.2c-0.2-0.1-0.4-0.2-0.5,0.1
							c-0.1,0.2-0.3,0-0.4,0c-0.3,0-0.6-0.4-0.8,0.1c0,0-0.2,0-0.2,0c-0.3-0.1-0.6-0.2-1-0.3C497.6,456.2,497.4,456.1,497.3,456.6z
							 M516.2,442c0,0.3,0.1,0.3,0.3,0.3c1,0.3,2,0.5,3,0.8c0.3,0.1,0.4,0.2,0.3,0.5c-0.1,0.2-0.3,0.4,0.1,0.6c0.1,0,0,0.3,0,0.4
							c-0.7,2.5-1.3,5-2,7.5s-1.3,5-2,7.5c0,0.2,0,0.5-0.4,0.4c0,0,0,0,0,0c0,0.5-0.5,0.5-0.8,0.7c-0.1,0.1-0.2,0.1-0.3,0
							c-0.9-0.2-1.8-0.4-2.7-0.7c-0.3-0.1-0.4-0.5-0.8-0.6c0.1-0.3-0.1-0.3-0.3-0.4c-0.1,0-0.1-0.2-0.1-0.3c0-0.2,0.1-0.4,0.1-0.5
							c0-0.1,0.1-0.2,0-0.2c-0.5-0.1-0.2-0.4-0.2-0.7c0.1-0.3,0.2-0.6,0.2-0.9c0-0.2,0.1-0.4,0.4-0.3c0.2,0.1,0.2-0.1,0.2-0.2
							c0.3-1,0.5-1.9,0.8-2.9c0-0.2,0-0.2-0.2-0.3c-0.3-0.1-0.2-0.3-0.1-0.4c0-0.1,0-0.4,0.3-0.3c0.2,0.1,0.3-0.1,0.3-0.2
							c0.2-0.9,0.5-1.9,0.7-2.8c0-0.2,0.1-0.3-0.1-0.3c-0.1,0-0.2-0.1-0.2-0.2c0-0.1,0.1-0.1,0.2-0.1c0.2,0.1,0.3,0,0.3-0.2
							c0.2-0.7,0.4-1.4,0.5-2.1c0-0.2,0.1-0.3-0.1-0.3c-0.1,0-0.2-0.1-0.2-0.2c0-0.1,0.1-0.1,0.2-0.1c0.3,0.1,0.3-0.1,0.3-0.3
							c0.3-1,0.5-2,0.8-3c0.1-0.3,0.2-0.4,0.5-0.3c0.2,0.1,0.4,0.3,0.5-0.1C516,441.7,516.3,441.8,516.2,442z M524.3,426.3
							c-0.1,0.2-0.1,0.4-0.2,0.6c0,0.1-0.1,0.2,0,0.2c0.5,0.2,0.2,0.6,0.1,0.9c-1,3.8-2,7.6-3,11.5c-0.1,0.2,0,0.6-0.4,0.5
							c0,0-0.1,0.1-0.1,0.1c0,0.2-0.2,0.2-0.3,0.2c-0.3,0-0.6-0.3-0.8,0.1c-0.1,0.1-0.6-0.1-0.6-0.3c0-0.1,0-0.2-0.1-0.2
							c-0.4-0.1-0.8-0.2-1.1-0.3c0,0-0.1,0-0.1,0c-0.2,0.5-0.5,0.2-0.7,0.1c-0.4-0.1-0.8-0.2-1.2-0.3c-0.2-0.1-0.5,0-0.4-0.4
							c0-0.1-0.1-0.1-0.2-0.1c-0.3-0.1-0.6-0.1-0.8-0.2c-0.1,0-0.3-0.1-0.3,0.1c-0.1,0.2-0.2,0.1-0.3,0.1c-0.1-0.1-0.4,0-0.4-0.2
							c0-0.3-0.2-0.3-0.3-0.3c-0.2-0.1-0.4-0.1-0.7-0.2c-0.1,0-0.3-0.1-0.4,0.1c0,0.2-0.2,0.1-0.3,0.1c-2-0.5-4.1-1.1-6.1-1.6
							c-0.1,0-0.2,0-0.2-0.1c0.1-0.4-0.2-0.3-0.4-0.4c-1-0.3-2.1-0.6-3.1-0.8c-0.2,0-0.4-0.2-0.5,0.1c0,0.1-0.1,0.1-0.2,0
							c-0.3-0.2-0.9,0.1-0.9-0.5c0,0-0.2-0.1-0.3-0.1c-5.5-1.4-10.9-2.9-16.4-4.3c-0.1,0-0.3-0.2-0.4,0.1c0,0.1-0.2,0.1-0.2,0.1
							c-0.7-0.2-1.3-0.3-2-0.5c-0.1,0-0.2,0-0.2-0.1c0.1-0.4-0.2-0.3-0.4-0.4c-1.8-0.5-3.6-1-5.4-1.4c-0.2,0-0.4-0.2-0.5,0.1
							c0,0.1-0.1,0.1-0.2,0c-0.1,0-0.1-0.1-0.1-0.2c0.1-0.1,0-0.2-0.2-0.2c-0.1,0-0.2-0.1-0.3,0.1c-0.1,0.2-0.2,0.1-0.3,0.1
							c-0.1,0-0.4,0-0.3-0.2c0-0.2-0.1-0.2-0.2-0.3c-0.1,0-0.2-0.1-0.3-0.1c-12.5-3.3-24.9-6.5-37.4-9.8c-0.2-0.1-0.5-0.3-0.7,0.1
							c0,0-0.4,0.1-0.3-0.2c0-0.2-0.1-0.2-0.2-0.3c-0.2-0.1-0.5-0.1-0.4-0.4c-0.6-0.5-0.1-0.9,0-1.4c0.4-1.8,0.9-3.7,1.4-5.5
							c0.5-2.1,1.1-4.2,1.6-6.3c0-0.2,0-0.4,0.3-0.3c0.1,0,0.1,0,0.1-0.1c0-0.5,0.4-0.3,0.6-0.2c1.1,0.3,2.1,0.6,3.2,0.8
							c0.2,0.1,0.4,0.1,0.3,0.4c-0.1,0.3,0.4,0.4,0.3,0.7c0.3,0.1,0.2,0.3,0.1,0.5c-0.6,2.2-1.2,4.5-1.7,6.7
							c-0.1,0.3-0.4,0.6,0.1,0.9c-0.2,0.6,0.4,0.4,0.5,0.7c0.5,0.8,1.3,0.5,1.9,0.8c0.1,0.1,0.3,0.1,0.4,0.1c0.1,0,0.3,0.1,0.4-0.1
							c0-0.1,0.1-0.1,0.1-0.1c0.4,0.1,0.8,0.2,1.2,0.3c0,0,0.1,0,0.1,0c-0.1,0.5,0.4,0.4,0.6,0.5c3.1,0.8,6.2,1.6,9.4,2.5
							c0.2,0,0.4,0.2,0.5-0.1c0-0.1,0.5,0,0.5,0.2c-0.1,0.3,0.1,0.3,0.3,0.3c3.5,0.9,7,1.8,10.5,2.7c0.2,0,0.3,0.2,0.4-0.1
							c0.1-0.2,0.3,0,0.4,0c2.5,0.6,5,1.3,7.5,2c0.2,0.1,0.5,0.2,0.6-0.2c0-0.1,0.1-0.1,0.1-0.1c0.5,0.2,0.4-0.2,0.5-0.4
							c0.2-0.9,0.5-1.8,0.7-2.6c0.1-0.3,0.6-0.6,0.9-0.5c0.2,0.1,0.4,0.1,0.4-0.2c0-0.2,0.2-0.2,0.3-0.1c1,0.3,2.1,0.6,3.1,0.8
							c0.3,0.1,0.3,0.2,0.2,0.4c-0.3,1.2-0.6,2.4-0.9,3.6c0,0.2-0.2,0.4,0.1,0.5c0,0,0.1,0.1,0,0.1c-0.2,0.5,0.2,0.5,0.5,0.5
							c0.2,0.1,0.5,0.1,0.7,0.2c0.1,0,0.3,0,0.3,0.3c0,0.2,0.1,0.2,0.2,0.2c1,0.3,1.9,0.5,2.9,0.8c0.1,0,0.3,0.1,0.3-0.1
							c0-0.2,0.2-0.1,0.3-0.1c1.1,0.3,2.1,0.6,3.2,0.8c0.1,0,0.2,0.1,0.2,0.1c-0.1,0.5,0.3,0.4,0.5,0.4c8.1,2.1,16.2,4.3,24.3,6.4
							c0.2,0.1,0.5,0.3,0.6-0.1c0-0.1,0.2,0,0.3,0c0.5,0.1,1,0.3,1.5,0.4c0.2,0.1,0.3,0.1,0.4-0.2c0-0.1,0-0.3,0.2-0.2
							c0.4,0.1,0.4-0.2,0.4-0.4c0.6-2.4,1.3-4.9,1.9-7.3c0.1-0.3,0.2-0.5,0.5-0.3c0.2,0.1,0.5,0.1,0.5-0.2c0-0.2,0.2-0.1,0.3-0.1
							c1.2,0.3,2.3,0.6,3.5,0.9C524.3,426.1,524.4,426.1,524.3,426.3z M482.4,408.5c14.4,3.8,28.7,7.5,43.1,11.3
							c0.3,0.1,0.6,0.2,0.4,0.6c0,0.1,0,0.2,0,0.2c0.5,0.1,0.2,0.4,0.1,0.7c-0.2,0.9-0.5,1.8-0.7,2.6c-0.1,0.4-0.3,0.9-0.7,1
							c-0.4,0-0.6,0.3-1.1,0.2c-1.3-0.4-2.6-0.7-3.9-1c-0.2,0-0.4,0-0.4-0.3c0-0.2-0.2-0.1-0.4-0.2c-0.1,0-0.2-0.1-0.3,0.1
							c0,0.2-0.2,0.2-0.3,0.1c-0.3-0.1-0.6-0.2-1-0.3c-0.1,0-0.2-0.1-0.2-0.1c0-0.6-0.6-0.3-0.8-0.5c0,0-0.1,0-0.1,0
							c-0.2,0.5-0.6,0.2-0.9,0.1c-10-2.6-19.9-5.2-29.9-7.8c-0.2-0.1-0.6,0-0.5-0.4c0-0.2-0.8-0.3-0.9-0.1c-0.1,0.3-0.3,0.1-0.4,0
							c-0.7-0.2-1,0-1.2,0.7c-0.2,0.9-0.5,1.8-0.7,2.8c-0.1,0.3-0.2,0.3-0.4,0.2c-1.1-0.3-2.3-0.6-3.4-0.9c-0.1,0-0.3,0-0.3-0.3
							c0-0.2-0.2-0.5-0.3-0.5c-0.4-0.1-0.2-0.4-0.1-0.6c0.2-0.7,0.4-1.5,0.6-2.2c0-0.2,0.1-0.4-0.2-0.4c0,0-0.1,0-0.1-0.1
							c0-0.6-0.4-0.4-0.7-0.5c-1.8-0.5-3.6-1-5.5-1.5c-0.2,0-0.4,0-0.3-0.3c0-0.1-0.1-0.1-0.1-0.1c-0.1,0-0.2,0-0.2,0.1
							c0,0.1-0.1,0.2-0.2,0.2c-0.2,0-0.2-0.1-0.1-0.2c0-0.1,0-0.2-0.1-0.2c-0.1,0-0.2,0-0.2,0.1c0,0.2-0.2,0.2-0.3,0.1
							c-0.1,0-0.1,0-0.2-0.1c-9.2-2.4-18.4-4.8-27.6-7.3c-0.2-0.1-0.5,0-0.5-0.4c0-0.1-0.2-0.2-0.3,0c-0.1,0.2-0.2,0.2-0.3,0.1
							c-1-0.3-2.1-0.5-3.1-0.8c-0.1,0-0.2-0.1-0.3-0.2c-0.5-0.6,0.1-1.1,0.1-1.7c0-0.3,0.1-0.6,0.2-0.9c0.1-0.2,0-0.5,0.4-0.4
							c0.1,0,0.2-0.4,0.1-0.5c-0.2-0.1-0.2-0.2-0.1-0.4c0.1-0.2,0.1-0.4,0.1-0.5c0.1-0.2,0-0.5,0.2-0.5c0.3,0,0.5-0.3,1-0.2
							C453.7,401,468,404.8,482.4,408.5z M530.4,403.2c-0.1,0.2-0.2,0.4,0.1,0.5c0.1,0,0,0.2,0,0.3c-0.3,1.1-0.6,2.1-0.8,3.2
							c0,0.1,0,0.2-0.2,0.2c-0.4,0.1-0.5,0.4-0.2,0.7c0.1,0.1,0,0.2,0,0.3c-0.7,2.7-1.4,5.5-2.2,8.2c0,0.1-0.6,0.5-0.7,0.4
							c-0.1,0-0.2-0.1-0.3-0.1c-14.5-3.8-29.1-7.6-43.6-11.4c-0.2-0.1-0.5-0.4-0.8,0.1c-0.1,0.1-0.5-0.1-0.6-0.3
							c0-0.1,0-0.1-0.1-0.1c-0.3-0.1-0.5-0.2-0.6-0.5c-0.2-0.2-0.1-0.3-0.1-0.5c0.6-2.2,1.2-4.5,1.8-6.7c0.1-0.2,0.2-0.4-0.2-0.5
							c-0.1,0-0.1-0.1-0.1-0.2c0.2-0.3-0.1-0.4-0.3-0.4c-11.5-3-22.9-6-34.4-9c-0.2-0.1-0.3,0.1-0.5,0.2c-0.3,0.2-0.4,0.7-0.6,0.8
							c-0.6,0.2-0.5,0.7-0.6,1.1c-0.5,1.8-1,3.6-1.4,5.3c-0.1,0.3-0.5,0.6-0.9,0.5c-1.1-0.3-2.2-0.6-3.3-0.9
							c-0.3-0.1-0.6-0.5-0.5-0.9c1-4,2.1-8,3.2-12c0.1-0.4,0.5-0.6,0.9-0.5c7.4,1.9,14.7,3.9,22.1,5.8c7.3,1.9,14.7,3.9,22,5.8
							c0.5,0.1,0.7,0.5,0.6,1c-0.6,2.3-1.2,4.5-1.8,6.8c-0.1,0.4,0.1,0.8,0.6,1c0.4,0.1,0.7,0.2,1.1,0.3c0.2,0,0.4,0,0.3,0.3
							c0,0.1,0.1,0.1,0.2,0.2c1.3,0.3,2.6,0.7,3.8,1c0.2,0,0.3,0,0.3-0.2c0-0.1,0.1-0.1,0.2-0.1c0.1,0,0.2,0,0.1,0.2
							c-0.1,0.3,0.1,0.3,0.3,0.3c8.3,2.2,16.6,4.4,24.9,6.5c0.2,0,0.3,0.2,0.4-0.1c0-0.2,0.2-0.1,0.3,0c0.7,0.2,1.4,0.4,2.1,0.6
							c0.1,0,0.3,0.1,0.2,0.3c0,0.2,0.2,0.2,0.3,0.2c0.1,0,0.3,0.2,0.4,0c0-0.1,0.1-0.2,0.1-0.2c0.4,0.3,0.6-0.2,1-0.1
							c0.2,0,0.2-0.2,0.2-0.3c0.3-1.1,0.6-2.1,0.8-3.2c0.4-1.5,0.8-3,1.2-4.4c0.1-0.2,0.1-0.5,0.4-0.3c0.1,0,0.2,0,0.2-0.1
							c0-0.4,0.3-0.2,0.5-0.2c1.2,0.3,2.4,0.6,3.6,0.9C530.4,402.8,530.5,402.9,530.4,403.2z M531.9,397.3c0,0,0,0.2,0,0.2
							c0.5,0.2,0.1,0.6,0.1,0.8c-0.2,1-0.5,1.9-0.7,2.9c-0.1,0.4-0.5,0.7-1,0.6c-11.9-3.1-23.8-6.3-35.8-9.4
							c-2.5-0.6-4.9-1.3-7.4-1.9c-14.3-3.8-28.7-7.5-43-11.3c-0.6-0.2-0.8-0.5-0.6-1.1c0.3-1.2,0.6-2.3,0.9-3.5
							c0.1-0.2,0.1-0.4,0.4-0.2c0.2,0.1,0.4,0.2,0.4-0.1c0-0.1,0.1-0.1,0.2,0c0.1,0,0.2,0.1,0.3,0.1c28.6,7.5,57.1,15,85.7,22.5
							C531.8,396.8,532.2,396.8,531.9,397.3z"/>
						<path d="M456.3,475.8c-10.2-2.7-20.4-5.3-30.6-8c-0.5-0.1-0.9,0.1-1,0.6c-0.4,1.4-0.8,2.9-1.1,4.3c-0.1,0.4-0.5,0.8,0,1.2
							c0.1,0.1,0.5,0.4,0.2,0.8c0,0,0.1,0.1,0.2,0.1c1.1,0.3,2.1,0.6,3.2,0.8c0.1,0,0.3,0.1,0.3-0.1c0.1-0.5,0.4-0.3,0.6-0.2
							c15.1,4,30.2,7.9,45.3,11.9c0.1,0,0.2,0.1,0.3,0.1c0.1,0,0.2,0.1,0.2,0.2c-0.2,0.4,0.1,0.4,0.3,0.5c3.3,0.9,6.6,1.7,9.9,2.6
							c0.2,0.1,0.5,0.2,0.5-0.2c0-0.1,0.1-0.1,0.2-0.1c0.2,0,0.3,0.1,0.5,0.1c0.3,0.1,0.8-0.2,0.9-0.5c0.4-1.5,0.8-2.9,1.1-4.4
							c0.1-0.3,0.4-0.6-0.1-0.8c0,0,0-0.1,0-0.2c0.2-0.5-0.1-0.5-0.4-0.6C476.6,481.2,466.5,478.5,456.3,475.8z"/>
					</g>
				</g>
				<g>
					<g class="st2">
						<path d="M217.1,607.4l25-32.1c1.2-1.5,1.2-1.5,1.8-6.1l27.5,21.4l-5.6,7.2c-1-6.4-2.3-7.4-4.3-9l-12.4-9.6l-10.9,14l10.1,7.9
							c1.9,1.5,2.9,2.3,7.8,2.3l-6.5,8.3c-1.3-4.6-2.4-5.5-4.2-6.9l-10.1-7.9l-12.7,16.3L234,622c2.3,1.8,3.7,2.9,11.7,2.8l-6.9,7
							l-27.1-21.1C215.9,608.9,215.9,608.9,217.1,607.4z"/>
					</g>
					<g class="st2">
						<path class="st3" d="M217.1,607.4l25-32.1c1.2-1.5,1.2-1.5,1.8-6.1l27.5,21.4l-5.6,7.2c-1-6.4-2.3-7.4-4.3-9l-12.4-9.6
							l-10.9,14l10.1,7.9c1.9,1.5,2.9,2.3,7.8,2.3l-6.5,8.3c-1.3-4.6-2.4-5.5-4.2-6.9l-10.1-7.9l-12.7,16.3L234,622
							c2.3,1.8,3.7,2.9,11.7,2.8l-6.9,7l-27.1-21.1C215.9,608.9,215.9,608.9,217.1,607.4z"/>
					</g>
					<g class="st2">
						<path d="M256.4,636.1l20.5-35.1c0.9-1.6,0.9-1.6,0.9-6.2l10.9,6.4c-4.1,2.3-4.1,2.3-5.1,4l-21,36l11.2,6.5
							c2.7,1.6,4.3,2.5,12.7,0.9l-6.3,8.5l-28.8-16.8C255.4,637.7,255.4,637.7,256.4,636.1z"/>
					</g>
					<g class="st2">
						<path class="st3" d="M256.4,636.1l20.5-35.1c0.9-1.6,0.9-1.6,0.9-6.2l10.9,6.4c-4.1,2.3-4.1,2.3-5.1,4l-21,36l11.2,6.5
							c2.7,1.6,4.3,2.5,12.7,0.9l-6.3,8.5l-28.8-16.8C255.4,637.7,255.4,637.7,256.4,636.1z"/>
					</g>
					<g class="st2">
						<path d="M318.1,667.7l14.3-38.1c0.7-1.8,0.7-1.8-0.1-6.3l11.8,4.4c-3.7,3-3.7,3-4.4,4.8l-14.6,39l12.1,4.5
							c2.9,1.1,4.6,1.7,12.7-1.3l-4.8,9.4l-31.2-11.7C317.4,669.5,317.4,669.5,318.1,667.7z"/>
					</g>
					<g class="st2">
						<path class="st3" d="M318.1,667.7l14.3-38.1c0.7-1.8,0.7-1.8-0.1-6.3l11.8,4.4c-3.7,3-3.7,3-4.4,4.8l-14.6,39l12.1,4.5
							c2.9,1.1,4.6,1.7,12.7-1.3l-4.8,9.4l-31.2-11.7C317.4,669.5,317.4,669.5,318.1,667.7z"/>
					</g>
					<g class="st2">
						<path d="M360.9,681.2l28.9-39.3l5,1.2l7.3,48.4c0.7,3.9,0.7,3.9,1.8,8.2l-13-3.2c3.4-3.6,3.4-3.6,3-6.5l-1.2-9.2l-21.3-5.3
							l-5.3,7.6c-1.9,2.8-1.9,2.8-0.5,7.1l-10.1-2.5C358.5,684.4,358.5,684.4,360.9,681.2z M392,675.9l-3.3-24.6l-14.3,20.2
							L392,675.9z"/>
					</g>
					<g class="st2">
						<path class="st3" d="M360.9,681.2l28.9-39.3l5,1.2l7.3,48.4c0.7,3.9,0.7,3.9,1.8,8.2l-13-3.2c3.4-3.6,3.4-3.6,3-6.5l-1.2-9.2
							l-21.3-5.3l-5.3,7.6c-1.9,2.8-1.9,2.8-0.5,7.1l-10.1-2.5C358.5,684.4,358.5,684.4,360.9,681.2z M392,675.9l-3.3-24.6
							l-14.3,20.2L392,675.9z"/>
					</g>
					<g class="st2">
						<path d="M415.5,681.4l3.5-26.5c0.2-1.9,0.2-1.9-1.5-6.1l12.9,1.7c-3.3,3.7-3.3,3.7-3.5,5.7l-3.5,26.7
							c-1.2,9.3,3.4,15.7,12.1,16.9c8.4,1.1,14.4-4,15.6-13.3l3.5-26.9c0.3-1.9,0.3-1.9-2.1-6.2l10.6,1.4c-2.8,3.8-2.8,3.8-3.1,5.7
							l-3.4,26.1c-1.8,13.5-10.2,20.1-23.1,18.4C420.3,703.3,413.7,695,415.5,681.4z"/>
					</g>
					<g class="st2">
						<path class="st3" d="M415.5,681.4l3.5-26.5c0.2-1.9,0.2-1.9-1.5-6.1l12.9,1.7c-3.3,3.7-3.3,3.7-3.5,5.7l-3.5,26.7
							c-1.2,9.3,3.4,15.7,12.1,16.9c8.4,1.1,14.4-4,15.6-13.3l3.5-26.9c0.3-1.9,0.3-1.9-2.1-6.2l10.6,1.4c-2.8,3.8-2.8,3.8-3.1,5.7
							l-3.4,26.1c-1.8,13.5-10.2,20.1-23.1,18.4C420.3,703.3,413.7,695,415.5,681.4z"/>
					</g>
					<g class="st2">
						<path d="M472.1,701.8l0.8-40.7c0-1.9,0-1.9-2.2-5.9l20.6,0.4c11.1,0.2,17.7,6,17.5,14.4c-0.1,7.2-5.2,12.1-13.6,13.2
							l13.8,18.4c2.9,3.8,2.9,3.8,6.2,7.1l-10.6-0.2l-18.4-25.1l-5.8-0.1L480,702c0,2,0,2,3,6.1l-13.4-0.3
							C472.1,703.7,472.1,703.7,472.1,701.8z M489.3,679.3c7.1,0.1,11.1-3.3,11.2-9.5s-3.7-9.8-10.9-9.9l-8.9-0.2l-0.4,19.4
							L489.3,679.3z"/>
					</g>
					<g class="st2">
						<path class="st3" d="M472.1,701.8l0.8-40.7c0-1.9,0-1.9-2.2-5.9l20.6,0.4c11.1,0.2,17.7,6,17.5,14.4
							c-0.1,7.2-5.2,12.1-13.6,13.2l13.8,18.4c2.9,3.8,2.9,3.8,6.2,7.1l-10.6-0.2l-18.4-25.1l-5.8-0.1L480,702c0,2,0,2,3,6.1
							l-13.4-0.3C472.1,703.7,472.1,703.7,472.1,701.8z M489.3,679.3c7.1,0.1,11.1-3.3,11.2-9.5s-3.7-9.8-10.9-9.9l-8.9-0.2
							l-0.4,19.4L489.3,679.3z"/>
					</g>
					<g class="st2">
						<path d="M528,701.6l-3.4-40.6c-0.2-1.9-0.2-1.9-2.8-5.6l34.7-2.9l0.8,9.1c-5.1-4-6.7-3.9-9.3-3.7l-15.6,1.3l1.5,17.7l12.8-1.1
							c2.4-0.2,3.7-0.3,7.3-3.5l0.9,10.5c-4.1-2.5-5.5-2.4-7.8-2.2l-12.8,1.1l1.7,20.6l14.4-1.2c2.9-0.2,4.6-0.4,10.5-5.9l-0.4,9.8
							l-34.3,2.8C528.2,703.6,528.2,703.6,528,701.6z"/>
					</g>
					<g class="st2">
						<path class="st3" d="M528,701.6l-3.4-40.6c-0.2-1.9-0.2-1.9-2.8-5.6l34.7-2.9l0.8,9.1c-5.1-4-6.7-3.9-9.3-3.7l-15.6,1.3
							l1.5,17.7l12.8-1.1c2.4-0.2,3.7-0.3,7.3-3.5l0.9,10.5c-4.1-2.5-5.5-2.4-7.8-2.2l-12.8,1.1l1.7,20.6l14.4-1.2
							c2.9-0.2,4.6-0.4,10.5-5.9l-0.4,9.8l-34.3,2.8C528.2,703.6,528.2,703.6,528,701.6z"/>
					</g>
					<g class="st2">
						<path d="M575,696.8l-7.1-40.1c-0.3-1.8-0.3-1.8-3.3-5.4l12.4-2.2c-1.7,4.4-1.7,4.4-1.3,6.3l7.3,41l12.7-2.3
							c3-0.5,4.9-0.9,10.3-7.5l0.7,10.6l-32.8,5.8C575.3,698.8,575.3,698.8,575,696.8z"/>
					</g>
					<g class="st2">
						<path class="st3" d="M575,696.8l-7.1-40.1c-0.3-1.8-0.3-1.8-3.3-5.4l12.4-2.2c-1.7,4.4-1.7,4.4-1.3,6.3l7.3,41l12.7-2.3
							c3-0.5,4.9-0.9,10.3-7.5l0.7,10.6l-32.8,5.8C575.3,698.8,575.3,698.8,575,696.8z"/>
					</g>
					<g class="st2">
						<path d="M675,670.5l-6.4-18l-25,8.9l6.5,18.2c0.6,1.8,0.6,1.8,4.2,4.7l-11.8,4.2c0.8-4.6,0.8-4.6,0.2-6.4L629,643.7
							c-0.6-1.8-0.6-1.8-4.2-4.7l11.8-4.2c-0.8,4.6-0.8,4.6-0.2,6.4l5.5,15.6l25-8.9l-5.6-15.7c-0.6-1.8-0.6-1.8-4.2-4.7l11.9-4.2
							c-0.8,4.6-0.8,4.6-0.2,6.4l13.6,38.3c0.6,1.8,0.6,1.8,4.2,4.7l-11.9,4.2C675.7,672.3,675.7,672.3,675,670.5z"/>
					</g>
					<g class="st2">
						<path class="st3" d="M675,670.5l-6.4-18l-25,8.9l6.5,18.2c0.6,1.8,0.6,1.8,4.2,4.7l-11.8,4.2c0.8-4.6,0.8-4.6,0.2-6.4
							L629,643.7c-0.6-1.8-0.6-1.8-4.2-4.7l11.8-4.2c-0.8,4.6-0.8,4.6-0.2,6.4l5.5,15.6l25-8.9l-5.6-15.7c-0.6-1.8-0.6-1.8-4.2-4.7
							l11.9-4.2c-0.8,4.6-0.8,4.6-0.2,6.4l13.6,38.3c0.6,1.8,0.6,1.8,4.2,4.7l-11.9,4.2C675.7,672.3,675.7,672.3,675,670.5z"/>
					</g>
					<g class="st2">
						<path d="M698.9,660.1l-17.5-36.8c-0.8-1.7-0.8-1.7-4.6-4.3l11.3-5.4c-0.4,4.7-0.4,4.7,0.5,6.4l17.5,36.8
							c0.8,1.7,0.8,1.7,4.6,4.3l-11.3,5.4C699.8,661.8,699.8,661.8,698.9,660.1z"/>
					</g>
					<g class="st2">
						<path class="st3" d="M698.9,660.1l-17.5-36.8c-0.8-1.7-0.8-1.7-4.6-4.3l11.3-5.4c-0.4,4.7-0.4,4.7,0.5,6.4l17.5,36.8
							c0.8,1.7,0.8,1.7,4.6,4.3l-11.3,5.4C699.8,661.8,699.8,661.8,698.9,660.1z"/>
					</g>
					<g class="st2">
						<path d="M722.1,651.8L701,613.6c-0.9-1.6-0.9-1.6-4.9-4l11-6.1c-0.1,4.7-0.1,4.7,0.8,6.4l21.5,39c4.7,8.5,3.1,16.4-4.2,21.4
							C727,663.4,725.5,658,722.1,651.8z"/>
					</g>
					<g class="st2">
						<path class="st3" d="M722.1,651.8L701,613.6c-0.9-1.6-0.9-1.6-4.9-4l11-6.1c-0.1,4.7-0.1,4.7,0.8,6.4l21.5,39
							c4.7,8.5,3.1,16.4-4.2,21.4C727,663.4,725.5,658,722.1,651.8z"/>
					</g>
					<g class="st2">
						<path d="M728.9,622.4c-9.3-12.7-7.1-28.7,5.9-38.2c13.1-9.5,28.9-6.7,38.2,6.1c9.3,12.7,7.1,28.7-6,38.2
							C754,638,738.1,635.1,728.9,622.4z M764.1,624.5c8.6-6.3,10.6-17.5,2.1-29.2s-19.8-13.3-28.4-7c-8.6,6.2-10.6,17.5-2.1,29.2
							C744.1,629.1,755.5,630.7,764.1,624.5z"/>
					</g>
					<g class="st2">
						<path class="st3" d="M728.9,622.4c-9.3-12.7-7.1-28.7,5.9-38.2c13.1-9.5,28.9-6.7,38.2,6.1c9.3,12.7,7.1,28.7-6,38.2
							C754,638,738.1,635.1,728.9,622.4z M764.1,624.5c8.6-6.3,10.6-17.5,2.1-29.2s-19.8-13.3-28.4-7c-8.6,6.2-10.6,17.5-2.1,29.2
							C744.1,629.1,755.5,630.7,764.1,624.5z"/>
					</g>
					<g class="st2">
						<path d="M349.6,183.5l-6.6-18l-24.9,9.1l6.6,18.1c0.6,1.8,0.6,1.8,4.2,4.7l-11.8,4.3c0.8-4.6,0.8-4.6,0.1-6.4L303.4,157
							c-0.6-1.8-0.6-1.8-4.2-4.7L311,148c-0.8,4.6-0.8,4.6-0.1,6.4l5.7,15.5l24.9-9.1l-5.7-15.7c-0.6-1.8-0.6-1.8-4.3-4.7l11.9-4.3
							c-0.8,4.6-0.8,4.6-0.1,6.4l13.9,38.2c0.6,1.8,0.6,1.8,4.2,4.7l-11.8,4.3C350.3,185.3,350.3,185.3,349.6,183.5z"/>
					</g>
					<g class="st2">
						<path class="st3" d="M349.6,183.5l-6.6-18l-24.9,9.1l6.6,18.1c0.6,1.8,0.6,1.8,4.2,4.7l-11.8,4.3c0.8-4.6,0.8-4.6,0.1-6.4
							L303.4,157c-0.6-1.8-0.6-1.8-4.2-4.7L311,148c-0.8,4.6-0.8,4.6-0.1,6.4l5.7,15.5l24.9-9.1l-5.7-15.7c-0.6-1.8-0.6-1.8-4.3-4.7
							l11.9-4.3c-0.8,4.6-0.8,4.6-0.1,6.4l13.9,38.2c0.6,1.8,0.6,1.8,4.2,4.7l-11.8,4.3C350.3,185.3,350.3,185.3,349.6,183.5z"/>
					</g>
					<g class="st2">
						<path d="M360.6,158.3c-3.5-15.4,4.8-29.2,20.5-32.7c15.7-3.6,29.2,5.3,32.7,20.7s-4.9,29.2-20.6,32.8
							C377.5,182.5,364.1,173.6,360.6,158.3z M392.2,174.1c10.4-2.4,16.6-11.9,13.4-26s-12.9-20-23.3-17.7
							c-10.3,2.3-16.6,11.9-13.4,26C372,170.5,381.8,176.4,392.2,174.1z"/>
					</g>
					<g class="st2">
						<path class="st3" d="M360.6,158.3c-3.5-15.4,4.8-29.2,20.5-32.7c15.7-3.6,29.2,5.3,32.7,20.7s-4.9,29.2-20.6,32.8
							C377.5,182.5,364.1,173.6,360.6,158.3z M392.2,174.1c10.4-2.4,16.6-11.9,13.4-26s-12.9-20-23.3-17.7
							c-10.3,2.3-16.6,11.9-13.4,26C372,170.5,381.8,176.4,392.2,174.1z"/>
					</g>
					<g class="st2">
						<path d="M426.5,165l-4.6-44l-2.3-2.1l9.3-1l34.3,35.3l-3.4-32.6c-0.2-1.9-0.2-1.9-3.7-5.6l10.9-1c-2,4.3-2,4.3-1.8,6.2
							l4.9,46.8l-3.7,0.4l-38.1-38.6l3.7,35.7c0.2,1.9,0.2,1.9,3.8,5.6l-10.8,1.1C426.7,166.9,426.7,166.9,426.5,165z"/>
					</g>
					<g class="st2">
						<path class="st3" d="M426.5,165l-4.6-44l-2.3-2.1l9.3-1l34.3,35.3l-3.4-32.6c-0.2-1.9-0.2-1.9-3.7-5.6l10.9-1
							c-2,4.3-2,4.3-1.8,6.2l4.9,46.8l-3.7,0.4l-38.1-38.6l3.7,35.7c0.2,1.9,0.2,1.9,3.8,5.6l-10.8,1.1
							C426.7,166.9,426.7,166.9,426.5,165z"/>
					</g>
					<g class="st2">
						<path d="M481.6,159.8l0.5-40.7c0-1.9,0-1.9-2.3-5.9l20.3,0.2c14.9,0.2,26.7,9.6,26.5,26.6s-12.2,26.1-27.1,26l-20.3-0.2
							C481.6,161.8,481.6,161.8,481.6,159.8z M498.1,161.4c10.6,0.1,20-6.9,20.2-21.4c0.2-14.6-9.1-21.7-19.6-21.9L490,118
							l-0.5,43.2L498.1,161.4z"/>
					</g>
					<g class="st2">
						<path class="st3" d="M481.6,159.8l0.5-40.7c0-1.9,0-1.9-2.3-5.9l20.3,0.2c14.9,0.2,26.7,9.6,26.5,26.6s-12.2,26.1-27.1,26
							l-20.3-0.2C481.6,161.8,481.6,161.8,481.6,159.8z M498.1,161.4c10.6,0.1,20-6.9,20.2-21.4c0.2-14.6-9.1-21.7-19.6-21.9
							L490,118l-0.5,43.2L498.1,161.4z"/>
					</g>
					<g class="st2">
						<path d="M536,146.9l2.9-26.6c0.2-1.9,0.2-1.9-1.7-6.1l12.9,1.4c-3.2,3.8-3.2,3.8-3.4,5.7l-3,26.8c-1,9.3,3.7,15.7,12.4,16.6
							c8.4,0.9,14.3-4.2,15.3-13.6l3-26.9c0.2-1.9,0.2-1.9-2.2-6.2l10.6,1.2c-2.8,3.8-2.8,3.8-3,5.8l-2.9,26.2
							c-1.5,13.6-9.8,20.3-22.7,18.9C541.3,168.7,534.5,160.5,536,146.9z"/>
					</g>
					<g class="st2">
						<path class="st3" d="M536,146.9l2.9-26.6c0.2-1.9,0.2-1.9-1.7-6.1l12.9,1.4c-3.2,3.8-3.2,3.8-3.4,5.7l-3,26.8
							c-1,9.3,3.7,15.7,12.4,16.6c8.4,0.9,14.3-4.2,15.3-13.6l3-26.9c0.2-1.9,0.2-1.9-2.2-6.2l10.6,1.2c-2.8,3.8-2.8,3.8-3,5.8
							l-2.9,26.2c-1.5,13.6-9.8,20.3-22.7,18.9C541.3,168.7,534.5,160.5,536,146.9z"/>
					</g>
					<g class="st2">
						<path d="M587.1,167.4l8.7-39.8c0.4-1.8,0.4-1.8-1-6.2l20.1,4.4c10.9,2.4,16.2,9.4,14.4,17.5c-1.5,7-7.4,10.8-15.9,10.3
							l9.9,20.7c2.1,4.3,2.1,4.3,4.7,8.2l-10.3-2.3L604.4,152l-5.6-1.2l-4,18.3c-0.4,1.9-0.4,1.9,1.8,6.5l-13.1-2.8
							C586.7,169.3,586.7,169.3,587.1,167.4z M608.3,148.7c7,1.5,11.5-1.1,12.8-7.1s-1.8-10.3-8.7-11.8l-8.7-1.9l-4.1,18.9
							L608.3,148.7z"/>
					</g>
					<g class="st2">
						<path class="st3" d="M587.1,167.4l8.7-39.8c0.4-1.8,0.4-1.8-1-6.2l20.1,4.4c10.9,2.4,16.2,9.4,14.4,17.5
							c-1.5,7-7.4,10.8-15.9,10.3l9.9,20.7c2.1,4.3,2.1,4.3,4.7,8.2l-10.3-2.3L604.4,152l-5.6-1.2l-4,18.3c-0.4,1.9-0.4,1.9,1.8,6.5
							l-13.1-2.8C586.7,169.3,586.7,169.3,587.1,167.4z M608.3,148.7c7,1.5,11.5-1.1,12.8-7.1s-1.8-10.3-8.7-11.8l-8.7-1.9
							l-4.1,18.9L608.3,148.7z"/>
					</g>
					<g class="st2">
						<path d="M636.1,176.9l32.3-36.5l4.9,1.7l2.9,48.9c0.3,4,0.3,4,1,8.3l-12.6-4.4c3.7-3.3,3.7-3.3,3.6-6.2l-0.4-9.3l-20.7-7.1
							l-6,7.1c-2.2,2.6-2.2,2.6-1.2,7.1l-9.9-3.4C633.5,179.9,633.5,179.9,636.1,176.9z M667.6,174.4l-1.1-24.7l-16.1,18.8
							L667.6,174.4z"/>
					</g>
					<g class="st2">
						<path class="st3" d="M636.1,176.9l32.3-36.5l4.9,1.7l2.9,48.9c0.3,4,0.3,4,1,8.3l-12.6-4.4c3.7-3.3,3.7-3.3,3.6-6.2l-0.4-9.3
							l-20.7-7.1l-6,7.1c-2.2,2.6-2.2,2.6-1.2,7.1l-9.9-3.4C633.5,179.9,633.5,179.9,636.1,176.9z M667.6,174.4l-1.1-24.7
							l-16.1,18.8L667.6,174.4z"/>
					</g>
					<g class="st2">
						<path d="M682.1,196.1l4.1-11.2c1.2,10.3,5.5,16.9,12,20c5.3,2.5,10.1,1.2,12.3-3.5c1.6-3.4,0.9-7.2-2.7-11.3l-7-7.8
							c-5.1-5.7-6-10.9-3.3-16.5c3.7-7.9,12.6-10.2,21.7-6c5.6,2.6,9.3,6.3,11.7,11.2l-4.2,9c-0.9-8-5-13.4-10.6-16
							c-5-2.4-9.3-0.8-11.1,3c-1.5,3.3-0.9,6.4,2.4,10.1l7.4,8.2c4.9,5.4,6.2,11.2,3.3,17.3c-4,8.6-13.4,11.1-23.1,6.5
							C688.2,205.9,684.1,201.5,682.1,196.1z"/>
					</g>
					<g class="st2">
						<path class="st3" d="M682.1,196.1l4.1-11.2c1.2,10.3,5.5,16.9,12,20c5.3,2.5,10.1,1.2,12.3-3.5c1.6-3.4,0.9-7.2-2.7-11.3
							l-7-7.8c-5.1-5.7-6-10.9-3.3-16.5c3.7-7.9,12.6-10.2,21.7-6c5.6,2.6,9.3,6.3,11.7,11.2l-4.2,9c-0.9-8-5-13.4-10.6-16
							c-5-2.4-9.3-0.8-11.1,3c-1.5,3.3-0.9,6.4,2.4,10.1l7.4,8.2c4.9,5.4,6.2,11.2,3.3,17.3c-4,8.6-13.4,11.1-23.1,6.5
							C688.2,205.9,684.1,201.5,682.1,196.1z"/>
					</g>
				</g>
			</g>
		</g>
	</g>
</g>
</svg>
