<?xml version="1.0" encoding="UTF-8"?><svg id="_레이어_2" xmlns="http://www.w3.org/2000/svg" viewBox="0 0 391.54 325.72"><g id="_레이어_1-2"><g><path d="M179.78,221.35c-.14-.67-.25-1.22-.38-1.87l.38,1.87Z" style="fill:none; stroke:#fafaf0; stroke-miterlimit:10;"/><path d="M98.7,254.14l15.5,29.07v7.45l3.74,4.15h3.91l7.69,20.94h5.64l5.79-5.75,15.56-13.29s11.52,12.74,11.6,13.23h7.42l21.07-7.62,9.97-13.47h1.64l10.05-13.27h3.42l7.79,15.11h9.57l7.86-11.46h3.59l2.24,25.15v7.36l7.64,13.48h5.64l17.08-3.65,5.96-15.54h7.44l10-11.44v-5.67h7.51l4.21-5.68,7.63,3.41,19.03-11.18,9.67-11.63h3.86l11.49-19.3v-7.47l-19.06-6.02v-5.53l13.39-23.54v-7.34l7.81-9.69,18.99-4.03v-3.38l-7.47-27.2c0-1.32,1.59-6.53,1.59-7.75h-5.61l-40.45,19.24s-9.79,21.21-9.79,23.02l-24.77,30.95h-15.45l-34.81-17.24h-11.34l-22.88,25.11-9.8,5.7-18.18-.1-30-19.39-15.42-13.34s-13.49-.03-15.33-.03l-19.21-17.4c-.1-.64-13.6-11.47-13.6-11.47l-38.32-28.85h-5.5l-19.26-19.31-5.83,5.81,3.42,9.46c-.62,.1-16.99,15.78-16.99,15.78,0,1.87-4.48,7.66-5.84,7.66L.56,171.61l2.14,5.62,22.92,9.72,2.14,7.45h3.52l11.79-3.52h9.45v7.51l7.95,6.04-4.08,3.65-1.71,7.91-2.26,13.44v7.43l-7.54,3.82v3.86l7.69,5.84c.69,.04,1.28,.07,1.95,.11v1.67l-7.8,11.78v3.46l3.8,2.19,15.46-2.23h9.77l1.91-7.53,17.35-15.1c1.24,0,3.66,3.8,3.66,5.75l.03,3.65Z" style="fill:none; stroke:#fafaf0; stroke-miterlimit:10;"/><path d="M306.39,17.6c0,5.1,3.25,17.36,3.95,17.42,0,.58-2.15,32.48-2.15,32.48l11.53-1.57,4.02,5.78v7.46l-7.74,15.29,2.22,1.89h14.99v3.83c-.43,.08-3.83,15.23-3.83,15.23l-.15,7.9v5.67s-5.4,5.14-5.34,5.75l-11.54,15.87v3.45l13.26,15.41v9.62l-28.85,26.92-50.08-20.93h-3.78l-36.47,33.23-11.74-.56-32.64-29.03-24.78-2-48.18-38.2,15.21-3.79v-9.78l7.82-7.61h2.02c0,1.84,9.42,5.58,9.42,5.58l3.99-34.28,1.82-.21,1.89-17.27,4.03-4.21v-11.16l-.05,.05c1.87,0,19.35-5.8,19.35-5.8h5.67v-3.95l5.96-5.77h3.47l9.82,7.56v9.55l15.47,15.45,15.1-.06v-13.22l2.11-5.88-7.79-6v-5.28l11.6-34.94h7.52V6.37l8.11-5.87h9.23l9.7,11.09,5.81-3.44h3.72l7.92,9.26,1.61,.07,5.84-7.54,9.95-1.8h3.39l4.21,5.63h7.34l5.99,3.83Z" style="fill:none; stroke:#fafaf0; stroke-miterlimit:10;"/></g><circle cx="233.39" cy="107.1" r="22.23" style="fill:#ff4e00;"/></g></svg>