<?xml version="1.0" encoding="UTF-8"?>
<svg id="_레이어_2" data-name="레이어 2" xmlns="http://www.w3.org/2000/svg" viewBox="0 0 1155.92 756.55">
  <defs>
    <style>
      .cls-1 {
        fill: none;
      }

      .cls-2 {
        font-family: GTUltraMedian-Regular, 'GT Ultra Median';
        font-size: 75.07px;
        stroke: #000;
        stroke-miterlimit: 10;
        stroke-width: .26px;
      }
    </style>
  </defs>
  <g id="_레이어_1-2" data-name="레이어 1">
    <g>
      <text class="cls-2" transform="translate(295.6 379.65) rotate(84.01)"><tspan x="0" y="0">C</tspan></text>
      <text class="cls-2" transform="translate(302.68 441.61) rotate(70.3)"><tspan x="0" y="0">O</tspan></text>
      <text class="cls-2" transform="translate(328.35 507.38) rotate(57.92)"><tspan x="0" y="0">L</tspan></text>
      <text class="cls-2" transform="translate(354.71 549.86) rotate(45.78)"><tspan x="0" y="0">O</tspan></text>
      <text class="cls-2" transform="translate(406.39 601.41) rotate(30.53)"><tspan x="0" y="0">M</tspan></text>
      <text class="cls-2" transform="translate(473.32 638.3) rotate(16.83)"><tspan x="0" y="0">B</tspan></text>
      <text class="cls-2" transform="translate(524.98 652.56) rotate(8.39)"><tspan x="0" y="0">I</tspan></text>
      <text class="cls-2" transform="translate(555.2 657.7) rotate(-.93)"><tspan x="0" y="0">A</tspan></text>
      <text class="cls-2" transform="translate(614.89 655.05) rotate(-9.39)"><tspan x="0" y="0"> </tspan></text>
      <text class="cls-2" transform="translate(640.49 651.22) rotate(-17.3)"><tspan x="0" y="0">E</tspan></text>
      <text class="cls-2" transform="translate(689.53 635.16) rotate(-27.64)"><tspan x="0" y="0">L</tspan></text>
      <text class="cls-2" transform="translate(732.33 611.35) rotate(-35.24)"><tspan x="0" y="0"> </tspan></text>
      <text class="cls-2" transform="translate(753.81 596.74) rotate(-43.25)"><tspan x="0" y="0">T</tspan></text>
      <text class="cls-2" transform="translate(793.27 558.8) rotate(-54.9)"><tspan x="0" y="0">R</tspan></text>
      <text class="cls-2" transform="translate(825.78 509.58) rotate(-64.05)"><tspan x="0" y="0">I</tspan></text>
      <text class="cls-2" transform="translate(839.3 483.65) rotate(-73.24)"><tspan x="0" y="0">U</tspan></text>
      <text class="cls-2" transform="translate(856.91 421.91) rotate(-86.6)"><tspan x="0" y="0">N</tspan></text>
      <text class="cls-2" transform="translate(859.27 356.36) rotate(-98.35)"><tspan x="0" y="0">F</tspan></text>
      <text class="cls-2" transform="translate(852.23 306.54) rotate(-110.57)"><tspan x="0" y="0">O</tspan></text>
      <rect class="cls-1" width="1155.92" height="756.55"/>
    </g>
  </g>
</svg>