<?xml version="1.0" encoding="utf-8"?>
<!-- Generator: Adobe Illustrator 27.0.0, SVG Export Plug-In . SVG Version: 6.00 Build 0)  -->
<svg version="1.1" id="_레이어_2" xmlns="http://www.w3.org/2000/svg" xmlns:xlink="http://www.w3.org/1999/xlink" x="0px"
	 y="0px" viewBox="0 0 1155.9 756.5" style="enable-background:new 0 0 1155.9 756.5;" xml:space="preserve">
<style type="text/css">
	.st0{enable-background:new    ;}
	.st1{fill:none;stroke:#000000;stroke-width:0.26;stroke-miterlimit:10;}
	.st2{fill:none;}
</style>
<g id="_레이어_1-2">
	<g>
		<g class="st0">
			<path d="M321.5,380.9c16.9-1.8,29.1,7.8,30.8,24.1c0.8,7.5-0.5,13.5-3.7,18.1l-10.1,1.1c6.5-5.1,9.2-11.4,8.4-19.1
				c-1.2-11.5-9.6-17.8-22-16.5c-13.6,1.4-21.4,10.8-20.1,23.1c0.8,7.3,4.6,13.2,10.9,15.8c-10.4,0-16.9-6.5-18.1-18.2
				C296,393.9,305.8,382.5,321.5,380.9z"/>
		</g>
		<g class="st0">
			<path class="st1" d="M321.5,380.9c16.9-1.8,29.1,7.8,30.8,24.1c0.8,7.5-0.5,13.5-3.7,18.1l-10.1,1.1c6.5-5.1,9.2-11.4,8.4-19.1
				c-1.2-11.5-9.6-17.8-22-16.5c-13.6,1.4-21.4,10.8-20.1,23.1c0.8,7.3,4.6,13.2,10.9,15.8c-10.4,0-16.9-6.5-18.1-18.2
				C296,393.9,305.8,382.5,321.5,380.9z"/>
		</g>
		<g class="st0">
			<path d="M328.7,436.4c14.8-5.3,29.5,1.2,35,16.4c5.4,15.2-1.7,29.6-16.6,35s-29.6-1.3-35-16.5
				C306.7,456.1,313.9,441.7,328.7,436.4z M316.9,469.6c3.6,10,13.8,15.1,27.4,10.2c13.6-4.9,18.3-15.2,14.7-25.3
				c-3.6-10-13.8-15.1-27.4-10.2C318,449.2,313.3,459.7,316.9,469.6z"/>
		</g>
		<g class="st0">
			<path class="st1" d="M328.7,436.4c14.8-5.3,29.5,1.2,35,16.4c5.4,15.2-1.7,29.6-16.6,35s-29.6-1.3-35-16.5
				C306.7,456.1,313.9,441.7,328.7,436.4z M316.9,469.6c3.6,10,13.8,15.1,27.4,10.2c13.6-4.9,18.3-15.2,14.7-25.3
				c-3.6-10-13.8-15.1-27.4-10.2C318,449.2,313.3,459.7,316.9,469.6z"/>
		</g>
		<g class="st0">
			<path d="M337.6,510.8l34.5-21.6c1.6-1,1.6-1,3.7-5.1l6.7,10.7c-4.7,0.1-4.7,0.1-6.4,1.2l-35.3,22.1l6.9,10.9
				c1.6,2.6,2.6,4.2,10.8,6.7l-9.5,4.6L331.3,512C335.9,511.8,335.9,511.8,337.6,510.8z"/>
		</g>
		<g class="st0">
			<path class="st1" d="M337.6,510.8l34.5-21.6c1.6-1,1.6-1,3.7-5.1l6.7,10.7c-4.7,0.1-4.7,0.1-6.4,1.2l-35.3,22.1l6.9,10.9
				c1.6,2.6,2.6,4.2,10.8,6.7l-9.5,4.6L331.3,512C335.9,511.8,335.9,511.8,337.6,510.8z"/>
		</g>
		<g class="st0">
			<path d="M376.3,534.3c11.3-11,27.4-11.1,38.6,0.4c11.3,11.6,10.7,27.7-0.6,38.7c-11.3,11-27.4,11.1-38.7-0.5
				C364.4,561.4,365,545.3,376.3,534.3z M379.2,569.5c7.4,7.6,18.8,8,29.2-2.1s10.3-21.5,2.9-29.1c-7.4-7.6-18.8-8-29.2,2.1
				S371.9,561.9,379.2,569.5z"/>
		</g>
		<g class="st0">
			<path class="st1" d="M376.3,534.3c11.3-11,27.4-11.1,38.6,0.4c11.3,11.6,10.7,27.7-0.6,38.7c-11.3,11-27.4,11.1-38.7-0.5
				C364.4,561.4,365,545.3,376.3,534.3z M379.2,569.5c7.4,7.6,18.8,8,29.2-2.1s10.3-21.5,2.9-29.1c-7.4-7.6-18.8-8-29.2,2.1
				S371.9,561.9,379.2,569.5z"/>
		</g>
		<g class="st0">
			<path d="M416.2,600.2l20.7-35c1-1.6,1-1.6,1-6.2l8.3,4.9l1.5,34.2l30.6-15.2l8,4.7c-4.1,2.3-4.1,2.3-5.1,4l-20.7,35
				c-1,1.6-1,1.6-1,6.2l-11.6-6.8c5-1.9,5-1.9,6-3.7l18.3-31.1l-31.9,16.2l-1.3-35.6L420.7,603c-1,1.7-1,1.7-0.6,6.6l-9.1-5.3
				C415.2,601.9,415.2,601.9,416.2,600.2z"/>
		</g>
		<g class="st0">
			<path class="st1" d="M416.2,600.2l20.7-35c1-1.6,1-1.6,1-6.2l8.3,4.9l1.5,34.2l30.6-15.2l8,4.7c-4.1,2.3-4.1,2.3-5.1,4l-20.7,35
				c-1,1.6-1,1.6-1,6.2l-11.6-6.8c5-1.9,5-1.9,6-3.7l18.3-31.1l-31.9,16.2l-1.3-35.6L420.7,603c-1,1.7-1,1.7-0.6,6.6l-9.1-5.3
				C415.2,601.9,415.2,601.9,416.2,600.2z"/>
		</g>
		<g class="st0">
			<path d="M482.5,634.8l11.8-38.9c0.5-1.8,0.5-1.8-0.5-6.3l19.9,6c9.8,3,13.7,9.3,11.5,16.6c-1.7,5.6-7,9.5-14.1,8.2
				c7.3,3,10.9,9.5,8.7,16.5c-2.6,8.6-10.5,12.3-21.6,8.9l-19.7-6C482,636.7,482,636.7,482.5,634.8z M498.5,641.3
				c6.5,2,11.7-0.5,13.6-6.9c2-6.6-1-11.5-7.6-13.5l-8.7-2.6l-6.2,20.4L498.5,641.3z M505.4,616.6c6,1.8,10.1-0.6,11.7-6
				c1.6-5.4-0.5-9.6-6.4-11.4l-8.4-2.5l-5.3,17.5L505.4,616.6z"/>
		</g>
		<g class="st0">
			<path class="st1" d="M482.5,634.8l11.8-38.9c0.5-1.8,0.5-1.8-0.5-6.3l19.9,6c9.8,3,13.7,9.3,11.5,16.6c-1.7,5.6-7,9.5-14.1,8.2
				c7.3,3,10.9,9.5,8.7,16.5c-2.6,8.6-10.5,12.3-21.6,8.9l-19.7-6C482,636.7,482,636.7,482.5,634.8z M498.5,641.3
				c6.5,2,11.7-0.5,13.6-6.9c2-6.6-1-11.5-7.6-13.5l-8.7-2.6l-6.2,20.4L498.5,641.3z M505.4,616.6c6,1.8,10.1-0.6,11.7-6
				c1.6-5.4-0.5-9.6-6.4-11.4l-8.4-2.5l-5.3,17.5L505.4,616.6z"/>
		</g>
		<g class="st0">
			<path d="M533.6,647.8l5.9-40.3c0.3-1.9,0.3-1.9-1.4-6.1l12.4,1.8c-2.9,3.7-2.9,3.7-3.2,5.6l-5.9,40.3c-0.3,1.9-0.3,1.9,1.4,6.1
				l-12.4-1.8C533.3,649.7,533.3,649.7,533.6,647.8z"/>
		</g>
		<g class="st0">
			<path class="st1" d="M533.6,647.8l5.9-40.3c0.3-1.9,0.3-1.9-1.4-6.1l12.4,1.8c-2.9,3.7-2.9,3.7-3.2,5.6l-5.9,40.3
				c-0.3,1.9-0.3,1.9,1.4,6.1l-12.4-1.8C533.3,649.7,533.3,649.7,533.6,647.8z"/>
		</g>
		<g class="st0">
			<path d="M560,649.9l17.9-45.3l5.2-0.1l19.4,45c1.6,3.7,1.6,3.7,3.8,7.4l-13.4,0.2c2.3-4.3,2.3-4.3,1.2-7.1l-3.5-8.6l-21.9,0.4
				l-3.2,8.7c-1.2,3.2-1.2,3.2,1.3,7l-10.4,0.2C558.6,653.6,558.6,653.6,560,649.9z M588.7,636.8l-9.5-22.9l-8.7,23.2L588.7,636.8z"
				/>
		</g>
		<g class="st0">
			<path class="st1" d="M560,649.9l17.9-45.3l5.2-0.1l19.4,45c1.6,3.7,1.6,3.7,3.8,7.4l-13.4,0.2c2.3-4.3,2.3-4.3,1.2-7.1l-3.5-8.6
				l-21.9,0.4l-3.2,8.7c-1.2,3.2-1.2,3.2,1.3,7l-10.4,0.2C558.6,653.6,558.6,653.6,560,649.9z M588.7,636.8l-9.5-22.9l-8.7,23.2
				L588.7,636.8z"/>
		</g>
		<g class="st0">
			<path d="M646.2,643.2l-12.1-38.8c-0.6-1.8-0.6-1.8-4-4.9l33.3-10.4l2.7,8.7c-5.8-2.8-7.3-2.4-9.8-1.6l-15,4.7l5.3,16.9l12.3-3.8
				c2.3-0.7,3.5-1.1,6.4-5l3.1,10c-4.6-1.6-5.9-1.2-8.1-0.5l-12.3,3.8l6.1,19.7l13.8-4.3c2.8-0.9,4.4-1.4,9-8.1l1.8,9.7l-32.8,10.2
				C646.7,645,646.7,645,646.2,643.2z"/>
		</g>
		<g class="st0">
			<path class="st1" d="M646.2,643.2l-12.1-38.8c-0.6-1.8-0.6-1.8-4-4.9l33.3-10.4l2.7,8.7c-5.8-2.8-7.3-2.4-9.8-1.6l-15,4.7
				l5.3,16.9l12.3-3.8c2.3-0.7,3.5-1.1,6.4-5l3.1,10c-4.6-1.6-5.9-1.2-8.1-0.5l-12.3,3.8l6.1,19.7l13.8-4.3c2.8-0.9,4.4-1.4,9-8.1
				l1.8,9.7l-32.8,10.2C646.7,645,646.7,645,646.2,643.2z"/>
		</g>
		<g class="st0">
			<path d="M693.7,626.2l-18.9-36c-0.9-1.7-0.9-1.7-4.8-4.1l11.2-5.9c-0.2,4.7-0.2,4.7,0.7,6.4l19.3,36.9l11.4-6
				c2.7-1.4,4.4-2.3,7.5-10.3l3.8,9.9l-29.5,15.5C694.6,627.9,694.6,627.9,693.7,626.2z"/>
		</g>
		<g class="st0">
			<path class="st1" d="M693.7,626.2l-18.9-36c-0.9-1.7-0.9-1.7-4.8-4.1l11.2-5.9c-0.2,4.7-0.2,4.7,0.7,6.4l19.3,36.9l11.4-6
				c2.7-1.4,4.4-2.3,7.5-10.3l3.8,9.9l-29.5,15.5C694.6,627.9,694.6,627.9,693.7,626.2z"/>
		</g>
		<g class="st0">
			<path d="M719.2,557.2l30.8-29l6.9,7.4c-6.9-0.7-8,0.3-10,2.2l-6.2,5.8l28.7,30.5c1.3,1.4,1.3,1.4,6.1,2.3l-10.1,9.5
				c-0.6-5.2-0.6-5.2-1.9-6.6l-28.4-30.2l-6.2,5.9c-1.9,1.8-3.1,2.9-2.7,9.8L719.2,557.2z"/>
		</g>
		<g class="st0">
			<path class="st1" d="M719.2,557.2l30.8-29l6.9,7.4c-6.9-0.7-8,0.3-10,2.2l-6.2,5.8l28.7,30.5c1.3,1.4,1.3,1.4,6.1,2.3l-10.1,9.5
				c-0.6-5.2-0.6-5.2-1.9-6.6l-28.4-30.2l-6.2,5.9c-1.9,1.8-3.1,2.9-2.7,9.8L719.2,557.2z"/>
		</g>
		<g class="st0">
			<path d="M792.8,549l-33.3-23.4c-1.5-1.1-1.5-1.1-6.1-1.5l11.8-16.8c6.4-9.1,14.9-11.3,21.7-6.5c5.9,4.1,7.1,11,3.3,18.7l22.9-1.1
				c4.8-0.2,4.8-0.2,9.4-1.2l-6.1,8.7l-31.1,1.3l-3.3,4.7l15.3,10.7c1.6,1.1,1.6,1.1,6.7,0.9l-7.7,10.9
				C794.4,550.1,794.4,550.1,792.8,549z M783.9,522.2c4.1-5.8,3.5-11.1-1.6-14.6s-10.2-2.4-14.3,3.5l-5.1,7.2l15.8,11.1L783.9,522.2
				z"/>
		</g>
		<g class="st0">
			<path class="st1" d="M792.8,549l-33.3-23.4c-1.5-1.1-1.5-1.1-6.1-1.5l11.8-16.8c6.4-9.1,14.9-11.3,21.7-6.5
				c5.9,4.1,7.1,11,3.3,18.7l22.9-1.1c4.8-0.2,4.8-0.2,9.4-1.2l-6.1,8.7l-31.1,1.3l-3.3,4.7l15.3,10.7c1.6,1.1,1.6,1.1,6.7,0.9
				l-7.7,10.9C794.4,550.1,794.4,550.1,792.8,549z M783.9,522.2c4.1-5.8,3.5-11.1-1.6-14.6s-10.2-2.4-14.3,3.5l-5.1,7.2l15.8,11.1
				L783.9,522.2z"/>
		</g>
		<g class="st0">
			<path d="M823.8,499.9l-36.6-17.8c-1.7-0.8-1.7-0.8-6.3-0.5l5.5-11.3c2.6,3.9,2.6,3.9,4.4,4.7l36.6,17.8c1.7,0.8,1.7,0.8,6.3,0.5
				l-5.5,11.3C825.6,500.8,825.6,500.8,823.8,499.9z"/>
		</g>
		<g class="st0">
			<path class="st1" d="M823.8,499.9l-36.6-17.8c-1.7-0.8-1.7-0.8-6.3-0.5l5.5-11.3c2.6,3.9,2.6,3.9,4.4,4.7l36.6,17.8
				c1.7,0.8,1.7,0.8,6.3,0.5l-5.5,11.3C825.6,500.8,825.6,500.8,823.8,499.9z"/>
		</g>
		<g class="st0">
			<path d="M822.1,471.3l-25.6-7.7c-1.8-0.5-1.8-0.5-6.3,0.5l3.7-12.4c3.2,3.9,3.2,3.9,5,4.4l25.8,7.8c9,2.7,16.1-0.8,18.6-9.2
				c2.4-8.1-1.6-14.8-10.6-17.5l-25.9-7.8c-1.9-0.6-1.9-0.6-6.5,1l3.1-10.2c3.3,3.4,3.3,3.4,5.2,4l25.2,7.6
				c13.1,3.9,18.2,13.3,14.4,25.8C844.6,470.1,835.2,475.3,822.1,471.3z"/>
		</g>
		<g class="st0">
			<path class="st1" d="M822.1,471.3l-25.6-7.7c-1.8-0.5-1.8-0.5-6.3,0.5l3.7-12.4c3.2,3.9,3.2,3.9,5,4.4l25.8,7.8
				c9,2.7,16.1-0.8,18.6-9.2c2.4-8.1-1.6-14.8-10.6-17.5l-25.9-7.8c-1.9-0.6-1.9-0.6-6.5,1l3.1-10.2c3.3,3.4,3.3,3.4,5.2,4l25.2,7.6
				c13.1,3.9,18.2,13.3,14.4,25.8C844.6,470.1,835.2,475.3,822.1,471.3z"/>
		</g>
		<g class="st0">
			<path d="M851.4,414.2l-44.1-2.6l-2.4,2l0.6-9.4l40.4-28.1l-32.7-1.9c-1.9-0.1-1.9-0.1-6.1,2.7l0.6-10.8c3.9,2.6,3.9,2.6,5.9,2.8
				l47,2.8l-0.2,3.7l-44.3,31.4l35.8,2.1c1.9,0.1,1.9,0.1,6.1-2.8l-0.6,10.9C853.3,414.3,853.3,414.3,851.4,414.2z"/>
		</g>
		<g class="st0">
			<path class="st1" d="M851.4,414.2l-44.1-2.6l-2.4,2l0.6-9.4l40.4-28.1l-32.7-1.9c-1.9-0.1-1.9-0.1-6.1,2.7l0.6-10.8
				c3.9,2.6,3.9,2.6,5.9,2.8l47,2.8l-0.2,3.7l-44.3,31.4l35.8,2.1c1.9,0.1,1.9,0.1,6.1-2.8l-0.6,10.9
				C853.3,414.3,853.3,414.3,851.4,414.2z"/>
		</g>
		<g class="st0">
			<path d="M852.2,349.5l-40.3,5.9c-1.9,0.3-1.9,0.3-5.5,3.2l-5-34.4l9.1-1.3c-3.7,5.2-3.5,6.8-3.1,9.4l2.3,15.5l18.2-2.7l-1.9-12.8
				c-0.3-2.3-0.5-3.6-3.9-6.9l10.4-1.5c-2.3,4.2-2.2,5.5-1.8,7.8l1.9,12.8l18.6-2.7c1.9-0.3,1.9-0.3,5.4-3.6l1.9,12.8
				C854.1,349.2,854.1,349.2,852.2,349.5z"/>
		</g>
		<g class="st0">
			<path class="st1" d="M852.2,349.5l-40.3,5.9c-1.9,0.3-1.9,0.3-5.5,3.2l-5-34.4l9.1-1.3c-3.7,5.2-3.5,6.8-3.1,9.4l2.3,15.5
				l18.2-2.7l-1.9-12.8c-0.3-2.3-0.5-3.6-3.9-6.9l10.4-1.5c-2.3,4.2-2.2,5.5-1.8,7.8l1.9,12.8l18.6-2.7c1.9-0.3,1.9-0.3,5.4-3.6
				l1.9,12.8C854.1,349.2,854.1,349.2,852.2,349.5z"/>
		</g>
		<g class="st0">
			<path d="M826.3,312.1c-14.8,5.5-29.6-0.8-35.2-15.9c-5.7-15.1,1.3-29.7,16.1-35.2c14.8-5.5,29.6,0.8,35.3,16
				S841,306.6,826.3,312.1z M837.6,278.7c-3.7-10-14.1-14.8-27.6-9.8s-18.1,15.5-14.3,25.5c3.7,9.9,14.1,14.8,27.6,9.8
				S841.3,288.7,837.6,278.7z"/>
		</g>
		<g class="st0">
			<path class="st1" d="M826.3,312.1c-14.8,5.5-29.6-0.8-35.2-15.9c-5.7-15.1,1.3-29.7,16.1-35.2c14.8-5.5,29.6,0.8,35.3,16
				S841,306.6,826.3,312.1z M837.6,278.7c-3.7-10-14.1-14.8-27.6-9.8s-18.1,15.5-14.3,25.5c3.7,9.9,14.1,14.8,27.6,9.8
				S841.3,288.7,837.6,278.7z"/>
		</g>
		<rect y="0" class="st2" width="1155.9" height="756.5"/>
	</g>
</g>
</svg>
