<?xml version="1.0" encoding="utf-8"?>
<!-- Generator: Adobe Illustrator 27.0.0, SVG Export Plug-In . SVG Version: 6.00 Build 0)  -->
<svg version="1.1" id="_레이어_2" xmlns="http://www.w3.org/2000/svg" xmlns:xlink="http://www.w3.org/1999/xlink" x="0px"
	 y="0px" viewBox="0 0 1155.9 756.5" style="enable-background:new 0 0 1155.9 756.5;" xml:space="preserve">
<style type="text/css">
	.st0{enable-background:new    ;}
	.st1{fill:none;stroke:#000000;stroke-width:0.26;stroke-miterlimit:10;}
	.st2{fill:none;}
</style>
<g id="_레이어_1-2">
	<g>
		<g>
			<g class="st0">
				<path d="M271.4,603.8c0-16.5,11.4-27.6,28.1-27.6c8.8,0,14.6,2.4,19.1,5.9v10c-4.6-7.1-10.6-11-19.1-11
					c-11.8,0-19.7,8.5-19.7,22.6c0,14,7.8,22.4,19,22.4c5.7,0,10.4-2.5,12.3-5v-13.3h-18l2.3-5.2h26c-2.4,4.1-2.4,4.1-2.4,6v14.4
					c-4.7,4.7-12.2,7.9-20.7,7.9C282.3,631.1,271.4,620.7,271.4,603.8z"/>
			</g>
			<g class="st0">
				<path class="st1" d="M271.4,603.8c0-16.5,11.4-27.6,28.1-27.6c8.8,0,14.6,2.4,19.1,5.9v10c-4.6-7.1-10.6-11-19.1-11
					c-11.8,0-19.7,8.5-19.7,22.6c0,14,7.8,22.4,19,22.4c5.7,0,10.4-2.5,12.3-5v-13.3h-18l2.3-5.2h26c-2.4,4.1-2.4,4.1-2.4,6v14.4
					c-4.7,4.7-12.2,7.9-20.7,7.9C282.3,631.1,271.4,620.7,271.4,603.8z"/>
			</g>
			<g class="st0">
				<path d="M332,623.9v-40.7c0-1.9,0-1.9-2.3-5.9h34.8v9.2c-4.7-4.4-6.3-4.4-8.9-4.4h-15.7v17.7h12.8c2.4,0,3.7,0,7.6-2.9v10.5
					c-3.9-2.9-5.3-2.9-7.6-2.9h-12.8v20.6h14.4c2.9,0,4.7,0,11-5l-1.2,9.8h-34.4C332,625.9,332,625.9,332,623.9z"/>
			</g>
			<g class="st0">
				<path class="st1" d="M332,623.9v-40.7c0-1.9,0-1.9-2.3-5.9h34.8v9.2c-4.7-4.4-6.3-4.4-8.9-4.4h-15.7v17.7h12.8
					c2.4,0,3.7,0,7.6-2.9v10.5c-3.9-2.9-5.3-2.9-7.6-2.9h-12.8v20.6h14.4c2.9,0,4.7,0,11-5l-1.2,9.8h-34.4
					C332,625.9,332,625.9,332,623.9z"/>
			</g>
			<g class="st0">
				<path d="M375.8,623.9v-40.7c0-1.9,0-1.9-2.3-5.9H386c-2.3,4.1-2.3,4.1-2.3,6v40.7c0,1.9,0,1.9,2.3,5.9h-12.5
					C375.8,625.9,375.8,625.9,375.8,623.9z"/>
			</g>
			<g class="st0">
				<path class="st1" d="M375.8,623.9v-40.7c0-1.9,0-1.9-2.3-5.9H386c-2.3,4.1-2.3,4.1-2.3,6v40.7c0,1.9,0,1.9,2.3,5.9h-12.5
					C375.8,625.9,375.8,625.9,375.8,623.9z"/>
			</g>
			<g class="st0">
				<path d="M395.3,624.8l-1.1-11.9c5.5,8.9,12.2,13,19.4,13c5.9,0,9.6-3.2,9.6-8.4c0-3.8-2.3-6.9-7.3-9l-9.7-4.1
					c-7.1-2.9-10.1-7.4-10.1-13.5c0-8.7,7.1-14.6,17-14.6c6.2,0,11.1,1.7,15.3,5.1v9.9c-4.2-6.8-10.2-10-16.4-10
					c-5.6,0-8.8,3.2-8.8,7.4c0,3.6,2,6.2,6.5,8.1l10.2,4.2c6.7,2.8,10.4,7.5,10.4,14.3c0,9.5-7.4,15.8-18.1,15.8
					C405,631.1,399.4,628.8,395.3,624.8z"/>
			</g>
			<g class="st0">
				<path class="st1" d="M395.3,624.8l-1.1-11.9c5.5,8.9,12.2,13,19.4,13c5.9,0,9.6-3.2,9.6-8.4c0-3.8-2.3-6.9-7.3-9l-9.7-4.1
					c-7.1-2.9-10.1-7.4-10.1-13.5c0-8.7,7.1-14.6,17-14.6c6.2,0,11.1,1.7,15.3,5.1v9.9c-4.2-6.8-10.2-10-16.4-10
					c-5.6,0-8.8,3.2-8.8,7.4c0,3.6,2,6.2,6.5,8.1l10.2,4.2c6.7,2.8,10.4,7.5,10.4,14.3c0,9.5-7.4,15.8-18.1,15.8
					C405,631.1,399.4,628.8,395.3,624.8z"/>
			</g>
			<g class="st0">
				<path d="M475.9,623.9v-19.1h-26.5v19.3c0,1.9,0,1.9,2.3,5.9h-12.5c2.3-4.1,2.3-4.1,2.3-6v-40.7c0-1.9,0-1.9-2.3-5.9h12.5
					c-2.3,4.1-2.3,4.1-2.3,6v16.5h26.5v-16.7c0-1.9,0-1.9-2.4-5.9h12.6c-2.3,4.1-2.3,4.1-2.3,6v40.7c0,1.9,0,1.9,2.3,5.9h-12.6
					C475.9,625.9,475.9,625.9,475.9,623.9z"/>
			</g>
			<g class="st0">
				<path class="st1" d="M475.9,623.9v-19.1h-26.5v19.3c0,1.9,0,1.9,2.3,5.9h-12.5c2.3-4.1,2.3-4.1,2.3-6v-40.7c0-1.9,0-1.9-2.3-5.9
					h12.5c-2.3,4.1-2.3,4.1-2.3,6v16.5h26.5v-16.7c0-1.9,0-1.9-2.4-5.9h12.6c-2.3,4.1-2.3,4.1-2.3,6v40.7c0,1.9,0,1.9,2.3,5.9h-12.6
					C475.9,625.9,475.9,625.9,475.9,623.9z"/>
			</g>
			<g class="st0">
				<path d="M496.7,622.2l18.6-45h5.2l18.7,45.3c1.6,3.7,1.6,3.7,3.7,7.5h-13.4c2.4-4.3,2.4-4.3,1.4-7.1l-3.4-8.6h-21.9l-3.4,8.6
					c-1.2,3.2-1.2,3.2,1.2,7.1H493C495.2,625.9,495.2,625.9,496.7,622.2z M525.6,609.6l-9.1-23l-9.1,23H525.6z"/>
			</g>
			<g class="st0">
				<path class="st1" d="M496.7,622.2l18.6-45h5.2l18.7,45.3c1.6,3.7,1.6,3.7,3.7,7.5h-13.4c2.4-4.3,2.4-4.3,1.4-7.1l-3.4-8.6h-21.9
					l-3.4,8.6c-1.2,3.2-1.2,3.2,1.2,7.1H493C495.2,625.9,495.2,625.9,496.7,622.2z M525.6,609.6l-9.1-23l-9.1,23H525.6z"/>
			</g>
			<g class="st0">
				<path d="M566,577.4h13.1c-2.6,4.2-2.6,4.2-1.7,7l10.4,33.7l14.6-41.1h4.4l14.4,41.1l10.6-33.9c0.9-3,0.9-3-1.8-6.9h10.5
					c-2.2,4.1-2.2,4.1-3.5,8l-15,45.1h-3.9l-14.9-41.6l-15.2,41.6h-4l-14.9-45.7C568,581.1,568,581.1,566,577.4z"/>
			</g>
			<g class="st0">
				<path class="st1" d="M566,577.4h13.1c-2.6,4.2-2.6,4.2-1.7,7l10.4,33.7l14.6-41.1h4.4l14.4,41.1l10.6-33.9c0.9-3,0.9-3-1.8-6.9
					h10.5c-2.2,4.1-2.2,4.1-3.5,8l-15,45.1h-3.9l-14.9-41.6l-15.2,41.6h-4l-14.9-45.7C568,581.1,568,581.1,566,577.4z"/>
			</g>
			<g class="st0">
				<path d="M641.3,622.2l18.6-45h5.2l18.7,45.3c1.6,3.7,1.6,3.7,3.7,7.5h-13.4c2.4-4.3,2.4-4.3,1.4-7.1l-3.4-8.6h-21.9l-3.4,8.6
					c-1.2,3.2-1.2,3.2,1.2,7.1h-10.4C639.8,625.9,639.8,625.9,641.3,622.2z M670.2,609.6l-9.1-23l-9.1,23H670.2z"/>
			</g>
			<g class="st0">
				<path class="st1" d="M641.3,622.2l18.6-45h5.2l18.7,45.3c1.6,3.7,1.6,3.7,3.7,7.5h-13.4c2.4-4.3,2.4-4.3,1.4-7.1l-3.4-8.6h-21.9
					l-3.4,8.6c-1.2,3.2-1.2,3.2,1.2,7.1h-10.4C639.8,625.9,639.8,625.9,641.3,622.2z M670.2,609.6l-9.1-23l-9.1,23H670.2z"/>
			</g>
			<g class="st0">
				<path d="M693,624.8l-1.1-11.9c5.5,8.9,12.2,13,19.4,13c5.9,0,9.6-3.2,9.6-8.4c0-3.8-2.3-6.9-7.3-9l-9.7-4.1
					c-7.1-2.9-10.1-7.4-10.1-13.5c0-8.7,7.1-14.6,17-14.6c6.2,0,11.1,1.7,15.3,5.1v9.9c-4.2-6.8-10.2-10-16.4-10
					c-5.6,0-8.8,3.2-8.8,7.4c0,3.6,2,6.2,6.5,8.1l10.2,4.2c6.7,2.8,10.4,7.5,10.4,14.3c0,9.5-7.4,15.8-18.1,15.8
					C702.6,631.1,697,628.8,693,624.8z"/>
			</g>
			<g class="st0">
				<path class="st1" d="M693,624.8l-1.1-11.9c5.5,8.9,12.2,13,19.4,13c5.9,0,9.6-3.2,9.6-8.4c0-3.8-2.3-6.9-7.3-9l-9.7-4.1
					c-7.1-2.9-10.1-7.4-10.1-13.5c0-8.7,7.1-14.6,17-14.6c6.2,0,11.1,1.7,15.3,5.1v9.9c-4.2-6.8-10.2-10-16.4-10
					c-5.6,0-8.8,3.2-8.8,7.4c0,3.6,2,6.2,6.5,8.1l10.2,4.2c6.7,2.8,10.4,7.5,10.4,14.3c0,9.5-7.4,15.8-18.1,15.8
					C702.6,631.1,697,628.8,693,624.8z"/>
			</g>
			<g class="st0">
				<path d="M773.5,623.9v-19.1H747v19.3c0,1.9,0,1.9,2.3,5.9h-12.5c2.3-4.1,2.3-4.1,2.3-6v-40.7c0-1.9,0-1.9-2.3-5.9h12.5
					c-2.3,4.1-2.3,4.1-2.3,6v16.5h26.5v-16.7c0-1.9,0-1.9-2.4-5.9h12.6c-2.3,4.1-2.3,4.1-2.3,6v40.7c0,1.9,0,1.9,2.3,5.9h-12.6
					C773.5,625.9,773.5,625.9,773.5,623.9z"/>
			</g>
			<g class="st0">
				<path class="st1" d="M773.5,623.9v-19.1H747v19.3c0,1.9,0,1.9,2.3,5.9h-12.5c2.3-4.1,2.3-4.1,2.3-6v-40.7c0-1.9,0-1.9-2.3-5.9
					h12.5c-2.3,4.1-2.3,4.1-2.3,6v16.5h26.5v-16.7c0-1.9,0-1.9-2.4-5.9h12.6c-2.3,4.1-2.3,4.1-2.3,6v40.7c0,1.9,0,1.9,2.3,5.9h-12.6
					C773.5,625.9,773.5,625.9,773.5,623.9z"/>
			</g>
			<g class="st0">
				<path d="M795.9,623.9v-40.7c0-1.9,0-1.9-2.3-5.9h34.8v9.2c-4.7-4.4-6.3-4.4-8.9-4.4h-15.7v17.7h12.8c2.4,0,3.7,0,7.6-2.9v10.5
					c-3.9-2.9-5.3-2.9-7.6-2.9h-12.8v20.6h14.4c2.9,0,4.7,0,11-5l-1.2,9.8h-34.4C795.9,625.9,795.9,625.9,795.9,623.9z"/>
			</g>
			<g class="st0">
				<path class="st1" d="M795.9,623.9v-40.7c0-1.9,0-1.9-2.3-5.9h34.8v9.2c-4.7-4.4-6.3-4.4-8.9-4.4h-15.7v17.7h12.8
					c2.4,0,3.7,0,7.6-2.9v10.5c-3.9-2.9-5.3-2.9-7.6-2.9h-12.8v20.6h14.4c2.9,0,4.7,0,11-5l-1.2,9.8h-34.4
					C795.9,625.9,795.9,625.9,795.9,623.9z"/>
			</g>
			<g class="st0">
				<path d="M839.7,623.9v-40.7c0-1.9,0-1.9-2.3-5.9h20.3c14.9,0,26.8,9.3,26.8,26.3s-11.9,26.3-26.8,26.3h-20.3
					C839.7,625.9,839.7,625.9,839.7,623.9z M856.2,625.3c10.6,0,19.9-7.1,19.9-21.6c0-14.6-9.3-21.6-19.9-21.6h-8.6v43.2H856.2z"/>
			</g>
			<g class="st0">
				<path class="st1" d="M839.7,623.9v-40.7c0-1.9,0-1.9-2.3-5.9h20.3c14.9,0,26.8,9.3,26.8,26.3s-11.9,26.3-26.8,26.3h-20.3
					C839.7,625.9,839.7,625.9,839.7,623.9z M856.2,625.3c10.6,0,19.9-7.1,19.9-21.6c0-14.6-9.3-21.6-19.9-21.6h-8.6v43.2H856.2z"/>
			</g>
			<g class="st0">
				<path d="M304.1,428c-16,5.7-30.1-0.7-35.6-16.2c-2.5-7.1-2.7-13.2-0.7-18.4l9.5-3.4c-5.1,6.5-6.3,13.2-3.7,20.5
					c3.9,10.9,13.5,15,25.2,10.8c12.9-4.6,18.2-15.5,14.1-27.2c-2.5-6.9-7.6-11.7-14.3-12.8c10.1-2.5,18,2.3,21.9,13.5
					C325.8,409.3,318.9,422.7,304.1,428z"/>
			</g>
			<g class="st0">
				<path class="st1" d="M304.1,428c-16,5.7-30.1-0.7-35.6-16.2c-2.5-7.1-2.7-13.2-0.7-18.4l9.5-3.4c-5.1,6.5-6.3,13.2-3.7,20.5
					c3.9,10.9,13.5,15,25.2,10.8c12.9-4.6,18.2-15.5,14.1-27.2c-2.5-6.9-7.6-11.7-14.3-12.8c10.1-2.5,18,2.3,21.9,13.5
					C325.8,409.3,318.9,422.7,304.1,428z"/>
			</g>
			<g class="st0">
				<path d="M286.1,377.2c-15.7-0.8-26.8-12.6-25.9-28.7c0.9-16.1,13.1-26.7,28.8-25.8c15.7,0.8,26.8,12.6,25.9,28.8
					C314,367.6,301.8,378.1,286.1,377.2z M309.9,351.2c0.6-10.6-6.9-19.2-21.3-20c-14.4-0.8-22.8,7-23.3,17.6
					c-0.6,10.6,6.9,19.2,21.3,20C300.9,369.6,309.3,361.8,309.9,351.2z"/>
			</g>
			<g class="st0">
				<path class="st1" d="M286.1,377.2c-15.7-0.8-26.8-12.6-25.9-28.7c0.9-16.1,13.1-26.7,28.8-25.8c15.7,0.8,26.8,12.6,25.9,28.8
					C314,367.6,301.8,378.1,286.1,377.2z M309.9,351.2c0.6-10.6-6.9-19.2-21.3-20c-14.4-0.8-22.8,7-23.3,17.6
					c-0.6,10.6,6.9,19.2,21.3,20C300.9,369.6,309.3,361.8,309.9,351.2z"/>
			</g>
			<g class="st0">
				<path d="M312.9,319.5l-37.4-16.1c-1.7-0.7-1.7-0.7-6.3-0.2l5-11.6c2.8,3.8,2.8,3.8,4.6,4.6l38.3,16.4l5.1-11.9
					c1.2-2.8,2-4.6-0.7-12.7l9.2,5.3L317.5,324C314.7,320.2,314.7,320.2,312.9,319.5z"/>
			</g>
			<g class="st0">
				<path class="st1" d="M312.9,319.5l-37.4-16.1c-1.7-0.7-1.7-0.7-6.3-0.2l5-11.6c2.8,3.8,2.8,3.8,4.6,4.6l38.3,16.4l5.1-11.9
					c1.2-2.8,2-4.6-0.7-12.7l9.2,5.3L317.5,324C314.7,320.2,314.7,320.2,312.9,319.5z"/>
			</g>
			<g class="st0">
				<path d="M309.3,276.4c-12.1-10.1-13.8-26.1-3.5-38.5s26.5-13.4,38.6-3.3s13.8,26.2,3.4,38.5
					C337.4,285.5,321.4,286.5,309.3,276.4z M344,269.9c6.9-8.2,6-19.5-5-28.8s-22.4-8.1-29.2,0c-6.8,8.1-6,19.5,5,28.8
					C325.8,279.2,337.2,278,344,269.9z"/>
			</g>
			<g class="st0">
				<path class="st1" d="M309.3,276.4c-12.1-10.1-13.8-26.1-3.5-38.5s26.5-13.4,38.6-3.3s13.8,26.2,3.4,38.5
					C337.4,285.5,321.4,286.5,309.3,276.4z M344,269.9c6.9-8.2,6-19.5-5-28.8s-22.4-8.1-29.2,0c-6.8,8.1-6,19.5,5,28.8
					C325.8,279.2,337.2,278,344,269.9z"/>
			</g>
			<g class="st0">
				<path d="M365,243.9l-22.7-33.7c-1-1.6-1-1.6-5.2-3.6l8-5.4l31.5,13.3l-0.6-34.2l7.7-5.2c0.3,4.7,0.3,4.7,1.4,6.3l22.7,33.7
					c1,1.6,1,1.6,5.2,3.6l-11.1,7.5c0.4-5.3,0.4-5.3-0.7-7L381,189.3l0.9,35.8L349.2,211l20.3,30.1c1.1,1.6,1.1,1.6,5.7,3.3
					l-8.7,5.9C366.1,245.6,366.1,245.6,365,243.9z"/>
			</g>
			<g class="st0">
				<path class="st1" d="M365,243.9l-22.7-33.7c-1-1.6-1-1.6-5.2-3.6l8-5.4l31.5,13.3l-0.6-34.2l7.7-5.2c0.3,4.7,0.3,4.7,1.4,6.3
					l22.7,33.7c1,1.6,1,1.6,5.2,3.6l-11.1,7.5c0.4-5.3,0.4-5.3-0.7-7L381,189.3l0.9,35.8L349.2,211l20.3,30.1
					c1.1,1.6,1.1,1.6,5.7,3.3l-8.7,5.9C366.1,245.6,366.1,245.6,365,243.9z"/>
			</g>
			<g class="st0">
				<path d="M418.3,210.7l-15.9-37.5c-0.7-1.7-0.7-1.7-4.4-4.5l19.1-8.1c9.4-4,16.5-1.6,19.5,5.4c2.3,5.4,0.7,11.8-5.6,15.3
					c7.5-2.4,14.4,0.3,17.3,7.1c3.5,8.3-0.2,16.1-10.9,20.7l-18.9,8C419.1,212.4,419.1,212.4,418.3,210.7z M424.2,182.1
					c5.7-2.4,7.4-6.9,5.1-12.1c-2.2-5.2-6.5-7.1-12.2-4.7l-8.1,3.4l7.1,16.8L424.2,182.1z M434.7,205.4c6.3-2.7,8.7-7.8,6-14.1
					c-2.7-6.4-8.1-8.2-14.5-5.5l-8.4,3.5l8.3,19.6L434.7,205.4z"/>
			</g>
			<g class="st0">
				<path class="st1" d="M418.3,210.7l-15.9-37.5c-0.7-1.7-0.7-1.7-4.4-4.5l19.1-8.1c9.4-4,16.5-1.6,19.5,5.4
					c2.3,5.4,0.7,11.8-5.6,15.3c7.5-2.4,14.4,0.3,17.3,7.1c3.5,8.3-0.2,16.1-10.9,20.7l-18.9,8C419.1,212.4,419.1,212.4,418.3,210.7
					z M424.2,182.1c5.7-2.4,7.4-6.9,5.1-12.1c-2.2-5.2-6.5-7.1-12.2-4.7l-8.1,3.4l7.1,16.8L424.2,182.1z M434.7,205.4
					c6.3-2.7,8.7-7.8,6-14.1c-2.7-6.4-8.1-8.2-14.5-5.5l-8.4,3.5l8.3,19.6L434.7,205.4z"/>
			</g>
			<g class="st0">
				<path d="M460.7,194.1l-12-38.9c-0.6-1.8-0.6-1.8-3.9-4.9l12-3.7c-1,4.6-1,4.6-0.5,6.4l12,38.9c0.6,1.8,0.6,1.8,3.9,4.9l-12,3.7
					C461.3,195.9,461.3,195.9,460.7,194.1z"/>
			</g>
			<g class="st0">
				<path class="st1" d="M460.7,194.1l-12-38.9c-0.6-1.8-0.6-1.8-3.9-4.9l12-3.7c-1,4.6-1,4.6-0.5,6.4l12,38.9
					c0.6,1.8,0.6,1.8,3.9,4.9l-12,3.7C461.3,195.9,461.3,195.9,460.7,194.1z"/>
			</g>
			<g class="st0">
				<path d="M478.5,186.5l9.5-47.8l5.1-1l27.2,40.8c2.3,3.3,2.3,3.3,5.1,6.6l-13.1,2.6c1.5-4.7,1.5-4.7,0-7.2l-5-7.8l-21.5,4.3
					l-1.6,9.1c-0.6,3.3-0.6,3.3,2.6,6.7l-10.2,2C477.7,190.4,477.7,190.4,478.5,186.5z M504.4,168.5L491,147.7l-4.4,24.4
					L504.4,168.5z"/>
			</g>
			<g class="st0">
				<path class="st1" d="M478.5,186.5l9.5-47.8l5.1-1l27.2,40.8c2.3,3.3,2.3,3.3,5.1,6.6l-13.1,2.6c1.5-4.7,1.5-4.7,0-7.2l-5-7.8
					l-21.5,4.3l-1.6,9.1c-0.6,3.3-0.6,3.3,2.6,6.7l-10.2,2C477.7,190.4,477.7,190.4,478.5,186.5z M504.4,168.5L491,147.7l-4.4,24.4
					L504.4,168.5z"/>
			</g>
			<g class="st0">
				<path d="M551.2,177.2l-0.9-40.7c0-1.9,0-1.9-2.5-5.8l34.8-0.8l0.2,9.2c-4.8-4.3-6.4-4.3-9-4.2l-15.7,0.4l0.4,17.7l12.8-0.3
					c2.4-0.1,3.7-0.1,7.5-3.1l0.2,10.5c-4-2.8-5.3-2.7-7.6-2.7l-12.8,0.3l0.5,20.6l14.4-0.3c2.9-0.1,4.7-0.1,10.8-5.3l-1,9.8
					l-34.4,0.8C551.3,179.2,551.3,179.2,551.2,177.2z"/>
			</g>
			<g class="st0">
				<path class="st1" d="M551.2,177.2l-0.9-40.7c0-1.9,0-1.9-2.5-5.8l34.8-0.8l0.2,9.2c-4.8-4.3-6.4-4.3-9-4.2l-15.7,0.4l0.4,17.7
					l12.8-0.3c2.4-0.1,3.7-0.1,7.5-3.1l0.2,10.5c-4-2.8-5.3-2.7-7.6-2.7l-12.8,0.3l0.5,20.6l14.4-0.3c2.9-0.1,4.7-0.1,10.8-5.3
					l-1,9.8l-34.4,0.8C551.3,179.2,551.3,179.2,551.2,177.2z"/>
			</g>
			<g class="st0">
				<path d="M593.3,177l3.2-40.6c0.1-1.9,0.1-1.9-1.9-6l12.6,1c-2.7,3.8-2.7,3.8-2.9,5.8l-3.3,41.5l12.9,1c3.1,0.2,4.9,0.4,11.8-4.7
					l-2,10.4l-33.2-2.7C593.1,178.9,593.1,178.9,593.3,177z"/>
			</g>
			<g class="st0">
				<path class="st1" d="M593.3,177l3.2-40.6c0.1-1.9,0.1-1.9-1.9-6l12.6,1c-2.7,3.8-2.7,3.8-2.9,5.8l-3.3,41.5l12.9,1
					c3.1,0.2,4.9,0.4,11.8-4.7l-2,10.4l-33.2-2.7C593.1,178.9,593.1,178.9,593.3,177z"/>
			</g>
			<g class="st0">
				<path d="M653.2,184.3l10-39.5c0.5-1.8,0.5-1.8-0.8-6.2l20.2,5.1c10.6,2.7,15.6,10.1,13.5,18.3c-2.1,8.2-10,12.4-20.6,9.8
					l-10.3-2.6l-4.3,17.2c-0.5,1.8-0.5,1.8,1.3,6.4l-12.6-3.2C652.7,186.2,652.7,186.2,653.2,184.3z M674.8,167.1
					c7.1,1.8,11.7-1.4,13.2-7.1c1.4-5.7-1.1-10.7-8.2-12.5l-8.6-2.2l-4.9,19.5L674.8,167.1z"/>
			</g>
			<g class="st0">
				<path class="st1" d="M653.2,184.3l10-39.5c0.5-1.8,0.5-1.8-0.8-6.2l20.2,5.1c10.6,2.7,15.6,10.1,13.5,18.3
					c-2.1,8.2-10,12.4-20.6,9.8l-10.3-2.6l-4.3,17.2c-0.5,1.8-0.5,1.8,1.3,6.4l-12.6-3.2C652.7,186.2,652.7,186.2,653.2,184.3z
					 M674.8,167.1c7.1,1.8,11.7-1.4,13.2-7.1c1.4-5.7-1.1-10.7-8.2-12.5l-8.6-2.2l-4.9,19.5L674.8,167.1z"/>
			</g>
			<g class="st0">
				<path d="M699.6,175.1c6.2-14.5,21-20.9,35.8-14.5s20.6,21.4,14.4,35.9c-6.2,14.5-21,20.8-35.9,14.5
					C699.1,204.6,693.5,189.6,699.6,175.1z M716,206.3c9.8,4.2,20.5,0.1,26.1-13.2s1.2-23.8-8.6-28c-9.7-4.1-20.5-0.1-26.1,13.2
					C701.7,191.6,706.2,202.2,716,206.3z"/>
			</g>
			<g class="st0">
				<path class="st1" d="M699.6,175.1c6.2-14.5,21-20.9,35.8-14.5s20.6,21.4,14.4,35.9c-6.2,14.5-21,20.8-35.9,14.5
					C699.1,204.6,693.5,189.6,699.6,175.1z M716,206.3c9.8,4.2,20.5,0.1,26.1-13.2s1.2-23.8-8.6-28c-9.7-4.1-20.5-0.1-26.1,13.2
					C701.7,191.6,706.2,202.2,716,206.3z"/>
			</g>
			<g class="st0">
				<path d="M748.2,219.3l22.7-33.8c1-1.6,1-1.6,1.3-6.2l17.1,11.5c9.2,6.2,11.6,14.7,6.9,21.6c-4,6-10.9,7.3-18.6,3.7l1.6,22.9
					c0.3,4.7,0.3,4.7,1.4,9.4l-8.8-5.9l-1.9-31.1l-4.8-3.2l-10.4,15.5c-1.1,1.6-1.1,1.6-0.7,6.7l-11.1-7.5
					C747.1,220.9,747.1,220.9,748.2,219.3z M774.8,209.8c5.9,4,11.1,3.2,14.6-1.9c3.4-5.1,2.2-10.2-3.8-14.2l-7.3-4.9l-10.8,16.1
					L774.8,209.8z"/>
			</g>
			<g class="st0">
				<path class="st1" d="M748.2,219.3l22.7-33.8c1-1.6,1-1.6,1.3-6.2l17.1,11.5c9.2,6.2,11.6,14.7,6.9,21.6c-4,6-10.9,7.3-18.6,3.7
					l1.6,22.9c0.3,4.7,0.3,4.7,1.4,9.4l-8.8-5.9l-1.9-31.1l-4.8-3.2l-10.4,15.5c-1.1,1.6-1.1,1.6-0.7,6.7l-11.1-7.5
					C747.1,220.9,747.1,220.9,748.2,219.3z M774.8,209.8c5.9,4,11.1,3.2,14.6-1.9c3.4-5.1,2.2-10.2-3.8-14.2l-7.3-4.9l-10.8,16.1
					L774.8,209.8z"/>
			</g>
			<g class="st0">
				<path d="M813.1,207.2l9.4,9.5c-4.6,1.2-4.6,1.2-5.8,3.9l-15,34.2l34.4-14.6c2.9-1.2,2.9-1.2,4.1-5.6l7.5,7.6c-4.5,1-4.5,1-9,2.8
					L794,263.4l-2.9-2.9l19.1-44.8C812,211.6,812,211.6,813.1,207.2z"/>
			</g>
			<g class="st0">
				<path class="st1" d="M813.1,207.2l9.4,9.5c-4.6,1.2-4.6,1.2-5.8,3.9l-15,34.2l34.4-14.6c2.9-1.2,2.9-1.2,4.1-5.6l7.5,7.6
					c-4.5,1-4.5,1-9,2.8L794,263.4l-2.9-2.9l19.1-44.8C812,211.6,812,211.6,813.1,207.2z"/>
			</g>
			<g class="st0">
				<path d="M816.6,279.3l35.2-20.4c1.6-0.9,1.6-0.9,3.9-5l17.5,30.1l-7.9,4.6c1.5-6.3,0.7-7.7-0.7-10l-7.9-13.6l-15.3,8.9l6.4,11.1
					c1.2,2.1,1.8,3.2,6.3,5.1l-9.1,5.3c0.5-4.8-0.2-6-1.3-8l-6.4-11.1l-17.9,10.4l7.2,12.5c1.5,2.5,2.3,4,9.9,7l-9,3.9l-17.3-29.7
					C814.9,280.3,814.9,280.3,816.6,279.3z"/>
			</g>
			<g class="st0">
				<path class="st1" d="M816.6,279.3l35.2-20.4c1.6-0.9,1.6-0.9,3.9-5l17.5,30.1l-7.9,4.6c1.5-6.3,0.7-7.7-0.7-10l-7.9-13.6
					l-15.3,8.9l6.4,11.1c1.2,2.1,1.8,3.2,6.3,5.1l-9.1,5.3c0.5-4.8-0.2-6-1.3-8l-6.4-11.1l-17.9,10.4l7.2,12.5c1.5,2.5,2.3,4,9.9,7
					l-9,3.9l-17.3-29.7C814.9,280.3,814.9,280.3,816.6,279.3z"/>
			</g>
			<g class="st0">
				<path d="M835.7,312.6l43.4-8.5l1.9-2.5l1.8,9.2l-32,37.4l32.1-6.3c1.9-0.4,1.9-0.4,5.2-4.2l2.1,10.6c-4.4-1.6-4.4-1.6-6.4-1.2
					l-46.2,9.1l-0.7-3.7l35-41.5l-35.2,6.9c-1.9,0.4-1.9,0.4-5.2,4.2l-2.1-10.7C833.8,312.9,833.8,312.9,835.7,312.6z"/>
			</g>
			<g class="st0">
				<path class="st1" d="M835.7,312.6l43.4-8.5l1.9-2.5l1.8,9.2l-32,37.4l32.1-6.3c1.9-0.4,1.9-0.4,5.2-4.2l2.1,10.6
					c-4.4-1.6-4.4-1.6-6.4-1.2l-46.2,9.1l-0.7-3.7l35-41.5l-35.2,6.9c-1.9,0.4-1.9,0.4-5.2,4.2l-2.1-10.7
					C833.8,312.9,833.8,312.9,835.7,312.6z"/>
			</g>
			<g class="st0">
				<path d="M842.1,364.5l40.5,3.5c1.9,0.2,1.9,0.2,6-1.8l-1.1,12.5c-3.8-2.7-3.8-2.7-5.8-2.8l-40.5-3.5c-1.9-0.2-1.9-0.2-6,1.8
					l1.1-12.5C840.2,364.3,840.2,364.3,842.1,364.5z"/>
			</g>
			<g class="st0">
				<path class="st1" d="M842.1,364.5l40.5,3.5c1.9,0.2,1.9,0.2,6-1.8l-1.1,12.5c-3.8-2.7-3.8-2.7-5.8-2.8l-40.5-3.5
					c-1.9-0.2-1.9-0.2-6,1.8l1.1-12.5C840.2,364.3,840.2,364.3,842.1,364.5z"/>
			</g>
			<g class="st0">
				<path d="M840.8,383.4l38.3,13.7c1.8,0.6,1.8,0.6,6.3-0.2l-6.9,19.4c-3.7,10.5-11.4,14.8-19.2,12c-6.8-2.4-9.8-8.8-8.1-17.1
					l-21.8,7.2c-4.5,1.5-4.5,1.5-8.7,3.7l3.6-10l29.6-9.5l1.9-5.4l-17.6-6.3c-1.8-0.7-1.8-0.7-6.7,0.9l4.5-12.6
					C839,382.8,839,382.8,840.8,383.4z M856.6,406.9c-2.4,6.7-0.4,11.6,5.4,13.7s10.4-0.4,12.8-7.1l3-8.3l-18.2-6.5L856.6,406.9z"/>
			</g>
			<g class="st0">
				<path class="st1" d="M840.8,383.4l38.3,13.7c1.8,0.6,1.8,0.6,6.3-0.2l-6.9,19.4c-3.7,10.5-11.4,14.8-19.2,12
					c-6.8-2.4-9.8-8.8-8.1-17.1l-21.8,7.2c-4.5,1.5-4.5,1.5-8.7,3.7l3.6-10l29.6-9.5l1.9-5.4l-17.6-6.3c-1.8-0.7-1.8-0.7-6.7,0.9
					l4.5-12.6C839,382.8,839,382.8,840.8,383.4z M856.6,406.9c-2.4,6.7-0.4,11.6,5.4,13.7s10.4-0.4,12.8-7.1l3-8.3l-18.2-6.5
					L856.6,406.9z"/>
			</g>
		</g>
		<rect y="0" class="st2" width="1155.9" height="756.5"/>
	</g>
</g>
</svg>
