<?xml version="1.0" encoding="UTF-8"?>
<svg id="_레이어_2" data-name="레이어 2" xmlns="http://www.w3.org/2000/svg" viewBox="0 0 1155.92 756.55">
  <defs>
    <style>
      .cls-1 {
        fill: none;
      }

      .cls-2 {
        letter-spacing: -.01em;
      }

      .cls-3 {
        letter-spacing: -.07em;
      }

      .cls-4 {
        letter-spacing: -.01em;
      }

      .cls-5 {
        letter-spacing: 0em;
      }

      .cls-6 {
        letter-spacing: 0em;
      }

      .cls-7 {
        letter-spacing: .01em;
      }

      .cls-8 {
        letter-spacing: 0em;
      }

      .cls-9 {
        letter-spacing: 0em;
      }

      .cls-10 {
        font-family: GTUltraMedian-Regular, 'GT Ultra Median';
        font-size: 75.07px;
        stroke: #000;
        stroke-miterlimit: 10;
        stroke-width: .26px;
      }

      .cls-11 {
        letter-spacing: 0em;
      }
    </style>
  </defs>
  <g id="_레이어_1-2" data-name="레이어 1">
    <g>
      <g>
        <text class="cls-10" transform="translate(267.51 629.94)"><tspan class="cls-8" x="0" y="0">G</tspan><tspan class="cls-11" x="56.65" y="0">E</tspan><tspan class="cls-4" x="100.44" y="0">I</tspan><tspan class="cls-9" x="123.03" y="0">S</tspan><tspan class="cls-6" x="166.21" y="0">H</tspan><tspan class="cls-7" x="224.27" y="0">A </tspan><tspan class="cls-3" x="297.61" y="0">W</tspan><tspan class="cls-5" x="368.84" y="0">A</tspan><tspan class="cls-9" x="420.64" y="0">S</tspan><tspan class="cls-2" x="463.82" y="0">H</tspan><tspan class="cls-11" x="520.58" y="0">E</tspan><tspan class="cls-7" x="564.37" y="0">D</tspan></text>
        <text class="cls-10" transform="translate(329.52 423.04) rotate(-109.63)"><tspan x="0" y="0">C</tspan></text>
        <text class="cls-10" transform="translate(312.1 382.54) rotate(-86.93)"><tspan x="0" y="0">O</tspan></text>
        <text class="cls-10" transform="translate(315.37 329.01) rotate(-66.75)"><tspan x="0" y="0">L</tspan></text>
        <text class="cls-10" transform="translate(326.93 296.27) rotate(-49.98)"><tspan x="0" y="0">O</tspan></text>
        <text class="cls-10" transform="translate(361.91 253.29) rotate(-33.99)"><tspan x="0" y="0">M</tspan></text>
        <text class="cls-10" transform="translate(413.47 219.23) rotate(-22.99)"><tspan x="0" y="0">B</tspan></text>
        <text class="cls-10" transform="translate(455.04 202.12) rotate(-17.12)"><tspan x="0" y="0">I</tspan></text>
        <text class="cls-10" transform="translate(475.14 195.06) rotate(-11.24)"><tspan x="0" y="0">A</tspan></text>
        <text class="cls-10" transform="translate(525.6 185.79) rotate(-5.9)"><tspan x="0" y="0"> </tspan></text>
        <text class="cls-10" transform="translate(543.55 183.4) rotate(-1.33)"><tspan x="0" y="0">E</tspan></text>
        <text class="cls-10" transform="translate(585 182.33) rotate(4.57)"><tspan x="0" y="0">L</tspan></text>
        <text class="cls-10" transform="translate(626.35 186.07) rotate(9.1)"><tspan x="0" y="0"> </tspan></text>
        <text class="cls-10" transform="translate(644.14 188.25) rotate(14.16)"><tspan x="0" y="0">P</tspan></text>
        <text class="cls-10" transform="translate(685.76 197.72) rotate(23.05)"><tspan x="0" y="0">O</tspan></text>
        <text class="cls-10" transform="translate(738.4 219.93) rotate(33.93)"><tspan x="0" y="0">R</tspan></text>
        <text class="cls-10" transform="translate(775.51 243.88) rotate(45.36)"><tspan x="0" y="0">V</tspan></text>
        <text class="cls-10" transform="translate(807.51 275.57) rotate(59.87)"><tspan x="0" y="0">E</tspan></text>
        <text class="cls-10" transform="translate(828.41 306.5) rotate(78.86)"><tspan x="0" y="0">N</tspan></text>
        <text class="cls-10" transform="translate(836.81 356.22) rotate(94.91)"><tspan x="0" y="0">I</tspan></text>
        <text class="cls-10" transform="translate(837.82 374.07) rotate(109.7)"><tspan x="0" y="0">R</tspan></text>
      </g>
      <rect class="cls-1" width="1155.92" height="756.55"/>
    </g>
  </g>
</svg>