<?xml version="1.0" encoding="utf-8"?>
<!-- Generator: Adobe Illustrator 28.0.0, SVG Export Plug-In . SVG Version: 6.00 Build 0)  -->
<svg version="1.1" id="_레이어_2" xmlns="http://www.w3.org/2000/svg" xmlns:xlink="http://www.w3.org/1999/xlink" x="0px"
	 y="0px" viewBox="0 0 1000 750" style="enable-background:new 0 0 1000 750;" xml:space="preserve">
<style type="text/css">
	.st0{clip-path:url(#SVGID_00000075128060693016737430000003438018062113823392_);}
	.st1{fill:#87B4E3;}
	.st2{enable-background:new    ;}
	.st3{fill:none;stroke:#000000;stroke-width:0.26;stroke-miterlimit:10;}
</style>
<g id="_레이어_1-2">
	<g>
		<defs>
			<rect id="SVGID_1_" width="1000" height="750"/>
		</defs>
		<clipPath id="SVGID_00000165952616820213826040000016178735762695398079_">
			<use xlink:href="#SVGID_1_"  style="overflow:visible;"/>
		</clipPath>
		<g style="clip-path:url(#SVGID_00000165952616820213826040000016178735762695398079_);">
			<path class="st1" d="M434.4-937.4h131.1c19.9,0,36,16.1,36,36V530.8c0,19.9-16.1,36-36,36H434.4c-19.9,0-36-16.1-36-36V-901.4
				C398.4-921.3,414.5-937.4,434.4-937.4z"/>
			<g id="_카ᄑ_성지.tif">
				
					<image style="overflow:visible;enable-background:new    ;" width="1176" height="1180" id="_카ᄑ_성지" xlink:href="B5CF6E29FC99703A.png"  transform="matrix(0.1401 0 0 0.1401 418.0703 357.53)">
				</image>
			</g>
			<g class="st2">
				<path d="M239.2,560.5l10.8,7.5c-4.5,2-4.5,2-5.4,4.7l-10.7,33.6l35.4-25.4l3.6,2.5l-11.7,42l28-21.7c2.5-2,2.5-2,2.5-6.7l8.6,6
					c-4.1,2.1-4.1,2.1-7.4,4.6l-38.1,28.4l-3.2-2.2l11.6-42.6L227,616.7l-3.3-2.3l13.9-46.1C238.7,564.7,238.7,564.7,239.2,560.5z"
					/>
			</g>
			<g class="st2">
				<path class="st3" d="M239.2,560.5l10.8,7.5c-4.5,2-4.5,2-5.4,4.7l-10.7,33.6l35.4-25.4l3.6,2.5l-11.7,42l28-21.7
					c2.5-2,2.5-2,2.5-6.7l8.6,6c-4.1,2.1-4.1,2.1-7.4,4.6l-38.1,28.4l-3.2-2.2l11.6-42.6L227,616.7l-3.3-2.3l13.9-46.1
					C238.7,564.7,238.7,564.7,239.2,560.5z"/>
			</g>
			<g class="st2">
				<path d="M287.6,646.6l18.1-36.4c0.8-1.7,0.8-1.7,0.5-6.3l11.2,5.6c-3.9,2.6-3.9,2.6-4.8,4.3l-18.1,36.4
					c-0.8,1.7-0.8,1.7-0.5,6.3l-11.2-5.6C286.8,648.3,286.8,648.3,287.6,646.6z"/>
			</g>
			<g class="st2">
				<path class="st3" d="M287.6,646.6l18.1-36.4c0.8-1.7,0.8-1.7,0.5-6.3l11.2,5.6c-3.9,2.6-3.9,2.6-4.8,4.3l-18.1,36.4
					c-0.8,1.7-0.8,1.7-0.5,6.3l-11.2-5.6C286.8,648.3,286.8,648.3,287.6,646.6z"/>
			</g>
			<g class="st2">
				<path d="M310.8,658l15.5-41.4l-1.2-2.9l8.8,3.3l15,46.9l11.5-30.7c0.7-1.8,0.7-1.8-0.8-6.6l10.1,3.8c-3.7,3-3.7,3-4.4,4.8
					l-16.5,44.1l-3.5-1.3l-17-51.5L315.8,660c-0.7,1.8-0.7,1.8,0.9,6.7l-10.2-3.8C310.1,659.8,310.1,659.8,310.8,658z"/>
			</g>
			<g class="st2">
				<path class="st3" d="M310.8,658l15.5-41.4l-1.2-2.9l8.8,3.3l15,46.9l11.5-30.7c0.7-1.8,0.7-1.8-0.8-6.6l10.1,3.8
					c-3.7,3-3.7,3-4.4,4.8l-16.5,44.1l-3.5-1.3l-17-51.5L315.8,660c-0.7,1.8-0.7,1.8,0.9,6.7l-10.2-3.8
					C310.1,659.8,310.1,659.8,310.8,658z"/>
			</g>
			<g class="st2">
				<path d="M369.1,678.1l9.6-39.5c0.4-1.8,0.4-1.8-0.9-6.2l33.9,8.2l-2.2,8.9c-3.6-5.4-5.1-5.8-7.6-6.4l-15.2-3.7l-4.2,17.2l12.5,3
					c2.3,0.6,3.6,0.9,8.1-1.1l-2.5,10.2c-3.1-3.7-4.4-4-6.7-4.6l-12.5-3l-4.9,20.1l14,3.4c2.8,0.7,4.5,1.1,11.8-2.3l-3.5,9.2
					l-33.4-8.1C368.6,680,368.6,680,369.1,678.1z"/>
			</g>
			<g class="st2">
				<path class="st3" d="M369.1,678.1l9.6-39.5c0.4-1.8,0.4-1.8-0.9-6.2l33.9,8.2l-2.2,8.9c-3.6-5.4-5.1-5.8-7.6-6.4l-15.2-3.7
					l-4.2,17.2l12.5,3c2.3,0.6,3.6,0.9,8.1-1.1l-2.5,10.2c-3.1-3.7-4.4-4-6.7-4.6l-12.5-3l-4.9,20.1l14,3.4
					c2.8,0.7,4.5,1.1,11.8-2.3l-3.5,9.2l-33.4-8.1C368.6,680,368.6,680,369.1,678.1z"/>
			</g>
			<g class="st2">
				<path d="M438.4,691.9l3.5-44.1l-1.9-2.5l9.4,0.7l27.4,40.9l2.6-32.6c0.2-1.9,0.2-1.9-2.6-6.2l10.8,0.8c-2.7,3.9-2.7,3.9-2.9,5.8
					l-3.7,46.9l-3.7-0.3l-30.5-44.9l-2.8,35.8c-0.2,1.9-0.2,1.9,2.7,6.2l-10.9-0.9C438.3,693.9,438.3,693.9,438.4,691.9z"/>
			</g>
			<g class="st2">
				<path class="st3" d="M438.4,691.9l3.5-44.1l-1.9-2.5l9.4,0.7l27.4,40.9l2.6-32.6c0.2-1.9,0.2-1.9-2.6-6.2l10.8,0.8
					c-2.7,3.9-2.7,3.9-2.9,5.8l-3.7,46.9l-3.7-0.3l-30.5-44.9l-2.8,35.8c-0.2,1.9-0.2,1.9,2.7,6.2l-10.9-0.9
					C438.3,693.9,438.3,693.9,438.4,691.9z"/>
			</g>
			<g class="st2">
				<path d="M496.9,693.9l17-45.7l5.2-0.2l20.3,44.6c1.7,3.6,1.7,3.6,3.9,7.4l-13.4,0.5c2.2-4.4,2.2-4.4,1.1-7.1l-3.7-8.5l-21.9,0.8
					l-3.1,8.7c-1.1,3.2-1.1,3.2,1.4,7l-10.4,0.4C495.5,697.6,495.5,697.6,496.9,693.9z M525.4,680.3l-9.9-22.7l-8.3,23.4
					L525.4,680.3z"/>
			</g>
			<g class="st2">
				<path class="st3" d="M496.9,693.9l17-45.7l5.2-0.2l20.3,44.6c1.7,3.6,1.7,3.6,3.9,7.4l-13.4,0.5c2.2-4.4,2.2-4.4,1.1-7.1
					l-3.7-8.5l-21.9,0.8l-3.1,8.7c-1.1,3.2-1.1,3.2,1.4,7l-10.4,0.4C495.5,697.6,495.5,697.6,496.9,693.9z M525.4,680.3l-9.9-22.7
					l-8.3,23.4L525.4,680.3z"/>
			</g>
			<g class="st2">
				<path d="M538,647.6l42-5.4l1.3,10.1c-5.2-4.6-6.7-4.4-9.4-4.1l-8.4,1.1l5.3,41.5c0.2,1.9,0.2,1.9,3.6,5.4l-13.7,1.8
					c2.6-4.6,2.6-4.6,2.3-6.5l-5.3-41.2l-8.5,1.1c-2.6,0.3-4.2,0.5-8,6.3L538,647.6z"/>
			</g>
			<g class="st2">
				<path class="st3" d="M538,647.6l42-5.4l1.3,10.1c-5.2-4.6-6.7-4.4-9.4-4.1l-8.4,1.1l5.3,41.5c0.2,1.9,0.2,1.9,3.6,5.4l-13.7,1.8
					c2.6-4.6,2.6-4.6,2.3-6.5l-5.3-41.2l-8.5,1.1c-2.6,0.3-4.2,0.5-8,6.3L538,647.6z"/>
			</g>
			<g class="st2">
				<path d="M595.6,672.4l-6.4-25.9c-0.4-1.8-0.4-1.8-3.7-5.1l12.6-3.1c-1.7,4.7-1.7,4.7-1.2,6.6l6.5,26.2
					c2.2,9.1,8.9,13.4,17.4,11.3c8.2-2,12-8.9,9.7-18l-6.5-26.3c-0.5-1.9-0.5-1.9-4.2-5.1l10.3-2.6c-1.3,4.6-1.3,4.6-0.8,6.5
					l6.3,25.6c3.3,13.3-2.2,22.4-14.8,25.5C608.1,691,598.9,685.6,595.6,672.4z"/>
			</g>
			<g class="st2">
				<path class="st3" d="M595.6,672.4l-6.4-25.9c-0.4-1.8-0.4-1.8-3.7-5.1l12.6-3.1c-1.7,4.7-1.7,4.7-1.2,6.6l6.5,26.2
					c2.2,9.1,8.9,13.4,17.4,11.3c8.2-2,12-8.9,9.7-18l-6.5-26.3c-0.5-1.9-0.5-1.9-4.2-5.1l10.3-2.6c-1.3,4.6-1.3,4.6-0.8,6.5
					l6.3,25.6c3.3,13.3-2.2,22.4-14.8,25.5C608.1,691,598.9,685.6,595.6,672.4z"/>
			</g>
			<g class="st2">
				<path d="M656.3,670.5l-14.6-38c-0.7-1.8-0.7-1.8-4.3-4.6l19.2-7.4c10.4-4,18.7-1.1,21.6,6.7c2.6,6.7-0.3,13.1-7.6,17.3
					l19.7,11.8c4.1,2.4,4.1,2.4,8.5,4.2l-9.9,3.8l-26.5-16.2l-5.4,2.1l6.7,17.4c0.7,1.8,0.7,1.8,5.1,4.5l-12.5,4.8
					C657,672.3,657,672.3,656.3,670.5z M663.8,643.2c6.7-2.6,9-7.3,6.8-13c-2.2-5.7-7.1-7.6-13.8-5.1l-8.3,3.2l7,18.1L663.8,643.2z"
					/>
			</g>
			<g class="st2">
				<path class="st3" d="M656.3,670.5l-14.6-38c-0.7-1.8-0.7-1.8-4.3-4.6l19.2-7.4c10.4-4,18.7-1.1,21.6,6.7
					c2.6,6.7-0.3,13.1-7.6,17.3l19.7,11.8c4.1,2.4,4.1,2.4,8.5,4.2l-9.9,3.8l-26.5-16.2l-5.4,2.1l6.7,17.4c0.7,1.8,0.7,1.8,5.1,4.5
					l-12.5,4.8C657,672.3,657,672.3,656.3,670.5z M663.8,643.2c6.7-2.6,9-7.3,6.8-13c-2.2-5.7-7.1-7.6-13.8-5.1l-8.3,3.2l7,18.1
					L663.8,643.2z"/>
			</g>
			<g class="st2">
				<path d="M708.3,647.3l-6-48.4l4.5-2.5l38.6,30.2c3.2,2.4,3.2,2.4,6.9,4.7l-11.6,6.6c0-4.9,0-4.9-2.3-6.8l-7.2-5.9L712.1,636
					l1.3,9.2c0.5,3.3,0.5,3.3,4.5,5.6l-9.1,5.1C708.8,651.3,708.8,651.3,708.3,647.3z M727.2,622.1L708,606.5l3.4,24.5L727.2,622.1z
					"/>
			</g>
			<g class="st2">
				<path class="st3" d="M708.3,647.3l-6-48.4l4.5-2.5l38.6,30.2c3.2,2.4,3.2,2.4,6.9,4.7l-11.6,6.6c0-4.9,0-4.9-2.3-6.8l-7.2-5.9
					L712.1,636l1.3,9.2c0.5,3.3,0.5,3.3,4.5,5.6l-9.1,5.1C708.8,651.3,708.8,651.3,708.3,647.3z M727.2,622.1L708,606.5l3.4,24.5
					L727.2,622.1z"/>
			</g>
			<g class="st2">
				<path d="M761,617.4l-25-32.1c-1.2-1.5-1.2-1.5-5.4-3.2l10-7.7c0.6,4.7,0.6,4.7,1.8,6.2l25.6,32.9l10.2-7.9
					c2.4-1.9,3.9-3,5.6-11.4l5.5,9l-26.3,20.5C762.2,618.9,762.2,618.9,761,617.4z"/>
			</g>
			<g class="st2">
				<path class="st3" d="M761,617.4l-25-32.1c-1.2-1.5-1.2-1.5-5.4-3.2l10-7.7c0.6,4.7,0.6,4.7,1.8,6.2l25.6,32.9l10.2-7.9
					c2.4-1.9,3.9-3,5.6-11.4l5.5,9l-26.3,20.5C762.2,618.9,762.2,618.9,761,617.4z"/>
			</g>
			<g class="st2">
				<path d="M331.4,177.3v-40.6c0-1.9,0-1.9-2.3-5.8h34.8v9.1c-4.7-4.4-6.3-4.4-8.9-4.4h-15.7v17.7h12.8c2.4,0,3.7,0,7.6-2.9v10.5
					c-3.9-2.8-5.2-2.8-7.6-2.8h-12.8v20.6h14.4c2.9,0,4.6,0,10.9-5l-1.2,9.8h-34.3C331.4,179.3,331.4,179.3,331.4,177.3z"/>
			</g>
			<g class="st2">
				<path class="st3" d="M331.4,177.3v-40.6c0-1.9,0-1.9-2.3-5.8h34.8v9.1c-4.7-4.4-6.3-4.4-8.9-4.4h-15.7v17.7h12.8
					c2.4,0,3.7,0,7.6-2.9v10.5c-3.9-2.8-5.2-2.8-7.6-2.8h-12.8v20.6h14.4c2.9,0,4.6,0,10.9-5l-1.2,9.8h-34.3
					C331.4,179.3,331.4,179.3,331.4,177.3z"/>
			</g>
			<g class="st2">
				<path d="M370.3,130.8h42.3V141c-4.6-5.2-6.1-5.2-8.8-5.2h-8.5v41.8c0,1.9,0,1.9,2.9,5.8h-13.8c3.1-4.2,3.1-4.2,3.1-6.1v-41.5
					H379c-2.6,0-4.2,0-8.7,5.2V130.8z"/>
			</g>
			<g class="st2">
				<path class="st3" d="M370.3,130.8h42.3V141c-4.6-5.2-6.1-5.2-8.8-5.2h-8.5v41.8c0,1.9,0,1.9,2.9,5.8h-13.8
					c3.1-4.2,3.1-4.2,3.1-6.1v-41.5H379c-2.6,0-4.2,0-8.7,5.2V130.8z"/>
			</g>
			<g class="st2">
				<path d="M456.5,177.3v-19.1H430v19.3c0,1.9,0,1.9,2.3,5.8h-12.5c2.3-4,2.3-4,2.3-6v-40.6c0-1.9,0-1.9-2.3-5.8h12.5
					c-2.3,4-2.3,4-2.3,6v16.5h26.5v-16.6c0-1.9,0-1.9-2.4-5.8h12.6c-2.3,4-2.3,4-2.3,6v40.6c0,1.9,0,1.9,2.3,5.8h-12.6
					C456.5,179.3,456.5,179.3,456.5,177.3z"/>
			</g>
			<g class="st2">
				<path class="st3" d="M456.5,177.3v-19.1H430v19.3c0,1.9,0,1.9,2.3,5.8h-12.5c2.3-4,2.3-4,2.3-6v-40.6c0-1.9,0-1.9-2.3-5.8h12.5
					c-2.3,4-2.3,4-2.3,6v16.5h26.5v-16.6c0-1.9,0-1.9-2.4-5.8h12.6c-2.3,4-2.3,4-2.3,6v40.6c0,1.9,0,1.9,2.3,5.8h-12.6
					C456.5,179.3,456.5,179.3,456.5,177.3z"/>
			</g>
			<g class="st2">
				<path d="M478.8,177.3v-40.6c0-1.9,0-1.9-2.3-5.8H489c-2.3,4-2.3,4-2.3,6v40.6c0,1.9,0,1.9,2.3,5.8h-12.5
					C478.8,179.3,478.8,179.3,478.8,177.3z"/>
			</g>
			<g class="st2">
				<path class="st3" d="M478.8,177.3v-40.6c0-1.9,0-1.9-2.3-5.8H489c-2.3,4-2.3,4-2.3,6v40.6c0,1.9,0,1.9,2.3,5.8h-12.5
					C478.8,179.3,478.8,179.3,478.8,177.3z"/>
			</g>
			<g class="st2">
				<path d="M497.2,157.1c0-15.7,11.1-27.4,27.2-27.4s27.3,11.6,27.3,27.4s-11.2,27.4-27.3,27.4S497.2,172.8,497.2,157.1z
					 M524.4,179.4c10.6,0,18.8-8,18.8-22.3s-8.2-22.3-18.8-22.3c-10.6,0-18.8,7.9-18.8,22.3S513.8,179.4,524.4,179.4z"/>
			</g>
			<g class="st2">
				<path class="st3" d="M497.2,157.1c0-15.7,11.1-27.4,27.2-27.4s27.3,11.6,27.3,27.4s-11.2,27.4-27.3,27.4
					S497.2,172.8,497.2,157.1z M524.4,179.4c10.6,0,18.8-8,18.8-22.3s-8.2-22.3-18.8-22.3c-10.6,0-18.8,7.9-18.8,22.3
					S513.8,179.4,524.4,179.4z"/>
			</g>
			<g class="st2">
				<path d="M562.4,177.3v-40.6c0-1.9,0-1.9-2.3-5.8h20.8c10.9,0,17.5,6,17.5,14.5s-6.6,14.5-17.5,14.5h-10.6v17.7
					c0,1.9,0,1.9,2.8,5.8h-13C562.4,179.3,562.4,179.3,562.4,177.3z M579.1,155.4c7.3,0,11-4.2,11-10s-3.7-10-11-10h-8.8v20.1H579.1
					z"/>
			</g>
			<g class="st2">
				<path class="st3" d="M562.4,177.3v-40.6c0-1.9,0-1.9-2.3-5.8h20.8c10.9,0,17.5,6,17.5,14.5s-6.6,14.5-17.5,14.5h-10.6v17.7
					c0,1.9,0,1.9,2.8,5.8h-13C562.4,179.3,562.4,179.3,562.4,177.3z M579.1,155.4c7.3,0,11-4.2,11-10s-3.7-10-11-10h-8.8v20.1H579.1
					z"/>
			</g>
			<g class="st2">
				<path d="M606.8,177.3v-40.6c0-1.9,0-1.9-2.3-5.8H617c-2.3,4-2.3,4-2.3,6v40.6c0,1.9,0,1.9,2.3,5.8h-12.5
					C606.8,179.3,606.8,179.3,606.8,177.3z"/>
			</g>
			<g class="st2">
				<path class="st3" d="M606.8,177.3v-40.6c0-1.9,0-1.9-2.3-5.8H617c-2.3,4-2.3,4-2.3,6v40.6c0,1.9,0,1.9,2.3,5.8h-12.5
					C606.8,179.3,606.8,179.3,606.8,177.3z"/>
			</g>
			<g class="st2">
				<path d="M627.5,175.6l18.6-45h5.2l18.7,45.2c1.6,3.7,1.6,3.7,3.7,7.5h-13.3c2.4-4.3,2.4-4.3,1.3-7l-3.4-8.6h-21.9l-3.4,8.6
					c-1.2,3.2-1.2,3.2,1.2,7h-10.4C626,179.3,626,179.3,627.5,175.6z M656.4,163l-9.1-23l-9.1,23H656.4z"/>
			</g>
			<g class="st2">
				<path class="st3" d="M627.5,175.6l18.6-45h5.2l18.7,45.2c1.6,3.7,1.6,3.7,3.7,7.5h-13.3c2.4-4.3,2.4-4.3,1.3-7l-3.4-8.6h-21.9
					l-3.4,8.6c-1.2,3.2-1.2,3.2,1.2,7h-10.4C626,179.3,626,179.3,627.5,175.6z M656.4,163l-9.1-23l-9.1,23H656.4z"/>
			</g>
			<g class="st2">
				<path d="M210.8,263.2l-1-11.8c5.5,8.8,12.1,13,19.3,13c5.8,0,9.6-3.2,9.6-8.4c0-3.8-2.2-6.9-7.3-9l-9.7-4c-7-2.9-10-7.3-10-13.5
					c0-8.7,7-14.6,17-14.6c6.1,0,11.1,1.7,15.3,5.1v9.9c-4.2-6.8-10.2-10-16.4-10c-5.5,0-8.8,3.2-8.8,7.4c0,3.6,1.9,6.1,6.5,8.1
					l10.2,4.2c6.7,2.8,10.3,7.5,10.3,14.2c0,9.4-7.3,15.7-18.1,15.7C220.4,269.5,214.8,267.2,210.8,263.2z"/>
			</g>
			<g class="st2">
				<path class="st3" d="M210.8,263.2l-1-11.8c5.5,8.8,12.1,13,19.3,13c5.8,0,9.6-3.2,9.6-8.4c0-3.8-2.2-6.9-7.3-9l-9.7-4
					c-7-2.9-10-7.3-10-13.5c0-8.7,7-14.6,17-14.6c6.1,0,11.1,1.7,15.3,5.1v9.9c-4.2-6.8-10.2-10-16.4-10c-5.5,0-8.8,3.2-8.8,7.4
					c0,3.6,1.9,6.1,6.5,8.1l10.2,4.2c6.7,2.8,10.3,7.5,10.3,14.2c0,9.4-7.3,15.7-18.1,15.7C220.4,269.5,214.8,267.2,210.8,263.2z"/>
			</g>
			<g class="st2">
				<path d="M256.9,262.3v-40.6c0-1.9,0-1.9-2.3-5.8h12.5c-2.3,4-2.3,4-2.3,6v40.6c0,1.9,0,1.9,2.3,5.8h-12.5
					C256.9,264.3,256.9,264.3,256.9,262.3z"/>
			</g>
			<g class="st2">
				<path class="st3" d="M256.9,262.3v-40.6c0-1.9,0-1.9-2.3-5.8h12.5c-2.3,4-2.3,4-2.3,6v40.6c0,1.9,0,1.9,2.3,5.8h-12.5
					C256.9,264.3,256.9,264.3,256.9,262.3z"/>
			</g>
			<g class="st2">
				<path d="M279.1,262.3v-40.6c0-1.9,0-1.9-2.3-5.8h20.3c14.9,0,26.8,9.3,26.8,26.2s-11.8,26.2-26.8,26.2h-20.3
					C279.1,264.3,279.1,264.3,279.1,262.3z M295.6,263.7c10.6,0,19.9-7.1,19.9-21.6c0-14.5-9.3-21.6-19.9-21.6H287v43.2H295.6z"/>
			</g>
			<g class="st2">
				<path class="st3" d="M279.1,262.3v-40.6c0-1.9,0-1.9-2.3-5.8h20.3c14.9,0,26.8,9.3,26.8,26.2s-11.8,26.2-26.8,26.2h-20.3
					C279.1,264.3,279.1,264.3,279.1,262.3z M295.6,263.7c10.6,0,19.9-7.1,19.9-21.6c0-14.5-9.3-21.6-19.9-21.6H287v43.2H295.6z"/>
			</g>
			<g class="st2">
				<path d="M329.3,260.6l18.6-45h5.2l18.7,45.2c1.6,3.7,1.6,3.7,3.7,7.5h-13.3c2.4-4.3,2.4-4.3,1.3-7l-3.4-8.6h-21.9l-3.4,8.6
					c-1.2,3.2-1.2,3.2,1.2,7h-10.4C327.8,264.3,327.8,264.3,329.3,260.6z M358.2,248l-9.1-23l-9.1,23H358.2z"/>
			</g>
			<g class="st2">
				<path class="st3" d="M329.3,260.6l18.6-45h5.2l18.7,45.2c1.6,3.7,1.6,3.7,3.7,7.5h-13.3c2.4-4.3,2.4-4.3,1.3-7l-3.4-8.6h-21.9
					l-3.4,8.6c-1.2,3.2-1.2,3.2,1.2,7h-10.4C327.8,264.3,327.8,264.3,329.3,260.6z M358.2,248l-9.1-23l-9.1,23H358.2z"/>
			</g>
			<g class="st2">
				<path d="M384.6,262.3v-40.6c0-1.9,0-1.9-2.3-5.8h9.6l18.7,28.6l18.6-28.6h9.3c-2.3,4-2.3,4-2.3,6v40.6c0,1.9,0,1.9,2.3,5.8
					h-13.4c3.3-4.2,3.3-4.2,3.3-6.2V226l-19.2,30.1l-19.2-30v36.2c0,2,0,2,2.8,5.9h-10.5C384.6,264.3,384.6,264.3,384.6,262.3z"/>
			</g>
			<g class="st2">
				<path class="st3" d="M384.6,262.3v-40.6c0-1.9,0-1.9-2.3-5.8h9.6l18.7,28.6l18.6-28.6h9.3c-2.3,4-2.3,4-2.3,6v40.6
					c0,1.9,0,1.9,2.3,5.8h-13.4c3.3-4.2,3.3-4.2,3.3-6.2V226l-19.2,30.1l-19.2-30v36.2c0,2,0,2,2.8,5.9h-10.5
					C384.6,264.3,384.6,264.3,384.6,262.3z"/>
			</g>
			<g class="st2">
				<path d="M446.8,242.1c0-15.7,11.1-27.4,27.2-27.4c16.1,0,27.3,11.6,27.3,27.4s-11.2,27.4-27.3,27.4
					C457.9,269.5,446.8,257.8,446.8,242.1z M474,264.4c10.6,0,18.8-8,18.8-22.3s-8.2-22.3-18.8-22.3c-10.6,0-18.8,7.9-18.8,22.3
					S463.5,264.4,474,264.4z"/>
			</g>
			<g class="st2">
				<path class="st3" d="M446.8,242.1c0-15.7,11.1-27.4,27.2-27.4c16.1,0,27.3,11.6,27.3,27.4s-11.2,27.4-27.3,27.4
					C457.9,269.5,446.8,257.8,446.8,242.1z M474,264.4c10.6,0,18.8-8,18.8-22.3s-8.2-22.3-18.8-22.3c-10.6,0-18.8,7.9-18.8,22.3
					S463.5,264.4,474,264.4z"/>
			</g>
			<g class="st2">
				<path d="M534,262.3v-40.6c0-1.9,0-1.9-2.3-5.8h20.8c10.2,0,15.8,5,15.8,12.5c0,5.8-4,11.1-11.1,11.9c7.9,0.8,13.1,5.9,13.1,13.3
					c0,9-6.5,14.8-18.1,14.8h-20.5C534,264.3,534,264.3,534,262.3z M550.5,238.3c6.2,0,9.5-3.4,9.5-9.1c0-5.6-3.2-9.1-9.4-9.1h-8.8
					v18.2H550.5z M551.1,263.9c6.8,0,11-3.8,11-10.6c0-6.9-4.3-10.7-11.2-10.7h-9.1v21.3H551.1z"/>
			</g>
			<g class="st2">
				<path class="st3" d="M534,262.3v-40.6c0-1.9,0-1.9-2.3-5.8h20.8c10.2,0,15.8,5,15.8,12.5c0,5.8-4,11.1-11.1,11.9
					c7.9,0.8,13.1,5.9,13.1,13.3c0,9-6.5,14.8-18.1,14.8h-20.5C534,264.3,534,264.3,534,262.3z M550.5,238.3c6.2,0,9.5-3.4,9.5-9.1
					c0-5.6-3.2-9.1-9.4-9.1h-8.8v18.2H550.5z M551.1,263.9c6.8,0,11-3.8,11-10.6c0-6.9-4.3-10.7-11.2-10.7h-9.1v21.3H551.1z"/>
			</g>
			<g class="st2">
				<path d="M577.5,242.1c0-15.7,11.1-27.4,27.2-27.4s27.3,11.6,27.3,27.4s-11.2,27.4-27.3,27.4S577.5,257.8,577.5,242.1z
					 M604.7,264.4c10.6,0,18.8-8,18.8-22.3s-8.2-22.3-18.8-22.3c-10.6,0-18.8,7.9-18.8,22.3S594.1,264.4,604.7,264.4z"/>
			</g>
			<g class="st2">
				<path class="st3" d="M577.5,242.1c0-15.7,11.1-27.4,27.2-27.4s27.3,11.6,27.3,27.4s-11.2,27.4-27.3,27.4
					S577.5,257.8,577.5,242.1z M604.7,264.4c10.6,0,18.8-8,18.8-22.3s-8.2-22.3-18.8-22.3c-10.6,0-18.8,7.9-18.8,22.3
					S594.1,264.4,604.7,264.4z"/>
			</g>
			<g class="st2">
				<path d="M642.6,262.3v-40.6c0-1.9,0-1.9-2.3-5.8h9.6l18.7,28.6l18.6-28.6h9.3c-2.3,4-2.3,4-2.3,6v40.6c0,1.9,0,1.9,2.3,5.8
					h-13.4c3.3-4.2,3.3-4.2,3.3-6.2V226l-19.2,30.1l-19.2-30v36.2c0,2,0,2,2.8,5.9h-10.5C642.6,264.3,642.6,264.3,642.6,262.3z"/>
			</g>
			<g class="st2">
				<path class="st3" d="M642.6,262.3v-40.6c0-1.9,0-1.9-2.3-5.8h9.6l18.7,28.6l18.6-28.6h9.3c-2.3,4-2.3,4-2.3,6v40.6
					c0,1.9,0,1.9,2.3,5.8h-13.4c3.3-4.2,3.3-4.2,3.3-6.2V226l-19.2,30.1l-19.2-30v36.2c0,2,0,2,2.8,5.9h-10.5
					C642.6,264.3,642.6,264.3,642.6,262.3z"/>
			</g>
			<g class="st2">
				<path d="M708.7,262.3v-40.6c0-1.9,0-1.9-2.3-5.8h20.8c10.2,0,15.8,5,15.8,12.5c0,5.8-4,11.1-11.1,11.9
					c7.9,0.8,13.1,5.9,13.1,13.3c0,9-6.5,14.8-18.1,14.8h-20.5C708.7,264.3,708.7,264.3,708.7,262.3z M725.3,238.3
					c6.2,0,9.5-3.4,9.5-9.1c0-5.6-3.2-9.1-9.4-9.1h-8.8v18.2H725.3z M725.8,263.9c6.8,0,11-3.8,11-10.6c0-6.9-4.3-10.7-11.2-10.7
					h-9.1v21.3H725.8z"/>
			</g>
			<g class="st2">
				<path class="st3" d="M708.7,262.3v-40.6c0-1.9,0-1.9-2.3-5.8h20.8c10.2,0,15.8,5,15.8,12.5c0,5.8-4,11.1-11.1,11.9
					c7.9,0.8,13.1,5.9,13.1,13.3c0,9-6.5,14.8-18.1,14.8h-20.5C708.7,264.3,708.7,264.3,708.7,262.3z M725.3,238.3
					c6.2,0,9.5-3.4,9.5-9.1c0-5.6-3.2-9.1-9.4-9.1h-8.8v18.2H725.3z M725.8,263.9c6.8,0,11-3.8,11-10.6c0-6.9-4.3-10.7-11.2-10.7
					h-9.1v21.3H725.8z"/>
			</g>
			<g class="st2">
				<path d="M755.9,262.3v-40.6c0-1.9,0-1.9-2.3-5.8h34.8v9.1c-4.7-4.4-6.3-4.4-8.9-4.4h-15.7v17.7h12.8c2.4,0,3.7,0,7.6-2.9v10.5
					c-3.9-2.8-5.2-2.8-7.6-2.8h-12.8v20.6h14.4c2.9,0,4.6,0,10.9-5l-1.2,9.8h-34.3C755.9,264.3,755.9,264.3,755.9,262.3z"/>
			</g>
			<g class="st2">
				<path class="st3" d="M755.9,262.3v-40.6c0-1.9,0-1.9-2.3-5.8h34.8v9.1c-4.7-4.4-6.3-4.4-8.9-4.4h-15.7v17.7h12.8
					c2.4,0,3.7,0,7.6-2.9v10.5c-3.9-2.8-5.2-2.8-7.6-2.8h-12.8v20.6h14.4c2.9,0,4.6,0,10.9-5l-1.2,9.8h-34.3
					C755.9,264.3,755.9,264.3,755.9,262.3z"/>
			</g>
		</g>
	</g>
</g>
</svg>
