<?xml version="1.0" encoding="utf-8"?>
<!-- Generator: Adobe Illustrator 28.2.0, SVG Export Plug-In . SVG Version: 6.00 Build 0)  -->
<svg version="1.1" id="_레이어_2" xmlns="http://www.w3.org/2000/svg" xmlns:xlink="http://www.w3.org/1999/xlink" x="0px"
	 y="0px" viewBox="0 0 1000 750" style="enable-background:new 0 0 1000 750;" xml:space="preserve">
<style type="text/css">
	.st0{clip-path:url(#SVGID_00000122698146591735716870000009725088026808393139_);}
	.st1{fill:#8C503F;}
	.st2{enable-background:new    ;}
	.st3{fill:none;stroke:#000000;stroke-width:0.26;stroke-miterlimit:10;}
</style>
<g id="_레이어_1-2">
	<g>
		<g>
			<defs>
				<rect id="SVGID_1_" width="1000" height="750"/>
			</defs>
			<clipPath id="SVGID_00000182530397039495629280000007701056458999322245_">
				<use xlink:href="#SVGID_1_"  style="overflow:visible;"/>
			</clipPath>
			<g style="clip-path:url(#SVGID_00000182530397039495629280000007701056458999322245_);">
				<path class="st1" d="M434.4-937.4h131.1c19.9,0,36,16.1,36,36V530.8c0,19.9-16.1,36-36,36H434.4c-19.9,0-36-16.1-36-36V-901.4
					C398.4-921.3,414.5-937.4,434.4-937.4z"/>
				<g class="st2">
					<path d="M203.6,521.4l9.2,9.4c-4.8,1.1-4.8,1.1-6.2,3.6l-16.8,31l39.6-18.3l3.1,3.2L213,589.4l31.6-16.1
						c2.8-1.5,2.8-1.5,3.7-6.1l7.3,7.5c-4.5,1.3-4.5,1.3-8.1,3.1l-42.8,20.8l-2.7-2.8l19.4-39.7l-40.3,18.2l-2.8-2.8l22.3-42.6
						C202.3,525.4,202.3,525.4,203.6,521.4z"/>
				</g>
				<g class="st2">
					<path class="st3" d="M203.6,521.4l9.2,9.4c-4.8,1.1-4.8,1.1-6.2,3.6l-16.8,31l39.6-18.3l3.1,3.2L213,589.4l31.6-16.1
						c2.8-1.5,2.8-1.5,3.7-6.1l7.3,7.5c-4.5,1.3-4.5,1.3-8.1,3.1l-42.8,20.8l-2.7-2.8l19.4-39.7l-40.3,18.2l-2.8-2.8l22.3-42.6
						C202.3,525.4,202.3,525.4,203.6,521.4z"/>
				</g>
				<g class="st2">
					<path d="M231,609.7l40.6-26.9l4.3,2.9l-9.8,48c-0.7,3.9-0.7,3.9-1.1,8.3l-11.1-7.5c4.4-2.2,4.4-2.2,5.1-5.1l2-9l-18.2-12.3
						l-7.6,5.3c-2.8,1.9-2.8,1.9-2.9,6.5l-8.7-5.8C227.7,612,227.7,612,231,609.7z M262,615.4l5.3-24.2l-20.4,14L262,615.4z"/>
				</g>
				<g class="st2">
					<path class="st3" d="M231,609.7l40.6-26.9l4.3,2.9l-9.8,48c-0.7,3.9-0.7,3.9-1.1,8.3l-11.1-7.5c4.4-2.2,4.4-2.2,5.1-5.1l2-9
						l-18.2-12.3l-7.6,5.3c-2.8,1.9-2.8,1.9-2.9,6.5l-8.7-5.8C227.7,612,227.7,612,231,609.7z M262,615.4l5.3-24.2l-20.4,14
						L262,615.4z"/>
				</g>
				<g class="st2">
					<path d="M277.4,642.5l4.3-11.1c1,10.4,5.2,17,11.7,20.2c5.3,2.6,10,1.3,12.3-3.3c1.7-3.4,1-7.2-2.6-11.3l-6.9-7.9
						c-5-5.7-5.8-11-3.1-16.6c3.8-7.8,12.8-10,21.7-5.7c5.5,2.7,9.2,6.4,11.5,11.3l-4.4,8.9c-0.8-8-4.8-13.5-10.4-16.2
						c-5-2.4-9.3-1-11.2,2.8c-1.6,3.2-1,6.4,2.3,10.2l7.3,8.3c4.8,5.4,6,11.3,3,17.4c-4.2,8.5-13.5,10.9-23.2,6.2
						C283.3,652.4,279.3,647.9,277.4,642.5z"/>
				</g>
				<g class="st2">
					<path class="st3" d="M277.4,642.5l4.3-11.1c1,10.4,5.2,17,11.7,20.2c5.3,2.6,10,1.3,12.3-3.3c1.7-3.4,1-7.2-2.6-11.3l-6.9-7.9
						c-5-5.7-5.8-11-3.1-16.6c3.8-7.8,12.8-10,21.7-5.7c5.5,2.7,9.2,6.4,11.5,11.3l-4.4,8.9c-0.8-8-4.8-13.5-10.4-16.2
						c-5-2.4-9.3-1-11.2,2.8c-1.6,3.2-1,6.4,2.3,10.2l7.3,8.3c4.8,5.4,6,11.3,3,17.4c-4.2,8.5-13.5,10.9-23.2,6.2
						C283.3,652.4,279.3,647.9,277.4,642.5z"/>
				</g>
				<g class="st2">
					<path d="M356.4,674.4l6.1-18.1l-25.1-8.5l-6.2,18.3c-0.6,1.8-0.6,1.8,0.3,6.3l-11.9-4c3.5-3.1,3.5-3.1,4.1-4.9l13-38.5
						c0.6-1.8,0.6-1.8-0.3-6.3l11.9,4c-3.5,3.1-3.5,3.1-4.1,4.9l-5.3,15.6l25.1,8.5l5.3-15.8c0.6-1.8,0.6-1.8-0.4-6.3l11.9,4
						c-3.5,3.1-3.5,3.1-4.1,4.9l-13,38.5c-0.6,1.8-0.6,1.8,0.3,6.3l-11.9-4C355.8,676.2,355.8,676.2,356.4,674.4z"/>
				</g>
				<g class="st2">
					<path class="st3" d="M356.4,674.4l6.1-18.1l-25.1-8.5l-6.2,18.3c-0.6,1.8-0.6,1.8,0.3,6.3l-11.9-4c3.5-3.1,3.5-3.1,4.1-4.9
						l13-38.5c0.6-1.8,0.6-1.8-0.3-6.3l11.9,4c-3.5,3.1-3.5,3.1-4.1,4.9l-5.3,15.6l25.1,8.5l5.3-15.8c0.6-1.8,0.6-1.8-0.4-6.3
						l11.9,4c-3.5,3.1-3.5,3.1-4.1,4.9l-13,38.5c-0.6,1.8-0.6,1.8,0.3,6.3l-11.9-4C355.8,676.2,355.8,676.2,356.4,674.4z"/>
				</g>
				<g class="st2">
					<path d="M382.1,681.5l8.4-39.8c0.4-1.8,0.4-1.8-1.1-6.2l34.1,7.2l-1.9,9c-3.7-5.3-5.2-5.6-7.8-6.2l-15.3-3.3l-3.7,17.3
						l12.6,2.7c2.3,0.5,3.6,0.8,8-1.3l-2.2,10.3c-3.2-3.6-4.5-3.9-6.8-4.4l-12.6-2.7l-4.3,20.2l14.1,3c2.9,0.6,4.6,1,11.8-2.6
						l-3.2,9.3l-33.6-7.1C381.7,683.4,381.7,683.4,382.1,681.5z"/>
				</g>
				<g class="st2">
					<path class="st3" d="M382.1,681.5l8.4-39.8c0.4-1.8,0.4-1.8-1.1-6.2l34.1,7.2l-1.9,9c-3.7-5.3-5.2-5.6-7.8-6.2l-15.3-3.3
						l-3.7,17.3l12.6,2.7c2.3,0.5,3.6,0.8,8-1.3l-2.2,10.3c-3.2-3.6-4.5-3.9-6.8-4.4l-12.6-2.7l-4.3,20.2l14.1,3
						c2.9,0.6,4.6,1,11.8-2.6l-3.2,9.3l-33.6-7.1C381.7,683.4,381.7,683.4,382.1,681.5z"/>
				</g>
				<g class="st2">
					<path d="M429.1,690.7l4-40.5c0.2-1.9,0.2-1.9-1.7-6.1l20.2,2c14.9,1.5,25.7,11.9,24.1,28.8c-1.7,16.9-14.4,25-29.3,23.5
						l-20.2-2C428.9,692.6,428.9,692.6,429.1,690.7z M445.4,693.7c10.5,1,20.5-5.1,21.9-19.5c1.4-14.5-7.1-22.4-17.7-23.5l-8.6-0.9
						l-4.3,43L445.4,693.7z"/>
				</g>
				<g class="st2">
					<path class="st3" d="M429.1,690.7l4-40.5c0.2-1.9,0.2-1.9-1.7-6.1l20.2,2c14.9,1.5,25.7,11.9,24.1,28.8
						c-1.7,16.9-14.4,25-29.3,23.5l-20.2-2C428.9,692.6,428.9,692.6,429.1,690.7z M445.4,693.7c10.5,1,20.5-5.1,21.9-19.5
						c1.4-14.5-7.1-22.4-17.7-23.5l-8.6-0.9l-4.3,43L445.4,693.7z"/>
				</g>
				<g class="st2">
					<path d="M512.1,695.3l-2.2-40.6c-0.1-1.9-0.1-1.9-2.6-5.7l20.8-1.1c10.2-0.6,16.1,4.1,16.5,11.6c0.3,5.8-3.4,11.3-10.4,12.5
						c7.9,0.3,13.4,5.2,13.9,12.5c0.5,9-5.6,15.1-17.2,15.8l-20.5,1.1C512.2,697.3,512.2,697.3,512.1,695.3z M527.3,670.4
						c6.2-0.3,9.3-4,8.9-9.7c-0.3-5.6-3.7-8.9-9.9-8.6l-8.8,0.5l1,18.2L527.3,670.4z M529.3,695.9c6.8-0.4,10.8-4.4,10.4-11.2
						c-0.4-6.9-4.9-10.5-11.8-10.1l-9.1,0.5l1.2,21.3L529.3,695.9z"/>
				</g>
				<g class="st2">
					<path class="st3" d="M512.1,695.3l-2.2-40.6c-0.1-1.9-0.1-1.9-2.6-5.7l20.8-1.1c10.2-0.6,16.1,4.1,16.5,11.6
						c0.3,5.8-3.4,11.3-10.4,12.5c7.9,0.3,13.4,5.2,13.9,12.5c0.5,9-5.6,15.1-17.2,15.8l-20.5,1.1
						C512.2,697.3,512.2,697.3,512.1,695.3z M527.3,670.4c6.2-0.3,9.3-4,8.9-9.7c-0.3-5.6-3.7-8.9-9.9-8.6l-8.8,0.5l1,18.2
						L527.3,670.4z M529.3,695.9c6.8-0.4,10.8-4.4,10.4-11.2c-0.4-6.9-4.9-10.5-11.8-10.1l-9.1,0.5l1.2,21.3L529.3,695.9z"/>
				</g>
				<g class="st2">
					<path d="M559.3,690.5l11.2-47.4l5.1-0.8l25.7,41.7c2.1,3.4,2.1,3.4,4.8,6.8l-13.2,2.1c1.7-4.6,1.7-4.6,0.2-7.2l-4.7-8
						l-21.6,3.5l-2,9.1c-0.7,3.3-0.7,3.3,2.3,6.8l-10.3,1.7C558.4,694.3,558.4,694.3,559.3,690.5z M585.8,673.4l-12.6-21.3
						l-5.3,24.2L585.8,673.4z"/>
				</g>
				<g class="st2">
					<path class="st3" d="M559.3,690.5l11.2-47.4l5.1-0.8l25.7,41.7c2.1,3.4,2.1,3.4,4.8,6.8l-13.2,2.1c1.7-4.6,1.7-4.6,0.2-7.2
						l-4.7-8l-21.6,3.5l-2,9.1c-0.7,3.3-0.7,3.3,2.3,6.8l-10.3,1.7C558.4,694.3,558.4,694.3,559.3,690.5z M585.8,673.4l-12.6-21.3
						l-5.3,24.2L585.8,673.4z"/>
				</g>
				<g class="st2">
					<path d="M618.3,681.5l-11.2-39.1c-0.5-1.8-0.5-1.8-3.9-5l19.8-5.7c10.7-3.1,18.7,0.6,21,8.6c2,6.9-1.4,13.1-9.1,16.6l18.6,13.5
						c3.8,2.8,3.8,2.8,8.1,5l-10.2,2.9l-25-18.5l-5.6,1.6l5.2,18c0.5,1.9,0.5,1.9,4.7,4.9l-12.8,3.7
						C618.8,683.4,618.8,683.4,618.3,681.5z M628.1,655c6.9-2,9.6-6.4,7.9-12.4c-1.7-5.9-6.4-8.2-13.3-6.3l-8.5,2.4l5.3,18.6
						L628.1,655z"/>
				</g>
				<g class="st2">
					<path class="st3" d="M618.3,681.5l-11.2-39.1c-0.5-1.8-0.5-1.8-3.9-5l19.8-5.7c10.7-3.1,18.7,0.6,21,8.6
						c2,6.9-1.4,13.1-9.1,16.6l18.6,13.5c3.8,2.8,3.8,2.8,8.1,5l-10.2,2.9l-25-18.5l-5.6,1.6l5.2,18c0.5,1.9,0.5,1.9,4.7,4.9
						l-12.8,3.7C618.8,683.4,618.8,683.4,618.3,681.5z M628.1,655c6.9-2,9.6-6.4,7.9-12.4c-1.7-5.9-6.4-8.2-13.3-6.3l-8.5,2.4
						l5.3,18.6L628.1,655z"/>
				</g>
				<g class="st2">
					<path d="M672.7,664.6l-16.2-37.3c-0.7-1.7-0.7-1.7-4.5-4.4l18.9-8.2c10.2-4.4,18.6-1.8,21.9,5.8c2.9,6.6,0.3,13.1-6.9,17.6
						l20.1,11c4.2,2.3,4.2,2.3,8.6,3.9l-9.7,4.2L677.8,642l-5.3,2.3l7.4,17.2c0.8,1.8,0.8,1.8,5.3,4.3l-12.3,5.3
						C673.4,666.4,673.4,666.4,672.7,664.6z M679,637.1c6.5-2.8,8.7-7.6,6.3-13.3c-2.4-5.6-7.4-7.3-14-4.5l-8.1,3.5l7.7,17.8
						L679,637.1z"/>
				</g>
				<g class="st2">
					<path class="st3" d="M672.7,664.6l-16.2-37.3c-0.7-1.7-0.7-1.7-4.5-4.4l18.9-8.2c10.2-4.4,18.6-1.8,21.9,5.8
						c2.9,6.6,0.3,13.1-6.9,17.6l20.1,11c4.2,2.3,4.2,2.3,8.6,3.9l-9.7,4.2L677.8,642l-5.3,2.3l7.4,17.2c0.8,1.8,0.8,1.8,5.3,4.3
						l-12.3,5.3C673.4,666.4,673.4,666.4,672.7,664.6z M679,637.1c6.5-2.8,8.7-7.6,6.3-13.3c-2.4-5.6-7.4-7.3-14-4.5l-8.1,3.5
						l7.7,17.8L679,637.1z"/>
				</g>
				<g class="st2">
					<path d="M724.4,640.5l-21-34.8c-1-1.6-1-1.6-5-3.8l29.8-18l4.7,7.8c-6.3-1.4-7.7-0.5-9.9,0.8l-13.4,8.1l9.1,15.2l11-6.6
						c2.1-1.2,3.2-1.9,5-6.4l5.4,9c-4.8-0.4-6,0.3-8,1.5l-11,6.6l10.7,17.7l12.3-7.4c2.5-1.5,4-2.4,6.8-10l4,9L725.5,647
						C725.4,642.1,725.4,642.1,724.4,640.5z"/>
				</g>
				<g class="st2">
					<path class="st3" d="M724.4,640.5l-21-34.8c-1-1.6-1-1.6-5-3.8l29.8-18l4.7,7.8c-6.3-1.4-7.7-0.5-9.9,0.8l-13.4,8.1l9.1,15.2
						l11-6.6c2.1-1.2,3.2-1.9,5-6.4l5.4,9c-4.8-0.4-6,0.3-8,1.5l-11,6.6l10.7,17.7l12.3-7.4c2.5-1.5,4-2.4,6.8-10l4,9L725.5,647
						C725.4,642.1,725.4,642.1,724.4,640.5z"/>
				</g>
				<g class="st2">
					<path d="M765.4,614.2l-25.5-31.7c-1.2-1.5-1.2-1.5-5.5-3.1l9.8-7.9c0.7,4.7,0.7,4.7,1.9,6.2l26.1,32.5l10.1-8.1
						c2.4-1.9,3.9-3.1,5.4-11.5l5.6,8.9l-26,20.9C766.6,615.7,766.6,615.7,765.4,614.2z"/>
				</g>
				<g class="st2">
					<path class="st3" d="M765.4,614.2l-25.5-31.7c-1.2-1.5-1.2-1.5-5.5-3.1l9.8-7.9c0.7,4.7,0.7,4.7,1.9,6.2l26.1,32.5l10.1-8.1
						c2.4-1.9,3.9-3.1,5.4-11.5l5.6,8.9l-26,20.9C766.6,615.7,766.6,615.7,765.4,614.2z"/>
				</g>
				<g class="st2">
					<path d="M800.7,585.5l-9.5-7.2c10.2,1.9,17.8-0.3,22.6-5.7c3.9-4.3,4-9.3,0.2-12.8c-2.8-2.5-6.6-3-11.6-0.6l-9.5,4.5
						c-6.9,3.3-12.2,2.5-16.8-1.6c-6.5-5.8-6.1-15,0.6-22.5c4.1-4.6,8.7-7.1,14.1-7.9l7.4,6.6c-7.9-1.5-14.3,0.9-18.4,5.5
						c-3.7,4.1-3.5,8.7-0.4,11.5c2.7,2.4,5.9,2.7,10.4,0.6l10-4.8c6.5-3.1,12.5-2.7,17.5,1.9c7,6.3,6.8,16-0.4,24
						C811.9,582.5,806.4,585.2,800.7,585.5z"/>
				</g>
				<g class="st2">
					<path class="st3" d="M800.7,585.5l-9.5-7.2c10.2,1.9,17.8-0.3,22.6-5.7c3.9-4.3,4-9.3,0.2-12.8c-2.8-2.5-6.6-3-11.6-0.6
						l-9.5,4.5c-6.9,3.3-12.2,2.5-16.8-1.6c-6.5-5.8-6.1-15,0.6-22.5c4.1-4.6,8.7-7.1,14.1-7.9l7.4,6.6c-7.9-1.5-14.3,0.9-18.4,5.5
						c-3.7,4.1-3.5,8.7-0.4,11.5c2.7,2.4,5.9,2.7,10.4,0.6l10-4.8c6.5-3.1,12.5-2.7,17.5,1.9c7,6.3,6.8,16-0.4,24
						C811.9,582.5,806.4,585.2,800.7,585.5z"/>
				</g>
				<g class="st2">
					<path d="M156.6,157.8c0-16.9,10.8-28,27.1-28c7.5,0,13.3,2,17.5,5.5v10.1c-4.4-7-10.3-10.3-18.1-10.3
						c-11.5,0-18.7,7.6-18.7,20.1c0,13.6,8.5,22.3,20.8,22.3c7.3,0,13.6-3.2,16.8-9.1c-1,10.3-8.2,16.1-20,16.1
						C166.8,184.5,156.6,173.5,156.6,157.8z"/>
				</g>
				<g class="st2">
					<path class="st3" d="M156.6,157.8c0-16.9,10.8-28,27.1-28c7.5,0,13.3,2,17.5,5.5v10.1c-4.4-7-10.3-10.3-18.1-10.3
						c-11.5,0-18.7,7.6-18.7,20.1c0,13.6,8.5,22.3,20.8,22.3c7.3,0,13.6-3.2,16.8-9.1c-1,10.3-8.2,16.1-20,16.1
						C166.8,184.5,156.6,173.5,156.6,157.8z"/>
				</g>
				<g class="st2">
					<path d="M208.4,157.1c0-15.7,11.1-27.4,27.2-27.4s27.3,11.6,27.3,27.4s-11.2,27.4-27.3,27.4S208.4,172.8,208.4,157.1z
						 M235.6,179.4c10.6,0,18.8-8,18.8-22.3s-8.2-22.3-18.8-22.3s-18.8,7.9-18.8,22.3S225,179.4,235.6,179.4z"/>
				</g>
				<g class="st2">
					<path class="st3" d="M208.4,157.1c0-15.7,11.1-27.4,27.2-27.4s27.3,11.6,27.3,27.4s-11.2,27.4-27.3,27.4
						S208.4,172.8,208.4,157.1z M235.6,179.4c10.6,0,18.8-8,18.8-22.3s-8.2-22.3-18.8-22.3s-18.8,7.9-18.8,22.3
						S225,179.4,235.6,179.4z"/>
				</g>
				<g class="st2">
					<path d="M273.5,177.3v-40.6c0-1.9,0-1.9-2.3-5.8h12.6c-2.4,4-2.4,4-2.4,6v41.6h12.9c3.1,0,4.9,0,11.4-5.6l-1.2,10.5h-33.3
						C273.5,179.3,273.5,179.3,273.5,177.3z"/>
				</g>
				<g class="st2">
					<path class="st3" d="M273.5,177.3v-40.6c0-1.9,0-1.9-2.3-5.8h12.6c-2.4,4-2.4,4-2.4,6v41.6h12.9c3.1,0,4.9,0,11.4-5.6
						l-1.2,10.5h-33.3C273.5,179.3,273.5,179.3,273.5,177.3z"/>
				</g>
				<g class="st2">
					<path d="M310.3,157.1c0-15.7,11.1-27.4,27.2-27.4s27.3,11.6,27.3,27.4s-11.2,27.4-27.3,27.4
						C321.4,184.5,310.3,172.8,310.3,157.1z M337.5,179.4c10.6,0,18.8-8,18.8-22.3s-8.2-22.3-18.8-22.3c-10.6,0-18.8,7.9-18.8,22.3
						S326.9,179.4,337.5,179.4z"/>
				</g>
				<g class="st2">
					<path class="st3" d="M310.3,157.1c0-15.7,11.1-27.4,27.2-27.4s27.3,11.6,27.3,27.4s-11.2,27.4-27.3,27.4
						C321.4,184.5,310.3,172.8,310.3,157.1z M337.5,179.4c10.6,0,18.8-8,18.8-22.3s-8.2-22.3-18.8-22.3c-10.6,0-18.8,7.9-18.8,22.3
						S326.9,179.4,337.5,179.4z"/>
				</g>
				<g class="st2">
					<path d="M375.4,177.3v-40.6c0-1.9,0-1.9-2.3-5.8h9.6l18.7,28.6l18.6-28.6h9.3c-2.3,4-2.3,4-2.3,6v40.6c0,1.9,0,1.9,2.3,5.8
						h-13.4c3.3-4.2,3.3-4.2,3.3-6.2V141L400,171.2l-19.2-30v36.2c0,2,0,2,2.8,5.9h-10.5C375.4,179.3,375.4,179.3,375.4,177.3z"/>
				</g>
				<g class="st2">
					<path class="st3" d="M375.4,177.3v-40.6c0-1.9,0-1.9-2.3-5.8h9.6l18.7,28.6l18.6-28.6h9.3c-2.3,4-2.3,4-2.3,6v40.6
						c0,1.9,0,1.9,2.3,5.8h-13.4c3.3-4.2,3.3-4.2,3.3-6.2V141L400,171.2l-19.2-30v36.2c0,2,0,2,2.8,5.9h-10.5
						C375.4,179.3,375.4,179.3,375.4,177.3z"/>
				</g>
				<g class="st2">
					<path d="M441.5,177.3v-40.6c0-1.9,0-1.9-2.3-5.8H460c10.2,0,15.8,5,15.8,12.5c0,5.8-4,11.1-11.1,11.9
						c7.9,0.8,13.1,5.9,13.1,13.3c0,9-6.4,14.8-18.1,14.8h-20.5C441.5,179.3,441.5,179.3,441.5,177.3z M458.1,153.3
						c6.2,0,9.4-3.4,9.4-9.1c0-5.6-3.2-9.1-9.4-9.1h-8.8v18.2L458.1,153.3L458.1,153.3z M458.6,178.9c6.8,0,11-3.8,11-10.6
						c0-6.9-4.3-10.7-11.2-10.7h-9.1v21.3H458.6z"/>
				</g>
				<g class="st2">
					<path class="st3" d="M441.5,177.3v-40.6c0-1.9,0-1.9-2.3-5.8H460c10.2,0,15.8,5,15.8,12.5c0,5.8-4,11.1-11.1,11.9
						c7.9,0.8,13.1,5.9,13.1,13.3c0,9-6.4,14.8-18.1,14.8h-20.5C441.5,179.3,441.5,179.3,441.5,177.3z M458.1,153.3
						c6.2,0,9.4-3.4,9.4-9.1c0-5.6-3.2-9.1-9.4-9.1h-8.8v18.2L458.1,153.3L458.1,153.3z M458.6,178.9c6.8,0,11-3.8,11-10.6
						c0-6.9-4.3-10.7-11.2-10.7h-9.1v21.3H458.6z"/>
				</g>
				<g class="st2">
					<path d="M488.7,177.3v-40.6c0-1.9,0-1.9-2.3-5.8h12.5c-2.3,4-2.3,4-2.3,6v40.6c0,1.9,0,1.9,2.3,5.8h-12.5
						C488.7,179.3,488.7,179.3,488.7,177.3z"/>
				</g>
				<g class="st2">
					<path class="st3" d="M488.7,177.3v-40.6c0-1.9,0-1.9-2.3-5.8h12.5c-2.3,4-2.3,4-2.3,6v40.6c0,1.9,0,1.9,2.3,5.8h-12.5
						C488.7,179.3,488.7,179.3,488.7,177.3z"/>
				</g>
				<g class="st2">
					<path d="M509.4,175.6l18.6-45h5.2l18.7,45.2c1.6,3.7,1.6,3.7,3.7,7.5h-13.3c2.4-4.3,2.4-4.3,1.3-7l-3.4-8.6h-21.9l-3.4,8.6
						c-1.2,3.2-1.2,3.2,1.2,7h-10.4C507.9,179.3,507.9,179.3,509.4,175.6z M538.3,163l-9.1-23l-9.1,23H538.3z"/>
				</g>
				<g class="st2">
					<path class="st3" d="M509.4,175.6l18.6-45h5.2l18.7,45.2c1.6,3.7,1.6,3.7,3.7,7.5h-13.3c2.4-4.3,2.4-4.3,1.3-7l-3.4-8.6h-21.9
						l-3.4,8.6c-1.2,3.2-1.2,3.2,1.2,7h-10.4C507.9,179.3,507.9,179.3,509.4,175.6z M538.3,163l-9.1-23l-9.1,23H538.3z"/>
				</g>
				<g class="st2">
					<path d="M582.5,178.2l-1-11.8c5.5,8.8,12.1,13,19.3,13c5.8,0,9.6-3.2,9.6-8.4c0-3.8-2.2-6.9-7.3-9l-9.7-4
						c-7-2.9-10-7.3-10-13.5c0-8.7,7-14.6,17-14.6c6.1,0,11.1,1.7,15.3,5.1v9.9c-4.2-6.8-10.2-10-16.4-10c-5.5,0-8.8,3.2-8.8,7.4
						c0,3.6,1.9,6.1,6.5,8.1l10.2,4.2c6.7,2.8,10.3,7.5,10.3,14.2c0,9.4-7.3,15.7-18.1,15.7C592.2,184.5,586.6,182.2,582.5,178.2z"
						/>
				</g>
				<g class="st2">
					<path class="st3" d="M582.5,178.2l-1-11.8c5.5,8.8,12.1,13,19.3,13c5.8,0,9.6-3.2,9.6-8.4c0-3.8-2.2-6.9-7.3-9l-9.7-4
						c-7-2.9-10-7.3-10-13.5c0-8.7,7-14.6,17-14.6c6.1,0,11.1,1.7,15.3,5.1v9.9c-4.2-6.8-10.2-10-16.4-10c-5.5,0-8.8,3.2-8.8,7.4
						c0,3.6,1.9,6.1,6.5,8.1l10.2,4.2c6.7,2.8,10.3,7.5,10.3,14.2c0,9.4-7.3,15.7-18.1,15.7C592.2,184.5,586.6,182.2,582.5,178.2z"
						/>
				</g>
				<g class="st2">
					<path d="M628.7,177.3v-40.6c0-1.9,0-1.9-2.3-5.8h12.5c-2.3,4-2.3,4-2.3,6v40.6c0,1.9,0,1.9,2.3,5.8h-12.5
						C628.7,179.3,628.7,179.3,628.7,177.3z"/>
				</g>
				<g class="st2">
					<path class="st3" d="M628.7,177.3v-40.6c0-1.9,0-1.9-2.3-5.8h12.5c-2.3,4-2.3,4-2.3,6v40.6c0,1.9,0,1.9,2.3,5.8h-12.5
						C628.7,179.3,628.7,179.3,628.7,177.3z"/>
				</g>
				<g class="st2">
					<path d="M650.9,177.3v-40.6c0-1.9,0-1.9-2.3-5.8h34.8v9.1c-4.7-4.4-6.3-4.4-8.9-4.4h-15.7v17.7h12.8c2.4,0,3.7,0,7.6-2.9v10.5
						c-3.9-2.8-5.2-2.8-7.6-2.8h-12.8v20.6h14.4c2.9,0,4.6,0,10.9-5l-1.2,9.8h-34.3C650.9,179.3,650.9,179.3,650.9,177.3z"/>
				</g>
				<g class="st2">
					<path class="st3" d="M650.9,177.3v-40.6c0-1.9,0-1.9-2.3-5.8h34.8v9.1c-4.7-4.4-6.3-4.4-8.9-4.4h-15.7v17.7h12.8
						c2.4,0,3.7,0,7.6-2.9v10.5c-3.9-2.8-5.2-2.8-7.6-2.8h-12.8v20.6h14.4c2.9,0,4.6,0,10.9-5l-1.2,9.8h-34.3
						C650.9,179.3,650.9,179.3,650.9,177.3z"/>
				</g>
				<g class="st2">
					<path d="M694.7,177.3v-40.6c0-1.9,0-1.9-2.3-5.8h20.5c11.1,0,17.8,5.7,17.8,14c0,7.2-4.9,12.1-13.3,13.4l14.1,18.1
						c2.9,3.8,2.9,3.8,6.4,7h-10.6l-18.9-24.7h-5.8v18.7c0,2,0,2,3.2,6h-13.3C694.7,179.3,694.7,179.3,694.7,177.3z M711.4,154.6
						c7.1,0,11-3.5,11-9.7s-3.9-9.7-11-9.7h-8.8v19.3L711.4,154.6L711.4,154.6z"/>
				</g>
				<g class="st2">
					<path class="st3" d="M694.7,177.3v-40.6c0-1.9,0-1.9-2.3-5.8h20.5c11.1,0,17.8,5.7,17.8,14c0,7.2-4.9,12.1-13.3,13.4l14.1,18.1
						c2.9,3.8,2.9,3.8,6.4,7h-10.6l-18.9-24.7h-5.8v18.7c0,2,0,2,3.2,6h-13.3C694.7,179.3,694.7,179.3,694.7,177.3z M711.4,154.6
						c7.1,0,11-3.5,11-9.7s-3.9-9.7-11-9.7h-8.8v19.3L711.4,154.6L711.4,154.6z"/>
				</g>
				<g class="st2">
					<path d="M746.8,177.3v-40.6c0-1.9,0-1.9-2.3-5.8H765c11.1,0,17.8,5.7,17.8,14c0,7.2-5,12.1-13.3,13.4l14.1,18.1
						c2.9,3.8,2.9,3.8,6.4,7h-10.6l-18.9-24.7h-5.8v18.7c0,2,0,2,3.2,6h-13.3C746.8,179.3,746.8,179.3,746.8,177.3z M763.5,154.6
						c7.1,0,11-3.5,11-9.7s-3.9-9.7-11-9.7h-8.8v19.3L763.5,154.6L763.5,154.6z"/>
				</g>
				<g class="st2">
					<path class="st3" d="M746.8,177.3v-40.6c0-1.9,0-1.9-2.3-5.8H765c11.1,0,17.8,5.7,17.8,14c0,7.2-5,12.1-13.3,13.4l14.1,18.1
						c2.9,3.8,2.9,3.8,6.4,7h-10.6l-18.9-24.7h-5.8v18.7c0,2,0,2,3.2,6h-13.3C746.8,179.3,746.8,179.3,746.8,177.3z M763.5,154.6
						c7.1,0,11-3.5,11-9.7s-3.9-9.7-11-9.7h-8.8v19.3L763.5,154.6L763.5,154.6z"/>
				</g>
				<g class="st2">
					<path d="M798.4,175.6l18.6-45h5.2l18.7,45.2c1.6,3.7,1.6,3.7,3.7,7.5h-13.3c2.4-4.3,2.4-4.3,1.3-7l-3.4-8.6h-21.9l-3.4,8.6
						c-1.2,3.2-1.2,3.2,1.2,7h-10.4C796.9,179.3,796.9,179.3,798.4,175.6z M827.3,163l-9.1-23l-9.1,23H827.3z"/>
				</g>
				<g class="st2">
					<path class="st3" d="M798.4,175.6l18.6-45h5.2l18.7,45.2c1.6,3.7,1.6,3.7,3.7,7.5h-13.3c2.4-4.3,2.4-4.3,1.3-7l-3.4-8.6h-21.9
						l-3.4,8.6c-1.2,3.2-1.2,3.2,1.2,7h-10.4C796.9,179.3,796.9,179.3,798.4,175.6z M827.3,163l-9.1-23l-9.1,23H827.3z"/>
				</g>
				<g class="st2">
					<path d="M340.7,262.3v-40.6c0-1.9,0-1.9-2.3-5.8h9.6l18.7,28.6l18.6-28.6h9.3c-2.3,4-2.3,4-2.3,6v40.6c0,1.9,0,1.9,2.3,5.8
						h-13.4c3.3-4.2,3.3-4.2,3.3-6.2V226l-19.2,30.1l-19.2-30v36.2c0,2,0,2,2.8,5.9h-10.5C340.7,264.3,340.7,264.3,340.7,262.3z"/>
				</g>
				<g class="st2">
					<path class="st3" d="M340.7,262.3v-40.6c0-1.9,0-1.9-2.3-5.8h9.6l18.7,28.6l18.6-28.6h9.3c-2.3,4-2.3,4-2.3,6v40.6
						c0,1.9,0,1.9,2.3,5.8h-13.4c3.3-4.2,3.3-4.2,3.3-6.2V226l-19.2,30.1l-19.2-30v36.2c0,2,0,2,2.8,5.9h-10.5
						C340.7,264.3,340.7,264.3,340.7,262.3z"/>
				</g>
				<g class="st2">
					<path d="M402.9,242.1c0-15.7,11.1-27.4,27.2-27.4s27.3,11.6,27.3,27.4s-11.2,27.4-27.3,27.4S402.9,257.8,402.9,242.1z
						 M430.1,264.4c10.6,0,18.8-8,18.8-22.3s-8.2-22.3-18.8-22.3c-10.6,0-18.8,7.9-18.8,22.3S419.5,264.4,430.1,264.4z"/>
				</g>
				<g class="st2">
					<path class="st3" d="M402.9,242.1c0-15.7,11.1-27.4,27.2-27.4s27.3,11.6,27.3,27.4s-11.2,27.4-27.3,27.4
						S402.9,257.8,402.9,242.1z M430.1,264.4c10.6,0,18.8-8,18.8-22.3s-8.2-22.3-18.8-22.3c-10.6,0-18.8,7.9-18.8,22.3
						S419.5,264.4,430.1,264.4z"/>
				</g>
				<g class="st2">
					<path d="M468,262.3v-40.6c0-1.9,0-1.9-2.3-5.8h20.5c11.1,0,17.8,5.7,17.8,14c0,7.2-4.9,12.1-13.3,13.4l14.1,18.1
						c2.9,3.8,2.9,3.8,6.4,7h-10.6l-18.9-24.7h-5.8v18.7c0,2,0,2,3.1,6h-13.3C468,264.3,468,264.3,468,262.3z M484.8,239.6
						c7.1,0,11-3.5,11-9.7s-3.9-9.7-11-9.7H476v19.3L484.8,239.6L484.8,239.6z"/>
				</g>
				<g class="st2">
					<path class="st3" d="M468,262.3v-40.6c0-1.9,0-1.9-2.3-5.8h20.5c11.1,0,17.8,5.7,17.8,14c0,7.2-4.9,12.1-13.3,13.4l14.1,18.1
						c2.9,3.8,2.9,3.8,6.4,7h-10.6l-18.9-24.7h-5.8v18.7c0,2,0,2,3.1,6h-13.3C468,264.3,468,264.3,468,262.3z M484.8,239.6
						c7.1,0,11-3.5,11-9.7s-3.9-9.7-11-9.7H476v19.3L484.8,239.6L484.8,239.6z"/>
				</g>
				<g class="st2">
					<path d="M520.2,262.3v-40.6c0-1.9,0-1.9-2.3-5.8h34.8v9.1c-4.7-4.4-6.3-4.4-8.9-4.4H528v17.7h12.8c2.4,0,3.7,0,7.6-2.9v10.5
						c-3.9-2.8-5.2-2.8-7.6-2.8H528v20.6h14.4c2.9,0,4.7,0,11-5l-1.2,9.8h-34.3C520.2,264.3,520.2,264.3,520.2,262.3z"/>
				</g>
				<g class="st2">
					<path class="st3" d="M520.2,262.3v-40.6c0-1.9,0-1.9-2.3-5.8h34.8v9.1c-4.7-4.4-6.3-4.4-8.9-4.4H528v17.7h12.8
						c2.4,0,3.7,0,7.6-2.9v10.5c-3.9-2.8-5.2-2.8-7.6-2.8H528v20.6h14.4c2.9,0,4.7,0,11-5l-1.2,9.8h-34.3
						C520.2,264.3,520.2,264.3,520.2,262.3z"/>
				</g>
				<g class="st2">
					<path d="M563.7,262.3v-44.2l-2.1-2.3h9.4l30.4,38.6v-32.7c0-2,0-2-3.1-5.9h10.8c-2.4,4-2.4,4-2.4,6v47H603l-33.9-42.3v35.8
						c0,2,0,2,3.2,5.9h-10.9C563.7,264.3,563.7,264.3,563.7,262.3z"/>
				</g>
				<g class="st2">
					<path class="st3" d="M563.7,262.3v-44.2l-2.1-2.3h9.4l30.4,38.6v-32.7c0-2,0-2-3.1-5.9h10.8c-2.4,4-2.4,4-2.4,6v47H603
						l-33.9-42.3v35.8c0,2,0,2,3.2,5.9h-10.9C563.7,264.3,563.7,264.3,563.7,262.3z"/>
				</g>
				<g class="st2">
					<path d="M618.2,260.6l18.6-45h5.2l18.7,45.2c1.6,3.7,1.6,3.7,3.7,7.5H651c2.4-4.3,2.4-4.3,1.3-7l-3.4-8.6H627l-3.4,8.6
						c-1.2,3.2-1.2,3.2,1.2,7h-10.4C616.7,264.3,616.7,264.3,618.2,260.6z M647.1,248l-9.1-23l-9.1,23H647.1z"/>
				</g>
				<g class="st2">
					<path class="st3" d="M618.2,260.6l18.6-45h5.2l18.7,45.2c1.6,3.7,1.6,3.7,3.7,7.5H651c2.4-4.3,2.4-4.3,1.3-7l-3.4-8.6H627
						l-3.4,8.6c-1.2,3.2-1.2,3.2,1.2,7h-10.4C616.7,264.3,616.7,264.3,618.2,260.6z M647.1,248l-9.1-23l-9.1,23H647.1z"/>
				</g>
				<g>
					<path d="M524.9,478.6c0,0.2,0.1,0.3,0.1,0.4c4.1,0,8.1,0,12.2,0c0-0.4,0-0.7,0-1.1c-0.2,0-0.3,0-0.4,0c0-0.2-0.1-0.3-0.1-0.5
						c-0.2,0-0.4,0-0.5,0c0-0.2,0-0.3-0.1-0.5c-0.2,0-0.3,0-0.4,0c0-0.2,0-0.3,0-0.5c-0.2,0-0.3,0-0.5,0c0-0.4,0-0.7,0-1.1
						c-0.2,0-0.3,0-0.5,0c0-0.2,0-0.3,0-0.5c-0.2,0-0.4,0-0.6-0.1c0-0.4,0-0.7,0-1.1c-0.2,0-0.3,0-0.5,0c0-0.2,0-0.3,0-0.5
						c-0.2,0-0.3,0-0.5-0.1c0-0.4,0-0.7,0-1c-0.2,0-0.4,0-0.6,0c0-0.2,0-0.3-0.1-0.4c-0.2,0-0.3,0-0.5-0.1c0-0.2,0-0.3,0-0.4
						c-0.2,0-0.3-0.1-0.5-0.1c0-0.4,0-0.7,0-1c-0.2,0-0.3-0.1-0.4-0.1c0-0.2-0.1-0.3-0.1-0.4c-0.2,0-0.4,0-0.6,0c0-0.4,0-0.7,0-1
						c-0.2,0-0.3-0.1-0.5-0.1c0-0.2,0-0.3,0-0.4c-0.2,0-0.3,0-0.4,0c0-0.2,0-0.3-0.1-0.5c-0.2,0-0.4,0-0.6,0c0-0.4,0-0.7,0-1.1
						c-0.2,0-0.3,0-0.5-0.1c0-0.2,0-0.3-0.1-0.4c-0.2,0-0.3-0.1-0.4-0.1c0-0.2,0-0.4,0-0.5c-0.2,0-0.4,0-0.6-0.1c0-0.3,0-0.6,0-1
						c-0.2,0-0.3,0-0.5,0c0-0.2,0-0.3,0-0.5c-0.2,0-0.3,0-0.5-0.1c0-0.4,0-0.7,0-1c-0.2,0-0.3,0-0.5,0c0-0.2,0-0.3,0-0.5
						c-0.2,0-0.4,0-0.6-0.1c0-0.2,0-0.4,0-0.5c-0.2,0-0.3-0.1-0.5-0.1c0-0.3,0-0.6,0-0.9c-0.2,0-0.3-0.1-0.4-0.1
						c0-0.2-0.1-0.3-0.1-0.4c-0.2,0-0.4,0-0.6,0c0-0.4,0-0.7,0-1.1c-0.2,0-0.3,0-0.5-0.1c0-0.2,0-0.3,0-0.5c-0.2,0-0.3,0-0.5,0
						c0-0.2,0-0.4,0-0.5c0.2,0,0.3,0,0.4,0c0-0.2,0.1-0.3,0.1-0.5c0.4,0,0.7,0,1,0c0-0.2,0.1-0.3,0.1-0.5c0.2,0,0.3,0,0.4-0.1
						c0-0.2,0-0.3,0-0.4c0.2,0,0.3,0,0.5-0.1c0-0.2,0-0.4,0.1-0.6c0.4,0,0.7,0,1,0c0-0.2,0-0.3,0-0.5c0.2,0,0.3,0,0.4-0.1
						c0-0.2,0.1-0.3,0.1-0.5c0.4,0,0.7,0,1,0c0-0.2,0-0.4,0.1-0.6c0.2,0,0.3,0,0.5-0.1c0-0.2,0-0.3,0-0.4c0.2,0,0.3,0,0.5,0
						c0-0.2,0-0.3,0.1-0.5c0.2,0,0.4,0,0.6-0.1c0-0.2,0-0.4,0-0.6c0.3,0,0.6,0,0.9,0c0-0.2,0-0.3,0.1-0.5c0.2,0,0.4,0,0.5,0
						c0-0.2,0.1-0.3,0.1-0.5c0.3,0,0.6,0,0.9,0c0-0.2,0.1-0.3,0.1-0.4c0.2,0,0.3-0.1,0.4-0.1c0-0.2,0-0.4,0-0.6c0.4,0,0.7,0,1,0
						c0-0.2,0.1-0.3,0.1-0.5c0.2,0,0.3,0,0.4-0.1c0-0.2,0-0.3,0-0.4c0.2,0,0.4,0,0.6-0.1c0-0.2,0-0.4,0.1-0.6c0.3,0,0.6,0,0.9,0
						c0-0.3,0-0.6,0-1c-1.2,0-2.4,0-3.7,0c0,0.2,0,0.3,0,0.5c-0.2,0-0.3,0-0.5,0c0,0.2,0,0.3-0.1,0.5c-0.4,0-0.7,0-1,0
						c0,0.2,0,0.4,0,0.6c-0.2,0-0.3,0-0.4,0.1c0,0.2,0,0.3-0.1,0.5c-0.4,0-0.7,0-1,0c0,0.2,0,0.3,0,0.5c-0.2,0-0.3,0-0.5,0.1
						c0,0.2,0,0.4,0,0.5c-0.2,0-0.3,0-0.5,0c0,0.2,0,0.3,0,0.5c-0.4,0-0.7,0-1,0c0,0.2-0.1,0.3-0.1,0.5c-0.2,0-0.3,0-0.4,0
						c0,0.2,0,0.3,0,0.5c-0.4,0-0.7,0-1.1,0c0,0.2,0,0.4,0,0.6c-0.2,0-0.3,0-0.5,0c0,0.2,0,0.3-0.1,0.4c-0.2,0-0.3,0-0.4,0.1
						c0,0.2-0.1,0.3-0.1,0.5c-0.4,0-0.7,0-1,0c0,0.2,0,0.4-0.1,0.6c-0.2,0-0.3,0.1-0.4,0.1c0,0.2,0,0.3,0,0.4c-0.2,0-0.3,0-0.4,0
						c0,0.2,0,0.3-0.1,0.5c-0.4,0-0.7,0-1,0c0,0.2,0,0.4,0,0.6c-0.2,0-0.3,0-0.4,0.1c0,0.2,0,0.3-0.1,0.5c-0.4,0-0.7,0-1,0
						c0,0.2,0,0.3,0,0.5c-0.2,0-0.3,0-0.4,0.1c0,0.2-0.1,0.3-0.1,0.4c-0.2,0-0.3,0.1-0.4,0.1c0,0.2,0,0.4,0,0.6c-0.4,0-0.7,0-1,0
						c0,0.2-0.1,0.3-0.1,0.5c-0.2,0-0.3,0-0.4,0c0,0.2,0,0.3,0,0.4c-0.2,0-0.4,0-0.6,0.1c0,0.2,0,0.4,0,0.5c-0.3,0-0.6,0-1,0
						c0-11.1,0-22.3,0-33.4c-0.2,0-0.4,0-0.6,0c0-0.2-0.1-0.3-0.1-0.5c-0.5-0.2-0.5,0.2-0.5,0.5c-0.3,0-0.6,0-0.9,0
						c0,0.2,0,0.4,0,0.6c-0.4,0-0.7,0-1,0c0,0.2-0.1,0.3-0.1,0.5c-0.5,0-1,0-1.5,0c0,0.2,0,0.3,0,0.5c-0.5,0-1,0-1.5,0
						c0,0.2-0.1,0.3-0.1,0.5c-0.5,0-1,0-1.5,0c0,0.2,0,0.4-0.1,0.6c-0.5,0-1,0-1.4,0c0,0.2-0.1,0.3-0.1,0.5c-0.4,0-0.7,0-1,0
						c0,0.2-0.1,0.3-0.1,0.5c-0.5,0-1,0-1.5,0c0,0.2,0,0.4,0,0.6c-0.4,0-0.7,0-1.1,0c0,0.2,0,0.3,0.1,0.5c0.9,0,1.8,0,2.7,0
						c0,15.9,0,31.8,0,47.7c3.4,0,6.7,0,10,0c0-0.2,0.1-0.3,0.1-0.5c0.2,0,0.4,0,0.6,0c0-4.6,0-9.2,0-13.8c0.5-0.2,0.5,0.1,0.5,0.4
						c0.2,0,0.3,0,0.5,0.1c0,0.4,0,0.7,0,1c0.2,0,0.4,0,0.6,0c0,0.2,0,0.3,0.1,0.4c0.2,0,0.3,0,0.5,0.1c0,0.4,0,0.7,0,1
						c0.2,0,0.3,0,0.5,0c0,0.2,0,0.3,0.1,0.5c0.2,0,0.4,0,0.6,0.1c0,0.4,0,0.7,0,1c0.2,0,0.3,0,0.5,0c0,0.2,0,0.3,0.1,0.4
						c0.2,0,0.3,0.1,0.4,0.1c0,0.2,0,0.3,0.1,0.4c0.2,0,0.3,0,0.5,0c0,0.4,0,0.7,0,1.1c0.2,0,0.4,0,0.6,0c0,0.2,0,0.3,0,0.5
						c0.2,0,0.3,0,0.5,0c0,0.4,0,0.7,0,1.1c0.2,0,0.3,0,0.5,0c0,0.2,0.1,0.3,0.1,0.5c0.2,0,0.4,0,0.6,0c0,0.4,0,0.7,0,1.1
						c0.2,0,0.3,0,0.5,0c0,0.2,0,0.3,0,0.5c0.2,0,0.3,0,0.4,0.1c0,0.2,0.1,0.3,0.1,0.4c0.2,0,0.3,0.1,0.5,0.1c0,0.4,0,0.7,0,1
						c0.2,0,0.4,0,0.6,0c0,0.2,0,0.3,0,0.4c0.2,0,0.3,0.1,0.5,0.1c0,0.4,0,0.7,0,1C524.6,478.5,524.7,478.6,524.9,478.6z"/>
					<path d="M438.1,509.8c0,1.6,0,3.2,0,4.8c42.9,0,85.7,0,128.6,0c0-1.6,0-3.2,0-4.8C523.8,509.8,481,509.8,438.1,509.8z"/>
					<path d="M566.6,391.1c-42.9,0-85.8,0-128.6,0c0,1.5,0,3.1,0,4.7c42.9,0,85.8,0,128.6,0C566.6,394.2,566.6,392.7,566.6,391.1z"
						/>
					<path d="M451.7,428.6c0-0.2,0-0.3,0-0.5c-0.4,0-0.6-0.1-0.4-0.5c0.1,0,0.3,0,0.4,0c0-0.4,0-0.7,0-1.1c-0.2,0-0.3,0-0.5,0
						c0-0.2,0-0.3,0-0.5c-0.2,0-0.3,0-0.5,0c0,0.2,0,0.3-0.1,0.5c-0.4,0-0.7,0-1,0c0,0.2,0,0.4,0,0.6c-0.5,0-1,0-1.5,0
						c0,0.2-0.1,0.3-0.1,0.5c-0.4,0-0.7,0-1,0c0,0.2,0,0.3,0,0.5c-0.5,0-1,0-1.4,0c0,0.2-0.1,0.3-0.1,0.5c-0.5,0-1,0-1.5,0
						c0,0.2,0,0.4-0.1,0.6c-0.4,0-0.7,0-1,0c0,0.2-0.1,0.3-0.1,0.5c-0.5,0-1,0-1.5,0c0,0.2,0,0.3-0.1,0.5c-0.5,0-1,0-1.5,0
						c0,0.2,0,0.4,0,0.6c-0.3,0-0.7,0-1,0c0,0.2,0,0.3,0.1,0.5c0.9,0,1.7,0,2.6,0c0,15.9,0,31.8,0,47.7c3.4,0,6.7,0,10.1,0
						c0-0.2,0-0.3,0-0.5c0.2,0,0.3,0,0.5,0c0-0.4,0-0.7,0-1c-0.2,0-0.3-0.1-0.5-0.1c0-0.2,0-0.3,0-0.4c0.2,0,0.3,0,0.4,0
						c0-15.9,0-31.8,0-47.7c-0.2,0-0.3-0.1-0.4-0.1c0-0.2,0-0.4,0-0.5C451.4,428.6,451.5,428.6,451.7,428.6z"/>
					<path d="M549.8,461.5c0,0.2,0,0.4,0.1,0.5c0.5,0,1.1,0,1.6,0c0-0.2,0-0.4,0-0.5c0.3,0,0.6,0,0.9,0c0,0.2,0,0.4,0.1,0.5
						c0.4,0,0.7,0,1,0c0-0.2,0-0.4,0-0.5c0.7,0,1.4,0,2.1,0c0,0.2,0,0.4,0.1,0.6c1.4,0,2.8,0,4.3,0c0-0.2,0-0.3,0-0.5
						c0.2,0,0.3,0,0.4,0c0,0.2,0,0.4,0.1,0.6c0.3,0,0.6,0,0.9,0c0-0.2,0-0.4,0-0.5c0.2,0,0.4,0,0.6,0c0,0.2,0,0.4,0,0.5
						c0.2,0,0.3,0,0.5,0c0-0.2,0-0.4,0-0.5c0.7,0,1.4,0,2.1,0c0,0.2,0,0.4,0,0.5c0.2,0,0.3,0,0.4,0c0-0.2,0-0.4,0.1-0.6
						c0.2,0,0.4,0,0.5,0c0,0.2,0,0.4,0,0.5c0.2,0,0.3,0,0.5,0c0-0.2,0-0.4,0-0.5c0.2,0,0.3-0.1,0.5-0.1c0-0.7,0-1.4,0-2
						c-0.2,0-0.3,0-0.5-0.1c0-0.7,0-1.4,0-2c-0.2,0-0.3,0-0.5,0c0-0.6,0-1.1,0-1.5c-0.2,0-0.4,0-0.6-0.1c0-0.3,0-0.6,0-0.9
						c-0.2,0-0.3,0-0.5,0c0-0.2,0-0.4-0.1-0.5c-0.2,0-0.3-0.1-0.5-0.1c0-0.3,0-0.6,0-0.9c-0.2,0-0.3,0-0.5-0.1c0-0.4,0-0.7,0-1.1
						c-0.2,0-0.4,0-0.6,0c0-0.2,0-0.3,0-0.4c-0.2,0-0.3,0-0.4-0.1c0-0.2-0.1-0.3-0.1-0.5c-0.4,0-0.7,0-1,0c0-0.2,0-0.4,0-0.6
						c-0.2,0-0.3,0-0.4-0.1c0-0.2-0.1-0.3-0.1-0.5c-0.3,0-0.6,0-0.9,0c0-0.2,0-0.3-0.1-0.5c-0.2,0-0.4,0-0.6-0.1c0-0.2,0-0.4,0-0.6
						c-0.3,0-0.6,0-1,0c0-0.2,0-0.3-0.1-0.5c-0.5,0-1,0-1.5,0c0-0.2-0.1-0.3-0.1-0.5c-0.7,0-1.4,0-2,0c0-0.2-0.1-0.3-0.1-0.5
						c-1.6,0-3.2,0-4.7,0c0,0.2-0.1,0.3-0.1,0.5c-0.7,0-1.4,0-2,0c0,0.2-0.1,0.3-0.1,0.5c-0.5,0-1,0-1.5,0c0,0.2,0,0.3-0.1,0.5
						c-0.4,0-0.7,0-1.1,0c0,0.2,0,0.3,0,0.5c-0.2,0-0.3,0-0.5,0c0,0.2,0,0.3-0.1,0.5c-0.3,0-0.6,0-0.9,0c0,0.2-0.1,0.3-0.1,0.5
						c-0.2,0-0.4,0-0.5,0c0,0.2,0,0.4-0.1,0.6c-0.2,0-0.3,0.1-0.4,0.1c0,0.2,0,0.3,0,0.4c-0.2,0-0.3,0-0.4,0c0,0.2,0,0.3-0.1,0.5
						c-0.2,0-0.4,0-0.5,0c0,0.2,0,0.3,0,0.5c-0.2,0-0.3,0-0.5,0.1c0,0.2,0,0.4,0,0.5c-0.2,0-0.3,0.1-0.5,0.1c0,0.3,0,0.6,0,0.9
						c-0.2,0-0.4,0-0.6,0.1c0,0.2,0,0.4,0,0.5c-0.2,0-0.3,0.1-0.5,0.1c0,0.3,0,0.6,0,0.9c-0.2,0-0.3,0-0.5,0.1c0,0.4,0,0.7,0,1
						c-0.2,0-0.3,0.1-0.5,0.1c0,0.3,0,0.6,0,0.9c-0.2,0-0.4,0-0.6,0.1c0,0.7,0,1.4,0,2.1c-0.2,0-0.3,0-0.5,0c0,2.1,0,4.2,0,6.3
						c0.2,0,0.3,0.1,0.5,0.1c0,0.7,0,1.4,0,2c0.2,0,0.4,0,0.6,0.1c0,0.5,0,1,0,1.5c0.2,0,0.3,0.1,0.5,0.1c0,0.4,0,0.7,0,1
						c0.2,0,0.3,0.1,0.5,0.1c0,0.2,0,0.3,0,0.4c0.2,0,0.3,0.1,0.5,0.1c0,0.4,0,0.7,0,1c0.2,0,0.4,0,0.6,0.1c0,0.3,0,0.6,0,0.9
						c0.2,0,0.3,0,0.5,0.1c0,0.2,0,0.3,0.1,0.4c0.2,0,0.3,0.1,0.4,0.1c0,0.2,0,0.4,0,0.5c0.2,0,0.4,0,0.5,0.1c0,0.2,0,0.3,0.1,0.5
						c0.2,0,0.3,0,0.4,0c0,0.2,0,0.3,0,0.5c0.2,0,0.3,0,0.5,0.1c0,0.2,0,0.4,0.1,0.6c0.4,0,0.7,0,1,0c0,0.2,0,0.3,0,0.5
						c0.2,0,0.3,0,0.4,0.1c0,0.2,0.1,0.3,0.1,0.5c0.4,0,0.7,0,1,0c0,0.2,0,0.3,0,0.5c0.3,0,0.6,0,1,0c0,0.2,0,0.4,0,0.6
						c0.5,0,1,0,1.6,0c0,0.2,0,0.3,0.1,0.5c3,0,6,0,9,0c0-0.2,0.1-0.3,0.1-0.5c0.5,0,1,0,1.5,0c0-0.2,0-0.4,0.1-0.6c0.4,0,0.7,0,1,0
						c0-0.2,0-0.3,0-0.5c0.2,0,0.3,0,0.4-0.1c0-0.2,0-0.3,0.1-0.5c0.3,0,0.6,0,0.9,0c0-0.2,0-0.3,0-0.5c0.2,0,0.4,0,0.6-0.1
						c0-0.2,0-0.4,0-0.5c0.2,0,0.3,0,0.5,0c0-0.2,0-0.3,0-0.5c0.2,0,0.3,0,0.4-0.1c0-0.2,0.1-0.3,0.1-0.4c0.2,0,0.4,0,0.5,0
						c0-0.2,0-0.4,0.1-0.5c0.2,0,0.3,0,0.5-0.1c0-0.2,0-0.3,0-0.4c0.2,0,0.3-0.1,0.5-0.1c0-0.3,0-0.6,0-0.9c0.2,0,0.3-0.1,0.5-0.1
						c0-0.4,0-0.7,0-1c0.2,0,0.4,0,0.6,0c0-0.3,0-0.6,0-0.9c0.2,0,0.3-0.1,0.5-0.1c0-0.5,0-1,0-1.4c0.2,0,0.3,0,0.4-0.1
						c0-0.4,0-0.7,0-1c-0.9,0-1.7,0-2.6,0c0,0.4,0,0.7,0,1c-0.2,0-0.3,0-0.5,0c0,0.3,0,0.7-0.1,1c-0.2,0-0.4,0-0.6,0
						c0,0.4,0,0.7,0,1c-0.2,0-0.3,0.1-0.5,0.1c0,0.3,0,0.6,0,0.9c-0.2,0-0.3,0-0.5,0.1c0,0.2,0,0.4-0.1,0.6c-0.2,0-0.4,0-0.5,0
						c0,0.2,0,0.3,0,0.5c-0.2,0-0.3,0-0.4,0.1c0,0.2-0.1,0.3-0.1,0.5c-0.2,0-0.3,0-0.4,0c0,0.2,0,0.3,0,0.4c-0.2,0-0.3,0-0.5,0.1
						c0,0.2,0,0.4-0.1,0.6c-0.4,0-0.7,0-1,0c0,0.2,0,0.3,0,0.5c-0.4,0-0.7,0-1,0c0,0.2-0.1,0.3-0.1,0.5c-0.7,0-1.4,0-2,0
						c0,0.2,0,0.4,0,0.5c-0.9,0-1.7,0-2.6,0c0-0.2,0-0.4,0-0.6c-0.7,0-1.4,0-2,0c0-0.2-0.1-0.3-0.1-0.5c-0.2,0-0.4,0-0.5,0
						c0-0.2,0-0.3,0-0.5c-0.2,0-0.3,0-0.5-0.1c0-0.4,0-0.7,0-1c-0.2,0-0.3-0.1-0.5-0.1c0-0.7,0-1.4,0-2c-0.2,0-0.4,0-0.5-0.1
						c0-3.4,0-6.7,0-10.1C549.1,461.5,549.5,461.5,549.8,461.5z M548.8,458.9c0-2.3,0-4.6,0-6.8c0.2,0,0.3,0,0.5,0
						c0-0.3,0-0.6,0-0.9c0.2,0,0.3,0,0.5-0.1c0-0.2,0-0.3,0-0.5c0.1,0,0.3-0.1,0.5-0.1c0-0.1,0-0.3,0-0.4c1.2,0,2.4,0,3.7,0
						c0,0.1,0,0.3,0,0.5c0.4,0,0.7,0,1,0c0,0.2,0,0.4,0.1,0.6c0.1,0,0.3,0,0.5,0.1c0,0.5,0,1,0,1.4c0.2,0,0.4,0,0.6,0
						c0,2.1,0,4.2,0,6.3C553.7,458.9,551.3,458.9,548.8,458.9z"/>
					<path d="M483.6,478.6c0,0.2,0,0.3,0,0.5c3.3,0,6.6,0,10,0c0-10.4,0-20.8,0-31.2c-0.3,0-0.6,0-0.9,0c0,0.2-0.1,0.3-0.1,0.5
						c-0.4,0-0.7,0-1,0c0,0.2-0.1,0.3-0.1,0.5c-0.4,0-0.7,0-1,0c0,0.2,0,0.4,0,0.6c-0.5,0-1,0-1.4,0c0,0.2-0.1,0.3-0.1,0.5
						c-0.5,0-1,0-1.5,0c0,0.2,0,0.3-0.1,0.5c-0.5,0-1,0-1.5,0c0,0.2,0,0.4,0,0.6c-0.4,0-0.7,0-1,0c0,0.2-0.1,0.3-0.1,0.5
						c-0.5,0-1,0-1.5,0c0,0.2,0,0.3,0,0.5c-0.5,0-1,0-1.5,0c0,0.2-0.1,0.3-0.1,0.5c-0.3,0-0.6,0-0.9,0c0,0.2,0,0.4,0,0.6
						c0.9,0,1.7,0,2.6,0c0,8.5,0,17,0,25.4C483.2,478.5,483.4,478.6,483.6,478.6z"/>
					<path d="M472.3,479c0-10.4,0-20.8,0-31.2c-0.2,0-0.3,0-0.4,0c0,0.2-0.1,0.3-0.1,0.5c-0.5,0-1,0-1.5,0c0,0.2-0.1,0.3-0.1,0.5
						c-0.3,0-0.6,0-0.9,0c0,0.2,0,0.4,0,0.6c-0.5,0-1,0-1.5,0c0,0.2-0.1,0.3-0.1,0.5c-0.5,0-1,0-1.5,0c0,0.2,0,0.3-0.1,0.5
						c-0.5,0-1,0-1.6,0c0,0.2,0,0.4-0.1,0.6c-0.3,0-0.6,0-0.9,0c0,0.2-0.1,0.3-0.1,0.5c-0.5,0-1,0-1.5,0c0,0.2-0.1,0.3-0.1,0.5
						c-0.5,0-1,0-1.5,0c0,0.2-0.1,0.3-0.1,0.5c-0.4,0-0.7,0-1,0c0,0.2,0,0.4,0,0.6c1.1,0,2.1,0,3.2,0c0,8.7,0,17.3,0,25.9
						C465.7,479,469,479,472.3,479z"/>
					<path d="M493.6,435.1c-0.2,0-0.3,0-0.5-0.1c0-0.4,0-0.7,0-1c-0.2,0-0.3,0-0.5,0c0-0.2,0-0.3-0.1-0.5c-0.2,0-0.4,0-0.5,0
						c0-0.2,0-0.3,0-0.4c-0.2,0-0.3-0.1-0.5-0.1c0-0.2,0-0.4,0-0.5c-0.2,0-0.3-0.1-0.4-0.1c0-0.2-0.1-0.3-0.1-0.5c-0.4,0-0.7,0-1,0
						c0-0.2,0-0.3-0.1-0.5c-1.2,0-2.4,0-3.6,0c0,0.2-0.1,0.3-0.1,0.5c-0.4,0-0.7,0-1,0c0,0.2-0.1,0.3-0.1,0.5c-0.3,0-0.6,0-0.9,0
						c0,0.2,0,0.4,0,0.6c-0.2,0-0.3,0-0.5,0.1c0,0.3,0,0.6,0,0.9c-0.2,0-0.4,0-0.6,0c0,0.4,0,0.7,0,1c-0.2,0-0.3,0.1-0.5,0.1
						c0,1.2,0,2.4,0,3.6c0.2,0,0.3,0,0.5,0c0,0.4,0,0.7,0,1.1c0.2,0,0.4,0,0.6,0c0,0.2,0,0.3,0,0.5c0.2,0,0.3,0,0.4,0.1
						c0,0.2,0.1,0.3,0.1,0.5c0.2,0,0.3,0,0.4,0c0,0.2,0,0.3,0,0.4c0.2,0,0.3,0,0.5,0.1c0,0.2,0,0.4,0.1,0.6c0.5,0,1,0,1.5,0
						c0,0.2,0,0.3,0,0.5c0.9,0,1.8,0,2.6,0c0-0.2,0.1-0.3,0.1-0.5c0.3,0,0.6,0,0.9,0c0-0.2,0-0.4,0.1-0.6c0.4,0,0.7,0,1.1,0
						c0-0.2,0-0.3,0-0.5c0.2,0,0.3,0,0.5,0c0-0.2,0-0.3,0.1-0.5c0.2,0,0.4,0,0.6,0c0-0.4,0-0.7,0-1.1c0.2,0,0.3,0,0.5-0.1
						c0-0.3,0-0.6,0-0.9c0.2,0,0.3-0.1,0.5-0.1C493.6,437.1,493.6,436.1,493.6,435.1z"/>
					<path d="M472.3,434.6c-0.2,0-0.3-0.1-0.5-0.1c0-0.2,0-0.4,0-0.5c-0.2,0-0.3,0-0.5,0c0-0.3,0-0.6,0-0.9c-0.2,0-0.3-0.1-0.5-0.1
						c0-0.2,0-0.4,0-0.6c-0.4,0-0.7,0-1,0c0-0.2-0.1-0.3-0.1-0.5c-0.4,0-0.7,0-1,0c0-0.2,0-0.3,0-0.5c-1.2,0-2.4,0-3.6,0
						c0,0.2-0.1,0.3-0.1,0.5c-0.3,0-0.6,0-0.9,0c0,0.2,0,0.3-0.1,0.5c-0.2,0-0.3,0.1-0.4,0.1c0,0.2,0,0.4,0,0.5c-0.2,0-0.4,0-0.5,0
						c0,0.2,0,0.3-0.1,0.5c-0.2,0-0.3,0-0.4,0c0,0.2,0,0.3,0,0.5c-0.2,0-0.3,0-0.5,0c0,0.5,0,1.1,0,1.6c-0.2,0-0.4,0-0.6,0
						c0,0.9,0,1.8,0,2.7c0.2,0,0.4,0,0.6,0.1c0,0.3,0,0.6,0,0.9c0.2,0,0.3,0.1,0.5,0.1c0,0.4,0,0.7,0,1c0.2,0,0.3,0.1,0.4,0.1
						c0,0.2,0.1,0.3,0.1,0.4c0.2,0,0.4,0,0.5,0c0,0.2,0,0.3,0.1,0.5c0.3,0,0.6,0,0.9,0c0,0.2,0,0.4,0,0.6c0.4,0,0.7,0,1,0
						c0,0.2,0.1,0.3,0.1,0.5c0.9,0,1.7,0,2.5,0c0-0.2,0-0.3,0-0.5c0.5,0,1.1,0,1.6,0c0-0.2,0-0.4,0-0.6c0.2,0,0.3,0,0.5,0
						c0-0.2,0-0.3,0.1-0.5c0.2,0,0.4,0,0.5,0c0-0.2,0-0.3,0-0.5c0.2,0,0.3,0,0.5,0c0-0.2,0-0.3,0.1-0.4c0.2,0,0.3,0,0.5-0.1
						c0-0.4,0-0.7,0-1c0.2,0,0.3,0,0.5,0C472.3,437.3,472.3,436,472.3,434.6z"/>
				</g>
			</g>
		</g>
	</g>
</g>
</svg>
